<?xml version="1.0" encoding="utf-8"?>
<!-- Generator: Adobe Illustrator 27.0.0, SVG Export Plug-In . SVG Version: 6.00 Build 0)  -->
<svg version="1.1" id="Warstwa_1" xmlns="http://www.w3.org/2000/svg" xmlns:xlink="http://www.w3.org/1999/xlink" x="0px" y="0px"
	 viewBox="0 0 300 225" style="enable-background:new 0 0 300 225;" xml:space="preserve">
<style type="text/css">
	.st0{fill:#172815;}
	.st1{fill-rule:evenodd;clip-rule:evenodd;fill:#FFC800;}
	.st2{fill-rule:evenodd;clip-rule:evenodd;fill:#00AB4E;stroke:#000000;stroke-width:0.1;}
	.st3{fill-rule:evenodd;clip-rule:evenodd;fill:#00AC4E;stroke:#000000;stroke-width:0.1;}
	.st4{fill-rule:evenodd;clip-rule:evenodd;fill:#0E8D49;stroke:#000000;stroke-width:0.1;}
	.st5{stroke:#000000;stroke-width:0.1;stroke-linecap:round;}
	.st6{fill:none;stroke:#000000;stroke-width:0.1;}
	.st7{fill-rule:evenodd;clip-rule:evenodd;fill:#00AC4E;}
	.st8{fill-rule:evenodd;clip-rule:evenodd;fill:#FFFFFF;stroke:#000000;stroke-width:0.1;}
	.st9{fill-rule:evenodd;clip-rule:evenodd;fill:#252122;stroke:#000000;stroke-width:0.1;}
	.st10{fill:none;stroke:#000000;stroke-width:0.1;stroke-linecap:round;}
	.st11{fill-rule:evenodd;clip-rule:evenodd;fill:#D6AC00;stroke:#000000;stroke-width:0.1;}
	.st12{fill:none;stroke:#504E4B;stroke-width:0.1;stroke-linecap:round;}
	.st13{fill:#FEFFFF;stroke:#000000;stroke-width:0.1;stroke-linecap:round;}
	.st14{fill-rule:evenodd;clip-rule:evenodd;fill:#FDAF17;stroke:#010000;stroke-width:0.1;}
	.st15{fill-rule:evenodd;clip-rule:evenodd;stroke:#000000;stroke-width:0.1;}
	.st16{fill-rule:evenodd;clip-rule:evenodd;fill:#FDAF17;stroke:#010000;stroke-width:0.1;stroke-miterlimit:4;}
	.st17{fill-rule:evenodd;clip-rule:evenodd;stroke:#000000;stroke-width:0.1;stroke-miterlimit:4;}
	.st18{fill:#FFFFFF;}
</style>
<rect class="st0" width="300" height="225"/>
<g id="g3342" transform="translate(-752.3692,0.000000)">
	<g id="g3141">
		<path id="path1334" class="st1" d="M796.27,177.57l-9.47,0.05v14.22c0.39,4.61,4.41,8.95,9.47,8.8V177.57z"/>
		<path id="path2482" class="st2" d="M790.86,182.96l0.01-0.74c0.01-0.3-0.16-0.33-0.3-0.23c-0.15,0.11-0.27,0.01-0.22-0.4
			c0.08-0.52-0.27-0.61-0.38-0.38c-0.17,0.28-0.29,0.04-0.23-0.27c0.06-0.53-0.28-0.67-0.46-0.35c-0.19,0.24-0.29,0.2-0.34-0.08
			c-0.01-0.25-0.24-0.25-0.46-0.25c-0.25,0.04-0.38,0.19-0.45,0.41c-0.05,0.3,0.07,0.42,0.29,0.46c0.25-0.01,0.42,0.18,0.08,0.37
			c-0.3,0.19-0.31,0.47,0.3,0.45c0.6-0.1,0.48,0.17,0.33,0.22c-0.33,0.18-0.02,0.46,0.46,0.38c0.48-0.06,0.6,0.15,0.42,0.22
			c-0.22,0.2-0.01,0.38,0.37,0.29C790.47,183.02,790.67,182.98,790.86,182.96z"/>
		<path id="path2486" class="st2" d="M790.85,187.99l0.02-0.8c0.02-0.32-0.18-0.36-0.33-0.25c-0.17,0.12-0.3,0.01-0.24-0.43
			c0.09-0.57-0.3-0.66-0.42-0.42c-0.19,0.31-0.32,0.05-0.26-0.3c0.07-0.58-0.31-0.73-0.51-0.39c-0.21,0.27-0.32,0.21-0.38-0.09
			c-0.01-0.27-0.26-0.27-0.51-0.27c-0.27,0.04-0.42,0.21-0.5,0.45c-0.06,0.32,0.08,0.46,0.32,0.51c0.28-0.01,0.46,0.2,0.09,0.4
			c-0.33,0.2-0.35,0.52,0.33,0.49c0.66-0.11,0.53,0.19,0.36,0.24c-0.37,0.19-0.02,0.5,0.51,0.42c0.53-0.06,0.66,0.16,0.47,0.24
			c-0.24,0.22-0.01,0.41,0.41,0.31C790.43,188.05,790.65,188.01,790.85,187.99z"/>
		<path id="path2488" class="st2" d="M790.9,191.8l-0.22-0.74c-0.08-0.3-0.27-0.28-0.38-0.14c-0.12,0.16-0.28,0.1-0.35-0.33
			c-0.08-0.54-0.47-0.52-0.51-0.26c-0.08,0.34-0.28,0.13-0.32-0.2c-0.11-0.55-0.5-0.58-0.59-0.21c-0.11,0.3-0.24,0.29-0.37,0.02
			c-0.09-0.24-0.32-0.17-0.55-0.1c-0.24,0.12-0.33,0.31-0.33,0.55c0.04,0.31,0.21,0.4,0.44,0.37c0.26-0.09,0.49,0.05,0.2,0.34
			c-0.24,0.28-0.17,0.57,0.45,0.36c0.58-0.29,0.54,0.02,0.4,0.12c-0.28,0.28,0.12,0.46,0.6,0.24c0.47-0.21,0.66-0.04,0.5,0.09
			c-0.16,0.27,0.11,0.38,0.47,0.17C790.52,191.97,790.71,191.87,790.9,191.8z"/>
		<path id="path2490" class="st2" d="M792.07,183.15l0.12-0.73c0.04-0.29,0.22-0.3,0.34-0.17c0.13,0.14,0.27,0.06,0.29-0.35
			c0.02-0.52,0.38-0.55,0.44-0.31c0.12,0.31,0.28,0.09,0.28-0.23c0.04-0.53,0.4-0.61,0.52-0.26c0.14,0.27,0.25,0.25,0.35-0.02
			c0.06-0.24,0.28-0.2,0.5-0.16c0.24,0.08,0.34,0.25,0.37,0.48c0,0.3-0.15,0.4-0.37,0.4c-0.25-0.06-0.45,0.1-0.15,0.35
			c0.26,0.24,0.22,0.52-0.38,0.39c-0.57-0.21-0.5,0.08-0.36,0.16c0.29,0.23-0.06,0.45-0.52,0.29c-0.46-0.14-0.61,0.04-0.45,0.14
			c0.18,0.24-0.06,0.37-0.41,0.22C792.44,183.27,792.25,183.19,792.07,183.15z"/>
		<path id="path2492" class="st2" d="M792.4,187.58l0.05-0.8c0.01-0.32,0.21-0.35,0.35-0.22c0.16,0.14,0.3,0.04,0.28-0.41
			c-0.04-0.57,0.35-0.64,0.46-0.38c0.16,0.32,0.31,0.07,0.28-0.27c-0.02-0.59,0.37-0.7,0.54-0.34c0.18,0.28,0.31,0.24,0.38-0.06
			c0.04-0.27,0.29-0.24,0.53-0.22c0.27,0.07,0.41,0.24,0.46,0.49c0.03,0.33-0.12,0.45-0.36,0.48c-0.28-0.03-0.48,0.16-0.12,0.39
			c0.31,0.23,0.3,0.55-0.37,0.46c-0.65-0.17-0.54,0.14-0.38,0.21c0.35,0.22-0.02,0.5-0.55,0.37c-0.52-0.11-0.67,0.1-0.49,0.2
			c0.22,0.24-0.03,0.41-0.43,0.28C792.82,187.68,792.6,187.62,792.4,187.58z"/>
		<path id="path2221" class="st3" d="M791.38,182.26l0,1.14c-0.9-1-1.81-2.03-2.94-2.71c1.03,0.91,1.93,1.89,2.82,2.86l-0.45-0.25
			l-0.11,0.12c0.23,0.17,0.58,0.3,0.54,0.57l-0.28-0.11l-0.04,0.14c0.17,0.1,0.36,0.18,0.29,0.44l-0.01,0.64l-0.12,0.11l-0.48-0.47
			l-0.11,0.15l0.6,0.63l-0.39-0.19l-0.04,0.13c0.25,0.14,0.5,0.27,0.55,0.63l-0.08,2.11c-0.85-0.87-1.78-1.91-2.79-2.6l2.83,2.93
			l-0.34-0.23l-0.13,0.13c0.27,0.09,0.46,0.28,0.43,0.74l0.01,0.41l-0.53-0.37l-0.04,0.22l0.62,0.45l-0.4-0.08l-0.07,0.14
			c0.24,0.03,0.43,0.13,0.41,0.53l-0.02,1.24c-1.07-0.56-2.13-0.95-3.2-1.31l2.93,1.47l0.22,0.43v1.46
			c-0.03,0.62-0.21,1.83-0.51,1.85l-0.31,0.03c-0.12,0.1-0.24,0.09-0.38,0c-0.28-0.24-0.43-0.09-0.55,0.14
			c0.13-0.07,0.26-0.15,0.41-0.04l0.28-0.03c-0.46,0.07-0.35,0.35-0.38,0.57c0.17-0.39,0.45-0.37,0.71-0.45
			c0.49,0.11,0.58-0.21,0.72-0.46c-0.11,0.25-0.12,0.57-0.53,0.62c-0.42-0.05-0.44,0.2-0.44,0.45c0.05-0.28,0.4-0.37,0.67-0.52
			c-0.28,0.23-0.42,0.44-0.32,0.62c0.12-0.2,0.23-0.43,0.45-0.49c0.2-0.1,0.29-0.3,0.4-0.49c0.04,0.18,0.11,0.37-0.04,0.51
			c-0.1,0.21-0.01,0.37,0.03,0.54c0.05-0.35,0.23-0.52,0.41-0.68c-0.2,0.28-0.08,0.44,0.1,0.58c-0.03-0.2-0.03-0.38,0.1-0.54
			c-0.03-0.21,0.04-0.35,0.15-0.46c0.18,0.36,0.2,0.76,0.24,1.17c0.05-0.15,0.14-0.29,0.08-0.49c0.2,0.08,0.31,0.26,0.42,0.45
			c0.03-0.4-0.45-0.59-0.48-1.13c0.1,0.2,0.08,0.54,0.42,0.45c0.27,0,0.32,0.14,0.34,0.3c-0.06,0.17,0.04,0.25,0.21,0.3
			c-0.07-0.13-0.12-0.27-0.1-0.43c0.17,0.01,0.24,0.36,0.41,0.43c0.08,0.01,0.14,0,0.12-0.08c-0.21-0.1-0.29-0.52-0.49-0.51
			c-0.2-0.07-0.32-0.19-0.43-0.33c0.34-0.2,0.55-0.06,0.75,0.11c0.2,0.2,0.56,0.34,0.5,0.65l0.08,0.01l0.07-0.22
			c0.1,0.17,0.19,0.33,0.4,0.47l0.16-0.04c-0.15-0.13-0.26-0.27-0.29-0.45c-0.05-0.1-0.08-0.22-0.27-0.21
			c-0.25-0.07-0.37-0.21-0.48-0.36c-0.19-0.23-0.44-0.3-0.72-0.27c-0.65-0.03-0.46-0.48-0.61-0.76l0-1.73
			c0.12-0.4,0.37-0.54,0.62-0.68c-0.27-0.05-0.53-0.03-0.77,0.29l-0.03-2.55c0.16-0.38,0.39-0.6,0.62-0.82l-0.11-0.25l-0.48,0.54
			l-0.14-0.06c-0.14-0.86,0.23-1,0.58-1.17l-0.06-0.2l-0.49,0.34c0.86-1.08,1.84-2.09,3.04-2.96c-1.08,0.63-2.3,1.47-3.22,2.67
			v-2.23c0.09-0.29,0.29-0.4,0.48-0.53l-0.1-0.16l-0.33,0.15l0.74-0.67l-0.11-0.21l-0.82,0.69l0.04-0.88
			c0.05-0.25,0.19-0.3,0.3-0.43l-0.09-0.18l-0.24,0.18c0.91-1.01,2.09-1.7,3.22-2.45c-1.29,0.6-2.54,1.26-3.47,2.32l0.06-1.39
			L791.38,182.26z"/>
		<path id="path2494" class="st2" d="M792.23,191.67l0.16-0.75c0.06-0.31,0.25-0.3,0.37-0.17c0.13,0.15,0.28,0.07,0.32-0.35
			c0.04-0.55,0.43-0.56,0.49-0.3c0.11,0.33,0.29,0.11,0.31-0.22c0.07-0.56,0.45-0.62,0.57-0.26c0.14,0.29,0.26,0.27,0.38-0.01
			c0.07-0.25,0.31-0.2,0.54-0.14c0.25,0.1,0.36,0.28,0.37,0.52c-0.01,0.31-0.18,0.41-0.41,0.41c-0.26-0.07-0.48,0.09-0.17,0.36
			c0.26,0.26,0.21,0.55-0.42,0.39c-0.6-0.24-0.54,0.07-0.39,0.15c0.3,0.26-0.09,0.47-0.58,0.28c-0.49-0.17-0.66,0.01-0.49,0.13
			c0.18,0.25-0.08,0.39-0.45,0.21C792.62,191.81,792.42,191.73,792.23,191.67z"/>
		<path id="path2225" class="st3" d="M791.87,191.92c0.95-0.8,2.11-1.3,3.22-1.88c-1.11,0.65-2.19,1.32-3.13,2.11"/>
		<path id="path2293" class="st2" d="M790.97,181.51l1.15,0.04c-0.01-0.53,0.2-1.5-0.52-1.58
			C790.89,180.04,791,180.83,790.97,181.51z"/>
		<path id="path2227" class="st4" d="M790.79,181.52h1.51c-0.03,0.42-0.19,0.79-0.81,0.8C790.77,182.26,790.8,181.79,790.79,181.52z
			"/>
		<path id="path2229" class="st4" d="M791.93,181.53l0.29,0.32"/>
		<path id="path2231" class="st4" d="M791.58,181.53l0.54,0.53"/>
		<path id="path2233" class="st4" d="M791.21,181.51l0.71,0.71"/>
		<path id="path2235" class="st4" d="M790.89,181.52l0.76,0.77"/>
		<path id="path2237" class="st4" d="M790.78,181.72"/>
		<path id="path2239" class="st4" d="M790.8,181.72l0.53,0.56"/>
		<path id="path2241" class="st4" d="M792.19,181.51l-0.81,0.78"/>
		<path id="path2243" class="st4" d="M791.87,181.52l-0.72,0.7"/>
		<path id="path2245" class="st4" d="M791.57,181.52l-0.6,0.57"/>
		<path id="path2247" class="st4" d="M791.22,181.51l-0.38,0.39"/>
		<path id="path2249" class="st4" d="M790.91,181.52l-0.11,0.14"/>
		<path id="path2291" class="st4" d="M792.26,181.76l-0.56,0.53"/>
		<path id="path2295" class="st5" d="M791.67,179.9c0,0.03-0.03,0.05-0.06,0.05c-0.03,0-0.06-0.02-0.06-0.05
			c0-0.03,0.03-0.05,0.06-0.05C791.65,179.85,791.67,179.87,791.67,179.9z"/>
		<path id="path2316" class="st2" d="M789.5,184.93l0.78-1.02c-0.44-0.3-1.09-1.05-1.62-0.45
			C788.25,184.14,788.97,184.5,789.5,184.93z"/>
		<g id="g3070">
			<path id="path2320" class="st4" d="M789.44,185.02l0.88-1.23c0.32,0.27,0.53,0.61,0.18,1.13
				C790.04,185.47,789.67,185.17,789.44,185.02z"/>
			<path id="path2322" class="st4" d="M790.11,184.1l0.43-0.05"/>
			<path id="path2324" class="st4" d="M789.91,184.39l0.74-0.13"/>
			<path id="path2326" class="st4" d="M789.68,184.67l0.99-0.16"/>
			<path id="path2328" class="st4" d="M789.5,184.94l1.07-0.17"/>
			<path id="path2330" class="st4" d="M789.6,185.14"/>
			<path id="path2332" class="st4" d="M789.61,185.13l0.77-0.1"/>
			<path id="path2334" class="st4" d="M790.25,183.87l0.16,1.11"/>
			<path id="path2336" class="st4" d="M790.07,184.14l0.15,1"/>
			<path id="path2338" class="st4" d="M789.9,184.39l0.12,0.82"/>
			<path id="path2340" class="st4" d="M789.68,184.66l0.1,0.54"/>
			<path id="path2342" class="st4" d="M789.51,184.93l0.04,0.17"/>
			<path id="path2344" class="st4" d="M790.49,183.97l0.11,0.76"/>
		</g>
		<path id="path2348" class="st2" d="M793.65,184.82l-0.6-1.19c0.49-0.21,1.27-0.82,1.7-0.1
			C795.03,184.31,794.26,184.51,793.65,184.82z"/>
		<path id="path2352" class="st4" d="M793.68,184.91l-0.63-1.37c-0.37,0.2-0.64,0.5-0.39,1.07
			C793.01,185.24,793.42,185.02,793.68,184.91z"/>
		<path id="path2354" class="st4" d="M793.19,183.88l-0.41-0.13"/>
		<path id="path2356" class="st4" d="M793.34,184.21l-0.7-0.27"/>
		<path id="path2358" class="st4" d="M793.51,184.52l-0.94-0.35"/>
		<path id="path2360" class="st4" d="M793.63,184.82l-1.02-0.37"/>
		<path id="path2362" class="st4" d="M793.5,185"/>
		<path id="path2364" class="st4" d="M793.49,184.98l-0.73-0.24"/>
		<path id="path2366" class="st4" d="M793.1,183.63l-0.37,1.06"/>
		<path id="path2368" class="st4" d="M793.22,183.93l-0.34,0.95"/>
		<path id="path2370" class="st4" d="M793.35,184.2l-0.27,0.78"/>
		<path id="path2372" class="st4" d="M793.51,184.51l-0.2,0.51"/>
		<path id="path2374" class="st4" d="M793.62,184.81l-0.08,0.16"/>
		<path id="path2376" class="st4" d="M792.84,183.68l-0.25,0.73"/>
		<path id="path2380" class="st2" d="M793.72,189.32l-0.56-1.15c0.49-0.21,1.28-0.81,1.69-0.11
			C795.1,188.8,794.33,189,793.72,189.32z"/>
		<g id="g3126">
			<path id="path2384" class="st4" d="M793.76,189.42l-0.62-1.38c-0.37,0.2-0.64,0.49-0.4,1.07
				C793.09,189.74,793.5,189.52,793.76,189.42z"/>
			<path id="path2386" class="st4" d="M793.28,188.39l-0.41-0.14"/>
			<path id="path2388" class="st4" d="M793.43,188.71l-0.7-0.28"/>
			<path id="path2390" class="st4" d="M793.6,189.03l-0.93-0.36"/>
			<path id="path2392" class="st4" d="M793.72,189.33l-1.02-0.38"/>
			<path id="path2394" class="st4" d="M793.58,189.51"/>
			<path id="path2396" class="st4" d="M793.57,189.49l-0.73-0.25"/>
			<path id="path2398" class="st4" d="M793.19,188.14l-0.38,1.06"/>
			<path id="path2400" class="st4" d="M793.31,188.44l-0.35,0.95"/>
			<path id="path2402" class="st4" d="M793.44,188.71l-0.28,0.78"/>
			<path id="path2404" class="st4" d="M793.59,189.02l-0.2,0.51"/>
			<path id="path2406" class="st4" d="M793.71,189.32l-0.08,0.16"/>
			<path id="path2408" class="st4" d="M792.94,188.19l-0.26,0.72"/>
		</g>
		<path id="path2444" class="st2" d="M789.55,189.7l0.56-1.15c-0.49-0.21-1.28-0.81-1.69-0.11
			C788.16,189.18,788.94,189.39,789.55,189.7z"/>
		<g id="g3098">
			<path id="path2448" class="st4" d="M789.51,189.8l0.62-1.38c0.37,0.2,0.64,0.49,0.4,1.07
				C790.18,190.13,789.77,189.91,789.51,189.8z"/>
			<path id="path2450" class="st4" d="M789.98,188.77l0.41-0.14"/>
			<path id="path2452" class="st4" d="M789.84,189.09l0.7-0.28"/>
			<path id="path2454" class="st4" d="M789.67,189.41l0.93-0.36"/>
			<path id="path2456" class="st4" d="M789.55,189.71l1.02-0.38"/>
			<path id="path2458" class="st4" d="M789.69,189.89"/>
			<path id="path2460" class="st4" d="M789.69,189.88l0.73-0.25"/>
			<path id="path2462" class="st4" d="M790.07,188.52l0.38,1.06"/>
			<path id="path2464" class="st4" d="M789.95,188.82l0.35,0.95"/>
			<path id="path2466" class="st4" d="M789.83,189.09l0.28,0.78"/>
			<path id="path2468" class="st4" d="M789.67,189.41l0.2,0.51"/>
			<path id="path2470" class="st4" d="M789.56,189.7l0.08,0.16"/>
			<path id="path2472" class="st4" d="M790.33,188.57l0.26,0.72"/>
		</g>
		<path id="path2474" class="st5" d="M794.88,183.53c0,0.03-0.03,0.05-0.06,0.05c-0.03,0-0.06-0.02-0.06-0.05s0.03-0.05,0.06-0.05
			C794.85,183.47,794.88,183.5,794.88,183.53z"/>
		<path id="path2476" class="st5" d="M788.69,183.39c0,0.03-0.03,0.05-0.06,0.05s-0.06-0.02-0.06-0.05c0-0.03,0.03-0.05,0.06-0.05
			S788.69,183.36,788.69,183.39z"/>
		<path id="path2478" class="st5" d="M788.5,188.38c0,0.03-0.03,0.05-0.06,0.05c-0.03,0-0.06-0.02-0.06-0.05s0.03-0.05,0.06-0.05
			C788.47,188.33,788.5,188.35,788.5,188.38z"/>
		<path id="path2480" class="st5" d="M794.92,188.12c0,0.03-0.03,0.05-0.06,0.05c-0.03,0-0.06-0.02-0.06-0.05s0.03-0.05,0.06-0.05
			C794.89,188.07,794.92,188.09,794.92,188.12z"/>
		<path id="path2484" class="st6" d="M789.73,180.89h-0.01"/>
	</g>
	<g id="g3300">
		<path id="path2209" class="st7" d="M796.26,177.57l9.47,0.05v14.22c-0.39,4.61-4.41,8.95-9.47,8.8V177.57z"/>
		<g id="g3233">
			<g id="g2640" transform="translate(750.1832,0.000000)">
				<path id="path2594" class="st8" d="M50,189c0.07-1-0.48-1.64-0.88-2.37c-0.74-1.38-0.13-2.42,0.52-2.82
					c0.39-0.34,0.45-0.86-0.15-1.04l-3.02-0.81h2.39c0.13-0.14,0.31-0.25,0.55-0.24c0.05,0.25,0.22,0.5,0.59,0.66
					c0.6,0.13,0.96,0.92,0.32,1.69c-0.57,0.52-0.95,1.11-0.51,1.93c0.21,0.25,0.42,0.18,0.63-0.02c0.75-0.7,1.05-0.59,1.74-0.12
					c0.49,0.27,0.92,0.68,1.29,1.16c1.17,1.09,1.92,4.72,1.56,5.8c-0.03-0.05-0.07-0.08-0.07-0.17c0.16-1.18-0.34-2.14-0.68-3.15
					c0.36,1.04,0.76,2.06,0.61,3.18c-0.08,0.18-0.13,0.23-0.19,0.28c-0.35-0.93-0.76-1.79-1.72-2.22c-0.64-0.38-1.27-0.77-1.78-1.34
					l-0.16,0.36l-0.12-0.73c0.01,0.33-0.03,0.62-0.18,0.84c0.07-0.3,0.01-0.61-0.07-0.91c-0.04,0.29-0.16,0.43-0.27,0.59
					c0.08-0.25,0.08-0.52,0.06-0.79c-0.05,0.17-0.12,0.32-0.25,0.38c0.11-0.29,0.03-0.57-0.07-0.86L50,189z"/>
				<path id="path2596" class="st9" d="M49.4,181.7c0.68-0.09,0.95,0.3,1.23,0.69c0.18,0.32,0.39,0.75,0.81,0.84
					c-0.19,0.12-0.34-0.01-0.5-0.06l0.41,0.33c-0.23-0.03-0.47-0.05-0.68-0.34c-0.02-0.4-0.28-0.64-0.62-0.8
					C49.65,182.26,49.48,182.02,49.4,181.7z"/>
				<path id="path2604" class="st9" d="M54.41,189.87l-0.15-0.37c-0.02,0.08-0.02,0.11,0.04,0.37c-0.36-0.11-0.43-0.43-0.6-0.68
					c0.05,0.18,0.1,0.37,0.25,0.57c-0.39-0.08-0.44-0.36-0.63-0.64c0.04,0.14,0.03,0.25,0.13,0.4c-0.41-0.15-0.49-0.43-0.6-0.71
					c-0.03,0.2,0.07,0.32,0.13,0.46c-0.34,0.06-0.37-0.35-0.49-0.62c-0.03,0.11,0.01,0.27,0.06,0.43c-0.3-0.15-0.33-0.39-0.42-0.65
					c-0.02,0.12-0.03,0.26,0.04,0.42c-0.32-0.11-0.41-0.46-0.54-0.77c-0.01,0.15,0.01,0.25,0.07,0.49
					c-0.55-0.48-0.73-1.03-0.66-1.76c0.1-0.48,0.41-0.61,0.94-0.42c-0.22-0.18-0.68-0.53-1.11-0.16c-0.31,0.43-0.19,0.8-0.1,1.16
					l-0.35-0.2l0.53,0.37c0.06,0.1,0.04,0.14,0.03,0.19l-0.23-0.18l0.41,0.36c0,0.08,0,0.15-0.06,0.12l-0.32-0.26l0.46,0.44
					c0.05,0.1-0.01,0.1-0.07,0.11l-0.2-0.16c0.11,0.23,0.38,0.41,0.51,0.62c0.03,0.07,0,0.09-0.04,0.1
					c-0.08-0.11-0.16-0.16-0.23-0.2l0.3,0.46c0.02,0.14-0.03,0.17-0.13,0.14c-0.12-0.26-0.5-0.77-0.52-0.71
					c0.15,0.2,0.29,0.41,0.3,0.72c-0.04,0.05-0.1,0.03-0.14,0l0.06,0.38l0.15-0.32c0.21,0.21,0.44,0.42,0.68,0.61
					c0.14,0.11,0.2,0.12,0.35,0.23l0.82,0.51c0.83,0.37,1.35,1.24,1.66,2.16c0.05-0.05,0.1-0.12,0.14-0.2
					c-0.04,0.01,0.14,0.02,0.12-0.04c0.11-0.9-0.05-1.37-0.26-1.98C54.71,190.68,54.44,189.99,54.41,189.87z"/>
				<path id="path2606" class="st10" d="M49.91,183.77c-0.12,0.18-0.33,0.25-0.49,0.46"/>
				<path id="path2608" class="st10" d="M49.2,184.22c0,0.16,0.03,0.3,0.08,0.41"/>
				<path id="path2610" class="st10" d="M49.01,184.5c0.04,0.16,0.09,0.32,0.18,0.45"/>
				<path id="path2612" class="st10" d="M48.9,184.78c0.02,0.18,0.13,0.36,0.26,0.54"/>
				<path id="path2614" class="st6" d="M48.79,185.13"/>
				<path id="path2616" class="st10" d="M48.82,185.24c0.09,0.27,0.2,0.52,0.4,0.69"/>
				<path id="path2618" class="st10" d="M49.04,186.02c0.11,0.21,0.24,0.42,0.48,0.57"/>
				<path id="path2620" class="st10" d="M49.44,186.78c0.12,0.19,0.26,0.33,0.43,0.41"/>
				<path id="path2622" class="st10" d="M49.76,187.38c0.13,0.19,0.24,0.43,0.42,0.52"/>
				<path id="path2624" class="st8" d="M51.48,188.53c0.01,0.24,0.12,0.45,0.34,0.57c0.08-0.05-0.05-0.34-0.01-0.44
					C51.69,188.7,51.59,188.58,51.48,188.53z"/>
				<path id="path2626" class="st8" d="M51.9,188.76c-0.01,0.39,0.11,0.66,0.36,0.83c0.1-0.09-0.15-0.53-0.03-0.68
					C52.09,188.9,52,188.82,51.9,188.76z"/>
				<path id="path2628" class="st8" d="M52.25,188.93c0.04,0.32,0.11,0.74,0.3,0.78c0.05-0.14-0.09-0.54,0.01-0.58
					C52.4,189.12,52.34,189.01,52.25,188.93z"/>
				<path id="path2630" class="st8" d="M52.59,189.17l0.27,0.19c-0.16,0.01,0.1,0.42,0.05,0.62
					C52.59,189.91,52.63,189.48,52.59,189.17z"/>
				<path id="path2632" class="st8" d="M52.89,189.34c0.11-0.07,0.21,0,0.31,0.12c-0.18,0.19,0.22,0.71,0.19,0.84
					C53.07,190.3,52.8,189.5,52.89,189.34z"/>
				<path id="path2634" class="st8" d="M53.23,189.49c-0.04,0.42,0.27,0.94,0.68,1.13c0.09-0.08-0.47-0.58-0.37-1.06
					C53.46,189.56,53.44,189.62,53.23,189.49z"/>
				<path id="path2636" class="st8" d="M53.59,189.64c0.14,0.14,0.29,0.15,0.43,0.17c-0.08,0.16,0.34,0.79,0.3,0.94
					C53.82,190.45,53.64,190.09,53.59,189.64z"/>
				<path id="path2638" class="st8" d="M54.07,189.82c0.1,0.04,0.21,0.12,0.29,0.07l0.33,0.96c-0.28,0.11-0.51-0.65-0.66-1.02"/>
				<path id="path2592" class="st11" d="M46.51,181.98h2.38c0.23,0.09,0.18,0.43,0.38,0.59C48.23,182.39,47.27,182.2,46.51,181.98z"
					/>
				<path id="path2598" class="st12" d="M47.94,182.13l0.71-0.01"/>
				<path id="path2600" class="st13" d="M49.42,182.22c0,0.06-0.05,0.11-0.12,0.11s-0.12-0.05-0.12-0.11c0-0.06,0.05-0.11,0.12-0.11
					S49.42,182.16,49.42,182.22z"/>
				<path id="path2602" class="st5" d="M49.32,182.21c0,0.02-0.02,0.04-0.04,0.04c-0.02,0-0.04-0.02-0.04-0.04
					c0-0.02,0.02-0.04,0.04-0.04C49.3,182.17,49.32,182.19,49.32,182.21L49.32,182.21z"/>
			</g>
			<path id="path3231" class="st8" d="M804.4,190.81c0.11-0.07,0.34,0.23,0.51,0.1c0.06,0.14,0.1,0.34,0.14,0.49
				c0.07,0.38,0.12,0.67,0.05,1.21l-0.13,0.28C805.04,191.91,804.75,191.32,804.4,190.81z"/>
		</g>
		<g id="g3281" transform="translate(755.0933,0.000000)">
			<path id="path3261" class="st14" d="M46.83,189.79l0.45,0.32c-0.46,0.19,0.07,0.86-0.36,1.01c0.07-0.01,0.14-0.04,0.2-0.2
				c0,0.22-0.1,0.48-0.23,0.51c0.17-0.06,0.15-0.13,0.2-0.21c-0.23,0.7-0.31,1.38-0.41,2.06c0.02,0.2-0.14,0.43,0.17,0.51
				c0.29,0.05,0.56-0.16,0.65-0.01l-0.03,0.2c-0.08,0.06-0.15,0.01-0.35-0.01c-0.21-0.01-0.47-0.02-0.57-0.08
				c-0.26,0.02-0.63,0.39-1.02,0.37c-0.1,0.04-0.15,0.07-0.27,0.05l-0.06-0.18c0.15-0.06,0.26,0.03,0.38,0
				c0.15-0.03,0.3-0.09,0.46-0.16c-1.07,0.08-1,0-1.27,0.06c-0.12,0.06-0.24,0.07-0.35,0.01l-0.04-0.17c0.17-0.08,0.35-0.09,0.58,0
				c0.15,0.07,0.51,0,0.77-0.01c-0.09-0.1-0.31-0.14-0.57-0.17l-0.15,0.01l0.01-0.19c0.16-0.01,0.33,0.02,0.53,0.15
				c0.25,0.05,0.68,0.2,0.81-0.12c0.13-0.63,0.3-1.23,0.29-1.99c-0.03-0.24-0.05-0.39,0.07-0.65
				C46.94,190.61,46.81,190.12,46.83,189.79z"/>
			<path id="path3263" class="st15" d="M45.05,193.51c-0.05-0.07-0.4,0.03-0.4,0.13c0.13-0.06,0.26-0.02,0.4,0.02V193.51z"/>
			<path id="path3265" class="st15" d="M44.41,193.87l0.03,0.16c-0.2-0.03-0.3,0.02-0.39,0.09
				C44.13,194.01,44.17,193.88,44.41,193.87z"/>
			<path id="path3267" class="st15" d="M45.22,194.13c-0.21,0.05-0.27,0.16-0.3,0.28c0.09-0.1,0.21-0.14,0.35-0.13L45.22,194.13z"/>
			<path id="path3269" class="st15" d="M47.54,193.78c0.22,0.01,0.29,0.11,0.34,0.22c-0.11-0.08-0.23-0.1-0.37-0.07L47.54,193.78z"
				/>
		</g>
		<g id="g3288" transform="matrix(0.990952,-0.134212,0.134212,0.990952,705.1874,101.0856)">
			<path id="path3290" class="st16" d="M84.15,100.57l0.53,0.4c-0.36,0.25-0.03,1.58-0.46,1.73c0.07-0.01,0.14-0.04,0.2-0.2
				c0,0.22-0.1,0.48-0.23,0.51c0.17-0.06,0.15-0.13,0.2-0.21c-0.23,0.7-0.33,1.53-0.43,2.22c0.02,0.2-0.14,0.43,0.17,0.51
				c0.29,0.05,0.56-0.16,0.65-0.01l-0.03,0.2c-0.08,0.06-0.15,0.01-0.35-0.01c-0.21-0.01-0.47-0.02-0.57-0.08
				c-0.26,0.02-0.59,0.33-1.01,0.41c-0.1,0.04-0.13,0.13-0.25,0.11l-0.06-0.18c0.15-0.06,0.25,0.01,0.36-0.05
				c0.12-0.07,0.28-0.14,0.44-0.2c-1.07,0.08-1,0-1.27,0.06c-0.12,0.06-0.24,0.07-0.35,0.01l-0.04-0.17c0.17-0.08,0.35-0.09,0.58,0
				c0.15,0.07,0.51,0,0.77-0.01c-0.09-0.1-0.31-0.14-0.57-0.17l-0.15,0.01l0.01-0.19c0.16-0.01,0.33,0.02,0.53,0.15
				c0.25,0.05,0.68,0.2,0.81-0.12c0.13-0.63,0.32-1.38,0.31-2.15c-0.03-0.24-0.05-0.39,0.07-0.65
				C84.25,102.13,84.23,100.94,84.15,100.57z"/>
			<path id="path3292" class="st17" d="M82.33,105.26c-0.05-0.07-0.4,0.03-0.4,0.13c0.13-0.06,0.26-0.02,0.4,0.02V105.26z"/>
			<path id="path3294" class="st17" d="M81.69,105.62l0.03,0.16c-0.2-0.03-0.3,0.02-0.39,0.09
				C81.41,105.76,81.45,105.62,81.69,105.62z"/>
			<path id="path3296" class="st17" d="M82.52,105.97c-0.21,0.05-0.27,0.16-0.3,0.28c0.09-0.1,0.21-0.14,0.35-0.13L82.52,105.97z"/>
			<path id="path3298" class="st17" d="M84.81,105.53c0.22,0.01,0.29,0.11,0.34,0.22c-0.11-0.08-0.23-0.1-0.37-0.07L84.81,105.53z"
				/>
		</g>
	</g>
</g>
<g>
	<g>
		<path class="st18" d="M37.63,49.99v-19.6h3.64v19.6H37.63z"/>
		<path class="st18" d="M54.71,34.85c1.21,0,2.28,0.23,3.21,0.7c0.92,0.47,1.66,1.19,2.21,2.16c0.55,0.97,0.83,2.21,0.83,3.72v8.57
			h-3.5v-8.12c0-1.33-0.31-2.31-0.92-2.97c-0.62-0.65-1.49-0.98-2.63-0.98c-0.82,0-1.55,0.17-2.18,0.5
			c-0.63,0.34-1.12,0.84-1.47,1.5c-0.35,0.66-0.52,1.5-0.52,2.51v7.56h-3.47V35.04h3.33v4.06l-0.59-1.26
			c0.5-0.95,1.25-1.69,2.25-2.21C52.25,35.11,53.4,34.85,54.71,34.85z"/>
		<path class="st18" d="M68.7,49.99l-5.49-14.95h3.3l4.73,13.19h-1.6l4.93-13.19h2.94l4.82,13.19h-1.57l4.84-13.19h3.11l-5.52,14.95
			h-3.36l-4.34-11.68h1.01l-4.45,11.68H68.7z"/>
		<path class="st18" d="M98.16,50.19c-1.66,0-3.11-0.33-4.35-0.99s-2.2-1.57-2.88-2.72s-1.02-2.47-1.02-3.96
			c0-1.49,0.33-2.81,0.99-3.96c0.66-1.15,1.58-2.05,2.74-2.72s2.5-0.99,3.99-0.99c1.46,0,2.75,0.32,3.89,0.97s2.04,1.54,2.69,2.7
			c0.65,1.16,0.98,2.53,0.98,4.12c0,0.13,0,0.29-0.01,0.49s-0.02,0.37-0.04,0.52H92.67v-2.32h10.61l-1.4,0.73
			c0.02-0.84-0.15-1.59-0.52-2.25c-0.36-0.66-0.86-1.18-1.5-1.54c-0.63-0.36-1.38-0.55-2.24-0.55c-0.84,0-1.59,0.18-2.25,0.55
			c-0.66,0.36-1.17,0.88-1.53,1.55s-0.53,1.45-0.53,2.32v0.56c0,0.9,0.2,1.69,0.6,2.38c0.4,0.69,0.98,1.23,1.72,1.61
			c0.75,0.38,1.61,0.57,2.6,0.57c0.84,0,1.6-0.14,2.27-0.42c0.67-0.28,1.27-0.69,1.79-1.23l1.9,2.18c-0.69,0.78-1.54,1.38-2.56,1.79
			S99.47,50.19,98.16,50.19z"/>
		<path class="st18" d="M113.2,50.19c-1.27,0-2.47-0.16-3.61-0.49c-1.14-0.33-2.05-0.72-2.74-1.19l1.34-2.66
			c0.67,0.43,1.47,0.78,2.41,1.05c0.93,0.27,1.88,0.41,2.83,0.41c1.08,0,1.87-0.14,2.37-0.43c0.49-0.29,0.74-0.69,0.74-1.19
			c0-0.41-0.17-0.72-0.5-0.94c-0.34-0.21-0.78-0.38-1.32-0.49c-0.54-0.11-1.14-0.21-1.81-0.31c-0.66-0.09-1.33-0.22-1.99-0.38
			c-0.66-0.16-1.26-0.39-1.81-0.7c-0.54-0.31-0.98-0.72-1.32-1.25c-0.34-0.52-0.5-1.22-0.5-2.1c0-0.93,0.27-1.75,0.81-2.45
			c0.54-0.7,1.3-1.25,2.28-1.64c0.98-0.39,2.14-0.59,3.49-0.59c0.99,0,2,0.12,3.04,0.35s1.9,0.56,2.59,0.97l-1.37,2.66
			c-0.69-0.41-1.4-0.7-2.13-0.85c-0.73-0.16-1.45-0.24-2.16-0.24c-1.05,0-1.83,0.15-2.35,0.46c-0.52,0.31-0.78,0.7-0.78,1.19
			c0,0.45,0.17,0.78,0.5,1.01s0.77,0.4,1.32,0.52c0.54,0.12,1.14,0.23,1.81,0.34c0.66,0.1,1.32,0.23,1.97,0.39s1.26,0.38,1.81,0.67
			c0.55,0.29,0.99,0.7,1.33,1.22c0.34,0.52,0.5,1.2,0.5,2.04c0,0.95-0.28,1.77-0.83,2.45c-0.55,0.68-1.33,1.21-2.32,1.6
			C115.8,50,114.6,50.19,113.2,50.19z"/>
		<path class="st18" d="M120.98,37.95v-2.8h9.97v2.8H120.98z M128.6,50.19c-1.64,0-2.91-0.42-3.81-1.27
			c-0.9-0.85-1.34-2.1-1.34-3.74V31.74h3.47v13.33c0,0.71,0.19,1.26,0.56,1.65s0.9,0.59,1.57,0.59c0.76,0,1.4-0.21,1.9-0.62
			l1.01,2.49c-0.43,0.34-0.94,0.59-1.54,0.76C129.82,50.11,129.21,50.19,128.6,50.19z"/>
		<path class="st18" d="M136.1,55.62c-0.75,0-1.48-0.12-2.21-0.36c-0.73-0.24-1.33-0.58-1.79-1.01l1.37-2.55
			c0.35,0.3,0.75,0.54,1.19,0.73c0.44,0.19,0.9,0.28,1.39,0.28c0.63,0,1.15-0.16,1.54-0.48c0.39-0.32,0.76-0.86,1.09-1.62l0.84-1.9
			l0.34-0.45l5.63-13.22h3.36l-7,16.18c-0.47,1.1-0.98,1.97-1.55,2.62s-1.2,1.1-1.9,1.37C137.68,55.49,136.92,55.62,136.1,55.62z
			 M139.15,50.53l-6.75-15.48h3.61l5.52,12.91L139.15,50.53z"/>
		<path class="st18" d="M157.88,50.19c-1.57,0-2.96-0.33-4.19-0.99s-2.18-1.57-2.87-2.72c-0.69-1.15-1.04-2.47-1.04-3.96
			c0-1.51,0.34-2.84,1.04-3.98c0.69-1.14,1.65-2.04,2.87-2.7s2.62-0.99,4.19-0.99c1.44,0,2.72,0.3,3.84,0.9
			c1.12,0.6,1.96,1.47,2.52,2.6l-2.66,1.57c-0.45-0.69-0.99-1.21-1.64-1.55c-0.64-0.35-1.34-0.52-2.09-0.52
			c-0.86,0-1.63,0.19-2.32,0.57c-0.69,0.38-1.23,0.92-1.62,1.62c-0.39,0.7-0.59,1.53-0.59,2.48s0.2,1.78,0.59,2.49
			c0.39,0.71,0.93,1.26,1.62,1.64c0.69,0.38,1.47,0.57,2.32,0.57c0.75,0,1.44-0.17,2.09-0.52c0.64-0.35,1.19-0.87,1.64-1.58
			l2.66,1.57c-0.56,1.12-1.4,1.98-2.52,2.59S159.32,50.19,157.88,50.19z"/>
		<path class="st18" d="M165.72,55.62c-0.63,0-1.25-0.07-1.83-0.22c-0.59-0.15-1.09-0.36-1.5-0.64l1.01-2.6
			c0.54,0.39,1.22,0.59,2.04,0.59c0.63,0,1.13-0.2,1.48-0.6c0.35-0.4,0.53-0.99,0.53-1.78V35.04h3.5v15.23
			c0,1.64-0.45,2.94-1.36,3.91C168.7,55.14,167.4,55.62,165.72,55.62z M169.2,32.58c-0.65,0-1.19-0.21-1.61-0.62
			c-0.42-0.41-0.63-0.91-0.63-1.51c0-0.56,0.21-1.05,0.63-1.46c0.42-0.41,0.96-0.62,1.61-0.62c0.65,0,1.19,0.19,1.61,0.57
			c0.42,0.38,0.63,0.87,0.63,1.47s-0.21,1.11-0.62,1.53C170.41,32.37,169.87,32.58,169.2,32.58z"/>
		<path class="st18" d="M182.58,50.19c-1.66,0-3.11-0.33-4.35-0.99s-2.2-1.57-2.88-2.72s-1.02-2.47-1.02-3.96
			c0-1.49,0.33-2.81,0.99-3.96c0.66-1.15,1.58-2.05,2.74-2.72s2.5-0.99,3.99-0.99c1.46,0,2.75,0.32,3.89,0.97s2.04,1.54,2.69,2.7
			c0.65,1.16,0.98,2.53,0.98,4.12c0,0.13,0,0.29-0.01,0.49s-0.02,0.37-0.04,0.52h-12.46v-2.32h10.61l-1.4,0.73
			c0.02-0.84-0.15-1.59-0.52-2.25c-0.36-0.66-0.86-1.18-1.5-1.54c-0.63-0.36-1.38-0.55-2.24-0.55c-0.84,0-1.59,0.18-2.25,0.55
			c-0.66,0.36-1.17,0.88-1.53,1.55s-0.53,1.45-0.53,2.32v0.56c0,0.9,0.2,1.69,0.6,2.38c0.4,0.69,0.98,1.23,1.72,1.61
			c0.75,0.38,1.61,0.57,2.6,0.57c0.84,0,1.6-0.14,2.27-0.42c0.67-0.28,1.27-0.69,1.79-1.23l1.9,2.18c-0.69,0.78-1.54,1.38-2.56,1.79
			S183.89,50.19,182.58,50.19z"/>
		<path class="st18" d="M198.4,43.36v-2.3h28v2.3H198.4z"/>
		<path class="st18" d="M42.25,83.59l-6.5-19.6h3.78l5.8,17.72h-1.88l6.02-17.72h3.36l5.85,17.72h-1.82l5.94-17.72h3.47l-6.5,19.6
			h-3.86l-5.35-15.99h1.01l-5.4,15.99H42.25z"/>
		<path class="st18" d="M71.09,66.18c-0.65,0-1.19-0.21-1.61-0.62c-0.42-0.41-0.63-0.91-0.63-1.51c0-0.56,0.21-1.05,0.63-1.46
			c0.42-0.41,0.96-0.62,1.61-0.62s1.19,0.19,1.61,0.57c0.42,0.38,0.63,0.87,0.63,1.47s-0.21,1.11-0.62,1.53
			C72.3,65.97,71.76,66.18,71.09,66.18z M69.35,83.59V68.64h3.47v14.95H69.35z"/>
		<path class="st18" d="M84.44,83.79c-1.66,0-3.11-0.33-4.35-0.99s-2.2-1.57-2.88-2.72s-1.02-2.47-1.02-3.96
			c0-1.49,0.33-2.81,0.99-3.96c0.66-1.15,1.58-2.05,2.74-2.72s2.5-0.99,3.99-0.99c1.46,0,2.75,0.32,3.89,0.97s2.04,1.54,2.69,2.7
			c0.65,1.16,0.98,2.53,0.98,4.12c0,0.13,0,0.29-0.01,0.49s-0.02,0.37-0.04,0.52H78.95v-2.32h10.61l-1.4,0.73
			c0.02-0.84-0.15-1.59-0.52-2.25c-0.36-0.66-0.86-1.18-1.5-1.54c-0.63-0.36-1.38-0.55-2.24-0.55c-0.84,0-1.59,0.18-2.25,0.55
			c-0.66,0.36-1.17,0.88-1.53,1.55s-0.53,1.45-0.53,2.32v0.56c0,0.9,0.2,1.69,0.6,2.38c0.4,0.69,0.98,1.23,1.72,1.61
			c0.75,0.38,1.61,0.57,2.6,0.57c0.84,0,1.6-0.14,2.27-0.42c0.67-0.28,1.27-0.69,1.79-1.23l1.9,2.18c-0.69,0.78-1.54,1.38-2.56,1.79
			S85.75,83.79,84.44,83.79z"/>
		<path class="st18" d="M94.86,83.59V62.82h3.47v20.78H94.86z"/>
		<path class="st18" d="M109.64,83.79c-1.51,0-2.87-0.33-4.07-0.99s-2.15-1.57-2.84-2.73s-1.04-2.47-1.04-3.95
			c0-1.51,0.34-2.84,1.04-3.98c0.69-1.14,1.63-2.04,2.83-2.7s2.56-0.99,4.09-0.99c1.55,0,2.93,0.33,4.13,0.99
			c1.2,0.66,2.15,1.56,2.83,2.7c0.68,1.14,1.02,2.46,1.02,3.98c0,1.49-0.34,2.81-1.02,3.96s-1.63,2.05-2.84,2.72
			C112.54,83.46,111.17,83.79,109.64,83.79z M109.64,80.82c0.86,0,1.62-0.19,2.3-0.57c0.67-0.38,1.2-0.93,1.58-1.65
			c0.38-0.72,0.57-1.54,0.57-2.48c0-0.95-0.19-1.78-0.57-2.48c-0.38-0.7-0.91-1.24-1.58-1.62c-0.67-0.38-1.43-0.57-2.27-0.57
			s-1.6,0.19-2.27,0.57c-0.67,0.38-1.2,0.92-1.6,1.62c-0.39,0.7-0.59,1.53-0.59,2.48c0,0.93,0.2,1.76,0.59,2.48
			c0.39,0.72,0.92,1.27,1.6,1.65C108.07,80.63,108.82,80.82,109.64,80.82z"/>
		<path class="st18" d="M121.01,83.59V62.82h3.47v20.78H121.01z"/>
		<path class="st18" d="M136.1,83.79c-1.66,0-3.11-0.33-4.35-0.99s-2.2-1.57-2.88-2.72s-1.02-2.47-1.02-3.96
			c0-1.49,0.33-2.81,0.99-3.96c0.66-1.15,1.58-2.05,2.74-2.72s2.5-0.99,3.99-0.99c1.46,0,2.75,0.32,3.89,0.97s2.04,1.54,2.69,2.7
			c0.65,1.16,0.98,2.53,0.98,4.12c0,0.13,0,0.29-0.01,0.49s-0.02,0.37-0.04,0.52h-12.46v-2.32h10.61l-1.4,0.73
			c0.02-0.84-0.15-1.59-0.52-2.25c-0.36-0.66-0.86-1.18-1.5-1.54c-0.63-0.36-1.38-0.55-2.24-0.55c-0.84,0-1.59,0.18-2.25,0.55
			c-0.66,0.36-1.17,0.88-1.53,1.55s-0.53,1.45-0.53,2.32v0.56c0,0.9,0.2,1.69,0.6,2.38c0.4,0.69,0.98,1.23,1.72,1.61
			c0.75,0.38,1.61,0.57,2.6,0.57c0.84,0,1.6-0.14,2.27-0.42c0.67-0.28,1.27-0.69,1.79-1.23l1.9,2.18c-0.69,0.78-1.54,1.38-2.56,1.79
			S137.41,83.79,136.1,83.79z"/>
		<path class="st18" d="M144.5,71.55v-2.8h9.97v2.8H144.5z M152.12,83.79c-1.64,0-2.91-0.42-3.81-1.27c-0.9-0.85-1.34-2.1-1.34-3.74
			V65.34h3.47v13.33c0,0.71,0.19,1.26,0.56,1.65c0.37,0.39,0.9,0.59,1.57,0.59c0.76,0,1.4-0.21,1.9-0.62l1.01,2.49
			c-0.43,0.34-0.94,0.59-1.54,0.76C153.34,83.71,152.73,83.79,152.12,83.79z"/>
		<path class="st18" d="M166.84,68.45c1.21,0,2.28,0.23,3.21,0.7c0.92,0.47,1.66,1.19,2.21,2.16c0.55,0.97,0.83,2.21,0.83,3.72v8.57
			h-3.5v-8.12c0-1.33-0.31-2.31-0.92-2.97c-0.62-0.65-1.49-0.98-2.63-0.98c-0.82,0-1.55,0.17-2.18,0.5
			c-0.63,0.34-1.12,0.84-1.47,1.5c-0.35,0.66-0.52,1.5-0.52,2.51v7.56h-3.47V68.64h3.33v4.06l-0.59-1.26
			c0.5-0.95,1.25-1.69,2.25-2.21C164.38,68.71,165.54,68.45,166.84,68.45z"/>
		<path class="st18" d="M179.3,66.18c-0.65,0-1.19-0.21-1.61-0.62c-0.42-0.41-0.63-0.91-0.63-1.51c0-0.56,0.21-1.05,0.63-1.46
			c0.42-0.41,0.96-0.62,1.61-0.62s1.19,0.19,1.61,0.57c0.42,0.38,0.63,0.87,0.63,1.47s-0.21,1.11-0.62,1.53
			C180.52,65.97,179.98,66.18,179.3,66.18z M177.57,83.59V68.64h3.47v14.95H177.57z"/>
		<path class="st18" d="M190.14,83.79c-1.12,0-2.1-0.19-2.94-0.57s-1.49-0.91-1.95-1.6c-0.46-0.68-0.69-1.45-0.69-2.31
			c0-0.84,0.2-1.6,0.6-2.27c0.4-0.67,1.06-1.2,1.97-1.6c0.92-0.39,2.13-0.59,3.64-0.59h4.34v2.32h-4.09c-1.18,0-1.97,0.19-2.39,0.57
			c-0.42,0.38-0.63,0.86-0.63,1.44c0,0.62,0.25,1.11,0.76,1.48c0.5,0.37,1.2,0.56,2.1,0.56c0.86,0,1.63-0.2,2.31-0.59
			s1.18-0.97,1.5-1.74l0.56,2.1c-0.34,0.88-0.93,1.56-1.79,2.04C192.58,83.55,191.48,83.79,190.14,83.79z M194.84,83.59v-3.05
			l-0.17-0.62v-5.29c0-1.03-0.31-1.82-0.94-2.39c-0.63-0.57-1.57-0.85-2.84-0.85c-0.82,0-1.63,0.13-2.44,0.39
			c-0.8,0.26-1.49,0.63-2.07,1.09l-1.37-2.55c0.82-0.62,1.78-1.08,2.88-1.4c1.1-0.32,2.25-0.48,3.44-0.48
			c2.18,0,3.86,0.52,5.04,1.57c1.18,1.05,1.76,2.65,1.76,4.82v8.76H194.84z"/>
		<path class="st18" d="M37.63,117.19v-19.6h8.06c1.74,0,3.22,0.28,4.47,0.83c1.24,0.55,2.2,1.35,2.87,2.39s1.01,2.3,1.01,3.75
			c0,1.44-0.34,2.67-1.01,3.71s-1.63,1.84-2.87,2.41c-1.24,0.57-2.73,0.85-4.47,0.85h-6.02l1.6-1.68v7.34H37.63z M41.27,110.25
			l-1.6-1.79h5.85c1.6,0,2.81-0.34,3.63-1.02c0.81-0.68,1.22-1.64,1.22-2.87s-0.41-2.19-1.22-2.87c-0.81-0.68-2.02-1.02-3.63-1.02
			h-5.85l1.6-1.79V110.25z"/>
		<path class="st18" d="M57.65,117.19v-14.95h3.33v4.12l-0.39-1.2c0.43-1.01,1.13-1.78,2.1-2.31c0.97-0.53,2.16-0.8,3.56-0.8v3.33
			c-0.13-0.02-0.26-0.03-0.39-0.04c-0.13-0.01-0.25-0.01-0.36-0.01c-1.34,0-2.41,0.38-3.19,1.15c-0.78,0.77-1.18,1.93-1.18,3.5v7.22
			H57.65z"/>
		<path class="st18" d="M76.1,117.39c-1.51,0-2.87-0.33-4.07-0.99c-1.2-0.66-2.15-1.57-2.84-2.73s-1.04-2.47-1.04-3.95
			c0-1.51,0.34-2.84,1.04-3.98c0.69-1.14,1.63-2.04,2.83-2.7s2.56-0.99,4.09-0.99c1.55,0,2.93,0.33,4.13,0.99
			c1.2,0.66,2.15,1.56,2.83,2.7c0.68,1.14,1.02,2.46,1.02,3.98c0,1.49-0.34,2.81-1.02,3.96c-0.68,1.15-1.63,2.05-2.84,2.72
			C79,117.06,77.63,117.39,76.1,117.39z M76.1,114.42c0.86,0,1.62-0.19,2.3-0.57c0.67-0.38,1.2-0.93,1.58-1.65
			c0.38-0.72,0.57-1.54,0.57-2.48c0-0.95-0.19-1.78-0.57-2.48c-0.38-0.7-0.91-1.24-1.58-1.62c-0.67-0.38-1.43-0.57-2.27-0.57
			s-1.6,0.19-2.27,0.57c-0.67,0.38-1.2,0.92-1.6,1.62c-0.39,0.7-0.59,1.53-0.59,2.48c0,0.93,0.2,1.76,0.59,2.48
			c0.39,0.72,0.92,1.27,1.6,1.65C74.53,114.23,75.28,114.42,76.1,114.42z"/>
		<path class="st18" d="M93.77,116.52c-1.44,0-2.73-0.3-3.86-0.91c-1.14-0.61-2.04-1.45-2.7-2.53c-0.66-1.08-0.99-2.34-0.99-3.78
			c0-1.46,0.33-2.73,0.99-3.82c0.66-1.09,1.56-1.94,2.7-2.53c1.14-0.6,2.43-0.9,3.86-0.9c1.27,0,2.41,0.26,3.43,0.77
			c1.02,0.51,1.82,1.3,2.42,2.37s0.9,2.44,0.9,4.12c0,1.64-0.3,3-0.9,4.06s-1.4,1.86-2.42,2.38
			C96.18,116.26,95.03,116.52,93.77,116.52z M94.21,122.82c-1.4,0-2.75-0.18-4.05-0.55c-1.3-0.36-2.38-0.9-3.23-1.61l1.57-2.6
			c0.65,0.54,1.47,0.98,2.46,1.32c0.99,0.34,2.02,0.5,3.08,0.5c1.62,0,2.82-0.38,3.58-1.13c0.76-0.76,1.15-1.9,1.15-3.43v-2.66
			l0.28-3.36l-0.11-3.39v-3.67h3.33v12.68c0,2.71-0.69,4.7-2.07,5.98C98.82,122.18,96.83,122.82,94.21,122.82z M94.3,113.55
			c0.88,0,1.66-0.18,2.35-0.55c0.69-0.36,1.23-0.87,1.61-1.51c0.38-0.64,0.57-1.38,0.57-2.2c0-0.86-0.19-1.6-0.57-2.24
			c-0.38-0.63-0.92-1.13-1.61-1.48c-0.69-0.35-1.47-0.53-2.35-0.53c-0.88,0-1.67,0.18-2.37,0.53c-0.7,0.35-1.24,0.85-1.62,1.48
			c-0.38,0.64-0.57,1.38-0.57,2.24c0,0.82,0.19,1.55,0.57,2.2c0.38,0.64,0.92,1.15,1.62,1.51C92.63,113.37,93.42,113.55,94.3,113.55
			z"/>
		<path class="st18" d="M115.35,102.05c1.21,0,2.28,0.23,3.21,0.7c0.92,0.47,1.66,1.19,2.21,2.16c0.55,0.97,0.83,2.21,0.83,3.72
			v8.57h-3.5v-8.12c0-1.33-0.31-2.31-0.92-2.97c-0.62-0.65-1.49-0.98-2.63-0.98c-0.82,0-1.55,0.17-2.18,0.5
			c-0.63,0.34-1.12,0.84-1.47,1.5c-0.35,0.66-0.52,1.5-0.52,2.51v7.56h-3.47v-14.95h3.33v4.06l-0.59-1.26
			c0.5-0.95,1.25-1.69,2.25-2.21C112.89,102.31,114.05,102.05,115.35,102.05z"/>
		<path class="st18" d="M132.77,117.39c-1.51,0-2.87-0.33-4.07-0.99c-1.2-0.66-2.15-1.57-2.84-2.73s-1.04-2.47-1.04-3.95
			c0-1.51,0.34-2.84,1.04-3.98c0.69-1.14,1.63-2.04,2.83-2.7s2.56-0.99,4.09-0.99c1.55,0,2.93,0.33,4.13,0.99
			c1.2,0.66,2.15,1.56,2.83,2.7c0.68,1.14,1.02,2.46,1.02,3.98c0,1.49-0.34,2.81-1.02,3.96c-0.68,1.15-1.63,2.05-2.84,2.72
			C135.67,117.06,134.3,117.39,132.77,117.39z M132.77,114.42c0.86,0,1.62-0.19,2.3-0.57c0.67-0.38,1.2-0.93,1.58-1.65
			c0.38-0.72,0.57-1.54,0.57-2.48c0-0.95-0.19-1.78-0.57-2.48c-0.38-0.7-0.91-1.24-1.58-1.62c-0.67-0.38-1.43-0.57-2.27-0.57
			s-1.6,0.19-2.27,0.57c-0.67,0.38-1.2,0.92-1.6,1.62c-0.39,0.7-0.59,1.53-0.59,2.48c0,0.93,0.2,1.76,0.59,2.48
			c0.39,0.72,0.92,1.27,1.6,1.65C131.2,114.23,131.95,114.42,132.77,114.42z"/>
		<path class="st18" d="M142.88,117.19v-2.21l9.21-11.14l0.67,1.2h-9.72v-2.8h12.49v2.21l-9.21,11.14l-0.7-1.2h10.16v2.8H142.88z"/>
		<path class="st18" d="M163.51,117.39c-1.12,0-2.1-0.19-2.94-0.57c-0.84-0.38-1.49-0.91-1.95-1.6c-0.46-0.68-0.69-1.45-0.69-2.31
			c0-0.84,0.2-1.6,0.6-2.27c0.4-0.67,1.06-1.2,1.97-1.6c0.92-0.39,2.13-0.59,3.64-0.59h4.34v2.32h-4.09c-1.18,0-1.97,0.19-2.39,0.57
			c-0.42,0.38-0.63,0.86-0.63,1.44c0,0.62,0.25,1.11,0.76,1.48c0.5,0.37,1.2,0.56,2.1,0.56c0.86,0,1.63-0.2,2.31-0.59
			c0.68-0.39,1.18-0.97,1.5-1.74l0.56,2.1c-0.34,0.88-0.93,1.56-1.79,2.04C165.96,117.15,164.86,117.39,163.51,117.39z
			 M168.22,117.19v-3.05l-0.17-0.62v-5.29c0-1.03-0.31-1.82-0.94-2.39c-0.63-0.57-1.57-0.85-2.84-0.85c-0.82,0-1.63,0.13-2.44,0.39
			c-0.8,0.26-1.49,0.63-2.07,1.09l-1.37-2.55c0.82-0.62,1.78-1.08,2.88-1.4c1.1-0.32,2.25-0.48,3.44-0.48
			c2.18,0,3.86,0.52,5.04,1.57c1.18,1.05,1.76,2.65,1.76,4.82v8.76H168.22z"/>
		<path class="st18" d="M41.27,150.79h-3.64v-19.6h14.31v3.08H41.27V150.79z M40.99,140.24h9.74v3.02h-9.74V140.24z"/>
		<path class="st18" d="M56.89,133.38c-0.65,0-1.19-0.21-1.61-0.62c-0.42-0.41-0.63-0.91-0.63-1.51c0-0.56,0.21-1.04,0.63-1.46
			c0.42-0.41,0.96-0.62,1.61-0.62s1.19,0.19,1.61,0.57c0.42,0.38,0.63,0.87,0.63,1.47c0,0.6-0.21,1.11-0.62,1.53
			C58.1,133.17,57.56,133.38,56.89,133.38z M55.15,150.79v-14.95h3.47v14.95H55.15z"/>
		<path class="st18" d="M71.7,135.65c1.21,0,2.28,0.23,3.21,0.7c0.92,0.47,1.66,1.19,2.21,2.16c0.55,0.97,0.83,2.21,0.83,3.72v8.57
			h-3.5v-8.12c0-1.33-0.31-2.31-0.92-2.97c-0.62-0.65-1.49-0.98-2.63-0.98c-0.82,0-1.55,0.17-2.18,0.5
			c-0.63,0.34-1.12,0.83-1.47,1.5c-0.35,0.66-0.52,1.5-0.52,2.51v7.56h-3.47v-14.95h3.33v4.06l-0.59-1.26
			c0.5-0.95,1.25-1.69,2.25-2.21C69.24,135.91,70.4,135.65,71.7,135.65z"/>
		<path class="st18" d="M86.9,150.99c-1.12,0-2.1-0.19-2.94-0.57c-0.84-0.38-1.49-0.91-1.95-1.6c-0.46-0.68-0.69-1.45-0.69-2.31
			c0-0.84,0.2-1.6,0.6-2.27s1.06-1.2,1.97-1.6c0.92-0.39,2.13-0.59,3.64-0.59h4.34v2.32H87.8c-1.18,0-1.97,0.19-2.39,0.57
			c-0.42,0.38-0.63,0.86-0.63,1.44c0,0.62,0.25,1.11,0.76,1.48c0.5,0.37,1.2,0.56,2.1,0.56c0.86,0,1.63-0.2,2.31-0.59
			c0.68-0.39,1.18-0.97,1.5-1.74l0.56,2.1c-0.34,0.88-0.93,1.56-1.79,2.04C89.35,150.75,88.25,150.99,86.9,150.99z M91.61,150.79
			v-3.05l-0.17-0.62v-5.29c0-1.03-0.31-1.82-0.94-2.39c-0.63-0.57-1.57-0.85-2.84-0.85c-0.82,0-1.63,0.13-2.44,0.39
			s-1.49,0.62-2.07,1.09l-1.37-2.55c0.82-0.62,1.78-1.08,2.88-1.4c1.1-0.32,2.25-0.48,3.44-0.48c2.18,0,3.86,0.52,5.04,1.57
			c1.18,1.05,1.76,2.65,1.76,4.82v8.76H91.61z"/>
		<path class="st18" d="M107.88,135.65c1.21,0,2.28,0.23,3.21,0.7c0.92,0.47,1.66,1.19,2.21,2.16c0.55,0.97,0.83,2.21,0.83,3.72
			v8.57h-3.5v-8.12c0-1.33-0.31-2.31-0.92-2.97c-0.62-0.65-1.49-0.98-2.63-0.98c-0.82,0-1.55,0.17-2.18,0.5
			c-0.63,0.34-1.12,0.83-1.47,1.5c-0.35,0.66-0.52,1.5-0.52,2.51v7.56h-3.47v-14.95h3.33v4.06l-0.59-1.26
			c0.5-0.95,1.25-1.69,2.25-2.21C105.42,135.91,106.57,135.65,107.88,135.65z"/>
		<path class="st18" d="M123.22,150.99c-1.27,0-2.47-0.16-3.61-0.49s-2.05-0.72-2.74-1.19l1.34-2.66c0.67,0.43,1.47,0.78,2.41,1.05
			s1.88,0.41,2.83,0.41c1.08,0,1.87-0.14,2.37-0.43c0.49-0.29,0.74-0.69,0.74-1.19c0-0.41-0.17-0.72-0.5-0.94
			c-0.34-0.21-0.78-0.38-1.32-0.49c-0.54-0.11-1.14-0.21-1.81-0.31c-0.66-0.09-1.33-0.22-1.99-0.38c-0.66-0.16-1.26-0.39-1.81-0.7
			c-0.54-0.31-0.98-0.72-1.32-1.25c-0.34-0.52-0.5-1.22-0.5-2.1c0-0.93,0.27-1.75,0.81-2.45c0.54-0.7,1.3-1.25,2.28-1.64
			c0.98-0.39,2.14-0.59,3.49-0.59c0.99,0,2,0.12,3.04,0.35s1.9,0.56,2.59,0.97l-1.37,2.66c-0.69-0.41-1.4-0.7-2.13-0.85
			c-0.73-0.16-1.45-0.24-2.16-0.24c-1.05,0-1.83,0.15-2.35,0.46c-0.52,0.31-0.78,0.71-0.78,1.19c0,0.45,0.17,0.78,0.5,1.01
			c0.34,0.22,0.77,0.4,1.32,0.52c0.54,0.12,1.14,0.23,1.81,0.34c0.66,0.1,1.32,0.23,1.97,0.39c0.65,0.16,1.26,0.38,1.81,0.67
			c0.55,0.29,0.99,0.7,1.33,1.22c0.34,0.52,0.5,1.2,0.5,2.04c0,0.95-0.28,1.77-0.83,2.45c-0.55,0.68-1.33,1.21-2.32,1.6
			C125.82,150.8,124.62,150.99,123.22,150.99z"/>
		<path class="st18" d="M139.71,150.99c-1.51,0-2.87-0.33-4.07-0.99c-1.2-0.66-2.15-1.57-2.84-2.73s-1.04-2.47-1.04-3.95
			c0-1.51,0.34-2.84,1.04-3.98c0.69-1.14,1.63-2.04,2.83-2.7c1.19-0.66,2.56-0.99,4.09-0.99c1.55,0,2.93,0.33,4.13,0.99
			c1.2,0.66,2.15,1.56,2.83,2.7c0.68,1.14,1.02,2.46,1.02,3.98c0,1.49-0.34,2.81-1.02,3.96c-0.68,1.15-1.63,2.05-2.84,2.72
			C142.61,150.66,141.24,150.99,139.71,150.99z M139.71,148.02c0.86,0,1.62-0.19,2.3-0.57c0.67-0.38,1.2-0.93,1.58-1.65
			c0.38-0.72,0.57-1.54,0.57-2.48c0-0.95-0.19-1.78-0.57-2.48c-0.38-0.7-0.91-1.24-1.58-1.62c-0.67-0.38-1.43-0.57-2.27-0.57
			s-1.6,0.19-2.27,0.57c-0.67,0.38-1.2,0.92-1.6,1.62c-0.39,0.7-0.59,1.53-0.59,2.48c0,0.93,0.2,1.76,0.59,2.48
			c0.39,0.72,0.92,1.27,1.6,1.65C138.15,147.83,138.89,148.02,139.71,148.02z"/>
		<path class="st18" d="M154.36,150.79l-5.49-14.95h3.3l4.73,13.19h-1.6l4.93-13.19h2.94l4.82,13.19h-1.57l4.84-13.19h3.11
			l-5.52,14.95h-3.36l-4.34-11.68h1.01l-4.45,11.68H154.36z"/>
		<path class="st18" d="M181.29,150.99c-1.12,0-2.1-0.19-2.94-0.57c-0.84-0.38-1.49-0.91-1.95-1.6c-0.46-0.68-0.69-1.45-0.69-2.31
			c0-0.84,0.2-1.6,0.6-2.27s1.06-1.2,1.97-1.6c0.92-0.39,2.13-0.59,3.64-0.59h4.34v2.32h-4.09c-1.18,0-1.97,0.19-2.39,0.57
			c-0.42,0.38-0.63,0.86-0.63,1.44c0,0.62,0.25,1.11,0.76,1.48c0.5,0.37,1.2,0.56,2.1,0.56c0.86,0,1.63-0.2,2.31-0.59
			c0.68-0.39,1.18-0.97,1.5-1.74l0.56,2.1c-0.34,0.88-0.93,1.56-1.79,2.04C183.74,150.75,182.64,150.99,181.29,150.99z M186,150.79
			v-3.05l-0.17-0.62v-5.29c0-1.03-0.31-1.82-0.94-2.39c-0.63-0.57-1.57-0.85-2.84-0.85c-0.82,0-1.63,0.13-2.44,0.39
			s-1.49,0.62-2.07,1.09l-1.37-2.55c0.82-0.62,1.78-1.08,2.88-1.4c1.1-0.32,2.25-0.48,3.44-0.48c2.18,0,3.86,0.52,5.04,1.57
			c1.18,1.05,1.76,2.65,1.76,4.82v8.76H186z"/>
	</g>
</g>
</svg>
