<?xml version="1.0" encoding="utf-8"?>
<!-- Generator: Adobe Illustrator 27.0.0, SVG Export Plug-In . SVG Version: 6.00 Build 0)  -->
<svg version="1.1" id="Warstwa_1" xmlns="http://www.w3.org/2000/svg" xmlns:xlink="http://www.w3.org/1999/xlink" x="0px" y="0px"
	 viewBox="0 0 1512 470.5" style="enable-background:new 0 0 1512 470.5;" xml:space="preserve">
<style type="text/css">
	.st0{fill:#172815;}
	.st1{fill:none;stroke:#000000;stroke-width:4;stroke-miterlimit:10;}
	.st2{fill-rule:evenodd;clip-rule:evenodd;fill:#FFC800;}
	.st3{fill-rule:evenodd;clip-rule:evenodd;fill:#00AB4E;stroke:#000000;}
	.st4{fill-rule:evenodd;clip-rule:evenodd;fill:#00AC4E;stroke:#000000;}
	.st5{fill-rule:evenodd;clip-rule:evenodd;fill:#0E8D49;stroke:#000000;}
	.st6{stroke:#000000;stroke-linecap:round;}
	.st7{fill:none;stroke:#000000;}
	.st8{fill-rule:evenodd;clip-rule:evenodd;fill:#00AC4E;}
	.st9{fill-rule:evenodd;clip-rule:evenodd;fill:#FFFFFF;stroke:#000000;}
	.st10{fill-rule:evenodd;clip-rule:evenodd;fill:#252122;stroke:#000000;}
	.st11{fill:none;stroke:#000000;stroke-linecap:round;}
	.st12{fill-rule:evenodd;clip-rule:evenodd;fill:#D6AC00;stroke:#000000;}
	.st13{fill:none;stroke:#504E4B;stroke-linecap:round;}
	.st14{fill:#FEFFFF;stroke:#000000;stroke-linecap:round;}
	.st15{fill-rule:evenodd;clip-rule:evenodd;fill:#FDAF17;stroke:#010000;}
	.st16{fill-rule:evenodd;clip-rule:evenodd;stroke:#000000;}
	.st17{fill-rule:evenodd;clip-rule:evenodd;fill:#FDAF17;stroke:#010000;stroke-miterlimit:4;}
	.st18{fill-rule:evenodd;clip-rule:evenodd;stroke:#000000;stroke-miterlimit:4;}
	.st19{fill:#FFFFFF;}
	.st20{display:none;fill:none;stroke:#FFFFFF;}
</style>
<g>
	<g id="g3342_00000000922233971503972420000016660936595855162528_" transform="translate(-752.3692,0.000000)">
		<g id="g3141_00000072274625005203306520000017227299815942351780_">
			<path id="path1334_00000052792188389831743520000004498656498479527576_" class="st2" d="M945.6-0.38L752.65,0.59v289.92
				c7.99,93.97,89.97,182.35,192.96,179.38V-0.38z"/>
			<path id="path2482_00000119801215868586339060000008744798514962667680_" class="st3" d="M835.28,109.58l0.28-15
				c0.29-6.06-3.31-6.77-6.11-4.72c-3.11,2.28-5.59,0.24-4.44-8.06c1.63-10.57-5.52-12.39-7.78-7.78c-3.48,5.78-5.89,0.86-4.72-5.56
				c1.21-10.85-5.72-13.68-9.45-7.22c-3.8,4.98-6,3.98-6.94-1.67c-0.25-5.05-4.86-5.01-9.45-5c-5.03,0.81-7.84,3.83-9.17,8.33
				c-1.1,6.05,1.5,8.57,5.83,9.45c5.15-0.19,8.55,3.71,1.67,7.5c-6.03,3.8-6.4,9.65,6.11,9.17c12.14-2.07,9.75,3.5,6.67,4.44
				c-6.76,3.6-0.42,9.33,9.45,7.78c9.77-1.19,12.17,2.99,8.61,4.44c-4.44,4.06-0.11,7.72,7.5,5.83
				C827.41,110.69,831.46,109.9,835.28,109.58z"/>
			<path id="path2486_00000118369863809766674770000016136765846900532127_" class="st3" d="M835.18,211.99l0.31-16.39
				c0.32-6.62-3.66-7.4-6.75-5.16c-3.43,2.49-6.18,0.26-4.91-8.8c1.79-11.55-6.09-13.53-8.59-8.5c-3.85,6.32-6.51,0.94-5.22-6.07
				c1.33-11.86-6.32-14.95-10.43-7.89c-4.2,5.44-6.62,4.35-7.67-1.82c-0.27-5.52-5.37-5.47-10.43-5.46
				c-5.55,0.88-8.66,4.18-10.12,9.11c-1.21,6.61,1.66,9.36,6.44,10.32c5.69-0.21,9.45,4.05,1.84,8.2
				c-6.65,4.15-7.07,10.54,6.75,10.02c13.41-2.27,10.77,3.83,7.36,4.86c-7.47,3.94-0.46,10.2,10.43,8.5
				c10.79-1.3,13.44,3.26,9.51,4.86c-4.9,4.43-0.13,8.44,8.28,6.37C826.49,213.2,830.96,212.34,835.18,211.99z"/>
			<path id="path2488_00000007400070247441769350000007274007443502041271_" class="st3" d="M836.16,289.62l-4.48-15.04
				c-1.63-6.13-5.54-5.73-7.75-2.82c-2.46,3.23-5.65,1.96-7.11-6.66c-1.7-11.04-9.58-10.64-10.43-5.35
				c-1.72,6.84-5.76,2.68-6.6-4.08c-2.22-11.19-10.21-11.87-11.96-4.28c-2.3,6.14-4.87,5.82-7.63,0.48
				c-1.86-4.96-6.57-3.49-11.25-2.07c-4.89,2.36-6.8,6.24-6.73,11.14c0.8,6.37,4.26,8.08,8.97,7.61c5.21-1.79,9.93,1.05,4.09,6.96
				c-4.96,5.65-3.48,11.6,9.17,7.25c11.77-5.82,11.09,0.48,8.23,2.37c-5.77,5.68,2.54,9.43,12.14,4.84
				c9.62-4.21,13.4-0.78,10.22,1.77c-3.25,5.41,2.34,7.73,9.53,3.5C828.46,293.15,832.35,291.12,836.16,289.62z"/>
			<path id="path2490_00000084490492522599863410000009325457773780518334_" class="st3" d="M859.96,113.26l2.44-14.8
				c0.81-6.01,4.48-6.06,6.86-3.54c2.65,2.8,5.46,1.24,5.83-7.12c0.31-10.69,7.67-11.19,9.06-6.24c2.38,6.32,5.64,1.91,5.65-4.61
				c0.78-10.89,8.1-12.42,10.59-5.4c2.84,5.59,5.18,5,7.13-0.38c1.16-4.92,5.69-4.05,10.19-3.21c4.8,1.7,7.02,5.18,7.51,9.85
				c-0.01,6.15-3.03,8.16-7.44,8.24c-5.03-1.12-9.08,2.1-2.99,7.08c5.24,4.82,4.55,10.65-7.67,7.91
				c-11.57-4.23-10.22,1.68-7.36,3.17c6,4.77-1.27,9.25-10.69,5.94c-9.4-2.94-12.51,0.74-9.27,2.82c3.63,4.79-1.28,7.61-8.43,4.38
				C867.5,115.78,863.66,114.27,859.96,113.26z"/>
			<path id="path2492_00000139992570263303650830000005683752786090019509_" class="st3" d="M866.66,203.71l1.1-16.36
				c0.25-6.62,4.28-7.06,7.17-4.56c3.21,2.77,6.13,0.79,5.64-8.35c-0.8-11.66,7.23-12.96,9.29-7.73c3.29,6.62,6.4,1.49,5.72-5.6
				c-0.31-11.93,7.58-14.35,11.07-6.97c3.72,5.78,6.23,4.9,7.8-1.16c0.74-5.47,5.82-4.99,10.86-4.55c5.46,1.35,8.27,4.91,9.31,9.94
				c0.64,6.69-2.45,9.19-7.3,9.73c-5.65-0.7-9.76,3.23-2.53,8.01c6.27,4.7,6.14,11.11-7.58,9.4c-13.17-3.4-11.06,2.89-7.75,4.21
				c7.1,4.56-0.41,10.2-11.12,7.58c-10.64-2.22-13.67,2.1-9.89,4.03c4.5,4.83-0.6,8.42-8.8,5.64
				C875.22,205.66,870.83,204.43,866.66,203.71z"/>
			<path id="path2221_00000176747216126713558000000005296049475077245851_" class="st4" d="M846,95.2l-0.03,23.21
				c-18.41-20.31-36.89-41.31-60.01-55.19c20.91,18.59,39.29,38.44,57.51,58.38l-9.25-5.1l-2.18,2.36
				c4.71,3.52,11.89,6.22,10.91,11.63l-5.64-2.18l-0.73,2.91c3.4,1.97,7.24,3.62,6,8.91l-0.18,13.09l-2.36,2.18l-9.82-9.63
				l-2.18,3.09l12.18,12.91l-8-3.82l-0.91,2.73c5.02,2.83,10.25,5.42,11.27,12.91l-1.64,43.08c-17.35-17.81-36.31-38.96-56.9-52.9
				l57.63,59.63l-6.91-4.73l-2.73,2.73c5.54,1.81,9.33,5.77,8.73,15.09l0.18,8.36l-10.73-7.45l-0.91,4.54l12.54,9.27l-8.18-1.64
				l-1.45,2.91c4.99,0.55,8.81,2.7,8.36,10.73l-0.36,25.27c-21.75-11.46-43.51-19.32-65.26-26.72l59.81,30l4.54,8.73v29.81
				c-0.54,12.73-4.36,37.24-10.36,37.63l-6.36,0.55c-2.34,2.09-4.99,1.79-7.82,0c-5.79-4.85-8.84-1.84-11.27,2.91
				c2.64-1.39,5.25-3.09,8.36-0.73l5.64-0.55c-9.36,1.39-7.05,7.08-7.82,11.63c3.45-7.92,9.27-7.56,14.54-9.09
				c9.92,2.2,11.78-4.21,14.72-9.45c-2.3,5.13-2.54,11.68-10.73,12.73c-8.53-0.92-8.94,4.02-8.91,9.27
				c0.96-5.66,8.17-7.58,13.63-10.54c-5.76,4.69-8.53,9-6.54,12.73c2.51-4.11,4.72-8.68,9.09-10c4.07-1.99,5.96-6.16,8.18-10
				c0.82,3.72,2.18,7.57-0.73,10.36c-1.97,4.35-0.18,7.45,0.55,10.91c0.92-7.09,4.59-10.52,8.36-13.82c-4.03,5.7-1.65,8.99,2,11.82
				c-0.69-4.02-0.68-7.85,2-10.91c-0.56-4.21,0.75-7.18,3.09-9.45c3.57,7.29,4.16,15.58,4.91,23.81c1.01-3.15,2.88-5.95,1.64-10
				c4.04,1.6,6.42,5.28,8.54,9.27c0.7-8.14-9.22-12.12-9.82-23.09c2.08,3.99,1.6,11.02,8.54,9.27c5.59-0.03,6.58,2.86,6.91,6.18
				c-1.27,3.42,0.8,5.17,4.36,6.18c-1.4-2.7-2.54-5.55-2-8.73c3.55,0.25,4.96,7.42,8.36,8.73c1.6,0.21,2.86,0.07,2.55-1.64
				c-4.37-2.05-5.98-10.66-10-10.36c-4.08-1.36-6.57-3.92-8.73-6.73c6.92-4.15,11.21-1.29,15.27,2.18
				c4.02,4.16,11.38,6.93,10.18,13.27l1.64,0.18l1.45-4.54c1.97,3.36,3.86,6.74,8.18,9.63l3.27-0.91c-3.1-2.59-5.32-5.53-6-9.09
				c-1.09-2-1.6-4.49-5.45-4.18c-5.13-1.5-7.54-4.35-9.82-7.27c-3.88-4.65-8.91-6.13-14.72-5.45c-13.33-0.55-9.46-9.69-12.36-15.45
				l0.04-35.35c2.43-8.16,7.48-11.09,12.6-13.88c-5.5-0.99-10.86-0.57-15.68,5.91l-0.51-51.93c3.33-7.75,7.93-12.32,12.6-16.71
				l-2.31-5.14l-9.77,11.05l-2.83-1.29c-2.89-17.54,4.74-20.34,11.83-23.91l-1.29-4.11l-10.03,6.94
				c17.61-21.96,37.51-42.56,61.96-60.42c-21.94,12.85-46.85,30.04-65.56,54.5v-45.5c1.86-5.92,5.92-8.18,9.77-10.8l-2.06-3.34
				l-6.68,3.09l15.17-13.63l-2.31-4.37l-16.71,14.14l0.77-18c0.97-5.08,3.97-6.11,6.17-8.74l-1.8-3.6l-4.88,3.6
				c18.46-20.5,42.54-34.58,65.56-49.88c-26.36,12.21-51.78,25.63-70.7,47.3l1.29-28.28L846,95.2z"/>
			<path id="path2494_00000058583728341857741460000005225277281787518896_" class="st3" d="M863.29,287.01l3.3-15.35
				c1.15-6.24,5.08-6.14,7.51-3.42c2.7,3.03,5.78,1.52,6.57-7.19c0.83-11.14,8.72-11.36,9.98-6.15c2.25,6.69,5.95,2.22,6.26-4.58
				c1.34-11.33,9.25-12.63,11.59-5.2c2.78,5.94,5.31,5.42,7.65-0.11c1.47-5.09,6.27-3.99,11.06-2.94c5.06,1.97,7.27,5.69,7.58,10.58
				c-0.3,6.41-3.62,8.39-8.35,8.29c-5.33-1.37-9.82,1.83-3.53,7.26c5.38,5.24,4.38,11.29-8.57,7.95
				c-12.18-4.88-11.02,1.34-8.02,3.01c6.2,5.21-1.79,9.6-11.72,5.77c-9.92-3.44-13.42,0.27-10.05,2.56
				c3.66,5.14-1.73,7.89-9.23,4.23C871.25,289.93,867.21,288.21,863.29,287.01z"/>
			<path id="path2225_00000062895593215329301270000008387235004557405321_" class="st4" d="M855.85,292.15
				c19.32-16.32,43.05-26.45,65.56-38.31c-22.54,13.28-44.6,26.94-63.76,42.93"/>
			<path id="path2293_00000139991257744507697680000010204533150713123472_" class="st3" d="M837.55,80.01l23.52,0.74
				c-0.15-10.89,4.03-30.58-10.65-32.19C835.91,50,838.25,66.01,837.55,80.01z"/>
			<path id="path2227_00000040534167592169025460000010704837289123726765_" class="st5" d="M833.99,80.04h30.8
				c-0.62,8.6-3.78,16.03-16.57,16.37C833.59,95.25,834.21,85.71,833.99,80.04z"/>
			<path id="path2229_00000107558956612078871770000000756515805793238681_" class="st5" d="M857.2,80.26l5.98,6.48"/>
			<path id="path2231_00000168086047345145204660000017552718823544917649_" class="st5" d="M849.91,80.31l11.03,10.7"/>
			<path id="path2233_00000016033528624865197200000008493106135445836714_" class="st5" d="M842.57,79.84l14.41,14.41"/>
			<path id="path2235_00000026867748174728676560000012941071552268743336_" class="st5" d="M835.97,80.11l15.56,15.72"/>
			<path id="path2239_00000168826622488006862940000004593325962834979244_" class="st5" d="M834.18,84.13l10.72,11.5"/>
			<path id="path2241_00000132782003683833620850000010901626615663581584_" class="st5" d="M862.52,79.85l-16.48,15.88"/>
			<path id="path2243_00000170978758344502490110000007351979121916970140_" class="st5" d="M856.01,80.09l-14.72,14.32"/>
			<path id="path2245_00000116194802320093835510000009360050892882819751_" class="st5" d="M849.84,80.09l-12.15,11.65"/>
			<path id="path2247_00000154405492129651631340000001625256784210561924_" class="st5" d="M842.76,79.84l-7.8,7.99"/>
			<path id="path2249_00000172432550442249936320000000272041447724061111_" class="st5" d="M836.28,80.2l-2.29,2.77"/>
			<path id="path2291_00000115496643033280079260000005321975587834799789_" class="st5" d="M863.81,85.04l-11.31,10.8"/>
			<path id="path2295_00000144313432410695488060000003873327316857689475_" class="st6" d="M851.92,47.2
				c0,0.62-0.55,1.11-1.24,1.11s-1.24-0.5-1.24-1.11c0-0.62,0.55-1.11,1.24-1.11S851.92,46.59,851.92,47.2z"/>
			<path id="path2316_00000134251042116706615810000009331417354776840351_" class="st3" d="M807.69,149.56l15.85-20.77
				c-8.95-6.21-22.24-21.45-33.07-9.15C782.23,133.56,796.76,140.78,807.69,149.56z"/>
			<g id="g3070_00000138545606398605061140000015933071949970675593_">
				<path id="path2320_00000083090290732728498620000016503705359370153111_" class="st5" d="M806.41,151.41l17.96-25.02
					c6.62,5.52,10.81,12.42,3.64,23.01C818.53,160.6,811.14,154.54,806.41,151.41z"/>
				<path id="path2322_00000122692699696752107760000005245661178664834206_" class="st5" d="M820.12,132.69l8.75-1.08"/>
				<path id="path2324_00000173141406683559744040000000814713829256470162_" class="st5" d="M815.91,138.63l15.13-2.72"/>
				<path id="path2326_00000131328277897842536170000009355847101874010043_" class="st5" d="M811.25,144.33l20.1-3.3"/>
				<path id="path2328_00000103976092206234451200000015279555470791312061_" class="st5" d="M807.62,149.84l21.84-3.47"/>
				<path id="path2332_00000101097069906248008560000000372883624450161820_" class="st5" d="M809.85,153.64l15.59-2"/>
				<path id="path2334_00000032634510957545691210000000908338626510394034_" class="st5" d="M822.9,128.12l3.29,22.65"/>
				<path id="path2336_00000158030832364036613100000015303700035495870336_" class="st5" d="M819.29,133.55l3.05,20.31"/>
				<path id="path2338_00000142162155729278855690000009858055778696064406_" class="st5" d="M815.69,138.56l2.38,16.66"/>
				<path id="path2340_00000177449924670884735400000005134775228990077059_" class="st5" d="M811.37,144.17l1.95,10.99"/>
				<path id="path2342_00000031901836345812694450000006923719879996265653_" class="st5" d="M807.87,149.64l0.91,3.47"/>
				<path id="path2344_00000075859786914084265900000005139304065979958207_" class="st5" d="M827.86,130.1l2.17,15.49"/>
			</g>
			<path id="path2348_00000003824115511314631730000012517018070781525943_" class="st3" d="M892.14,147.5l-12.25-24.2
				c10.03-4.29,25.96-16.68,34.66-2.05C920.38,136.95,904.6,141.06,892.14,147.5z"/>
			<path id="path2352_00000024700966301152152110000014824473139893310889_" class="st5" d="M892.76,149.22l-12.88-27.98
				c-7.55,4.16-12.98,10.14-7.94,21.9C879.11,155.94,887.52,151.39,892.76,149.22z"/>
			<path id="path2354_00000039850884461826495870000003582905550477694610_" class="st5" d="M882.86,128.23l-8.39-2.72"/>
			<path id="path2356_00000128448008247092480570000012331823596863622023_" class="st5" d="M885.86,134.87l-14.33-5.54"/>
			<path id="path2358_00000157995529806906045100000013823164926380867517_" class="st5" d="M889.35,141.35l-19.11-7.06"/>
			<path id="path2360_00000136377649339972167200000013781103322820637859_" class="st5" d="M891.87,147.45l-20.78-7.56"/>
			<path id="path2364_00000083792553222331170220000009913099657598378641_" class="st5" d="M888.96,150.75l-14.93-4.93"/>
			<path id="path2366_00000138539251588140206470000009965314295356019842_" class="st5" d="M881,123.22l-7.54,21.62"/>
			<path id="path2368_00000109005607878760107530000009404755687854402481_" class="st5" d="M883.51,129.24l-6.86,19.36"/>
			<path id="path2370_00000029745106037273590090000010201421690783065000_" class="st5" d="M886.09,134.84l-5.5,15.91"/>
			<path id="path2372_00000012439785645854329280000007480248753747373247_" class="st5" d="M889.27,141.17l-4,10.42"/>
			<path id="path2374_00000168107311494192796550000000541554118332455304_" class="st5" d="M891.66,147.2l-1.55,3.24"/>
			<path id="path2376_00000114072372438149918720000007956055436743038633_" class="st5" d="M875.75,124.22l-5.08,14.79"/>
			<path id="path2380_00000123440068413926162670000009118392142650317464_" class="st3" d="M893.56,239.04l-11.49-23.47
				c10.03-4.25,26.13-16.43,34.35-2.25C921.78,228.57,906.06,232.68,893.56,239.04z"/>
			<g id="g3126_00000043421439741033011720000009216730162241248901_">
				<path id="path2384_00000110467270830940004130000013781237097018874015_" class="st5" d="M894.41,241.16l-12.6-28.1
					c-7.59,4.08-13.08,10.01-8.16,21.82C880.7,247.75,889.15,243.28,894.41,241.16z"/>
				<path id="path2386_00000022555176471561361550000002737187231534455194_" class="st5" d="M884.71,220.08l-8.36-2.81"/>
				<path id="path2388_00000154397267459232876860000016742197428993702836_" class="st5" d="M887.65,226.74l-14.28-5.68"/>
				<path id="path2390_00000003808613610238031790000014605570119370743692_" class="st5" d="M891.08,233.26l-19.04-7.25"/>
				<path id="path2392_00000121970988086638650320000010455569519104213406_" class="st5" d="M893.54,239.38l-20.71-7.76"/>
				<path id="path2396_00000031929445478975946290000016984542136839784605_" class="st5" d="M890.6,242.66l-14.88-5.08"/>
				<path id="path2398_00000167362978994481752660000017457571293153356975_" class="st5" d="M882.9,215.05l-7.75,21.54"/>
				<path id="path2400_00000031902696339726541690000015572333713092701868_" class="st5" d="M885.36,221.09l-7.05,19.29"/>
				<path id="path2402_00000166674454599664736450000017475226296906697122_" class="st5" d="M887.88,226.72l-5.66,15.85"/>
				<path id="path2404_00000055679841576534522050000016317178201282036611_" class="st5" d="M891,233.08l-4.1,10.39"/>
				<path id="path2406_00000070112416895525932670000011233312302246100412_" class="st5" d="M893.33,239.14l-1.59,3.22"/>
				<path id="path2408_00000083085352831992528750000006695739345251938230_" class="st5" d="M877.65,216l-5.22,14.74"/>
			</g>
			<path id="path2444_00000013167970039868560830000018269766420456106421_" class="st3" d="M808.62,246.82l11.49-23.47
				c-10.03-4.25-26.13-16.43-34.35-2.25C780.4,236.35,796.12,240.46,808.62,246.82z"/>
			<g id="g3098_00000029015247774383141680000005014600467189960330_">
				<path id="path2448_00000122696889335988499930000008580123083174576274_" class="st5" d="M807.77,248.94l12.6-28.1
					c7.59,4.08,13.08,10.01,8.16,21.82C821.48,255.53,813.03,251.06,807.77,248.94z"/>
				<path id="path2450_00000028282681346539417520000017083966250022342845_" class="st5" d="M817.46,227.85l8.36-2.81"/>
				<path id="path2452_00000108989679012730997530000012280327358559980693_" class="st5" d="M814.53,234.52l14.28-5.68"/>
				<path id="path2454_00000039830323905492673510000013858393217427662244_" class="st5" d="M811.1,241.04l19.04-7.25"/>
				<path id="path2456_00000057121395614703575820000001744286831554654652_" class="st5" d="M808.64,247.16l20.71-7.76"/>
				<path id="path2460_00000131355527726163633970000012701070687632432570_" class="st5" d="M811.58,250.44l14.88-5.08"/>
				<path id="path2462_00000093857702919284891820000016761471949709770156_" class="st5" d="M819.27,222.83l7.75,21.54"/>
				<path id="path2464_00000005264850553999909250000010553927553627244216_" class="st5" d="M816.82,228.87l7.05,19.29"/>
				<path id="path2466_00000157994349386042996580000018384929293348432000_" class="st5" d="M814.3,234.5l5.66,15.85"/>
				<path id="path2468_00000119108346131683065040000005981661722235535016_" class="st5" d="M811.18,240.86l4.1,10.39"/>
				<path id="path2470_00000147181778650965086080000002769217028310115221_" class="st5" d="M808.85,246.92l1.59,3.22"/>
				<path id="path2472_00000168100681791234654300000016529684821004204702_" class="st5" d="M824.53,223.78l5.22,14.74"/>
			</g>
			<path id="path2474_00000033365122332868061110000011472633811716265649_" class="st6" d="M917.2,121.1
				c0,0.62-0.55,1.11-1.24,1.11c-0.68,0-1.24-0.5-1.24-1.11s0.55-1.11,1.24-1.11C916.64,119.98,917.2,120.48,917.2,121.1z"/>
			<path id="path2476_00000166634157334677020870000004347898208728195762_" class="st6" d="M791.08,118.32
				c0,0.62-0.55,1.11-1.24,1.11s-1.24-0.5-1.24-1.11s0.55-1.11,1.24-1.11S791.08,117.7,791.08,118.32z"/>
			<path id="path2478_00000126318076657646545250000017352779120215014579_" class="st6" d="M787.19,219.99
				c0,0.62-0.55,1.11-1.24,1.11s-1.24-0.5-1.24-1.11c0-0.62,0.55-1.11,1.24-1.11S787.19,219.38,787.19,219.99z"/>
			<path id="path2480_00000137132109225150199920000006449742196078410172_" class="st6" d="M918.03,214.71
				c0,0.62-0.55,1.11-1.24,1.11s-1.24-0.5-1.24-1.11c0-0.62,0.55-1.11,1.24-1.11S918.03,214.1,918.03,214.71z"/>
			<path id="path2484_00000032615264437616558270000018151458524415752125_" class="st7" d="M812.22,67.35h-0.28"/>
		</g>
		<g id="g3300_00000098920089370201143340000007261282405814799248_">
			<path id="path2209_00000074400546137462222790000006053500020181834679_" class="st8" d="M945.37-0.38l192.96,0.97v289.92
				c-7.99,93.97-89.97,182.35-192.96,179.38V-0.38z"/>
			<g id="g3233_00000049191603959989288660000005513822462341266360_">
				<g id="g2640_00000162327768189937315350000004450707870733200317_" transform="translate(750.1832,0.000000)">
					<path id="path2594_00000096781857227065727370000006972450923822527414_" class="st9" d="M275.21,232.58
						c1.43-20.33-9.86-33.39-17.91-48.3c-15.17-28.08-2.66-49.32,10.67-57.53c8.04-6.84,9.1-17.46-3.08-21.17l-61.51-16.46h48.66
						c2.58-2.84,6.23-5.01,11.22-4.95c0.99,5.15,4.39,10.23,12.12,13.46c12.22,2.72,19.58,18.83,6.51,34.37
						c-11.7,10.67-19.35,22.55-10.49,39.44c4.28,5.08,8.56,3.69,12.84-0.36c15.19-14.32,21.42-11.93,35.46-2.53
						c10,5.53,18.78,13.77,26.33,23.59c23.82,22.17,39.19,96.16,31.74,118.24c-0.66-0.92-1.48-1.64-1.41-3.48
						c3.24-24.13-6.88-43.59-13.85-64.15c7.37,21.1,15.57,42.08,12.42,64.76c-1.65,3.71-2.74,4.62-3.87,5.7
						c-7.04-19.03-15.59-36.42-35.03-45.21c-13.1-7.75-25.83-15.79-36.25-27.29l-3.26,7.33l-2.44-14.87
						c0.28,6.7-0.69,12.57-3.67,17.11c1.52-6.18,0.28-12.35-1.43-18.53c-0.73,5.85-3.2,8.79-5.5,12.02
						c1.7-5.04,1.68-10.51,1.22-16.09c-1.07,3.41-2.41,6.48-5.09,7.74c2.26-5.84,0.59-11.68-1.43-17.51L275.21,232.58z"/>
					<path id="path2596_00000078728262795732221460000011536452748259175077_" class="st10" d="M262.94,83.89
						c13.81-1.76,19.43,6.19,25.05,14.05c3.7,6.58,7.97,15.3,16.5,17.11c-3.8,2.42-6.89-0.12-10.18-1.22l8.35,6.72
						c-4.78-0.65-9.59-1.01-13.85-6.92c-0.51-8.21-5.63-12.95-12.63-16.29C268.11,95.29,264.51,90.27,262.94,83.89z"/>
					<path id="path2604_00000085230238580391543990000002839717518645987984_" class="st10" d="M365.11,250.34l-3.14-7.57
						c-0.49,1.72-0.36,2.34,0.86,7.48c-7.37-2.28-8.76-8.84-12.29-13.86c0.99,3.77,2.05,7.55,5.11,11.61
						c-8.05-1.54-9.03-7.32-12.8-13.14c0.91,2.88,0.69,5.19,2.72,8.06c-8.37-2.96-10.05-8.79-12.29-14.39
						c-0.7,4.03,1.34,6.49,2.61,9.4c-6.94,1.27-7.44-7.13-9.93-12.54c-0.6,2.16,0.28,5.51,1.15,8.84c-6.2-3.14-6.81-7.87-8.47-13.29
						c-0.44,2.52-0.57,5.21,0.78,8.63c-6.59-2.3-8.44-9.34-10.99-15.69c-0.18,2.96,0.25,5.05,1.33,9.96
						c-11.14-9.7-14.9-20.9-13.37-35.85c2.04-9.76,8.32-12.36,19.09-8.63c-4.57-3.61-13.88-10.79-22.56-3.21
						c-6.27,8.83-3.84,16.22-2.02,23.61l-7.22-4.01l10.81,7.46c1.3,2.04,0.89,2.94,0.52,3.88l-4.76-3.63l8.39,7.25
						c0.05,1.68-0.05,3.07-1.13,2.49l-6.57-5.21l9.29,9.07c0.92,2-0.23,2.12-1.36,2.27l-4.08-3.17c2.17,4.72,7.83,8.34,10.43,12.69
						c0.59,1.35,0.01,1.82-0.91,2.04c-1.59-2.33-3.17-3.24-4.76-4.08l6.12,9.29c0.44,2.84-0.68,3.53-2.72,2.95
						c-2.53-5.27-10.1-15.75-10.65-14.51c3.02,4.13,5.91,8.36,6.12,14.73c-0.83,1.09-2.09,0.59-2.92,0l1.16,7.73l3.07-6.57
						c4.34,4.32,8.88,8.5,13.79,12.44c2.94,2.23,4.12,2.55,7.08,4.79l16.77,10.45c16.94,7.56,27.61,25.34,33.9,43.97
						c1.12-1.11,2.1-2.42,2.84-4.11c-0.71,0.27,2.79,0.34,2.35-0.74c2.29-18.32-0.95-27.98-5.37-40.36
						C371.09,266.88,365.61,252.82,365.11,250.34z"/>
					<path id="path2606_00000092441412964837965000000000781232717230413196_" class="st11" d="M273.28,125.99
						c-2.34,3.61-6.64,5.11-10.06,9.31"/>
					<path id="path2608_00000106838522558679811540000011099271728746251698_" class="st11" d="M258.84,135.18
						c-0.02,3.36,0.58,6.11,1.67,8.35"/>
					<path id="path2610_00000071527967458946650950000005902387946395204520_" class="st11" d="M255.08,140.81
						c0.85,3.26,1.81,6.47,3.76,9.19"/>
					<path id="path2612_00000123400701571350656780000009565896913579487410_" class="st11" d="M252.78,146.66
						c0.4,3.69,2.62,7.38,5.22,11.07"/>
					<path id="path2616_00000148654333509068108000000015298318741321589430_" class="st11" d="M251.11,156.05
						c1.87,5.51,4.07,10.68,8.14,13.99"/>
					<path id="path2618_00000091707995436175019430000003835860833029466029_" class="st11" d="M255.71,171.92
						c2.17,4.34,4.88,8.46,9.81,11.69"/>
					<path id="path2620_00000109024211692474743330000000024770316050792892_" class="st11" d="M263.85,187.37
						c2.41,3.8,5.24,6.77,8.77,8.35"/>
					<path id="path2622_00000077320354587889139300000015506323247128391613_" class="st11" d="M270.32,199.48
						c2.71,3.83,4.84,8.83,8.56,10.65"/>
					<path id="path2624_00000072253457058661768550000008858909238984358564_" class="st9" d="M305.4,223.07
						c0.19,4.91,2.47,9.08,6.93,11.71c1.7-0.95-1.06-6.99-0.19-9.07C309.64,226.42,307.65,224.03,305.4,223.07z"/>
					<path id="path2626_00000168826125465774485390000009046348606166237117_" class="st9" d="M313.89,227.67
						c-0.29,7.91,2.19,13.49,7.31,16.85c2.08-1.8-3.1-10.88-0.64-13.87C317.71,230.49,315.93,228.91,313.89,227.67z"/>
					<path id="path2628_00000064323928960764779600000002869338915286830743_" class="st9" d="M320.93,231.22
						c0.72,6.52,2.15,15.13,6.09,15.84c1.08-2.94-1.81-11.09,0.27-11.78C324.11,234.99,322.76,232.86,320.93,231.22z"/>
					<path id="path2630_00000161595791108797924180000014621534832063395516_" class="st9" d="M327.97,235.96l5.55,3.93
						c-3.24,0.14,1.94,8.52,0.95,12.73C328.02,251.06,328.68,242.4,327.97,235.96z"/>
					<path id="path2632_00000044865428410303802390000007512310484211941518_" class="st9" d="M334.06,239.61
						c2.29-1.49,4.3-0.02,6.23,2.44c-3.63,3.81,4.52,14.45,3.93,17.06C337.75,259.14,332.17,242.84,334.06,239.61z"/>
					<path id="path2634_00000029749169549572700800000000971915365255061662_" class="st9" d="M340.97,242.59
						c-0.88,8.46,5.56,19.18,13.94,23.01c1.85-1.66-9.55-11.82-7.58-21.66C345.78,244.07,345.21,245.16,340.97,242.59z"/>
					<path id="path2636_00000000945578737520330720000015097709269889077667_" class="st9" d="M348.41,245.7
						c2.93,2.85,5.87,3.12,8.8,3.52c-1.71,3.23,6.89,16.12,6.09,19.09C352.97,262.13,349.38,254.77,348.41,245.7z"/>
					<path id="path2638_00000168804215226665840190000017371308110067563432_" class="st9" d="M358.16,249.36
						c2.05,0.81,4.24,2.54,5.96,1.35l6.77,19.63c-5.77,2.28-10.45-13.3-13.4-20.71"/>
					<path id="path2592_00000039111835524502231180000017654742771357421733_" class="st12" d="M203.94,89.43h48.46
						c4.72,1.78,3.57,8.8,7.73,11.94C239.17,97.79,219.62,93.96,203.94,89.43z"/>
					<path id="path2598_00000016791339898106399110000014767268275095224476_" class="st13" d="M233.21,92.65l14.46-0.2"/>
					<path id="path2600_00000041983666085223460240000011382556477352989341_" class="st14" d="M263.26,94.38
						c0,1.22-1.08,2.2-2.42,2.2s-2.42-0.99-2.42-2.2c0-1.22,1.08-2.2,2.42-2.2S263.26,93.17,263.26,94.38z"/>
					<path id="path2602_00000058577250839651747110000011792222645120819846_" class="st6" d="M261.31,94.28
						c0,0.45-0.36,0.81-0.81,0.81s-0.81-0.36-0.81-0.81s0.36-0.81,0.81-0.81S261.31,93.83,261.31,94.28L261.31,94.28z"/>
				</g>
				<path id="path3231_00000067197545341182772280000014791809573829449372_" class="st9" d="M1111.29,269.47
					c2.28-1.4,6.86,4.71,10.35,2.11c1.28,2.94,2.03,6.83,2.89,10.04c1.47,7.79,2.48,13.71,0.93,24.61l-2.65,5.61
					C1124.27,291.91,1118.46,279.95,1111.29,269.47z"/>
			</g>
			<g id="g3281_00000040560571450117655400000008049558110083341726_" transform="translate(755.0933,0.000000)">
				<path id="path3261_00000036950363287318697380000006505176111052891833_" class="st15" d="M305.78,248.61l9.21,6.5
					c-9.37,3.83,1.41,17.55-7.32,20.6c1.49-0.25,2.94-0.84,4.07-4.07c0.03,4.47-2.04,9.69-4.61,10.3c3.44-1.15,3-2.71,4.07-4.34
					c-4.67,14.27-6.24,28.09-8.4,42.01c0.4,4-2.79,8.73,3.48,10.32c5.91,0.92,11.39-3.3,13.33-0.3l-0.54,4.07
					c-1.57,1.26-3.05,0.1-7.08-0.17c-4.31-0.29-9.63-0.42-11.62-1.73c-5.36,0.47-12.78,8.03-20.87,7.59
					c-2.01,0.74-3.05,1.43-5.43,1.05l-1.16-3.59c3-1.14,5.24,0.55,7.81,0.1c2.99-0.53,6.04-1.92,9.35-3.24
					c-21.89,1.73-20.35-0.08-25.82,1.21c-2.53,1.18-4.89,1.36-7.05,0.27l-0.86-3.55c3.42-1.56,7.22-1.93,11.78-0.1
					c3.15,1.47,10.43,0.06,15.76-0.29c-1.93-2.07-6.38-2.93-11.69-3.5l-2.98,0.27l0.27-3.79c3.31-0.2,6.81,0.31,10.84,2.98
					c5.06,1,13.89,4.11,16.53-2.44c2.69-12.85,6.02-25.06,5.96-40.65c-0.69-4.97-1.11-7.95,1.35-13.21
					C307.96,265.35,305.29,255.5,305.78,248.61z"/>
				<path id="path3263_00000093855115899299816320000008349514860264068489_" class="st16" d="M269.44,324.56
					c-1-1.43-8.18,0.64-8.1,2.72c2.57-1.27,5.33-0.48,8.1,0.37V324.56z"/>
				<path id="path3265_00000036969703190840685720000003924957933549280164_" class="st16" d="M256.48,331.92l0.59,3.31
					c-4.01-0.63-6.21,0.4-7.88,1.91C250.71,334.8,251.58,332.02,256.48,331.92z"/>
				<path id="path3267_00000179612478759788913330000005496055298526491296_" class="st16" d="M272.97,337.08
					c-4.28,1.08-5.44,3.31-6.04,5.74c1.86-2,4.23-2.88,7.07-2.72L272.97,337.08z"/>
				<path id="path3269_00000065763921337790959340000009590204978975538055_" class="st16" d="M320.12,330.08
					c4.41,0.27,5.96,2.25,6.99,4.53c-2.2-1.62-4.69-2.05-7.45-1.38L320.12,330.08z"/>
			</g>
			
				<g id="g3288_00000069384444602388430530000011849079763340076175_" transform="matrix(0.990952,-0.134212,0.134212,0.990952,705.1874,101.0856)">
				<path id="path3290_00000081644565722023664510000000709865104634923681_" class="st17" d="M336.63,187.65l10.77,8.14
					c-7.42,5.16-0.58,32.25-9.31,35.29c1.49-0.25,2.94-0.84,4.07-4.07c0.03,4.47-2.04,9.69-4.61,10.3c3.44-1.15,3-2.71,4.07-4.34
					c-4.67,14.27-6.67,31.26-8.83,45.17c0.4,4-2.79,8.73,3.48,10.32c5.91,0.92,11.39-3.3,13.33-0.3l-0.54,4.07
					c-1.57,1.26-3.05,0.1-7.08-0.17c-4.31-0.29-9.63-0.42-11.62-1.73c-5.36,0.47-12.02,6.66-20.53,8.43
					c-2.01,0.74-2.64,2.62-5.03,2.23l-1.16-3.59c3-1.14,5.15,0.21,7.41-1.09c2.42-1.4,5.7-2.76,9.01-4.08
					c-21.89,1.73-20.35-0.08-25.82,1.21c-2.53,1.18-4.89,1.36-7.05,0.27l-0.86-3.55c3.42-1.56,7.22-1.93,11.78-0.1
					c3.15,1.47,10.43,0.06,15.76-0.29c-1.93-2.07-6.38-2.93-11.69-3.5l-2.98,0.27l0.27-3.79c3.31-0.2,6.81,0.31,10.84,2.98
					c5.06,1,13.89,4.11,16.53-2.44c2.69-12.85,6.45-28.22,6.39-43.81c-0.69-4.97-1.11-7.95,1.35-13.21
					C338.57,219.33,338.19,195.17,336.63,187.65z"/>
				<path id="path3292_00000116924012158752571930000002870057234950534815_" class="st18" d="M299.43,283.1
					c-1-1.43-8.18,0.64-8.1,2.72c2.57-1.27,5.33-0.48,8.1,0.37V283.1z"/>
				<path id="path3294_00000144296164117341527550000018272499878230558869_" class="st18" d="M286.47,290.46l0.59,3.31
					c-4.01-0.63-6.21,0.4-7.88,1.91C280.7,293.34,281.57,290.56,286.47,290.46z"/>
				<path id="path3296_00000175312741911053983220000006723652569837806740_" class="st18" d="M303.36,297.71
					c-4.28,1.08-5.44,3.31-6.04,5.74c1.86-2,4.23-2.88,7.07-2.72L303.36,297.71z"/>
				<path id="path3298_00000161629441015902691800000015281577092546921397_" class="st18" d="M350.11,288.62
					c4.41,0.27,5.96,2.25,6.99,4.53c-2.2-1.62-4.69-2.05-7.45-1.38L350.11,288.62z"/>
			</g>
		</g>
	</g>
</g>
<g>
	<path d="M547.6,130.32c18.51,0,33.24,5.11,44.2,15.34c10.96,10.23,16.44,24.19,16.44,41.89c0,17.86-5.52,32.02-16.56,42.49
		c-11.04,10.47-25.73,15.71-44.08,15.71h-36.77v55.04h-34.82V130.32H547.6z M546.14,212.63c8.77,0,15.42-2.19,19.97-6.58
		c4.54-4.38,6.82-10.39,6.82-18.02c0-7.79-2.28-13.84-6.82-18.14c-4.55-4.3-11.2-6.45-19.97-6.45h-35.31v49.19H546.14z"/>
	<path d="M708.81,163.93c2.27,0,4.87,0.16,7.79,0.49v35.8c-3.57-0.32-6.42-0.49-8.52-0.49c-12.34,0-22.28,3.21-29.83,9.62
		c-7.55,6.42-11.32,17.01-11.32,31.78v59.66H632.1V166.85h34.82v23.38C675.2,172.69,689.17,163.93,708.81,163.93z"/>
	<path d="M775.78,267.91h69.65v32.88h-114.7v-32.88l67.7-68.19h-63.8v-32.88h109.1v32.88L775.78,267.91z"/>
	<path d="M963.29,166.85h37.26l-87.18,194.82h-37.02l35.07-78.66l-51.63-116.16h37.02l33.12,78.41L963.29,166.85z"/>
	<path d="M1072.62,194.12v33.12l-18.02,4.38v69.16h-34.82v-60.39l-18.99,4.63V211.9l18.99-4.87v-93.76h34.82v85.23L1072.62,194.12z"
		/>
	<path d="M1148.12,163.93c21.92,0,39.24,7.55,51.99,22.65c12.74,15.1,18.22,33.85,16.44,56.25h-102.77
		c1.13,10.39,4.87,18.35,11.2,23.87c6.33,5.52,14.2,8.28,23.62,8.28c6.82,0,12.91-1.5,18.26-4.51c5.36-3,9.17-7.1,11.45-12.3h36.04
		c-6.98,22.08-21.51,36.28-43.59,42.62h0.49c-6.66,7.63-11.2,12.86-13.64,15.71c-2.44,2.84-4.67,6.09-6.7,9.74
		c-2.03,3.65-3.04,6.86-3.04,9.62c0,6.49,4.38,9.74,13.15,9.74c1.62,0,5.03-0.33,10.23-0.97v19.24c-4.38,0.49-9.66,0.73-15.83,0.73
		c-22.73,0-34.09-7.96-34.09-23.86c0-6.66,1.91-12.66,5.72-18.02c3.81-5.36,9.78-11.69,17.9-18.99
		c-19.81-0.97-35.88-7.95-48.22-20.94c-12.34-12.99-18.51-29.22-18.51-48.7c0-20.13,6.58-36.85,19.73-50.17
		C1111.1,170.59,1127.82,163.93,1148.12,163.93z M1147.87,192.66c-8.28,0-15.18,2.23-20.7,6.7c-5.52,4.47-9.42,10.43-11.69,17.9
		h64.05c-1.95-7.47-5.68-13.43-11.2-17.9C1162.81,194.9,1155.99,192.66,1147.87,192.66z"/>
	<path d="M1375.56,300.79H1331l-54.79-58.44v58.44h-34.82V113.27h34.82v109.34l50.9-55.77h44.32l-61.12,63.8L1375.56,300.79z"/>
	<path d="M1412.09,104.99c6.33,0,11.53,1.91,15.58,5.72c4.06,3.82,6.09,8.73,6.09,14.73c0,6.01-2.03,10.96-6.09,14.85
		c-4.06,3.9-9.25,5.84-15.58,5.84c-6.17,0-11.32-1.95-15.46-5.84c-4.14-3.9-6.21-8.85-6.21-14.85c0-5.84,2.07-10.71,6.21-14.61
		C1400.76,106.94,1405.91,104.99,1412.09,104.99z M1394.55,300.79V166.85h34.82v133.94H1394.55z"/>
</g>
</svg>
