<?xml version="1.0" encoding="utf-8"?>
<!-- Generator: Adobe Illustrator 27.4.0, SVG Export Plug-In . SVG Version: 6.00 Build 0)  -->
<svg version="1.1" id="Warstwa_1" xmlns="http://www.w3.org/2000/svg" xmlns:xlink="http://www.w3.org/1999/xlink" x="0px" y="0px"
	 viewBox="0 0 300 225" style="enable-background:new 0 0 300 225;" xml:space="preserve">
<style type="text/css">
	.st0{fill:#0D1F2D;}
	.st1{fill-rule:evenodd;clip-rule:evenodd;fill:#FFC800;}
	.st2{fill-rule:evenodd;clip-rule:evenodd;fill:#00AB4E;stroke:#000000;stroke-width:0.1;}
	.st3{fill-rule:evenodd;clip-rule:evenodd;fill:#00AC4E;stroke:#000000;stroke-width:0.1;}
	.st4{fill-rule:evenodd;clip-rule:evenodd;fill:#0E8D49;stroke:#000000;stroke-width:0.1;}
	.st5{stroke:#000000;stroke-width:0.1;stroke-linecap:round;}
	.st6{fill:none;stroke:#000000;stroke-width:0.1;}
	.st7{fill-rule:evenodd;clip-rule:evenodd;fill:#00AC4E;}
	.st8{fill-rule:evenodd;clip-rule:evenodd;fill:#FFFFFF;stroke:#000000;stroke-width:0.1;}
	.st9{fill-rule:evenodd;clip-rule:evenodd;fill:#252122;stroke:#000000;stroke-width:0.1;}
	.st10{fill:none;stroke:#000000;stroke-width:0.1;stroke-linecap:round;}
	.st11{fill-rule:evenodd;clip-rule:evenodd;fill:#D6AC00;stroke:#000000;stroke-width:0.1;}
	.st12{fill:none;stroke:#504E4B;stroke-width:0.1;stroke-linecap:round;}
	.st13{fill:#FEFFFF;stroke:#000000;stroke-width:0.1;stroke-linecap:round;}
	.st14{fill-rule:evenodd;clip-rule:evenodd;fill:#FDAF17;stroke:#010000;stroke-width:0.1;}
	.st15{fill-rule:evenodd;clip-rule:evenodd;stroke:#000000;stroke-width:0.1;}
	.st16{fill-rule:evenodd;clip-rule:evenodd;fill:#FDAF17;stroke:#010000;stroke-width:0.1;stroke-miterlimit:4;}
	.st17{fill-rule:evenodd;clip-rule:evenodd;stroke:#000000;stroke-width:0.1;stroke-miterlimit:4;}
	.st18{fill:#FFFFFF;}
</style>
<rect class="st0" width="300" height="225"/>
<g id="g3342" transform="translate(-752.3692,0.000000)">
	<g id="g3141">
		<path id="path1334" class="st1" d="M796.27,177.57l-9.47,0.05v14.22c0.39,4.61,4.41,8.95,9.47,8.8V177.57z"/>
		<path id="path2482" class="st2" d="M790.86,182.96l0.01-0.74c0.01-0.3-0.16-0.33-0.3-0.23c-0.15,0.11-0.27,0.01-0.22-0.4
			c0.08-0.52-0.27-0.61-0.38-0.38c-0.17,0.28-0.29,0.04-0.23-0.27c0.06-0.53-0.28-0.67-0.46-0.35c-0.19,0.24-0.29,0.2-0.34-0.08
			c-0.01-0.25-0.24-0.25-0.46-0.25c-0.25,0.04-0.38,0.19-0.45,0.41c-0.05,0.3,0.07,0.42,0.29,0.46c0.25-0.01,0.42,0.18,0.08,0.37
			c-0.3,0.19-0.31,0.47,0.3,0.45c0.6-0.1,0.48,0.17,0.33,0.22c-0.33,0.18-0.02,0.46,0.46,0.38c0.48-0.06,0.6,0.15,0.42,0.22
			c-0.22,0.2-0.01,0.38,0.37,0.29C790.47,183.02,790.67,182.98,790.86,182.96z"/>
		<path id="path2486" class="st2" d="M790.85,187.99l0.02-0.8c0.02-0.32-0.18-0.36-0.33-0.25c-0.17,0.12-0.3,0.01-0.24-0.43
			c0.09-0.57-0.3-0.66-0.42-0.42c-0.19,0.31-0.32,0.05-0.26-0.3c0.07-0.58-0.31-0.73-0.51-0.39c-0.21,0.27-0.32,0.21-0.38-0.09
			c-0.01-0.27-0.26-0.27-0.51-0.27c-0.27,0.04-0.42,0.21-0.5,0.45c-0.06,0.32,0.08,0.46,0.32,0.51c0.28-0.01,0.46,0.2,0.09,0.4
			c-0.33,0.2-0.35,0.52,0.33,0.49c0.66-0.11,0.53,0.19,0.36,0.24c-0.37,0.19-0.02,0.5,0.51,0.42c0.53-0.06,0.66,0.16,0.47,0.24
			c-0.24,0.22-0.01,0.41,0.41,0.31C790.43,188.05,790.65,188.01,790.85,187.99z"/>
		<path id="path2488" class="st2" d="M790.9,191.8l-0.22-0.74c-0.08-0.3-0.27-0.28-0.38-0.14c-0.12,0.16-0.28,0.1-0.35-0.33
			c-0.08-0.54-0.47-0.52-0.51-0.26c-0.08,0.34-0.28,0.13-0.32-0.2c-0.11-0.55-0.5-0.58-0.59-0.21c-0.11,0.3-0.24,0.29-0.37,0.02
			c-0.09-0.24-0.32-0.17-0.55-0.1c-0.24,0.12-0.33,0.31-0.33,0.55c0.04,0.31,0.21,0.4,0.44,0.37c0.26-0.09,0.49,0.05,0.2,0.34
			c-0.24,0.28-0.17,0.57,0.45,0.36c0.58-0.29,0.54,0.02,0.4,0.12c-0.28,0.28,0.12,0.46,0.6,0.24c0.47-0.21,0.66-0.04,0.5,0.09
			c-0.16,0.27,0.11,0.38,0.47,0.17C790.52,191.97,790.71,191.87,790.9,191.8z"/>
		<path id="path2490" class="st2" d="M792.07,183.15l0.12-0.73c0.04-0.29,0.22-0.3,0.34-0.17c0.13,0.14,0.27,0.06,0.29-0.35
			c0.02-0.52,0.38-0.55,0.44-0.31c0.12,0.31,0.28,0.09,0.28-0.23c0.04-0.53,0.4-0.61,0.52-0.26c0.14,0.27,0.25,0.25,0.35-0.02
			c0.06-0.24,0.28-0.2,0.5-0.16c0.24,0.08,0.34,0.25,0.37,0.48c0,0.3-0.15,0.4-0.37,0.4c-0.25-0.06-0.45,0.1-0.15,0.35
			c0.26,0.24,0.22,0.52-0.38,0.39c-0.57-0.21-0.5,0.08-0.36,0.16c0.29,0.23-0.06,0.45-0.52,0.29c-0.46-0.14-0.61,0.04-0.45,0.14
			c0.18,0.24-0.06,0.37-0.41,0.22C792.44,183.27,792.25,183.19,792.07,183.15z"/>
		<path id="path2492" class="st2" d="M792.4,187.58l0.05-0.8c0.01-0.32,0.21-0.35,0.35-0.22c0.16,0.14,0.3,0.04,0.28-0.41
			c-0.04-0.57,0.35-0.64,0.46-0.38c0.16,0.32,0.31,0.07,0.28-0.27c-0.02-0.59,0.37-0.7,0.54-0.34c0.18,0.28,0.31,0.24,0.38-0.06
			c0.04-0.27,0.29-0.24,0.53-0.22c0.27,0.07,0.41,0.24,0.46,0.49c0.03,0.33-0.12,0.45-0.36,0.48c-0.28-0.03-0.48,0.16-0.12,0.39
			c0.31,0.23,0.3,0.55-0.37,0.46c-0.65-0.17-0.54,0.14-0.38,0.21c0.35,0.22-0.02,0.5-0.55,0.37c-0.52-0.11-0.67,0.1-0.49,0.2
			c0.22,0.24-0.03,0.41-0.43,0.28C792.82,187.68,792.6,187.62,792.4,187.58z"/>
		<path id="path2221" class="st3" d="M791.38,182.26l0,1.14c-0.9-1-1.81-2.03-2.94-2.71c1.03,0.91,1.93,1.89,2.82,2.86l-0.45-0.25
			l-0.11,0.12c0.23,0.17,0.58,0.3,0.54,0.57l-0.28-0.11l-0.04,0.14c0.17,0.1,0.36,0.18,0.29,0.44l-0.01,0.64l-0.12,0.11l-0.48-0.47
			l-0.11,0.15l0.6,0.63l-0.39-0.19l-0.04,0.13c0.25,0.14,0.5,0.27,0.55,0.63l-0.08,2.11c-0.85-0.87-1.78-1.91-2.79-2.6l2.83,2.93
			l-0.34-0.23l-0.13,0.13c0.27,0.09,0.46,0.28,0.43,0.74l0.01,0.41l-0.53-0.37l-0.04,0.22l0.62,0.45l-0.4-0.08l-0.07,0.14
			c0.24,0.03,0.43,0.13,0.41,0.53l-0.02,1.24c-1.07-0.56-2.13-0.95-3.2-1.31l2.93,1.47l0.22,0.43v1.46
			c-0.03,0.62-0.21,1.83-0.51,1.85l-0.31,0.03c-0.12,0.1-0.24,0.09-0.38,0c-0.28-0.24-0.43-0.09-0.55,0.14
			c0.13-0.07,0.26-0.15,0.41-0.04l0.28-0.03c-0.46,0.07-0.35,0.35-0.38,0.57c0.17-0.39,0.45-0.37,0.71-0.45
			c0.49,0.11,0.58-0.21,0.72-0.46c-0.11,0.25-0.12,0.57-0.53,0.62c-0.42-0.05-0.44,0.2-0.44,0.45c0.05-0.28,0.4-0.37,0.67-0.52
			c-0.28,0.23-0.42,0.44-0.32,0.62c0.12-0.2,0.23-0.43,0.45-0.49c0.2-0.1,0.29-0.3,0.4-0.49c0.04,0.18,0.11,0.37-0.04,0.51
			c-0.1,0.21-0.01,0.37,0.03,0.54c0.05-0.35,0.23-0.52,0.41-0.68c-0.2,0.28-0.08,0.44,0.1,0.58c-0.03-0.2-0.03-0.38,0.1-0.54
			c-0.03-0.21,0.04-0.35,0.15-0.46c0.18,0.36,0.2,0.76,0.24,1.17c0.05-0.15,0.14-0.29,0.08-0.49c0.2,0.08,0.31,0.26,0.42,0.45
			c0.03-0.4-0.45-0.59-0.48-1.13c0.1,0.2,0.08,0.54,0.42,0.45c0.27,0,0.32,0.14,0.34,0.3c-0.06,0.17,0.04,0.25,0.21,0.3
			c-0.07-0.13-0.12-0.27-0.1-0.43c0.17,0.01,0.24,0.36,0.41,0.43c0.08,0.01,0.14,0,0.12-0.08c-0.21-0.1-0.29-0.52-0.49-0.51
			c-0.2-0.07-0.32-0.19-0.43-0.33c0.34-0.2,0.55-0.06,0.75,0.11c0.2,0.2,0.56,0.34,0.5,0.65l0.08,0.01l0.07-0.22
			c0.1,0.17,0.19,0.33,0.4,0.47l0.16-0.04c-0.15-0.13-0.26-0.27-0.29-0.45c-0.05-0.1-0.08-0.22-0.27-0.21
			c-0.25-0.07-0.37-0.21-0.48-0.36c-0.19-0.23-0.44-0.3-0.72-0.27c-0.65-0.03-0.46-0.48-0.61-0.76l0-1.73
			c0.12-0.4,0.37-0.54,0.62-0.68c-0.27-0.05-0.53-0.03-0.77,0.29l-0.03-2.55c0.16-0.38,0.39-0.6,0.62-0.82l-0.11-0.25l-0.48,0.54
			l-0.14-0.06c-0.14-0.86,0.23-1,0.58-1.17l-0.06-0.2l-0.49,0.34c0.86-1.08,1.84-2.09,3.04-2.96c-1.08,0.63-2.3,1.47-3.22,2.67
			v-2.23c0.09-0.29,0.29-0.4,0.48-0.53l-0.1-0.16l-0.33,0.15l0.74-0.67l-0.11-0.21l-0.82,0.69l0.04-0.88
			c0.05-0.25,0.19-0.3,0.3-0.43l-0.09-0.18l-0.24,0.18c0.91-1.01,2.09-1.7,3.22-2.45c-1.29,0.6-2.54,1.26-3.47,2.32l0.06-1.39
			L791.38,182.26z"/>
		<path id="path2494" class="st2" d="M792.23,191.67l0.16-0.75c0.06-0.31,0.25-0.3,0.37-0.17c0.13,0.15,0.28,0.07,0.32-0.35
			c0.04-0.55,0.43-0.56,0.49-0.3c0.11,0.33,0.29,0.11,0.31-0.22c0.07-0.56,0.45-0.62,0.57-0.26c0.14,0.29,0.26,0.27,0.38-0.01
			c0.07-0.25,0.31-0.2,0.54-0.14c0.25,0.1,0.36,0.28,0.37,0.52c-0.01,0.31-0.18,0.41-0.41,0.41c-0.26-0.07-0.48,0.09-0.17,0.36
			c0.26,0.26,0.21,0.55-0.42,0.39c-0.6-0.24-0.54,0.07-0.39,0.15c0.3,0.26-0.09,0.47-0.58,0.28c-0.49-0.17-0.66,0.01-0.49,0.13
			c0.18,0.25-0.08,0.39-0.45,0.21C792.62,191.81,792.42,191.73,792.23,191.67z"/>
		<path id="path2225" class="st3" d="M791.87,191.92c0.95-0.8,2.11-1.3,3.22-1.88c-1.11,0.65-2.19,1.32-3.13,2.11"/>
		<path id="path2293" class="st2" d="M790.97,181.51l1.15,0.04c-0.01-0.53,0.2-1.5-0.52-1.58
			C790.89,180.04,791,180.83,790.97,181.51z"/>
		<path id="path2227" class="st4" d="M790.79,181.52h1.51c-0.03,0.42-0.19,0.79-0.81,0.8C790.77,182.26,790.8,181.79,790.79,181.52z
			"/>
		<path id="path2229" class="st4" d="M791.93,181.53l0.29,0.32"/>
		<path id="path2231" class="st4" d="M791.58,181.53l0.54,0.53"/>
		<path id="path2233" class="st4" d="M791.21,181.51l0.71,0.71"/>
		<path id="path2235" class="st4" d="M790.89,181.52l0.76,0.77"/>
		<path id="path2237" class="st4" d="M790.78,181.72"/>
		<path id="path2239" class="st4" d="M790.8,181.72l0.53,0.56"/>
		<path id="path2241" class="st4" d="M792.19,181.51l-0.81,0.78"/>
		<path id="path2243" class="st4" d="M791.87,181.52l-0.72,0.7"/>
		<path id="path2245" class="st4" d="M791.57,181.52l-0.6,0.57"/>
		<path id="path2247" class="st4" d="M791.22,181.51l-0.38,0.39"/>
		<path id="path2249" class="st4" d="M790.91,181.52l-0.11,0.14"/>
		<path id="path2291" class="st4" d="M792.26,181.76l-0.56,0.53"/>
		<path id="path2295" class="st5" d="M791.67,179.9c0,0.03-0.03,0.05-0.06,0.05c-0.03,0-0.06-0.02-0.06-0.05
			c0-0.03,0.03-0.05,0.06-0.05C791.65,179.85,791.67,179.87,791.67,179.9z"/>
		<path id="path2316" class="st2" d="M789.5,184.93l0.78-1.02c-0.44-0.3-1.09-1.05-1.62-0.45
			C788.25,184.14,788.97,184.5,789.5,184.93z"/>
		<g id="g3070">
			<path id="path2320" class="st4" d="M789.44,185.02l0.88-1.23c0.32,0.27,0.53,0.61,0.18,1.13
				C790.04,185.47,789.67,185.17,789.44,185.02z"/>
			<path id="path2322" class="st4" d="M790.11,184.1l0.43-0.05"/>
			<path id="path2324" class="st4" d="M789.91,184.39l0.74-0.13"/>
			<path id="path2326" class="st4" d="M789.68,184.67l0.99-0.16"/>
			<path id="path2328" class="st4" d="M789.5,184.94l1.07-0.17"/>
			<path id="path2330" class="st4" d="M789.6,185.14"/>
			<path id="path2332" class="st4" d="M789.61,185.13l0.77-0.1"/>
			<path id="path2334" class="st4" d="M790.25,183.87l0.16,1.11"/>
			<path id="path2336" class="st4" d="M790.07,184.14l0.15,1"/>
			<path id="path2338" class="st4" d="M789.9,184.39l0.12,0.82"/>
			<path id="path2340" class="st4" d="M789.68,184.66l0.1,0.54"/>
			<path id="path2342" class="st4" d="M789.51,184.93l0.04,0.17"/>
			<path id="path2344" class="st4" d="M790.49,183.97l0.11,0.76"/>
		</g>
		<path id="path2348" class="st2" d="M793.65,184.82l-0.6-1.19c0.49-0.21,1.27-0.82,1.7-0.1
			C795.03,184.31,794.26,184.51,793.65,184.82z"/>
		<path id="path2352" class="st4" d="M793.68,184.91l-0.63-1.37c-0.37,0.2-0.64,0.5-0.39,1.07
			C793.01,185.24,793.42,185.02,793.68,184.91z"/>
		<path id="path2354" class="st4" d="M793.19,183.88l-0.41-0.13"/>
		<path id="path2356" class="st4" d="M793.34,184.21l-0.7-0.27"/>
		<path id="path2358" class="st4" d="M793.51,184.52l-0.94-0.35"/>
		<path id="path2360" class="st4" d="M793.63,184.82l-1.02-0.37"/>
		<path id="path2362" class="st4" d="M793.5,185"/>
		<path id="path2364" class="st4" d="M793.49,184.98l-0.73-0.24"/>
		<path id="path2366" class="st4" d="M793.1,183.63l-0.37,1.06"/>
		<path id="path2368" class="st4" d="M793.22,183.93l-0.34,0.95"/>
		<path id="path2370" class="st4" d="M793.35,184.2l-0.27,0.78"/>
		<path id="path2372" class="st4" d="M793.51,184.51l-0.2,0.51"/>
		<path id="path2374" class="st4" d="M793.62,184.81l-0.08,0.16"/>
		<path id="path2376" class="st4" d="M792.84,183.68l-0.25,0.73"/>
		<path id="path2380" class="st2" d="M793.72,189.32l-0.56-1.15c0.49-0.21,1.28-0.81,1.69-0.11
			C795.1,188.8,794.33,189,793.72,189.32z"/>
		<g id="g3126">
			<path id="path2384" class="st4" d="M793.76,189.42l-0.62-1.38c-0.37,0.2-0.64,0.49-0.4,1.07
				C793.09,189.74,793.5,189.52,793.76,189.42z"/>
			<path id="path2386" class="st4" d="M793.28,188.39l-0.41-0.14"/>
			<path id="path2388" class="st4" d="M793.43,188.71l-0.7-0.28"/>
			<path id="path2390" class="st4" d="M793.6,189.03l-0.93-0.36"/>
			<path id="path2392" class="st4" d="M793.72,189.33l-1.02-0.38"/>
			<path id="path2394" class="st4" d="M793.58,189.51"/>
			<path id="path2396" class="st4" d="M793.57,189.49l-0.73-0.25"/>
			<path id="path2398" class="st4" d="M793.19,188.14l-0.38,1.06"/>
			<path id="path2400" class="st4" d="M793.31,188.44l-0.35,0.95"/>
			<path id="path2402" class="st4" d="M793.44,188.71l-0.28,0.78"/>
			<path id="path2404" class="st4" d="M793.59,189.02l-0.2,0.51"/>
			<path id="path2406" class="st4" d="M793.71,189.32l-0.08,0.16"/>
			<path id="path2408" class="st4" d="M792.94,188.19l-0.26,0.72"/>
		</g>
		<path id="path2444" class="st2" d="M789.55,189.7l0.56-1.15c-0.49-0.21-1.28-0.81-1.69-0.11
			C788.16,189.18,788.94,189.39,789.55,189.7z"/>
		<g id="g3098">
			<path id="path2448" class="st4" d="M789.51,189.8l0.62-1.38c0.37,0.2,0.64,0.49,0.4,1.07
				C790.18,190.13,789.77,189.91,789.51,189.8z"/>
			<path id="path2450" class="st4" d="M789.98,188.77l0.41-0.14"/>
			<path id="path2452" class="st4" d="M789.84,189.09l0.7-0.28"/>
			<path id="path2454" class="st4" d="M789.67,189.41l0.93-0.36"/>
			<path id="path2456" class="st4" d="M789.55,189.71l1.02-0.38"/>
			<path id="path2458" class="st4" d="M789.69,189.89"/>
			<path id="path2460" class="st4" d="M789.69,189.88l0.73-0.25"/>
			<path id="path2462" class="st4" d="M790.07,188.52l0.38,1.06"/>
			<path id="path2464" class="st4" d="M789.95,188.82l0.35,0.95"/>
			<path id="path2466" class="st4" d="M789.83,189.09l0.28,0.78"/>
			<path id="path2468" class="st4" d="M789.67,189.41l0.2,0.51"/>
			<path id="path2470" class="st4" d="M789.56,189.7l0.08,0.16"/>
			<path id="path2472" class="st4" d="M790.33,188.57l0.26,0.72"/>
		</g>
		<path id="path2474" class="st5" d="M794.88,183.53c0,0.03-0.03,0.05-0.06,0.05c-0.03,0-0.06-0.02-0.06-0.05s0.03-0.05,0.06-0.05
			C794.85,183.47,794.88,183.5,794.88,183.53z"/>
		<path id="path2476" class="st5" d="M788.69,183.39c0,0.03-0.03,0.05-0.06,0.05s-0.06-0.02-0.06-0.05c0-0.03,0.03-0.05,0.06-0.05
			S788.69,183.36,788.69,183.39z"/>
		<path id="path2478" class="st5" d="M788.5,188.38c0,0.03-0.03,0.05-0.06,0.05c-0.03,0-0.06-0.02-0.06-0.05s0.03-0.05,0.06-0.05
			C788.47,188.33,788.5,188.35,788.5,188.38z"/>
		<path id="path2480" class="st5" d="M794.92,188.12c0,0.03-0.03,0.05-0.06,0.05c-0.03,0-0.06-0.02-0.06-0.05s0.03-0.05,0.06-0.05
			C794.89,188.07,794.92,188.09,794.92,188.12z"/>
		<path id="path2484" class="st6" d="M789.73,180.89h-0.01"/>
	</g>
	<g id="g3300">
		<path id="path2209" class="st7" d="M796.26,177.57l9.47,0.05v14.22c-0.39,4.61-4.41,8.95-9.47,8.8V177.57z"/>
		<g id="g3233">
			<g id="g2640" transform="translate(750.1832,0.000000)">
				<path id="path2594" class="st8" d="M50,189c0.07-1-0.48-1.64-0.88-2.37c-0.74-1.38-0.13-2.42,0.52-2.82
					c0.39-0.34,0.45-0.86-0.15-1.04l-3.02-0.81h2.39c0.13-0.14,0.31-0.25,0.55-0.24c0.05,0.25,0.22,0.5,0.59,0.66
					c0.6,0.13,0.96,0.92,0.32,1.69c-0.57,0.52-0.95,1.11-0.51,1.93c0.21,0.25,0.42,0.18,0.63-0.02c0.75-0.7,1.05-0.59,1.74-0.12
					c0.49,0.27,0.92,0.68,1.29,1.16c1.17,1.09,1.92,4.72,1.56,5.8c-0.03-0.05-0.07-0.08-0.07-0.17c0.16-1.18-0.34-2.14-0.68-3.15
					c0.36,1.04,0.76,2.06,0.61,3.18c-0.08,0.18-0.13,0.23-0.19,0.28c-0.35-0.93-0.76-1.79-1.72-2.22c-0.64-0.38-1.27-0.77-1.78-1.34
					l-0.16,0.36l-0.12-0.73c0.01,0.33-0.03,0.62-0.18,0.84c0.07-0.3,0.01-0.61-0.07-0.91c-0.04,0.29-0.16,0.43-0.27,0.59
					c0.08-0.25,0.08-0.52,0.06-0.79c-0.05,0.17-0.12,0.32-0.25,0.38c0.11-0.29,0.03-0.57-0.07-0.86L50,189z"/>
				<path id="path2596" class="st9" d="M49.4,181.7c0.68-0.09,0.95,0.3,1.23,0.69c0.18,0.32,0.39,0.75,0.81,0.84
					c-0.19,0.12-0.34-0.01-0.5-0.06l0.41,0.33c-0.23-0.03-0.47-0.05-0.68-0.34c-0.02-0.4-0.28-0.64-0.62-0.8
					C49.65,182.26,49.48,182.02,49.4,181.7z"/>
				<path id="path2604" class="st9" d="M54.41,189.87l-0.15-0.37c-0.02,0.08-0.02,0.11,0.04,0.37c-0.36-0.11-0.43-0.43-0.6-0.68
					c0.05,0.18,0.1,0.37,0.25,0.57c-0.39-0.08-0.44-0.36-0.63-0.64c0.04,0.14,0.03,0.25,0.13,0.4c-0.41-0.15-0.49-0.43-0.6-0.71
					c-0.03,0.2,0.07,0.32,0.13,0.46c-0.34,0.06-0.37-0.35-0.49-0.62c-0.03,0.11,0.01,0.27,0.06,0.43c-0.3-0.15-0.33-0.39-0.42-0.65
					c-0.02,0.12-0.03,0.26,0.04,0.42c-0.32-0.11-0.41-0.46-0.54-0.77c-0.01,0.15,0.01,0.25,0.07,0.49
					c-0.55-0.48-0.73-1.03-0.66-1.76c0.1-0.48,0.41-0.61,0.94-0.42c-0.22-0.18-0.68-0.53-1.11-0.16c-0.31,0.43-0.19,0.8-0.1,1.16
					l-0.35-0.2l0.53,0.37c0.06,0.1,0.04,0.14,0.03,0.19l-0.23-0.18l0.41,0.36c0,0.08,0,0.15-0.06,0.12l-0.32-0.26l0.46,0.44
					c0.05,0.1-0.01,0.1-0.07,0.11l-0.2-0.16c0.11,0.23,0.38,0.41,0.51,0.62c0.03,0.07,0,0.09-0.04,0.1
					c-0.08-0.11-0.16-0.16-0.23-0.2l0.3,0.46c0.02,0.14-0.03,0.17-0.13,0.14c-0.12-0.26-0.5-0.77-0.52-0.71
					c0.15,0.2,0.29,0.41,0.3,0.72c-0.04,0.05-0.1,0.03-0.14,0l0.06,0.38l0.15-0.32c0.21,0.21,0.44,0.42,0.68,0.61
					c0.14,0.11,0.2,0.12,0.35,0.23l0.82,0.51c0.83,0.37,1.35,1.24,1.66,2.16c0.05-0.05,0.1-0.12,0.14-0.2
					c-0.04,0.01,0.14,0.02,0.12-0.04c0.11-0.9-0.05-1.37-0.26-1.98C54.71,190.68,54.44,189.99,54.41,189.87z"/>
				<path id="path2606" class="st10" d="M49.91,183.77c-0.12,0.18-0.33,0.25-0.49,0.46"/>
				<path id="path2608" class="st10" d="M49.2,184.22c0,0.16,0.03,0.3,0.08,0.41"/>
				<path id="path2610" class="st10" d="M49.01,184.5c0.04,0.16,0.09,0.32,0.18,0.45"/>
				<path id="path2612" class="st10" d="M48.9,184.78c0.02,0.18,0.13,0.36,0.26,0.54"/>
				<path id="path2614" class="st6" d="M48.79,185.13"/>
				<path id="path2616" class="st10" d="M48.82,185.24c0.09,0.27,0.2,0.52,0.4,0.69"/>
				<path id="path2618" class="st10" d="M49.04,186.02c0.11,0.21,0.24,0.42,0.48,0.57"/>
				<path id="path2620" class="st10" d="M49.44,186.78c0.12,0.19,0.26,0.33,0.43,0.41"/>
				<path id="path2622" class="st10" d="M49.76,187.38c0.13,0.19,0.24,0.43,0.42,0.52"/>
				<path id="path2624" class="st8" d="M51.48,188.53c0.01,0.24,0.12,0.45,0.34,0.57c0.08-0.05-0.05-0.34-0.01-0.44
					C51.69,188.7,51.59,188.58,51.48,188.53z"/>
				<path id="path2626" class="st8" d="M51.9,188.76c-0.01,0.39,0.11,0.66,0.36,0.83c0.1-0.09-0.15-0.53-0.03-0.68
					C52.09,188.9,52,188.82,51.9,188.76z"/>
				<path id="path2628" class="st8" d="M52.25,188.93c0.04,0.32,0.11,0.74,0.3,0.78c0.05-0.14-0.09-0.54,0.01-0.58
					C52.4,189.12,52.34,189.01,52.25,188.93z"/>
				<path id="path2630" class="st8" d="M52.59,189.17l0.27,0.19c-0.16,0.01,0.1,0.42,0.05,0.62
					C52.59,189.91,52.63,189.48,52.59,189.17z"/>
				<path id="path2632" class="st8" d="M52.89,189.34c0.11-0.07,0.21,0,0.31,0.12c-0.18,0.19,0.22,0.71,0.19,0.84
					C53.07,190.3,52.8,189.5,52.89,189.34z"/>
				<path id="path2634" class="st8" d="M53.23,189.49c-0.04,0.42,0.27,0.94,0.68,1.13c0.09-0.08-0.47-0.58-0.37-1.06
					C53.46,189.56,53.44,189.62,53.23,189.49z"/>
				<path id="path2636" class="st8" d="M53.59,189.64c0.14,0.14,0.29,0.15,0.43,0.17c-0.08,0.16,0.34,0.79,0.3,0.94
					C53.82,190.45,53.64,190.09,53.59,189.64z"/>
				<path id="path2638" class="st8" d="M54.07,189.82c0.1,0.04,0.21,0.12,0.29,0.07l0.33,0.96c-0.28,0.11-0.51-0.65-0.66-1.02"/>
				<path id="path2592" class="st11" d="M46.51,181.98h2.38c0.23,0.09,0.18,0.43,0.38,0.59C48.23,182.39,47.27,182.2,46.51,181.98z"
					/>
				<path id="path2598" class="st12" d="M47.94,182.13l0.71-0.01"/>
				<path id="path2600" class="st13" d="M49.42,182.22c0,0.06-0.05,0.11-0.12,0.11s-0.12-0.05-0.12-0.11c0-0.06,0.05-0.11,0.12-0.11
					S49.42,182.16,49.42,182.22z"/>
				<path id="path2602" class="st5" d="M49.32,182.21c0,0.02-0.02,0.04-0.04,0.04c-0.02,0-0.04-0.02-0.04-0.04
					c0-0.02,0.02-0.04,0.04-0.04C49.3,182.17,49.32,182.19,49.32,182.21L49.32,182.21z"/>
			</g>
			<path id="path3231" class="st8" d="M804.4,190.81c0.11-0.07,0.34,0.23,0.51,0.1c0.06,0.14,0.1,0.34,0.14,0.49
				c0.07,0.38,0.12,0.67,0.05,1.21l-0.13,0.28C805.04,191.91,804.75,191.32,804.4,190.81z"/>
		</g>
		<g id="g3281" transform="translate(755.0933,0.000000)">
			<path id="path3261" class="st14" d="M46.83,189.79l0.45,0.32c-0.46,0.19,0.07,0.86-0.36,1.01c0.07-0.01,0.14-0.04,0.2-0.2
				c0,0.22-0.1,0.48-0.23,0.51c0.17-0.06,0.15-0.13,0.2-0.21c-0.23,0.7-0.31,1.38-0.41,2.06c0.02,0.2-0.14,0.43,0.17,0.51
				c0.29,0.05,0.56-0.16,0.65-0.01l-0.03,0.2c-0.08,0.06-0.15,0.01-0.35-0.01c-0.21-0.01-0.47-0.02-0.57-0.08
				c-0.26,0.02-0.63,0.39-1.02,0.37c-0.1,0.04-0.15,0.07-0.27,0.05l-0.06-0.18c0.15-0.06,0.26,0.03,0.38,0
				c0.15-0.03,0.3-0.09,0.46-0.16c-1.07,0.08-1,0-1.27,0.06c-0.12,0.06-0.24,0.07-0.35,0.01l-0.04-0.17c0.17-0.08,0.35-0.09,0.58,0
				c0.15,0.07,0.51,0,0.77-0.01c-0.09-0.1-0.31-0.14-0.57-0.17l-0.15,0.01l0.01-0.19c0.16-0.01,0.33,0.02,0.53,0.15
				c0.25,0.05,0.68,0.2,0.81-0.12c0.13-0.63,0.3-1.23,0.29-1.99c-0.03-0.24-0.05-0.39,0.07-0.65
				C46.94,190.61,46.81,190.12,46.83,189.79z"/>
			<path id="path3263" class="st15" d="M45.05,193.51c-0.05-0.07-0.4,0.03-0.4,0.13c0.13-0.06,0.26-0.02,0.4,0.02V193.51z"/>
			<path id="path3265" class="st15" d="M44.41,193.87l0.03,0.16c-0.2-0.03-0.3,0.02-0.39,0.09
				C44.13,194.01,44.17,193.88,44.41,193.87z"/>
			<path id="path3267" class="st15" d="M45.22,194.13c-0.21,0.05-0.27,0.16-0.3,0.28c0.09-0.1,0.21-0.14,0.35-0.13L45.22,194.13z"/>
			<path id="path3269" class="st15" d="M47.54,193.78c0.22,0.01,0.29,0.11,0.34,0.22c-0.11-0.08-0.23-0.1-0.37-0.07L47.54,193.78z"
				/>
		</g>
		<g id="g3288" transform="matrix(0.990952,-0.134212,0.134212,0.990952,705.1874,101.0856)">
			<path id="path3290" class="st16" d="M84.15,100.57l0.53,0.4c-0.36,0.25-0.03,1.58-0.46,1.73c0.07-0.01,0.14-0.04,0.2-0.2
				c0,0.22-0.1,0.48-0.23,0.51c0.17-0.06,0.15-0.13,0.2-0.21c-0.23,0.7-0.33,1.53-0.43,2.22c0.02,0.2-0.14,0.43,0.17,0.51
				c0.29,0.05,0.56-0.16,0.65-0.01l-0.03,0.2c-0.08,0.06-0.15,0.01-0.35-0.01c-0.21-0.01-0.47-0.02-0.57-0.08
				c-0.26,0.02-0.59,0.33-1.01,0.41c-0.1,0.04-0.13,0.13-0.25,0.11l-0.06-0.18c0.15-0.06,0.25,0.01,0.36-0.05
				c0.12-0.07,0.28-0.14,0.44-0.2c-1.07,0.08-1,0-1.27,0.06c-0.12,0.06-0.24,0.07-0.35,0.01l-0.04-0.17c0.17-0.08,0.35-0.09,0.58,0
				c0.15,0.07,0.51,0,0.77-0.01c-0.09-0.1-0.31-0.14-0.57-0.17l-0.15,0.01l0.01-0.19c0.16-0.01,0.33,0.02,0.53,0.15
				c0.25,0.05,0.68,0.2,0.81-0.12c0.13-0.63,0.32-1.38,0.31-2.15c-0.03-0.24-0.05-0.39,0.07-0.65
				C84.25,102.13,84.23,100.94,84.15,100.57z"/>
			<path id="path3292" class="st17" d="M82.33,105.26c-0.05-0.07-0.4,0.03-0.4,0.13c0.13-0.06,0.26-0.02,0.4,0.02V105.26z"/>
			<path id="path3294" class="st17" d="M81.69,105.62l0.03,0.16c-0.2-0.03-0.3,0.02-0.39,0.09
				C81.41,105.76,81.45,105.62,81.69,105.62z"/>
			<path id="path3296" class="st17" d="M82.52,105.97c-0.21,0.05-0.27,0.16-0.3,0.28c0.09-0.1,0.21-0.14,0.35-0.13L82.52,105.97z"/>
			<path id="path3298" class="st17" d="M84.81,105.53c0.22,0.01,0.29,0.11,0.34,0.22c-0.11-0.08-0.23-0.1-0.37-0.07L84.81,105.53z"
				/>
		</g>
	</g>
</g>
<g>
	<g>
		<path class="st18" d="M48.83,35.94c-0.06-0.06-0.26-0.19-0.6-0.41c-0.35-0.21-0.77-0.43-1.26-0.66c-0.49-0.22-1.04-0.42-1.64-0.57
			c-0.6-0.16-1.2-0.24-1.79-0.24c-0.78,0-1.39,0.14-1.82,0.42s-0.64,0.68-0.64,1.22c0,0.43,0.16,0.77,0.49,1.04
			c0.33,0.27,0.8,0.5,1.41,0.69c0.62,0.19,1.37,0.41,2.27,0.65c1.27,0.35,2.37,0.76,3.3,1.24c0.93,0.47,1.65,1.08,2.14,1.82
			c0.49,0.74,0.74,1.72,0.74,2.94c0,1.09-0.2,2.03-0.6,2.82s-0.96,1.42-1.68,1.89c-0.72,0.47-1.52,0.81-2.41,1.03
			c-0.89,0.21-1.81,0.32-2.76,0.32c-0.97,0-1.96-0.1-2.98-0.31s-1.99-0.49-2.93-0.87c-0.93-0.37-1.79-0.8-2.58-1.29l1.99-4.03
			c0.09,0.11,0.34,0.29,0.76,0.53c0.41,0.24,0.92,0.5,1.53,0.77c0.61,0.27,1.28,0.51,2.03,0.73c0.75,0.21,1.49,0.32,2.24,0.32
			c0.84,0,1.46-0.13,1.86-0.4c0.4-0.26,0.6-0.62,0.6-1.08c0-0.48-0.21-0.87-0.63-1.15c-0.42-0.29-0.99-0.55-1.71-0.78
			s-1.54-0.48-2.48-0.74c-1.21-0.39-2.22-0.81-3.01-1.27c-0.79-0.45-1.38-1.01-1.76-1.68c-0.38-0.67-0.57-1.49-0.57-2.48
			c0-1.41,0.33-2.59,0.99-3.55c0.66-0.95,1.55-1.68,2.67-2.17s2.34-0.74,3.67-0.74c0.95,0,1.86,0.11,2.72,0.34
			c0.86,0.22,1.67,0.5,2.44,0.84c0.77,0.34,1.43,0.68,1.99,1.04L48.83,35.94z"/>
		<path class="st18" d="M63.25,49.18c-0.39,0.19-0.84,0.36-1.33,0.53c-0.5,0.17-1.01,0.3-1.54,0.41c-0.53,0.1-1.07,0.15-1.61,0.15
			c-0.75,0-1.43-0.12-2.04-0.37c-0.62-0.25-1.11-0.66-1.48-1.23c-0.37-0.57-0.56-1.32-0.56-2.26v-7.53H52.8v-3.42h1.88v-4.7h4.48
			v4.7h2.97v3.42h-2.97v5.94c0.02,0.49,0.14,0.84,0.36,1.05c0.22,0.21,0.53,0.31,0.92,0.31c0.34,0,0.68-0.06,1.02-0.18
			c0.35-0.12,0.66-0.23,0.94-0.32L63.25,49.18z"/>
		<path class="st18" d="M64.09,45.65c0-0.94,0.27-1.78,0.81-2.5c0.54-0.73,1.29-1.3,2.24-1.72c0.95-0.41,2.04-0.62,3.28-0.62
			c0.6,0,1.18,0.05,1.76,0.15c0.58,0.1,1.08,0.25,1.51,0.43v-0.64c0-0.79-0.24-1.39-0.73-1.8c-0.49-0.41-1.22-0.61-2.21-0.61
			c-0.8,0-1.57,0.14-2.3,0.42c-0.73,0.28-1.49,0.68-2.3,1.2l-1.34-2.86c0.97-0.63,1.98-1.11,3.04-1.41s2.17-0.46,3.35-0.46
			c2.2,0,3.92,0.51,5.14,1.54c1.22,1.03,1.83,2.53,1.83,4.51v3.74c0,0.44,0.07,0.75,0.21,0.94c0.14,0.18,0.38,0.28,0.71,0.3v3.72
			c-0.37,0.09-0.72,0.15-1.04,0.18c-0.32,0.03-0.6,0.04-0.84,0.04c-0.84,0-1.47-0.17-1.9-0.5c-0.43-0.34-0.71-0.79-0.84-1.37
			l-0.11-0.64c-0.63,0.84-1.4,1.48-2.31,1.92s-1.85,0.66-2.84,0.66c-0.97,0-1.84-0.2-2.62-0.59s-1.39-0.95-1.83-1.65
			C64.31,47.33,64.09,46.54,64.09,45.65z M72.99,46.18c0.21-0.16,0.37-0.35,0.5-0.56c0.13-0.21,0.2-0.39,0.2-0.56v-1.28
			c-0.37-0.14-0.79-0.26-1.26-0.34s-0.9-0.12-1.29-0.12c-0.8,0-1.47,0.18-2.02,0.54c-0.54,0.36-0.81,0.82-0.81,1.39
			c0,0.31,0.09,0.6,0.28,0.88c0.19,0.28,0.44,0.5,0.77,0.65c0.33,0.15,0.71,0.23,1.16,0.23c0.45,0,0.9-0.08,1.34-0.23
			C72.32,46.64,72.69,46.44,72.99,46.18z"/>
		<path class="st18" d="M90.91,49.18c-0.39,0.19-0.84,0.36-1.33,0.53c-0.5,0.17-1.01,0.3-1.54,0.41c-0.53,0.1-1.07,0.15-1.61,0.15
			c-0.75,0-1.43-0.12-2.04-0.37c-0.62-0.25-1.11-0.66-1.48-1.23c-0.37-0.57-0.56-1.32-0.56-2.26v-7.53h-1.88v-3.42h1.88v-4.7h4.48
			v4.7h2.97v3.42h-2.97v5.94c0.02,0.49,0.14,0.84,0.36,1.05c0.22,0.21,0.53,0.31,0.92,0.31c0.34,0,0.68-0.06,1.02-0.18
			c0.35-0.12,0.66-0.23,0.94-0.32L90.91,49.18z"/>
		<path class="st18" d="M92.51,44.79v-9.33h4.48v8.33c0,0.86,0.18,1.53,0.55,2c0.36,0.47,0.87,0.7,1.53,0.7
			c0.41,0,0.8-0.07,1.18-0.2c0.37-0.14,0.74-0.36,1.09-0.66c0.35-0.31,0.67-0.71,0.95-1.22v-8.94h4.48v9.57
			c0,0.44,0.07,0.75,0.21,0.94c0.14,0.18,0.39,0.29,0.74,0.3v3.72c-0.41,0.09-0.77,0.15-1.08,0.18c-0.31,0.03-0.58,0.03-0.83,0.01
			c-0.78,0.02-1.41-0.13-1.88-0.44c-0.47-0.31-0.76-0.78-0.87-1.38l-0.08-0.89c-0.67,0.96-1.5,1.67-2.49,2.12
			c-0.99,0.45-2.11,0.68-3.36,0.68c-1.49,0-2.64-0.47-3.43-1.4C92.9,47.94,92.51,46.58,92.51,44.79z"/>
		<path class="st18" d="M119.72,49.18c-0.39,0.19-0.84,0.36-1.33,0.53c-0.5,0.17-1.01,0.3-1.54,0.41c-0.53,0.1-1.07,0.15-1.61,0.15
			c-0.75,0-1.43-0.12-2.04-0.37c-0.62-0.25-1.11-0.66-1.48-1.23c-0.37-0.57-0.56-1.32-0.56-2.26v-7.53h-1.88v-3.42h1.88v-4.7h4.48
			v4.7h2.97v3.42h-2.97v5.94c0.02,0.49,0.14,0.84,0.36,1.05c0.22,0.21,0.53,0.31,0.92,0.31c0.34,0,0.68-0.06,1.02-0.18
			c0.35-0.12,0.66-0.23,0.94-0.32L119.72,49.18z"/>
		<path class="st18" d="M140.3,35.94c-0.06-0.06-0.26-0.19-0.6-0.41c-0.35-0.21-0.77-0.43-1.26-0.66c-0.49-0.22-1.04-0.42-1.64-0.57
			c-0.6-0.16-1.2-0.24-1.79-0.24c-0.78,0-1.39,0.14-1.82,0.42s-0.64,0.68-0.64,1.22c0,0.43,0.16,0.77,0.49,1.04
			c0.33,0.27,0.8,0.5,1.41,0.69c0.62,0.19,1.37,0.41,2.27,0.65c1.27,0.35,2.37,0.76,3.3,1.24c0.93,0.47,1.65,1.08,2.14,1.82
			c0.49,0.74,0.74,1.72,0.74,2.94c0,1.09-0.2,2.03-0.6,2.82s-0.96,1.42-1.68,1.89c-0.72,0.47-1.52,0.81-2.41,1.03
			c-0.89,0.21-1.81,0.32-2.76,0.32c-0.97,0-1.96-0.1-2.98-0.31s-1.99-0.49-2.93-0.87c-0.93-0.37-1.79-0.8-2.58-1.29l1.99-4.03
			c0.09,0.11,0.34,0.29,0.76,0.53c0.41,0.24,0.92,0.5,1.53,0.77c0.61,0.27,1.28,0.51,2.03,0.73c0.75,0.21,1.49,0.32,2.24,0.32
			c0.84,0,1.46-0.13,1.86-0.4c0.4-0.26,0.6-0.62,0.6-1.08c0-0.48-0.21-0.87-0.63-1.15c-0.42-0.29-0.99-0.55-1.71-0.78
			s-1.54-0.48-2.48-0.74c-1.21-0.39-2.22-0.81-3.01-1.27c-0.79-0.45-1.38-1.01-1.76-1.68c-0.38-0.67-0.57-1.49-0.57-2.48
			c0-1.41,0.33-2.59,0.99-3.55c0.66-0.95,1.55-1.68,2.67-2.17s2.34-0.74,3.67-0.74c0.95,0,1.86,0.11,2.72,0.34
			c0.86,0.22,1.67,0.5,2.44,0.84c0.77,0.34,1.43,0.68,1.99,1.04L140.3,35.94z"/>
		<path class="st18" d="M152.23,50.27c-1.27,0-2.39-0.2-3.35-0.59c-0.96-0.4-1.78-0.95-2.46-1.66c-0.68-0.71-1.2-1.52-1.54-2.42
			c-0.35-0.9-0.52-1.85-0.52-2.85c0-1.01,0.18-1.97,0.53-2.87s0.86-1.7,1.53-2.4c0.66-0.7,1.48-1.25,2.46-1.64
			c0.98-0.4,2.09-0.59,3.35-0.59c1.25,0,2.36,0.2,3.33,0.59c0.97,0.4,1.79,0.94,2.46,1.64c0.67,0.7,1.19,1.5,1.54,2.4
			s0.53,1.86,0.53,2.87c0,1-0.17,1.94-0.52,2.85c-0.35,0.9-0.86,1.71-1.54,2.42c-0.68,0.71-1.51,1.26-2.48,1.66
			C154.59,50.08,153.48,50.27,152.23,50.27z M148.95,42.76c0,0.73,0.14,1.37,0.43,1.94c0.29,0.56,0.68,1,1.16,1.32
			c0.48,0.32,1.05,0.48,1.68,0.48c0.62,0,1.17-0.16,1.67-0.48c0.49-0.32,0.88-0.75,1.16-1.31s0.42-1.21,0.42-1.95
			s-0.14-1.4-0.42-1.95c-0.28-0.55-0.67-1-1.16-1.32c-0.5-0.33-1.05-0.49-1.67-0.49s-1.17,0.16-1.65,0.48
			c-0.49,0.32-0.88,0.76-1.18,1.32S148.95,42.01,148.95,42.76z"/>
		<path class="st18" d="M161.69,42.69l-1.06-2.41l9.18-4.98l1.06,2.38L161.69,42.69z M162.95,29.55h4.48v15.2
			c0,0.62,0.12,1.05,0.36,1.32c0.24,0.26,0.56,0.39,0.95,0.39c0.28,0,0.56-0.04,0.85-0.11c0.29-0.07,0.55-0.19,0.77-0.34l0.59,3.39
			c-0.58,0.24-1.23,0.45-1.95,0.62s-1.4,0.25-2.03,0.25c-1.29,0-2.28-0.34-2.98-1.02c-0.7-0.68-1.05-1.66-1.05-2.93V29.55z"/>
		<path class="st18" d="M179.53,50.27c-1.25,0-2.36-0.2-3.33-0.59c-0.97-0.4-1.8-0.94-2.48-1.62s-1.2-1.47-1.55-2.37
			c-0.35-0.9-0.53-1.83-0.53-2.81c0-1.4,0.31-2.67,0.94-3.82c0.62-1.15,1.53-2.07,2.7-2.77c1.18-0.7,2.59-1.05,4.26-1.05
			c1.66,0,3.08,0.35,4.26,1.04c1.18,0.69,2.07,1.61,2.67,2.75c0.61,1.14,0.91,2.37,0.91,3.68c0,0.26-0.01,0.51-0.04,0.76
			c-0.03,0.25-0.05,0.47-0.07,0.65h-10.86c0.04,0.64,0.21,1.17,0.53,1.61c0.32,0.44,0.72,0.76,1.2,0.98s0.99,0.33,1.51,0.33
			c0.69,0,1.33-0.16,1.92-0.48s0.98-0.74,1.19-1.26l3.81,1.09c-0.37,0.77-0.9,1.43-1.57,2s-1.47,1.03-2.39,1.37
			S180.65,50.27,179.53,50.27z M176.31,41.37h6.36c-0.06-0.59-0.23-1.11-0.53-1.55c-0.3-0.44-0.67-0.78-1.12-1.03
			c-0.45-0.24-0.97-0.36-1.57-0.36c-0.54,0-1.05,0.12-1.51,0.36c-0.47,0.24-0.84,0.58-1.12,1.01
			C176.53,40.24,176.36,40.76,176.31,41.37z"/>
		<path class="st18" d="M196.44,50.27c-1.25,0-2.36-0.2-3.33-0.61c-0.97-0.41-1.8-0.96-2.48-1.66c-0.68-0.7-1.2-1.5-1.55-2.4
			c-0.35-0.9-0.53-1.86-0.53-2.88c0-1.34,0.31-2.58,0.94-3.72c0.62-1.13,1.53-2.05,2.7-2.74c1.18-0.69,2.59-1.04,4.23-1.04
			c1.7,0,3.13,0.35,4.3,1.06c1.17,0.71,2.04,1.64,2.62,2.8l-4.37,1.32c-0.28-0.45-0.64-0.8-1.08-1.05s-0.93-0.38-1.47-0.38
			c-0.62,0-1.17,0.16-1.67,0.48c-0.5,0.32-0.89,0.76-1.18,1.31c-0.29,0.55-0.43,1.21-0.43,1.95c0,0.75,0.14,1.41,0.43,1.98
			c0.29,0.57,0.69,1.01,1.19,1.32c0.5,0.31,1.05,0.46,1.65,0.46c0.39,0,0.75-0.06,1.08-0.18c0.33-0.12,0.62-0.29,0.9-0.52
			c0.27-0.22,0.48-0.47,0.63-0.73l4.34,1.32c-0.37,0.77-0.89,1.43-1.54,2c-0.65,0.57-1.43,1.03-2.32,1.37
			C198.6,50.1,197.58,50.27,196.44,50.27z"/>
		<path class="st18" d="M214.86,49.18c-0.39,0.19-0.84,0.36-1.33,0.53c-0.5,0.17-1.01,0.3-1.54,0.41c-0.53,0.1-1.07,0.15-1.61,0.15
			c-0.75,0-1.43-0.12-2.04-0.37c-0.62-0.25-1.11-0.66-1.48-1.23c-0.37-0.57-0.56-1.32-0.56-2.26v-7.53h-1.88v-3.42h1.88v-4.7h4.48
			v4.7h2.97v3.42h-2.97v5.94c0.02,0.49,0.14,0.84,0.36,1.05c0.22,0.21,0.53,0.31,0.92,0.31c0.34,0,0.68-0.06,1.02-0.18
			c0.35-0.12,0.66-0.23,0.94-0.32L214.86,49.18z"/>
		<path class="st18" d="M234.77,35.46H239l-6.08,14.53h-3.72l-2.21-5.92l-2.21,5.92h-3.72l-6.08-14.53h4.23l3.95,10.35l1.4-4.07
			l-2.63-6.28h3.67l1.4,4.37l1.37-4.37h3.7l-2.63,6.28l1.4,4.07L234.77,35.46z"/>
		<path class="st18" d="M239.5,45.65c0-0.94,0.27-1.78,0.81-2.5c0.54-0.73,1.29-1.3,2.24-1.72c0.95-0.41,2.04-0.62,3.28-0.62
			c0.6,0,1.18,0.05,1.76,0.15c0.58,0.1,1.08,0.25,1.51,0.43v-0.64c0-0.79-0.24-1.39-0.73-1.8c-0.49-0.41-1.22-0.61-2.21-0.61
			c-0.8,0-1.57,0.14-2.3,0.42c-0.73,0.28-1.49,0.68-2.3,1.2l-1.34-2.86c0.97-0.63,1.98-1.11,3.04-1.41s2.17-0.46,3.35-0.46
			c2.2,0,3.92,0.51,5.14,1.54c1.22,1.03,1.83,2.53,1.83,4.51v3.74c0,0.44,0.07,0.75,0.21,0.94c0.14,0.18,0.38,0.28,0.71,0.3v3.72
			c-0.37,0.09-0.72,0.15-1.04,0.18c-0.32,0.03-0.6,0.04-0.84,0.04c-0.84,0-1.47-0.17-1.9-0.5c-0.43-0.34-0.71-0.79-0.84-1.37
			l-0.11-0.64c-0.63,0.84-1.4,1.48-2.31,1.92s-1.85,0.66-2.84,0.66c-0.97,0-1.84-0.2-2.62-0.59s-1.39-0.95-1.83-1.65
			C239.73,47.33,239.5,46.54,239.5,45.65z M248.41,46.18c0.21-0.16,0.37-0.35,0.5-0.56c0.13-0.21,0.2-0.39,0.2-0.56v-1.28
			c-0.37-0.14-0.79-0.26-1.26-0.34s-0.9-0.12-1.29-0.12c-0.8,0-1.47,0.18-2.02,0.54c-0.54,0.36-0.81,0.82-0.81,1.39
			c0,0.31,0.09,0.6,0.28,0.88c0.19,0.28,0.44,0.5,0.77,0.65c0.33,0.15,0.71,0.23,1.16,0.23c0.45,0,0.9-0.08,1.34-0.23
			C247.73,46.64,248.11,46.44,248.41,46.18z"/>
		<path class="st18" d="M36.9,83.59V63.71h8.48c0.95,0,1.82,0.2,2.6,0.59s1.47,0.91,2.06,1.54c0.59,0.63,1.04,1.35,1.36,2.16
			c0.32,0.8,0.48,1.62,0.48,2.46c0,1.12-0.27,2.2-0.8,3.23s-1.27,1.88-2.21,2.52s-2.05,0.97-3.32,0.97h-4.06v6.41H36.9z
			 M41.49,73.15h3.75c0.35,0,0.68-0.1,0.97-0.29c0.29-0.2,0.53-0.5,0.71-0.91s0.28-0.91,0.28-1.48c0-0.63-0.1-1.15-0.31-1.55
			c-0.21-0.4-0.47-0.7-0.8-0.88c-0.33-0.19-0.67-0.28-1.02-0.28h-3.58V73.15z"/>
		<path class="st18" d="M63.3,72.73c-1.08,0-2.06,0.17-2.94,0.52c-0.88,0.35-1.51,0.85-1.9,1.53v8.82h-4.48V69.06h4.09v2.8
			c0.52-0.99,1.19-1.76,1.99-2.32c0.8-0.56,1.64-0.85,2.52-0.87c0.21,0,0.35,0,0.45,0c0.09,0,0.19,0.01,0.28,0.03V72.73z"/>
		<path class="st18" d="M64.31,80.91l7.45-8.74h-7.08v-3.11h11.82v2.69l-7.42,8.74h7.62v3.11H64.31V80.91z"/>
		<path class="st18" d="M79.12,85.81c0.37,0.11,0.72,0.2,1.05,0.27c0.33,0.06,0.62,0.1,0.88,0.1c0.37,0.02,0.68-0.05,0.91-0.21
			s0.45-0.43,0.64-0.81c0.2-0.38,0.36-0.89,0.49-1.51l-5.57-14.58h4.62l3.44,10.03l2.91-10.03h4.2L87.1,86
			c-0.26,0.8-0.66,1.5-1.2,2.11c-0.54,0.61-1.2,1.09-1.97,1.45c-0.78,0.35-1.61,0.52-2.51,0.5c-0.37,0-0.75-0.03-1.13-0.1
			c-0.38-0.07-0.77-0.17-1.16-0.32V85.81z"/>
		<path class="st18" d="M93.85,76.29l-1.06-2.41l9.18-4.98l1.06,2.38L93.85,76.29z M95.11,63.15h4.48v15.2
			c0,0.62,0.12,1.05,0.36,1.32c0.24,0.26,0.56,0.39,0.95,0.39c0.28,0,0.56-0.04,0.85-0.11c0.29-0.07,0.55-0.19,0.77-0.34l0.59,3.39
			c-0.58,0.24-1.23,0.45-1.95,0.62s-1.4,0.25-2.03,0.25c-1.29,0-2.28-0.34-2.98-1.02c-0.7-0.68-1.05-1.66-1.05-2.93V63.15z"/>
		<path class="st18" d="M111.69,83.87c-1.25,0-2.36-0.2-3.33-0.59c-0.97-0.4-1.8-0.94-2.48-1.62s-1.2-1.47-1.55-2.37
			c-0.35-0.9-0.53-1.83-0.53-2.81c0-1.4,0.31-2.67,0.94-3.82c0.62-1.15,1.53-2.07,2.7-2.77c1.18-0.7,2.59-1.05,4.26-1.05
			c1.66,0,3.08,0.35,4.26,1.04c1.18,0.69,2.07,1.61,2.67,2.75c0.61,1.14,0.91,2.37,0.91,3.68c0,0.26-0.01,0.51-0.04,0.76
			c-0.03,0.25-0.05,0.47-0.07,0.65h-10.86c0.04,0.64,0.21,1.17,0.53,1.61c0.32,0.44,0.72,0.76,1.2,0.98s0.99,0.33,1.51,0.33
			c0.69,0,1.33-0.16,1.92-0.48s0.98-0.74,1.19-1.26l3.81,1.09c-0.37,0.77-0.9,1.43-1.57,2s-1.47,1.03-2.39,1.37
			S112.81,83.87,111.69,83.87z M108.46,74.97h6.36c-0.06-0.59-0.23-1.11-0.53-1.55c-0.3-0.44-0.67-0.78-1.12-1.03
			c-0.45-0.24-0.97-0.36-1.57-0.36c-0.54,0-1.05,0.12-1.51,0.36c-0.47,0.24-0.84,0.58-1.12,1.01
			C108.69,73.84,108.52,74.36,108.46,74.97z M109.08,86.76c0-0.65,0.24-1.31,0.73-1.97c0.48-0.66,1.23-1.26,2.24-1.81h1.43
			l0.42,0.62c-0.65,0.45-1.16,0.87-1.51,1.26c-0.35,0.39-0.53,0.75-0.53,1.06c0,0.34,0.17,0.59,0.52,0.77
			c0.35,0.18,0.85,0.27,1.53,0.29l-0.87,2.41c-0.95-0.09-1.72-0.27-2.3-0.53c-0.58-0.26-1-0.58-1.26-0.95
			C109.21,87.53,109.08,87.15,109.08,86.76z"/>
		<path class="st18" d="M131.45,83.59l-3.84-5.82l-1.57,1.55v4.27h-4.48V63.15h4.48v11.9l4.98-5.99h4.73l-5.29,6.27l5.74,8.26
			H131.45z"/>
		<path class="st18" d="M137.5,67.24v-4.09h4.48v4.09H137.5z M137.5,83.59v-14.7h4.48v14.7H137.5z"/>
	</g>
</g>
</svg>
