<?xml version="1.0" encoding="utf-8"?>
<!-- Generator: Adobe Illustrator 27.3.0, SVG Export Plug-In . SVG Version: 6.00 Build 0)  -->
<svg version="1.1" id="Warstwa_1" xmlns="http://www.w3.org/2000/svg" xmlns:xlink="http://www.w3.org/1999/xlink" x="0px" y="0px"
	 viewBox="0 0 300 225" style="enable-background:new 0 0 300 225;" xml:space="preserve">
<style type="text/css">
	.st0{fill:#172815;}
	.st1{fill:#FFFFFF;}
	.st2{fill-rule:evenodd;clip-rule:evenodd;fill:#FFC800;}
	.st3{fill-rule:evenodd;clip-rule:evenodd;fill:#00AB4E;stroke:#000000;stroke-width:0.1;}
	.st4{fill-rule:evenodd;clip-rule:evenodd;fill:#00AC4E;stroke:#000000;stroke-width:0.1;}
	.st5{fill-rule:evenodd;clip-rule:evenodd;fill:#0E8D49;stroke:#000000;stroke-width:0.1;}
	.st6{stroke:#000000;stroke-width:0.1;stroke-linecap:round;}
	.st7{fill:none;stroke:#000000;stroke-width:0.1;}
	.st8{fill-rule:evenodd;clip-rule:evenodd;fill:#00AC4E;}
	.st9{fill-rule:evenodd;clip-rule:evenodd;fill:#FFFFFF;stroke:#000000;stroke-width:0.1;}
	.st10{fill-rule:evenodd;clip-rule:evenodd;fill:#252122;stroke:#000000;stroke-width:0.1;}
	.st11{fill:none;stroke:#000000;stroke-width:0.1;stroke-linecap:round;}
	.st12{fill-rule:evenodd;clip-rule:evenodd;fill:#D6AC00;stroke:#000000;stroke-width:0.1;}
	.st13{fill:none;stroke:#504E4B;stroke-width:0.1;stroke-linecap:round;}
	.st14{fill:#FEFFFF;stroke:#000000;stroke-width:0.1;stroke-linecap:round;}
	.st15{fill-rule:evenodd;clip-rule:evenodd;fill:#FDAF17;stroke:#010000;stroke-width:0.1;}
	.st16{fill-rule:evenodd;clip-rule:evenodd;stroke:#000000;stroke-width:0.1;}
	.st17{fill-rule:evenodd;clip-rule:evenodd;fill:#FDAF17;stroke:#010000;stroke-width:0.1;stroke-miterlimit:4;}
	.st18{fill-rule:evenodd;clip-rule:evenodd;stroke:#000000;stroke-width:0.1;stroke-miterlimit:4;}
</style>
<rect class="st0" width="300" height="225"/>
<g>
	<path class="st1" d="M-203.8-66.69l-6.5-19.6h3.78l5.8,17.72h-1.88l6.02-17.72h3.36l5.85,17.72h-1.82l5.94-17.72h3.47l-6.5,19.6
		h-3.86l-5.35-15.99h1.01l-5.4,15.99H-203.8z"/>
	<path class="st1" d="M-169.22-81.84c1.21,0,2.28,0.23,3.21,0.7c0.92,0.47,1.66,1.19,2.21,2.16c0.55,0.97,0.83,2.21,0.83,3.72v8.57
		h-3.5v-8.12c0-1.33-0.31-2.31-0.92-2.97c-0.62-0.65-1.49-0.98-2.63-0.98c-0.82,0-1.55,0.17-2.18,0.5c-0.63,0.34-1.12,0.84-1.47,1.5
		c-0.35,0.66-0.52,1.5-0.52,2.51v7.56h-3.47v-14.95h3.33v4.06l-0.59-1.26c0.5-0.95,1.26-1.69,2.25-2.21S-170.52-81.84-169.22-81.84z
		"/>
	<path class="st1" d="M-156.76-84.1c-0.65,0-1.19-0.21-1.61-0.62c-0.42-0.41-0.63-0.91-0.63-1.51c0-0.56,0.21-1.05,0.63-1.46
		c0.42-0.41,0.96-0.62,1.61-0.62c0.65,0,1.19,0.19,1.61,0.57c0.42,0.38,0.63,0.87,0.63,1.47s-0.21,1.11-0.62,1.53
		C-155.55-84.31-156.09-84.1-156.76-84.1z M-158.49-66.69v-14.95h3.47v14.95H-158.49z"/>
	<path class="st1" d="M-143.71-66.49c-1.51,0-2.87-0.33-4.07-0.99s-2.15-1.57-2.84-2.73c-0.69-1.16-1.04-2.47-1.04-3.95
		c0-1.51,0.35-2.84,1.04-3.98c0.69-1.14,1.63-2.04,2.83-2.7c1.19-0.66,2.56-0.99,4.09-0.99c1.55,0,2.93,0.33,4.13,0.99
		s2.15,1.56,2.83,2.7c0.68,1.14,1.02,2.46,1.02,3.98c0,1.49-0.34,2.81-1.02,3.96c-0.68,1.15-1.63,2.05-2.84,2.72
		S-142.18-66.49-143.71-66.49z M-143.71-69.46c0.86,0,1.62-0.19,2.3-0.57c0.67-0.38,1.2-0.93,1.58-1.65
		c0.38-0.72,0.57-1.54,0.57-2.48c0-0.95-0.19-1.78-0.57-2.48c-0.38-0.7-0.91-1.24-1.58-1.62c-0.67-0.38-1.43-0.57-2.27-0.57
		s-1.6,0.19-2.27,0.57c-0.67,0.38-1.2,0.92-1.6,1.62c-0.39,0.7-0.59,1.53-0.59,2.48c0,0.93,0.2,1.76,0.59,2.48
		c0.39,0.72,0.92,1.27,1.6,1.65C-145.28-69.65-144.53-69.46-143.71-69.46z"/>
	<path class="st1" d="M-127.72-66.49c-1.27,0-2.47-0.16-3.61-0.49c-1.14-0.33-2.05-0.72-2.74-1.19l1.34-2.66
		c0.67,0.43,1.47,0.78,2.41,1.05c0.93,0.27,1.88,0.41,2.83,0.41c1.08,0,1.87-0.14,2.37-0.43c0.49-0.29,0.74-0.69,0.74-1.19
		c0-0.41-0.17-0.72-0.5-0.94c-0.34-0.21-0.77-0.38-1.32-0.49c-0.54-0.11-1.14-0.21-1.81-0.31c-0.66-0.09-1.33-0.22-1.99-0.38
		c-0.66-0.16-1.27-0.39-1.81-0.7c-0.54-0.31-0.98-0.72-1.32-1.25c-0.34-0.52-0.5-1.22-0.5-2.1c0-0.93,0.27-1.75,0.81-2.45
		c0.54-0.7,1.3-1.25,2.28-1.64s2.14-0.59,3.49-0.59c0.99,0,2,0.12,3.04,0.35c1.04,0.23,1.9,0.56,2.59,0.97l-1.37,2.66
		c-0.69-0.41-1.4-0.7-2.13-0.85s-1.45-0.24-2.16-0.24c-1.05,0-1.83,0.15-2.35,0.46c-0.52,0.31-0.78,0.7-0.78,1.19
		c0,0.45,0.17,0.78,0.5,1.01s0.77,0.4,1.32,0.52c0.54,0.12,1.14,0.23,1.81,0.34c0.66,0.1,1.32,0.23,1.97,0.39s1.26,0.38,1.81,0.67
		c0.55,0.29,0.99,0.7,1.33,1.22s0.5,1.2,0.5,2.04c0,0.95-0.28,1.77-0.83,2.45c-0.55,0.68-1.33,1.21-2.32,1.6
		C-125.12-66.68-126.32-66.49-127.72-66.49z"/>
	<path class="st1" d="M-110.92-66.49c-1.66,0-3.11-0.33-4.35-0.99c-1.24-0.66-2.2-1.57-2.88-2.72c-0.68-1.15-1.02-2.47-1.02-3.96
		c0-1.49,0.33-2.81,0.99-3.96c0.66-1.15,1.58-2.05,2.74-2.72s2.5-0.99,3.99-0.99c1.46,0,2.75,0.32,3.89,0.97
		c1.14,0.64,2.03,1.54,2.69,2.7c0.65,1.16,0.98,2.53,0.98,4.12c0,0.13,0,0.29-0.01,0.49s-0.02,0.37-0.04,0.52h-12.46v-2.32h10.61
		l-1.4,0.73c0.02-0.84-0.15-1.59-0.52-2.25c-0.36-0.66-0.86-1.18-1.5-1.54c-0.64-0.36-1.38-0.55-2.24-0.55
		c-0.84,0-1.59,0.18-2.25,0.55c-0.66,0.36-1.17,0.88-1.53,1.55c-0.35,0.67-0.53,1.45-0.53,2.32V-74c0,0.9,0.2,1.69,0.6,2.38
		c0.4,0.69,0.98,1.23,1.72,1.61c0.75,0.38,1.61,0.57,2.6,0.57c0.84,0,1.6-0.14,2.27-0.42c0.67-0.28,1.27-0.69,1.79-1.23l1.9,2.18
		c-0.69,0.78-1.54,1.38-2.56,1.79C-108.45-66.7-109.62-66.49-110.92-66.49z"/>
	<path class="st1" d="M-100.51-66.69v-20.78h3.47v20.78H-100.51z M-97.68-70.02l0.08-4.4l7.81-7.22h4.2L-92.22-75l-1.88,1.57
		L-97.68-70.02z M-89.22-66.69l-5.52-6.75l2.21-2.8l7.53,9.55H-89.22z"/>
	<path class="st1" d="M-68.28-66.49c-1.51,0-2.87-0.33-4.07-0.99s-2.15-1.57-2.84-2.73s-1.04-2.47-1.04-3.95
		c0-1.51,0.34-2.84,1.04-3.98c0.69-1.14,1.63-2.04,2.83-2.7s2.56-0.99,4.09-0.99c1.55,0,2.93,0.33,4.13,0.99
		c1.2,0.66,2.15,1.56,2.83,2.7c0.68,1.14,1.02,2.46,1.02,3.98c0,1.49-0.34,2.81-1.02,3.96s-1.63,2.05-2.84,2.72
		C-65.38-66.82-66.75-66.49-68.28-66.49z M-68.28-69.46c0.86,0,1.62-0.19,2.3-0.57c0.67-0.38,1.2-0.93,1.58-1.65
		c0.38-0.72,0.57-1.54,0.57-2.48c0-0.95-0.19-1.78-0.57-2.48c-0.38-0.7-0.91-1.24-1.58-1.62c-0.67-0.38-1.43-0.57-2.27-0.57
		s-1.6,0.19-2.27,0.57c-0.67,0.38-1.2,0.92-1.6,1.62c-0.39,0.7-0.59,1.53-0.59,2.48c0,0.93,0.2,1.76,0.59,2.48
		c0.39,0.72,0.92,1.27,1.6,1.65C-69.85-69.65-69.1-69.46-68.28-69.46z"/>
	<path class="st1" d="M-208.73-27.66v-20.38h3.33v3.53l-0.14,3.98l0.28,3.98v8.9H-208.73z M-200.47-32.89
		c-1.23,0-2.34-0.27-3.33-0.83c-0.99-0.55-1.77-1.4-2.35-2.53c-0.58-1.14-0.87-2.58-0.87-4.31c0-1.75,0.27-3.2,0.83-4.33
		c0.55-1.13,1.33-1.97,2.34-2.52c1.01-0.55,2.14-0.83,3.39-0.83c1.46,0,2.75,0.32,3.89,0.95c1.14,0.63,2.04,1.53,2.7,2.69
		c0.66,1.16,0.99,2.5,0.99,4.03c0,1.55-0.33,2.9-0.99,4.05c-0.66,1.15-1.56,2.04-2.7,2.67C-197.71-33.21-199.01-32.89-200.47-32.89z
		 M-200.89-35.86c0.86,0,1.62-0.2,2.28-0.59s1.19-0.94,1.58-1.65c0.39-0.71,0.59-1.53,0.59-2.46c0-0.95-0.2-1.78-0.59-2.48
		c-0.39-0.7-0.92-1.24-1.58-1.62c-0.66-0.38-1.42-0.57-2.28-0.57c-0.82,0-1.57,0.19-2.24,0.57c-0.67,0.38-1.2,0.92-1.6,1.62
		c-0.39,0.7-0.59,1.53-0.59,2.48c0,0.93,0.2,1.75,0.59,2.46c0.39,0.71,0.92,1.26,1.6,1.65C-202.45-36.06-201.71-35.86-200.89-35.86z
		"/>
	<path class="st1" d="M-189.52-33.09v-14.95h3.33v4.12l-0.39-1.2c0.43-1.01,1.13-1.78,2.1-2.31c0.97-0.53,2.16-0.8,3.56-0.8v3.33
		c-0.13-0.02-0.26-0.03-0.39-0.04c-0.13-0.01-0.25-0.01-0.36-0.01c-1.34,0-2.41,0.38-3.19,1.15c-0.78,0.77-1.18,1.93-1.18,3.5v7.22
		H-189.52z"/>
	<path class="st1" d="M-179.02-33.09v-2.21l9.21-11.14l0.67,1.2h-9.72v-2.8h12.49v2.21l-9.21,11.14l-0.7-1.2h10.16v2.8H-179.02z"/>
	<path class="st1" d="M-161.91-27.46c-0.75,0-1.48-0.12-2.21-0.36c-0.73-0.24-1.33-0.58-1.79-1.01l1.37-2.55
		c0.35,0.3,0.75,0.54,1.19,0.73c0.44,0.19,0.9,0.28,1.39,0.28c0.63,0,1.15-0.16,1.54-0.48c0.39-0.32,0.76-0.86,1.09-1.62l0.84-1.9
		l0.34-0.45l5.63-13.22h3.36l-7,16.18c-0.47,1.1-0.98,1.97-1.55,2.62c-0.57,0.64-1.2,1.1-1.9,1.37
		C-160.33-27.6-161.09-27.46-161.91-27.46z M-158.86-32.56l-6.75-15.48h3.61l5.52,12.91L-158.86-32.56z"/>
	<path class="st1" d="M-143.96-33.09l-5.49-14.95h3.3l4.73,13.19h-1.6l4.93-13.19h2.94l4.82,13.19h-1.57l4.84-13.19h3.11
		l-5.52,14.95h-3.36l-4.34-11.68h1.01l-4.45,11.68H-143.96z"/>
	<path class="st1" d="M-121.51-33.09v-14.95h3.33v4.12l-0.39-1.2c0.43-1.01,1.13-1.78,2.1-2.31c0.97-0.53,2.16-0.8,3.56-0.8v3.33
		c-0.13-0.02-0.26-0.03-0.39-0.04c-0.13-0.01-0.25-0.01-0.36-0.01c-1.34,0-2.41,0.38-3.19,1.15c-0.78,0.77-1.18,1.93-1.18,3.5v7.22
		H-121.51z"/>
	<path class="st1" d="M-103.33-32.89c-1.51,0-2.87-0.33-4.07-0.99s-2.15-1.57-2.84-2.73c-0.69-1.16-1.04-2.47-1.04-3.95
		c0-1.51,0.35-2.84,1.04-3.98c0.69-1.14,1.63-2.04,2.83-2.7c1.19-0.66,2.56-0.99,4.09-0.99c1.55,0,2.93,0.33,4.13,0.99
		s2.15,1.56,2.83,2.7c0.68,1.14,1.02,2.46,1.02,3.98c0,1.49-0.34,2.81-1.02,3.96s-1.63,2.05-2.84,2.72S-101.8-32.89-103.33-32.89z
		 M-103.33-35.86c0.86,0,1.62-0.19,2.3-0.57c0.67-0.38,1.2-0.93,1.58-1.65c0.38-0.72,0.57-1.54,0.57-2.48
		c0-0.95-0.19-1.78-0.57-2.48c-0.38-0.7-0.91-1.24-1.58-1.62c-0.67-0.38-1.43-0.57-2.27-0.57s-1.6,0.19-2.27,0.57
		c-0.67,0.38-1.2,0.92-1.6,1.62c-0.39,0.7-0.59,1.53-0.59,2.48c0,0.93,0.2,1.76,0.59,2.48c0.39,0.72,0.92,1.27,1.6,1.65
		C-104.9-36.05-104.16-35.86-103.33-35.86z M-105.71-50.08l3.78-3.84h4.14l-4.9,3.84H-105.71z"/>
	<path class="st1" d="M-85.13-32.89c-1.57,0-2.96-0.33-4.19-0.99s-2.18-1.57-2.87-2.72s-1.04-2.47-1.04-3.96
		c0-1.51,0.34-2.84,1.04-3.98c0.69-1.14,1.65-2.04,2.87-2.7s2.62-0.99,4.19-0.99c1.44,0,2.72,0.3,3.84,0.9
		c1.12,0.6,1.96,1.47,2.52,2.6l-2.66,1.57c-0.45-0.69-0.99-1.21-1.64-1.55c-0.64-0.35-1.34-0.52-2.09-0.52
		c-0.86,0-1.63,0.19-2.32,0.57c-0.69,0.38-1.23,0.92-1.62,1.62c-0.39,0.7-0.59,1.53-0.59,2.48s0.2,1.78,0.59,2.49
		c0.39,0.71,0.93,1.26,1.62,1.64c0.69,0.38,1.47,0.57,2.32,0.57c0.75,0,1.44-0.17,2.09-0.52c0.64-0.35,1.19-0.87,1.64-1.58
		l2.66,1.57c-0.56,1.12-1.4,1.98-2.52,2.59S-83.7-32.89-85.13-32.89z"/>
	<path class="st1" d="M-68.92-32.89c-1.66,0-3.11-0.33-4.35-0.99s-2.2-1.57-2.88-2.72s-1.02-2.47-1.02-3.96
		c0-1.49,0.33-2.81,0.99-3.96c0.66-1.15,1.58-2.05,2.74-2.72s2.5-0.99,3.99-0.99c1.46,0,2.75,0.32,3.89,0.97s2.04,1.54,2.69,2.7
		c0.65,1.16,0.98,2.53,0.98,4.12c0,0.13,0,0.29-0.01,0.49s-0.02,0.37-0.04,0.52h-12.46v-2.32h10.61l-1.4,0.73
		c0.02-0.84-0.15-1.59-0.52-2.25c-0.36-0.66-0.86-1.18-1.5-1.54c-0.63-0.36-1.38-0.55-2.24-0.55c-0.84,0-1.59,0.18-2.25,0.55
		c-0.66,0.36-1.17,0.88-1.53,1.55s-0.53,1.45-0.53,2.32v0.56c0,0.9,0.2,1.69,0.6,2.38c0.4,0.69,0.98,1.23,1.72,1.61
		c0.75,0.38,1.61,0.57,2.6,0.57c0.84,0,1.6-0.14,2.27-0.42c0.67-0.28,1.27-0.69,1.79-1.23l1.9,2.18c-0.69,0.78-1.54,1.38-2.56,1.79
		S-67.62-32.89-68.92-32.89z"/>
	<path class="st1" d="M-50.05-48.24c1.21,0,2.28,0.23,3.21,0.7c0.92,0.47,1.66,1.19,2.21,2.16c0.55,0.97,0.83,2.21,0.83,3.72v8.57
		h-3.5v-8.12c0-1.33-0.31-2.31-0.92-2.97c-0.62-0.65-1.49-0.98-2.63-0.98c-0.82,0-1.55,0.17-2.18,0.5c-0.63,0.34-1.12,0.84-1.47,1.5
		c-0.35,0.66-0.52,1.5-0.52,2.51v7.56h-3.47v-14.95h3.33v4.06l-0.59-1.26c0.5-0.95,1.25-1.69,2.25-2.21
		C-52.51-47.97-51.36-48.24-50.05-48.24z"/>
	<path class="st1" d="M-37.59-50.5c-0.65,0-1.19-0.21-1.61-0.62c-0.42-0.41-0.63-0.91-0.63-1.51c0-0.56,0.21-1.05,0.63-1.46
		c0.42-0.41,0.96-0.62,1.61-0.62s1.19,0.19,1.61,0.57c0.42,0.38,0.63,0.87,0.63,1.47s-0.21,1.11-0.62,1.53
		C-36.38-50.71-36.92-50.5-37.59-50.5z M-39.33-33.09v-14.95h3.47v14.95H-39.33z"/>
	<path class="st1" d="M-24.23-32.89c-1.66,0-3.11-0.33-4.35-0.99s-2.2-1.57-2.88-2.72c-0.68-1.15-1.02-2.47-1.02-3.96
		c0-1.49,0.33-2.81,0.99-3.96c0.66-1.15,1.58-2.05,2.74-2.72s2.5-0.99,3.99-0.99c1.46,0,2.75,0.32,3.89,0.97s2.04,1.54,2.69,2.7
		c0.65,1.16,0.98,2.53,0.98,4.12c0,0.13,0,0.29-0.01,0.49s-0.02,0.37-0.04,0.52h-12.46v-2.32h10.61l-1.4,0.73
		c0.02-0.84-0.15-1.59-0.52-2.25c-0.36-0.66-0.86-1.18-1.5-1.54c-0.63-0.36-1.38-0.55-2.24-0.55c-0.84,0-1.59,0.18-2.25,0.55
		c-0.66,0.36-1.17,0.88-1.53,1.55s-0.53,1.45-0.53,2.32v0.56c0,0.9,0.2,1.69,0.6,2.38c0.4,0.69,0.98,1.23,1.72,1.61
		c0.75,0.38,1.61,0.57,2.6,0.57c0.84,0,1.6-0.14,2.27-0.42c0.67-0.28,1.27-0.69,1.79-1.23l1.9,2.18c-0.69,0.78-1.54,1.38-2.56,1.79
		S-22.93-32.89-24.23-32.89z"/>
	<path class="st1" d="M-205.45,0.51l-5.49-14.95h3.3l4.73,13.19h-1.6l4.93-13.19h2.94l4.82,13.19h-1.57l4.84-13.19h3.11l-5.52,14.95
		h-3.36l-4.34-11.68h1.01l-4.45,11.68H-205.45z"/>
	<path class="st1" d="M-182.04,6.14c-0.75,0-1.48-0.12-2.21-0.36c-0.73-0.24-1.33-0.58-1.79-1.01l1.37-2.55
		c0.35,0.3,0.75,0.54,1.19,0.73s0.9,0.28,1.39,0.28c0.63,0,1.15-0.16,1.54-0.48s0.76-0.86,1.09-1.62l0.84-1.9l0.34-0.45l5.63-13.22
		h3.36l-7,16.18c-0.47,1.1-0.98,1.97-1.55,2.62c-0.57,0.64-1.2,1.1-1.9,1.37C-180.46,6-181.22,6.14-182.04,6.14z M-178.99,1.04
		l-6.75-15.48h3.61l5.52,12.91L-178.99,1.04z"/>
	<path class="st1" d="M-167.09,0.51v-20.78h3.47V0.51H-167.09z M-164.26-2.82l0.08-4.4l7.81-7.22h4.2l-6.64,6.64l-1.88,1.57
		L-164.26-2.82z M-155.81,0.51l-5.52-6.75l2.21-2.8l7.53,9.55H-155.81z"/>
	<path class="st1" d="M-149.42,0.51v-14.95h3.33v4.12l-0.39-1.2c0.43-1.01,1.13-1.78,2.1-2.31c0.97-0.53,2.16-0.8,3.56-0.8v3.33
		c-0.13-0.02-0.26-0.03-0.39-0.04c-0.13-0.01-0.25-0.01-0.36-0.01c-1.34,0-2.41,0.38-3.19,1.15c-0.78,0.77-1.18,1.93-1.18,3.5v7.22
		H-149.42z"/>
	<path class="st1" d="M-130.94,0.71c-1.66,0-3.11-0.33-4.35-0.99c-1.24-0.66-2.2-1.57-2.88-2.72c-0.68-1.15-1.02-2.47-1.02-3.96
		c0-1.49,0.33-2.81,0.99-3.96c0.66-1.15,1.58-2.05,2.74-2.72s2.5-0.99,3.99-0.99c1.46,0,2.75,0.32,3.89,0.97
		c1.14,0.64,2.03,1.54,2.69,2.7c0.65,1.16,0.98,2.53,0.98,4.12c0,0.13,0,0.29-0.01,0.49s-0.02,0.37-0.04,0.52h-12.46v-2.32h10.61
		l-1.4,0.73c0.02-0.84-0.15-1.59-0.52-2.25c-0.36-0.66-0.86-1.18-1.5-1.54c-0.64-0.36-1.38-0.55-2.24-0.55
		c-0.84,0-1.59,0.18-2.25,0.55c-0.66,0.36-1.17,0.88-1.53,1.55c-0.35,0.67-0.53,1.45-0.53,2.32v0.56c0,0.9,0.2,1.69,0.6,2.38
		c0.4,0.69,0.98,1.23,1.72,1.61c0.75,0.38,1.61,0.57,2.6,0.57c0.84,0,1.6-0.14,2.27-0.42c0.67-0.28,1.27-0.69,1.79-1.23l1.9,2.18
		c-0.69,0.78-1.54,1.38-2.56,1.79C-128.47,0.5-129.64,0.71-130.94,0.71z"/>
	<path class="st1" d="M-115.91,0.71c-1.27,0-2.47-0.16-3.61-0.49c-1.14-0.33-2.05-0.72-2.74-1.19l1.34-2.66
		c0.67,0.43,1.47,0.78,2.41,1.05c0.93,0.27,1.88,0.41,2.83,0.41c1.08,0,1.87-0.14,2.37-0.43c0.49-0.29,0.74-0.69,0.74-1.19
		c0-0.41-0.17-0.72-0.5-0.94s-0.77-0.38-1.32-0.49c-0.54-0.11-1.14-0.21-1.81-0.31s-1.33-0.22-1.99-0.38
		c-0.66-0.16-1.27-0.39-1.81-0.7c-0.54-0.31-0.98-0.72-1.32-1.25c-0.34-0.52-0.5-1.22-0.5-2.1c0-0.93,0.27-1.75,0.81-2.45
		c0.54-0.7,1.3-1.25,2.28-1.64s2.14-0.59,3.49-0.59c0.99,0,2,0.12,3.04,0.35c1.04,0.23,1.9,0.56,2.59,0.97l-1.37,2.66
		c-0.69-0.41-1.4-0.7-2.13-0.85s-1.45-0.24-2.16-0.24c-1.05,0-1.83,0.15-2.35,0.46c-0.52,0.31-0.78,0.7-0.78,1.19
		c0,0.45,0.17,0.78,0.5,1.01s0.77,0.4,1.32,0.52c0.54,0.12,1.14,0.23,1.81,0.34c0.66,0.1,1.32,0.23,1.97,0.39s1.26,0.38,1.81,0.67
		c0.55,0.29,0.99,0.7,1.33,1.22s0.5,1.2,0.5,2.04c0,0.95-0.28,1.77-0.83,2.45c-0.55,0.68-1.33,1.21-2.32,1.6
		C-113.31,0.52-114.51,0.71-115.91,0.71z M-118.06-16.48l3.78-3.84h4.14l-4.9,3.84H-118.06z"/>
	<path class="st1" d="M-106.11,0.51v-20.78h3.47V0.51H-106.11z"/>
	<path class="st1" d="M-91.32,0.71c-1.51,0-2.87-0.33-4.07-0.99c-1.2-0.66-2.15-1.57-2.84-2.73c-0.69-1.16-1.04-2.47-1.04-3.95
		c0-1.51,0.35-2.84,1.04-3.98c0.69-1.14,1.63-2.04,2.83-2.7c1.19-0.66,2.56-0.99,4.09-0.99c1.55,0,2.93,0.33,4.13,0.99
		s2.15,1.56,2.83,2.7c0.68,1.14,1.02,2.46,1.02,3.98c0,1.49-0.34,2.81-1.02,3.96c-0.68,1.15-1.63,2.05-2.84,2.72
		C-88.42,0.38-89.79,0.71-91.32,0.71z M-91.32-2.26c0.86,0,1.62-0.19,2.3-0.57s1.2-0.93,1.58-1.65s0.57-1.54,0.57-2.48
		c0-0.95-0.19-1.78-0.57-2.48c-0.38-0.7-0.91-1.24-1.58-1.62c-0.67-0.38-1.43-0.57-2.27-0.57s-1.6,0.19-2.27,0.57
		c-0.67,0.38-1.21,0.92-1.6,1.62c-0.39,0.7-0.59,1.53-0.59,2.48c0,0.93,0.2,1.76,0.59,2.48c0.39,0.72,0.92,1.27,1.6,1.65
		C-92.89-2.45-92.14-2.26-91.32-2.26z"/>
	<path class="st1" d="M-71.5-14.64c1.21,0,2.28,0.23,3.21,0.7c0.92,0.47,1.66,1.19,2.21,2.16c0.55,0.97,0.83,2.21,0.83,3.72v8.57
		h-3.5v-8.12c0-1.33-0.31-2.31-0.92-2.97c-0.62-0.65-1.49-0.98-2.63-0.98c-0.82,0-1.55,0.17-2.18,0.5c-0.63,0.34-1.12,0.84-1.47,1.5
		c-0.35,0.66-0.52,1.5-0.52,2.51v7.56h-3.47v-14.95h3.33v4.06l-0.59-1.26c0.5-0.95,1.25-1.69,2.25-2.21
		C-73.96-14.37-72.81-14.64-71.5-14.64z"/>
	<path class="st1" d="M-59.82,6.14c-0.75,0-1.48-0.12-2.21-0.36c-0.73-0.24-1.33-0.58-1.79-1.01l1.37-2.55
		c0.35,0.3,0.75,0.54,1.19,0.73c0.44,0.19,0.9,0.28,1.39,0.28c0.63,0,1.15-0.16,1.54-0.48s0.76-0.86,1.09-1.62l0.84-1.9l0.34-0.45
		l5.63-13.22h3.36l-7,16.18c-0.47,1.1-0.98,1.97-1.55,2.62c-0.57,0.64-1.2,1.1-1.9,1.37S-59,6.14-59.82,6.14z M-56.77,1.04
		l-6.75-15.48h3.61l5.52,12.91L-56.77,1.04z"/>
	<path class="st1" d="M-38.46,0.71c-1.57,0-2.96-0.33-4.19-0.99c-1.22-0.66-2.18-1.57-2.87-2.72c-0.69-1.15-1.04-2.47-1.04-3.96
		c0-1.51,0.34-2.84,1.04-3.98c0.69-1.14,1.65-2.04,2.87-2.7s2.62-0.99,4.19-0.99c1.44,0,2.72,0.3,3.84,0.9
		c1.12,0.6,1.96,1.47,2.52,2.6l-2.66,1.57c-0.45-0.69-0.99-1.21-1.64-1.55c-0.64-0.35-1.34-0.52-2.09-0.52
		c-0.86,0-1.63,0.19-2.32,0.57c-0.69,0.38-1.23,0.92-1.62,1.62c-0.39,0.7-0.59,1.53-0.59,2.48s0.2,1.78,0.59,2.49
		c0.39,0.71,0.93,1.26,1.62,1.64s1.47,0.57,2.32,0.57c0.75,0,1.44-0.17,2.09-0.52c0.64-0.34,1.19-0.87,1.64-1.58l2.66,1.57
		c-0.56,1.12-1.4,1.98-2.52,2.59S-37.02,0.71-38.46,0.71z"/>
	<path class="st1" d="M-20.71-14.64c1.21,0,2.28,0.23,3.21,0.7c0.92,0.47,1.66,1.19,2.21,2.16c0.55,0.97,0.83,2.21,0.83,3.72v8.57
		h-3.5v-8.12c0-1.33-0.31-2.31-0.92-2.97c-0.62-0.65-1.49-0.98-2.63-0.98c-0.82,0-1.55,0.17-2.18,0.5c-0.63,0.34-1.12,0.84-1.47,1.5
		c-0.35,0.66-0.52,1.5-0.52,2.51v7.56h-3.47v-20.78h3.47v9.88l-0.73-1.26c0.5-0.95,1.25-1.69,2.25-2.21
		C-23.17-14.37-22.01-14.64-20.71-14.64z"/>
	<path class="st1" d="M-206.99,16.7c-0.65,0-1.19-0.21-1.61-0.62c-0.42-0.41-0.63-0.91-0.63-1.51c0-0.56,0.21-1.04,0.63-1.46
		c0.42-0.41,0.96-0.62,1.61-0.62c0.65,0,1.19,0.19,1.61,0.57s0.63,0.87,0.63,1.47c0,0.6-0.21,1.11-0.62,1.53
		C-205.78,16.49-206.32,16.7-206.99,16.7z M-208.73,34.11V19.16h3.47v14.95H-208.73z"/>
	<path class="st1" d="M-192.18,18.96c1.21,0,2.28,0.23,3.21,0.7c0.92,0.47,1.66,1.19,2.21,2.16c0.55,0.97,0.83,2.21,0.83,3.72v8.57
		h-3.5v-8.12c0-1.33-0.31-2.31-0.92-2.97c-0.62-0.65-1.49-0.98-2.63-0.98c-0.82,0-1.55,0.17-2.18,0.5c-0.63,0.34-1.12,0.84-1.47,1.5
		c-0.35,0.66-0.52,1.5-0.52,2.51v7.56h-3.47V19.16h3.33v4.06l-0.59-1.26c0.5-0.95,1.26-1.69,2.25-2.21
		C-194.64,19.22-193.48,18.96-192.18,18.96z"/>
	<path class="st1" d="M-178.46,34.11l-5.49-14.95h3.3l4.73,13.19h-1.6l4.93-13.19h2.94l4.82,13.19h-1.57l4.84-13.19h3.11
		l-5.52,14.95h-3.36l-4.34-11.68h1.01l-4.45,11.68H-178.46z"/>
	<path class="st1" d="M-149.42,34.31c-1.66,0-3.11-0.33-4.35-0.99c-1.24-0.66-2.2-1.57-2.88-2.72c-0.68-1.15-1.02-2.47-1.02-3.96
		s0.33-2.81,0.99-3.96c0.66-1.15,1.58-2.05,2.74-2.72c1.17-0.66,2.5-0.99,3.99-0.99c1.46,0,2.75,0.32,3.89,0.97
		c1.14,0.64,2.03,1.54,2.69,2.7c0.65,1.16,0.98,2.53,0.98,4.12c0,0.13,0,0.29-0.01,0.49s-0.02,0.37-0.04,0.52h-12.46v-2.32h10.61
		l-1.4,0.73c0.02-0.84-0.15-1.59-0.52-2.25c-0.36-0.66-0.86-1.18-1.5-1.54c-0.64-0.36-1.38-0.55-2.24-0.55
		c-0.84,0-1.59,0.18-2.25,0.55c-0.66,0.36-1.17,0.88-1.53,1.55c-0.35,0.67-0.53,1.45-0.53,2.32v0.56c0,0.9,0.2,1.69,0.6,2.38
		c0.4,0.69,0.98,1.23,1.72,1.61c0.75,0.38,1.61,0.57,2.6,0.57c0.84,0,1.6-0.14,2.27-0.42c0.67-0.28,1.27-0.69,1.79-1.23l1.9,2.18
		c-0.69,0.78-1.54,1.38-2.56,1.79C-146.95,34.1-148.12,34.31-149.42,34.31z"/>
	<path class="st1" d="M-134.39,34.31c-1.27,0-2.47-0.16-3.61-0.49c-1.14-0.33-2.05-0.72-2.74-1.19l1.34-2.66
		c0.67,0.43,1.47,0.78,2.41,1.05c0.93,0.27,1.88,0.41,2.83,0.41c1.08,0,1.87-0.14,2.37-0.43c0.49-0.29,0.74-0.69,0.74-1.19
		c0-0.41-0.17-0.72-0.5-0.94s-0.77-0.38-1.32-0.49c-0.54-0.11-1.14-0.21-1.81-0.31s-1.33-0.22-1.99-0.38
		c-0.66-0.16-1.27-0.39-1.81-0.7c-0.54-0.31-0.98-0.72-1.32-1.25s-0.5-1.22-0.5-2.1c0-0.93,0.27-1.75,0.81-2.45
		c0.54-0.7,1.3-1.25,2.28-1.64c0.98-0.39,2.14-0.59,3.49-0.59c0.99,0,2,0.12,3.04,0.35c1.04,0.23,1.9,0.56,2.59,0.97l-1.37,2.66
		c-0.69-0.41-1.4-0.7-2.13-0.85c-0.73-0.16-1.45-0.24-2.16-0.24c-1.05,0-1.83,0.15-2.35,0.46c-0.52,0.31-0.78,0.7-0.78,1.19
		c0,0.45,0.17,0.78,0.5,1.01c0.34,0.22,0.77,0.4,1.32,0.52c0.54,0.12,1.14,0.23,1.81,0.34c0.66,0.1,1.32,0.23,1.97,0.39
		c0.65,0.16,1.26,0.38,1.81,0.67c0.55,0.29,0.99,0.7,1.33,1.22c0.34,0.52,0.5,1.2,0.5,2.04c0,0.95-0.28,1.77-0.83,2.45
		c-0.55,0.68-1.33,1.21-2.32,1.6C-131.79,34.12-132.99,34.31-134.39,34.31z"/>
	<path class="st1" d="M-126.6,22.07v-2.8h9.97v2.8H-126.6z M-118.99,34.31c-1.64,0-2.91-0.42-3.81-1.27
		c-0.9-0.85-1.34-2.09-1.34-3.74V15.86h3.47v13.33c0,0.71,0.19,1.26,0.56,1.65c0.37,0.39,0.9,0.59,1.57,0.59
		c0.77,0,1.4-0.21,1.9-0.62l1.01,2.49c-0.43,0.34-0.94,0.59-1.54,0.76C-117.76,34.22-118.37,34.31-118.99,34.31z"/>
	<path class="st1" d="M-111.76,39.74c-0.75,0-1.48-0.12-2.21-0.36c-0.73-0.24-1.33-0.58-1.79-1.01l1.37-2.55
		c0.35,0.3,0.75,0.54,1.19,0.73s0.9,0.28,1.39,0.28c0.63,0,1.15-0.16,1.54-0.48s0.76-0.86,1.09-1.62l0.84-1.9l0.34-0.45l5.63-13.22
		h3.36l-7,16.18c-0.47,1.1-0.98,1.97-1.55,2.62c-0.57,0.64-1.2,1.1-1.9,1.37C-110.18,39.6-110.94,39.74-111.76,39.74z
		 M-108.71,34.64l-6.75-15.48h3.61l5.52,12.91L-108.71,34.64z"/>
	<path class="st1" d="M-90.4,34.31c-1.57,0-2.96-0.33-4.19-0.99c-1.22-0.66-2.18-1.57-2.87-2.72c-0.69-1.15-1.04-2.47-1.04-3.96
		c0-1.51,0.35-2.84,1.04-3.98c0.69-1.14,1.65-2.04,2.87-2.7c1.22-0.66,2.62-0.99,4.19-0.99c1.44,0,2.71,0.3,3.84,0.9
		c1.12,0.6,1.96,1.47,2.52,2.6l-2.66,1.57c-0.45-0.69-0.99-1.21-1.64-1.55c-0.64-0.35-1.34-0.52-2.09-0.52
		c-0.86,0-1.63,0.19-2.32,0.57c-0.69,0.38-1.23,0.92-1.62,1.62s-0.59,1.53-0.59,2.48c0,0.95,0.2,1.78,0.59,2.49
		c0.39,0.71,0.93,1.26,1.62,1.64c0.69,0.38,1.47,0.57,2.32,0.57c0.75,0,1.44-0.17,2.09-0.52c0.64-0.34,1.19-0.87,1.64-1.58
		l2.66,1.57c-0.56,1.12-1.4,1.98-2.52,2.59C-87.68,34-88.96,34.31-90.4,34.31z"/>
	<path class="st1" d="M-82.56,39.74c-0.63,0-1.25-0.08-1.83-0.22c-0.59-0.15-1.09-0.36-1.5-0.64l1.01-2.6
		c0.54,0.39,1.22,0.59,2.04,0.59c0.63,0,1.13-0.2,1.48-0.6s0.53-0.99,0.53-1.78V19.16h3.5v15.23c0,1.64-0.45,2.94-1.36,3.91
		C-79.59,39.26-80.88,39.74-82.56,39.74z M-79.09,16.7c-0.65,0-1.19-0.21-1.61-0.62c-0.42-0.41-0.63-0.91-0.63-1.51
		c0-0.56,0.21-1.04,0.63-1.46c0.42-0.41,0.96-0.62,1.61-0.62c0.65,0,1.19,0.19,1.61,0.57c0.42,0.38,0.63,0.87,0.63,1.47
		c0,0.6-0.21,1.11-0.62,1.53C-77.87,16.49-78.41,16.7-79.09,16.7z"/>
	<path class="st1" d="M-70.97,16.7c-0.65,0-1.19-0.21-1.61-0.62c-0.42-0.41-0.63-0.91-0.63-1.51c0-0.56,0.21-1.04,0.63-1.46
		c0.42-0.41,0.96-0.62,1.61-0.62s1.19,0.19,1.61,0.57s0.63,0.87,0.63,1.47c0,0.6-0.21,1.11-0.62,1.53
		C-69.75,16.49-70.29,16.7-70.97,16.7z M-72.7,34.11V19.16h3.47v14.95H-72.7z"/>
</g>
<g id="g3342" transform="translate(-752.3692,0.000000)">
	<g id="g3141">
		<path id="path1334" class="st2" d="M796.27,177.57l-9.47,0.05v14.22c0.39,4.61,4.41,8.95,9.47,8.8V177.57z"/>
		<path id="path2482" class="st3" d="M790.86,182.96l0.01-0.74c0.01-0.3-0.16-0.33-0.3-0.23c-0.15,0.11-0.27,0.01-0.22-0.4
			c0.08-0.52-0.27-0.61-0.38-0.38c-0.17,0.28-0.29,0.04-0.23-0.27c0.06-0.53-0.28-0.67-0.46-0.35c-0.19,0.24-0.29,0.2-0.34-0.08
			c-0.01-0.25-0.24-0.25-0.46-0.25c-0.25,0.04-0.38,0.19-0.45,0.41c-0.05,0.3,0.07,0.42,0.29,0.46c0.25-0.01,0.42,0.18,0.08,0.37
			c-0.3,0.19-0.31,0.47,0.3,0.45c0.6-0.1,0.48,0.17,0.33,0.22c-0.33,0.18-0.02,0.46,0.46,0.38c0.48-0.06,0.6,0.15,0.42,0.22
			c-0.22,0.2-0.01,0.38,0.37,0.29C790.47,183.02,790.67,182.98,790.86,182.96z"/>
		<path id="path2486" class="st3" d="M790.85,187.99l0.02-0.8c0.02-0.32-0.18-0.36-0.33-0.25c-0.17,0.12-0.3,0.01-0.24-0.43
			c0.09-0.57-0.3-0.66-0.42-0.42c-0.19,0.31-0.32,0.05-0.26-0.3c0.07-0.58-0.31-0.73-0.51-0.39c-0.21,0.27-0.32,0.21-0.38-0.09
			c-0.01-0.27-0.26-0.27-0.51-0.27c-0.27,0.04-0.42,0.21-0.5,0.45c-0.06,0.32,0.08,0.46,0.32,0.51c0.28-0.01,0.46,0.2,0.09,0.4
			c-0.33,0.2-0.35,0.52,0.33,0.49c0.66-0.11,0.53,0.19,0.36,0.24c-0.37,0.19-0.02,0.5,0.51,0.42c0.53-0.06,0.66,0.16,0.47,0.24
			c-0.24,0.22-0.01,0.41,0.41,0.31C790.43,188.05,790.65,188.01,790.85,187.99z"/>
		<path id="path2488" class="st3" d="M790.9,191.8l-0.22-0.74c-0.08-0.3-0.27-0.28-0.38-0.14c-0.12,0.16-0.28,0.1-0.35-0.33
			c-0.08-0.54-0.47-0.52-0.51-0.26c-0.08,0.34-0.28,0.13-0.32-0.2c-0.11-0.55-0.5-0.58-0.59-0.21c-0.11,0.3-0.24,0.29-0.37,0.02
			c-0.09-0.24-0.32-0.17-0.55-0.1c-0.24,0.12-0.33,0.31-0.33,0.55c0.04,0.31,0.21,0.4,0.44,0.37c0.26-0.09,0.49,0.05,0.2,0.34
			c-0.24,0.28-0.17,0.57,0.45,0.36c0.58-0.29,0.54,0.02,0.4,0.12c-0.28,0.28,0.12,0.46,0.6,0.24c0.47-0.21,0.66-0.04,0.5,0.09
			c-0.16,0.27,0.11,0.38,0.47,0.17C790.52,191.97,790.71,191.87,790.9,191.8z"/>
		<path id="path2490" class="st3" d="M792.07,183.15l0.12-0.73c0.04-0.29,0.22-0.3,0.34-0.17c0.13,0.14,0.27,0.06,0.29-0.35
			c0.02-0.52,0.38-0.55,0.44-0.31c0.12,0.31,0.28,0.09,0.28-0.23c0.04-0.53,0.4-0.61,0.52-0.26c0.14,0.27,0.25,0.25,0.35-0.02
			c0.06-0.24,0.28-0.2,0.5-0.16c0.24,0.08,0.34,0.25,0.37,0.48c0,0.3-0.15,0.4-0.37,0.4c-0.25-0.06-0.45,0.1-0.15,0.35
			c0.26,0.24,0.22,0.52-0.38,0.39c-0.57-0.21-0.5,0.08-0.36,0.16c0.29,0.23-0.06,0.45-0.52,0.29c-0.46-0.14-0.61,0.04-0.45,0.14
			c0.18,0.24-0.06,0.37-0.41,0.22C792.44,183.27,792.25,183.19,792.07,183.15z"/>
		<path id="path2492" class="st3" d="M792.4,187.58l0.05-0.8c0.01-0.32,0.21-0.35,0.35-0.22c0.16,0.14,0.3,0.04,0.28-0.41
			c-0.04-0.57,0.35-0.64,0.46-0.38c0.16,0.32,0.31,0.07,0.28-0.27c-0.02-0.59,0.37-0.7,0.54-0.34c0.18,0.28,0.31,0.24,0.38-0.06
			c0.04-0.27,0.29-0.24,0.53-0.22c0.27,0.07,0.41,0.24,0.46,0.49c0.03,0.33-0.12,0.45-0.36,0.48c-0.28-0.03-0.48,0.16-0.12,0.39
			c0.31,0.23,0.3,0.55-0.37,0.46c-0.65-0.17-0.54,0.14-0.38,0.21c0.35,0.22-0.02,0.5-0.55,0.37c-0.52-0.11-0.67,0.1-0.49,0.2
			c0.22,0.24-0.03,0.41-0.43,0.28C792.82,187.68,792.6,187.62,792.4,187.58z"/>
		<path id="path2221" class="st4" d="M791.38,182.26l0,1.14c-0.9-1-1.81-2.03-2.94-2.71c1.03,0.91,1.93,1.89,2.82,2.86l-0.45-0.25
			l-0.11,0.12c0.23,0.17,0.58,0.3,0.54,0.57l-0.28-0.11l-0.04,0.14c0.17,0.1,0.36,0.18,0.29,0.44l-0.01,0.64l-0.12,0.11l-0.48-0.47
			l-0.11,0.15l0.6,0.63l-0.39-0.19l-0.04,0.13c0.25,0.14,0.5,0.27,0.55,0.63l-0.08,2.11c-0.85-0.87-1.78-1.91-2.79-2.6l2.83,2.93
			l-0.34-0.23l-0.13,0.13c0.27,0.09,0.46,0.28,0.43,0.74l0.01,0.41l-0.53-0.37l-0.04,0.22l0.62,0.45l-0.4-0.08l-0.07,0.14
			c0.24,0.03,0.43,0.13,0.41,0.53l-0.02,1.24c-1.07-0.56-2.13-0.95-3.2-1.31l2.93,1.47l0.22,0.43v1.46
			c-0.03,0.62-0.21,1.83-0.51,1.85l-0.31,0.03c-0.12,0.1-0.24,0.09-0.38,0c-0.28-0.24-0.43-0.09-0.55,0.14
			c0.13-0.07,0.26-0.15,0.41-0.04l0.28-0.03c-0.46,0.07-0.35,0.35-0.38,0.57c0.17-0.39,0.45-0.37,0.71-0.45
			c0.49,0.11,0.58-0.21,0.72-0.46c-0.11,0.25-0.12,0.57-0.53,0.62c-0.42-0.05-0.44,0.2-0.44,0.45c0.05-0.28,0.4-0.37,0.67-0.52
			c-0.28,0.23-0.42,0.44-0.32,0.62c0.12-0.2,0.23-0.43,0.45-0.49c0.2-0.1,0.29-0.3,0.4-0.49c0.04,0.18,0.11,0.37-0.04,0.51
			c-0.1,0.21-0.01,0.37,0.03,0.54c0.05-0.35,0.23-0.52,0.41-0.68c-0.2,0.28-0.08,0.44,0.1,0.58c-0.03-0.2-0.03-0.38,0.1-0.54
			c-0.03-0.21,0.04-0.35,0.15-0.46c0.18,0.36,0.2,0.76,0.24,1.17c0.05-0.15,0.14-0.29,0.08-0.49c0.2,0.08,0.31,0.26,0.42,0.45
			c0.03-0.4-0.45-0.59-0.48-1.13c0.1,0.2,0.08,0.54,0.42,0.45c0.27,0,0.32,0.14,0.34,0.3c-0.06,0.17,0.04,0.25,0.21,0.3
			c-0.07-0.13-0.12-0.27-0.1-0.43c0.17,0.01,0.24,0.36,0.41,0.43c0.08,0.01,0.14,0,0.12-0.08c-0.21-0.1-0.29-0.52-0.49-0.51
			c-0.2-0.07-0.32-0.19-0.43-0.33c0.34-0.2,0.55-0.06,0.75,0.11c0.2,0.2,0.56,0.34,0.5,0.65l0.08,0.01l0.07-0.22
			c0.1,0.17,0.19,0.33,0.4,0.47l0.16-0.04c-0.15-0.13-0.26-0.27-0.29-0.45c-0.05-0.1-0.08-0.22-0.27-0.21
			c-0.25-0.07-0.37-0.21-0.48-0.36c-0.19-0.23-0.44-0.3-0.72-0.27c-0.65-0.03-0.46-0.48-0.61-0.76l0-1.73
			c0.12-0.4,0.37-0.54,0.62-0.68c-0.27-0.05-0.53-0.03-0.77,0.29l-0.03-2.55c0.16-0.38,0.39-0.6,0.62-0.82l-0.11-0.25l-0.48,0.54
			l-0.14-0.06c-0.14-0.86,0.23-1,0.58-1.17l-0.06-0.2l-0.49,0.34c0.86-1.08,1.84-2.09,3.04-2.96c-1.08,0.63-2.3,1.47-3.22,2.67
			v-2.23c0.09-0.29,0.29-0.4,0.48-0.53l-0.1-0.16l-0.33,0.15l0.74-0.67l-0.11-0.21l-0.82,0.69l0.04-0.88
			c0.05-0.25,0.19-0.3,0.3-0.43l-0.09-0.18l-0.24,0.18c0.91-1.01,2.09-1.7,3.22-2.45c-1.29,0.6-2.54,1.26-3.47,2.32l0.06-1.39
			L791.38,182.26z"/>
		<path id="path2494" class="st3" d="M792.23,191.67l0.16-0.75c0.06-0.31,0.25-0.3,0.37-0.17c0.13,0.15,0.28,0.07,0.32-0.35
			c0.04-0.55,0.43-0.56,0.49-0.3c0.11,0.33,0.29,0.11,0.31-0.22c0.07-0.56,0.45-0.62,0.57-0.26c0.14,0.29,0.26,0.27,0.38-0.01
			c0.07-0.25,0.31-0.2,0.54-0.14c0.25,0.1,0.36,0.28,0.37,0.52c-0.01,0.31-0.18,0.41-0.41,0.41c-0.26-0.07-0.48,0.09-0.17,0.36
			c0.26,0.26,0.21,0.55-0.42,0.39c-0.6-0.24-0.54,0.07-0.39,0.15c0.3,0.26-0.09,0.47-0.58,0.28c-0.49-0.17-0.66,0.01-0.49,0.13
			c0.18,0.25-0.08,0.39-0.45,0.21C792.62,191.81,792.42,191.73,792.23,191.67z"/>
		<path id="path2225" class="st4" d="M791.87,191.92c0.95-0.8,2.11-1.3,3.22-1.88c-1.11,0.65-2.19,1.32-3.13,2.11"/>
		<path id="path2293" class="st3" d="M790.97,181.51l1.15,0.04c-0.01-0.53,0.2-1.5-0.52-1.58
			C790.89,180.04,791,180.83,790.97,181.51z"/>
		<path id="path2227" class="st5" d="M790.79,181.52h1.51c-0.03,0.42-0.19,0.79-0.81,0.8C790.77,182.26,790.8,181.79,790.79,181.52z
			"/>
		<path id="path2229" class="st5" d="M791.93,181.53l0.29,0.32"/>
		<path id="path2231" class="st5" d="M791.58,181.53l0.54,0.53"/>
		<path id="path2233" class="st5" d="M791.21,181.51l0.71,0.71"/>
		<path id="path2235" class="st5" d="M790.89,181.52l0.76,0.77"/>
		<path id="path2237" class="st5" d="M790.78,181.72"/>
		<path id="path2239" class="st5" d="M790.8,181.72l0.53,0.56"/>
		<path id="path2241" class="st5" d="M792.19,181.51l-0.81,0.78"/>
		<path id="path2243" class="st5" d="M791.87,181.52l-0.72,0.7"/>
		<path id="path2245" class="st5" d="M791.57,181.52l-0.6,0.57"/>
		<path id="path2247" class="st5" d="M791.22,181.51l-0.38,0.39"/>
		<path id="path2249" class="st5" d="M790.91,181.52l-0.11,0.14"/>
		<path id="path2291" class="st5" d="M792.26,181.76l-0.56,0.53"/>
		<path id="path2295" class="st6" d="M791.67,179.9c0,0.03-0.03,0.05-0.06,0.05c-0.03,0-0.06-0.02-0.06-0.05
			c0-0.03,0.03-0.05,0.06-0.05C791.65,179.85,791.67,179.87,791.67,179.9z"/>
		<path id="path2316" class="st3" d="M789.5,184.93l0.78-1.02c-0.44-0.3-1.09-1.05-1.62-0.45
			C788.25,184.14,788.97,184.5,789.5,184.93z"/>
		<g id="g3070">
			<path id="path2320" class="st5" d="M789.44,185.02l0.88-1.23c0.32,0.27,0.53,0.61,0.18,1.13
				C790.04,185.47,789.67,185.17,789.44,185.02z"/>
			<path id="path2322" class="st5" d="M790.11,184.1l0.43-0.05"/>
			<path id="path2324" class="st5" d="M789.91,184.39l0.74-0.13"/>
			<path id="path2326" class="st5" d="M789.68,184.67l0.99-0.16"/>
			<path id="path2328" class="st5" d="M789.5,184.94l1.07-0.17"/>
			<path id="path2330" class="st5" d="M789.6,185.14"/>
			<path id="path2332" class="st5" d="M789.61,185.13l0.77-0.1"/>
			<path id="path2334" class="st5" d="M790.25,183.87l0.16,1.11"/>
			<path id="path2336" class="st5" d="M790.07,184.14l0.15,1"/>
			<path id="path2338" class="st5" d="M789.9,184.39l0.12,0.82"/>
			<path id="path2340" class="st5" d="M789.68,184.66l0.1,0.54"/>
			<path id="path2342" class="st5" d="M789.51,184.93l0.04,0.17"/>
			<path id="path2344" class="st5" d="M790.49,183.97l0.11,0.76"/>
		</g>
		<path id="path2348" class="st3" d="M793.65,184.82l-0.6-1.19c0.49-0.21,1.27-0.82,1.7-0.1
			C795.03,184.31,794.26,184.51,793.65,184.82z"/>
		<path id="path2352" class="st5" d="M793.68,184.91l-0.63-1.37c-0.37,0.2-0.64,0.5-0.39,1.07
			C793.01,185.24,793.42,185.02,793.68,184.91z"/>
		<path id="path2354" class="st5" d="M793.19,183.88l-0.41-0.13"/>
		<path id="path2356" class="st5" d="M793.34,184.21l-0.7-0.27"/>
		<path id="path2358" class="st5" d="M793.51,184.52l-0.94-0.35"/>
		<path id="path2360" class="st5" d="M793.63,184.82l-1.02-0.37"/>
		<path id="path2362" class="st5" d="M793.5,185"/>
		<path id="path2364" class="st5" d="M793.49,184.98l-0.73-0.24"/>
		<path id="path2366" class="st5" d="M793.1,183.63l-0.37,1.06"/>
		<path id="path2368" class="st5" d="M793.22,183.93l-0.34,0.95"/>
		<path id="path2370" class="st5" d="M793.35,184.2l-0.27,0.78"/>
		<path id="path2372" class="st5" d="M793.51,184.51l-0.2,0.51"/>
		<path id="path2374" class="st5" d="M793.62,184.81l-0.08,0.16"/>
		<path id="path2376" class="st5" d="M792.84,183.68l-0.25,0.73"/>
		<path id="path2380" class="st3" d="M793.72,189.32l-0.56-1.15c0.49-0.21,1.28-0.81,1.69-0.11
			C795.1,188.8,794.33,189,793.72,189.32z"/>
		<g id="g3126">
			<path id="path2384" class="st5" d="M793.76,189.42l-0.62-1.38c-0.37,0.2-0.64,0.49-0.4,1.07
				C793.09,189.74,793.5,189.52,793.76,189.42z"/>
			<path id="path2386" class="st5" d="M793.28,188.39l-0.41-0.14"/>
			<path id="path2388" class="st5" d="M793.43,188.71l-0.7-0.28"/>
			<path id="path2390" class="st5" d="M793.6,189.03l-0.93-0.36"/>
			<path id="path2392" class="st5" d="M793.72,189.33l-1.02-0.38"/>
			<path id="path2394" class="st5" d="M793.58,189.51"/>
			<path id="path2396" class="st5" d="M793.57,189.49l-0.73-0.25"/>
			<path id="path2398" class="st5" d="M793.19,188.14l-0.38,1.06"/>
			<path id="path2400" class="st5" d="M793.31,188.44l-0.35,0.95"/>
			<path id="path2402" class="st5" d="M793.44,188.71l-0.28,0.78"/>
			<path id="path2404" class="st5" d="M793.59,189.02l-0.2,0.51"/>
			<path id="path2406" class="st5" d="M793.71,189.32l-0.08,0.16"/>
			<path id="path2408" class="st5" d="M792.94,188.19l-0.26,0.72"/>
		</g>
		<path id="path2444" class="st3" d="M789.55,189.7l0.56-1.15c-0.49-0.21-1.28-0.81-1.69-0.11
			C788.16,189.18,788.94,189.39,789.55,189.7z"/>
		<g id="g3098">
			<path id="path2448" class="st5" d="M789.51,189.8l0.62-1.38c0.37,0.2,0.64,0.49,0.4,1.07
				C790.18,190.13,789.77,189.91,789.51,189.8z"/>
			<path id="path2450" class="st5" d="M789.98,188.77l0.41-0.14"/>
			<path id="path2452" class="st5" d="M789.84,189.09l0.7-0.28"/>
			<path id="path2454" class="st5" d="M789.67,189.41l0.93-0.36"/>
			<path id="path2456" class="st5" d="M789.55,189.71l1.02-0.38"/>
			<path id="path2458" class="st5" d="M789.69,189.89"/>
			<path id="path2460" class="st5" d="M789.69,189.88l0.73-0.25"/>
			<path id="path2462" class="st5" d="M790.07,188.52l0.38,1.06"/>
			<path id="path2464" class="st5" d="M789.95,188.82l0.35,0.95"/>
			<path id="path2466" class="st5" d="M789.83,189.09l0.28,0.78"/>
			<path id="path2468" class="st5" d="M789.67,189.41l0.2,0.51"/>
			<path id="path2470" class="st5" d="M789.56,189.7l0.08,0.16"/>
			<path id="path2472" class="st5" d="M790.33,188.57l0.26,0.72"/>
		</g>
		<path id="path2474" class="st6" d="M794.88,183.53c0,0.03-0.03,0.05-0.06,0.05c-0.03,0-0.06-0.02-0.06-0.05s0.03-0.05,0.06-0.05
			C794.85,183.47,794.88,183.5,794.88,183.53z"/>
		<path id="path2476" class="st6" d="M788.69,183.39c0,0.03-0.03,0.05-0.06,0.05s-0.06-0.02-0.06-0.05c0-0.03,0.03-0.05,0.06-0.05
			S788.69,183.36,788.69,183.39z"/>
		<path id="path2478" class="st6" d="M788.5,188.38c0,0.03-0.03,0.05-0.06,0.05c-0.03,0-0.06-0.02-0.06-0.05s0.03-0.05,0.06-0.05
			C788.47,188.33,788.5,188.35,788.5,188.38z"/>
		<path id="path2480" class="st6" d="M794.92,188.12c0,0.03-0.03,0.05-0.06,0.05c-0.03,0-0.06-0.02-0.06-0.05s0.03-0.05,0.06-0.05
			C794.89,188.07,794.92,188.09,794.92,188.12z"/>
		<path id="path2484" class="st7" d="M789.73,180.89h-0.01"/>
	</g>
	<g id="g3300">
		<path id="path2209" class="st8" d="M796.26,177.57l9.47,0.05v14.22c-0.39,4.61-4.41,8.95-9.47,8.8V177.57z"/>
		<g id="g3233">
			<g id="g2640" transform="translate(750.1832,0.000000)">
				<path id="path2594" class="st9" d="M50,189c0.07-1-0.48-1.64-0.88-2.37c-0.74-1.38-0.13-2.42,0.52-2.82
					c0.39-0.34,0.45-0.86-0.15-1.04l-3.02-0.81h2.39c0.13-0.14,0.31-0.25,0.55-0.24c0.05,0.25,0.22,0.5,0.59,0.66
					c0.6,0.13,0.96,0.92,0.32,1.69c-0.57,0.52-0.95,1.11-0.51,1.93c0.21,0.25,0.42,0.18,0.63-0.02c0.75-0.7,1.05-0.59,1.74-0.12
					c0.49,0.27,0.92,0.68,1.29,1.16c1.17,1.09,1.92,4.72,1.56,5.8c-0.03-0.05-0.07-0.08-0.07-0.17c0.16-1.18-0.34-2.14-0.68-3.15
					c0.36,1.04,0.76,2.06,0.61,3.18c-0.08,0.18-0.13,0.23-0.19,0.28c-0.35-0.93-0.76-1.79-1.72-2.22c-0.64-0.38-1.27-0.77-1.78-1.34
					l-0.16,0.36l-0.12-0.73c0.01,0.33-0.03,0.62-0.18,0.84c0.07-0.3,0.01-0.61-0.07-0.91c-0.04,0.29-0.16,0.43-0.27,0.59
					c0.08-0.25,0.08-0.52,0.06-0.79c-0.05,0.17-0.12,0.32-0.25,0.38c0.11-0.29,0.03-0.57-0.07-0.86L50,189z"/>
				<path id="path2596" class="st10" d="M49.4,181.7c0.68-0.09,0.95,0.3,1.23,0.69c0.18,0.32,0.39,0.75,0.81,0.84
					c-0.19,0.12-0.34-0.01-0.5-0.06l0.41,0.33c-0.23-0.03-0.47-0.05-0.68-0.34c-0.02-0.4-0.28-0.64-0.62-0.8
					C49.65,182.26,49.48,182.02,49.4,181.7z"/>
				<path id="path2604" class="st10" d="M54.41,189.87l-0.15-0.37c-0.02,0.08-0.02,0.11,0.04,0.37c-0.36-0.11-0.43-0.43-0.6-0.68
					c0.05,0.18,0.1,0.37,0.25,0.57c-0.39-0.08-0.44-0.36-0.63-0.64c0.04,0.14,0.03,0.25,0.13,0.4c-0.41-0.15-0.49-0.43-0.6-0.71
					c-0.03,0.2,0.07,0.32,0.13,0.46c-0.34,0.06-0.37-0.35-0.49-0.62c-0.03,0.11,0.01,0.27,0.06,0.43c-0.3-0.15-0.33-0.39-0.42-0.65
					c-0.02,0.12-0.03,0.26,0.04,0.42c-0.32-0.11-0.41-0.46-0.54-0.77c-0.01,0.15,0.01,0.25,0.07,0.49
					c-0.55-0.48-0.73-1.03-0.66-1.76c0.1-0.48,0.41-0.61,0.94-0.42c-0.22-0.18-0.68-0.53-1.11-0.16c-0.31,0.43-0.19,0.8-0.1,1.16
					l-0.35-0.2l0.53,0.37c0.06,0.1,0.04,0.14,0.03,0.19l-0.23-0.18l0.41,0.36c0,0.08,0,0.15-0.06,0.12l-0.32-0.26l0.46,0.44
					c0.05,0.1-0.01,0.1-0.07,0.11l-0.2-0.16c0.11,0.23,0.38,0.41,0.51,0.62c0.03,0.07,0,0.09-0.04,0.1
					c-0.08-0.11-0.16-0.16-0.23-0.2l0.3,0.46c0.02,0.14-0.03,0.17-0.13,0.14c-0.12-0.26-0.5-0.77-0.52-0.71
					c0.15,0.2,0.29,0.41,0.3,0.72c-0.04,0.05-0.1,0.03-0.14,0l0.06,0.38l0.15-0.32c0.21,0.21,0.44,0.42,0.68,0.61
					c0.14,0.11,0.2,0.12,0.35,0.23l0.82,0.51c0.83,0.37,1.35,1.24,1.66,2.16c0.05-0.05,0.1-0.12,0.14-0.2
					c-0.04,0.01,0.14,0.02,0.12-0.04c0.11-0.9-0.05-1.37-0.26-1.98C54.71,190.68,54.44,189.99,54.41,189.87z"/>
				<path id="path2606" class="st11" d="M49.91,183.77c-0.12,0.18-0.33,0.25-0.49,0.46"/>
				<path id="path2608" class="st11" d="M49.2,184.22c0,0.16,0.03,0.3,0.08,0.41"/>
				<path id="path2610" class="st11" d="M49.01,184.5c0.04,0.16,0.09,0.32,0.18,0.45"/>
				<path id="path2612" class="st11" d="M48.9,184.78c0.02,0.18,0.13,0.36,0.26,0.54"/>
				<path id="path2614" class="st7" d="M48.79,185.13"/>
				<path id="path2616" class="st11" d="M48.82,185.24c0.09,0.27,0.2,0.52,0.4,0.69"/>
				<path id="path2618" class="st11" d="M49.04,186.02c0.11,0.21,0.24,0.42,0.48,0.57"/>
				<path id="path2620" class="st11" d="M49.44,186.78c0.12,0.19,0.26,0.33,0.43,0.41"/>
				<path id="path2622" class="st11" d="M49.76,187.38c0.13,0.19,0.24,0.43,0.42,0.52"/>
				<path id="path2624" class="st9" d="M51.48,188.53c0.01,0.24,0.12,0.45,0.34,0.57c0.08-0.05-0.05-0.34-0.01-0.44
					C51.69,188.7,51.59,188.58,51.48,188.53z"/>
				<path id="path2626" class="st9" d="M51.9,188.76c-0.01,0.39,0.11,0.66,0.36,0.83c0.1-0.09-0.15-0.53-0.03-0.68
					C52.09,188.9,52,188.82,51.9,188.76z"/>
				<path id="path2628" class="st9" d="M52.25,188.93c0.04,0.32,0.11,0.74,0.3,0.78c0.05-0.14-0.09-0.54,0.01-0.58
					C52.4,189.12,52.34,189.01,52.25,188.93z"/>
				<path id="path2630" class="st9" d="M52.59,189.17l0.27,0.19c-0.16,0.01,0.1,0.42,0.05,0.62
					C52.59,189.91,52.63,189.48,52.59,189.17z"/>
				<path id="path2632" class="st9" d="M52.89,189.34c0.11-0.07,0.21,0,0.31,0.12c-0.18,0.19,0.22,0.71,0.19,0.84
					C53.07,190.3,52.8,189.5,52.89,189.34z"/>
				<path id="path2634" class="st9" d="M53.23,189.49c-0.04,0.42,0.27,0.94,0.68,1.13c0.09-0.08-0.47-0.58-0.37-1.06
					C53.46,189.56,53.44,189.62,53.23,189.49z"/>
				<path id="path2636" class="st9" d="M53.59,189.64c0.14,0.14,0.29,0.15,0.43,0.17c-0.08,0.16,0.34,0.79,0.3,0.94
					C53.82,190.45,53.64,190.09,53.59,189.64z"/>
				<path id="path2638" class="st9" d="M54.07,189.82c0.1,0.04,0.21,0.12,0.29,0.07l0.33,0.96c-0.28,0.11-0.51-0.65-0.66-1.02"/>
				<path id="path2592" class="st12" d="M46.51,181.98h2.38c0.23,0.09,0.18,0.43,0.38,0.59C48.23,182.39,47.27,182.2,46.51,181.98z"
					/>
				<path id="path2598" class="st13" d="M47.94,182.13l0.71-0.01"/>
				<path id="path2600" class="st14" d="M49.42,182.22c0,0.06-0.05,0.11-0.12,0.11s-0.12-0.05-0.12-0.11c0-0.06,0.05-0.11,0.12-0.11
					S49.42,182.16,49.42,182.22z"/>
				<path id="path2602" class="st6" d="M49.32,182.21c0,0.02-0.02,0.04-0.04,0.04c-0.02,0-0.04-0.02-0.04-0.04
					c0-0.02,0.02-0.04,0.04-0.04C49.3,182.17,49.32,182.19,49.32,182.21L49.32,182.21z"/>
			</g>
			<path id="path3231" class="st9" d="M804.4,190.81c0.11-0.07,0.34,0.23,0.51,0.1c0.06,0.14,0.1,0.34,0.14,0.49
				c0.07,0.38,0.12,0.67,0.05,1.21l-0.13,0.28C805.04,191.91,804.75,191.32,804.4,190.81z"/>
		</g>
		<g id="g3281" transform="translate(755.0933,0.000000)">
			<path id="path3261" class="st15" d="M46.83,189.79l0.45,0.32c-0.46,0.19,0.07,0.86-0.36,1.01c0.07-0.01,0.14-0.04,0.2-0.2
				c0,0.22-0.1,0.48-0.23,0.51c0.17-0.06,0.15-0.13,0.2-0.21c-0.23,0.7-0.31,1.38-0.41,2.06c0.02,0.2-0.14,0.43,0.17,0.51
				c0.29,0.05,0.56-0.16,0.65-0.01l-0.03,0.2c-0.08,0.06-0.15,0.01-0.35-0.01c-0.21-0.01-0.47-0.02-0.57-0.08
				c-0.26,0.02-0.63,0.39-1.02,0.37c-0.1,0.04-0.15,0.07-0.27,0.05l-0.06-0.18c0.15-0.06,0.26,0.03,0.38,0
				c0.15-0.03,0.3-0.09,0.46-0.16c-1.07,0.08-1,0-1.27,0.06c-0.12,0.06-0.24,0.07-0.35,0.01l-0.04-0.17c0.17-0.08,0.35-0.09,0.58,0
				c0.15,0.07,0.51,0,0.77-0.01c-0.09-0.1-0.31-0.14-0.57-0.17l-0.15,0.01l0.01-0.19c0.16-0.01,0.33,0.02,0.53,0.15
				c0.25,0.05,0.68,0.2,0.81-0.12c0.13-0.63,0.3-1.23,0.29-1.99c-0.03-0.24-0.05-0.39,0.07-0.65
				C46.94,190.61,46.81,190.12,46.83,189.79z"/>
			<path id="path3263" class="st16" d="M45.05,193.51c-0.05-0.07-0.4,0.03-0.4,0.13c0.13-0.06,0.26-0.02,0.4,0.02V193.51z"/>
			<path id="path3265" class="st16" d="M44.41,193.87l0.03,0.16c-0.2-0.03-0.3,0.02-0.39,0.09
				C44.13,194.01,44.17,193.88,44.41,193.87z"/>
			<path id="path3267" class="st16" d="M45.22,194.13c-0.21,0.05-0.27,0.16-0.3,0.28c0.09-0.1,0.21-0.14,0.35-0.13L45.22,194.13z"/>
			<path id="path3269" class="st16" d="M47.54,193.78c0.22,0.01,0.29,0.11,0.34,0.22c-0.11-0.08-0.23-0.1-0.37-0.07L47.54,193.78z"
				/>
		</g>
		<g id="g3288" transform="matrix(0.990952,-0.134212,0.134212,0.990952,705.1874,101.0856)">
			<path id="path3290" class="st17" d="M84.15,100.57l0.53,0.4c-0.36,0.25-0.03,1.58-0.46,1.73c0.07-0.01,0.14-0.04,0.2-0.2
				c0,0.22-0.1,0.48-0.23,0.51c0.17-0.06,0.15-0.13,0.2-0.21c-0.23,0.7-0.33,1.53-0.43,2.22c0.02,0.2-0.14,0.43,0.17,0.51
				c0.29,0.05,0.56-0.16,0.65-0.01l-0.03,0.2c-0.08,0.06-0.15,0.01-0.35-0.01c-0.21-0.01-0.47-0.02-0.57-0.08
				c-0.26,0.02-0.59,0.33-1.01,0.41c-0.1,0.04-0.13,0.13-0.25,0.11l-0.06-0.18c0.15-0.06,0.25,0.01,0.36-0.05
				c0.12-0.07,0.28-0.14,0.44-0.2c-1.07,0.08-1,0-1.27,0.06c-0.12,0.06-0.24,0.07-0.35,0.01l-0.04-0.17c0.17-0.08,0.35-0.09,0.58,0
				c0.15,0.07,0.51,0,0.77-0.01c-0.09-0.1-0.31-0.14-0.57-0.17l-0.15,0.01l0.01-0.19c0.16-0.01,0.33,0.02,0.53,0.15
				c0.25,0.05,0.68,0.2,0.81-0.12c0.13-0.63,0.32-1.38,0.31-2.15c-0.03-0.24-0.05-0.39,0.07-0.65
				C84.25,102.13,84.23,100.94,84.15,100.57z"/>
			<path id="path3292" class="st18" d="M82.33,105.26c-0.05-0.07-0.4,0.03-0.4,0.13c0.13-0.06,0.26-0.02,0.4,0.02V105.26z"/>
			<path id="path3294" class="st18" d="M81.69,105.62l0.03,0.16c-0.2-0.03-0.3,0.02-0.39,0.09
				C81.41,105.76,81.45,105.62,81.69,105.62z"/>
			<path id="path3296" class="st18" d="M82.52,105.97c-0.21,0.05-0.27,0.16-0.3,0.28c0.09-0.1,0.21-0.14,0.35-0.13L82.52,105.97z"/>
			<path id="path3298" class="st18" d="M84.81,105.53c0.22,0.01,0.29,0.11,0.34,0.22c-0.11-0.08-0.23-0.1-0.37-0.07L84.81,105.53z"
				/>
		</g>
	</g>
</g>
<g>
	<path class="st1" d="M41.69,47.77l-6.5-19.6h3.78l5.8,17.72h-1.88l6.02-17.72h3.36l5.85,17.72H56.3l5.94-17.72h3.47l-6.5,19.6
		h-3.86L50,31.78h1.01l-5.4,15.99H41.69z"/>
	<path class="st1" d="M76.27,32.62c1.21,0,2.28,0.23,3.21,0.7c0.92,0.47,1.66,1.19,2.21,2.16c0.55,0.97,0.83,2.21,0.83,3.72v8.57
		h-3.5v-8.12c0-1.33-0.31-2.31-0.92-2.97c-0.62-0.65-1.49-0.98-2.63-0.98c-0.82,0-1.55,0.17-2.18,0.5c-0.63,0.34-1.12,0.84-1.47,1.5
		c-0.35,0.66-0.52,1.5-0.52,2.51v7.56h-3.47V32.82h3.33v4.06l-0.59-1.26c0.5-0.95,1.25-1.69,2.25-2.21
		C73.81,32.89,74.96,32.62,76.27,32.62z"/>
	<path class="st1" d="M88.73,30.36c-0.65,0-1.19-0.21-1.61-0.62c-0.42-0.41-0.63-0.91-0.63-1.51c0-0.56,0.21-1.05,0.63-1.46
		c0.42-0.41,0.96-0.62,1.61-0.62s1.19,0.19,1.61,0.57c0.42,0.38,0.63,0.87,0.63,1.47s-0.21,1.11-0.62,1.53
		C89.94,30.15,89.4,30.36,88.73,30.36z M86.99,47.77V32.82h3.47v14.95H86.99z"/>
	<path class="st1" d="M101.77,47.97c-1.51,0-2.87-0.33-4.07-0.99s-2.15-1.57-2.84-2.73s-1.04-2.47-1.04-3.95
		c0-1.51,0.34-2.84,1.04-3.98c0.69-1.14,1.63-2.04,2.83-2.7s2.56-0.99,4.09-0.99c1.55,0,2.93,0.33,4.13,0.99
		c1.2,0.66,2.15,1.56,2.83,2.7c0.68,1.14,1.02,2.46,1.02,3.98c0,1.49-0.34,2.81-1.02,3.96s-1.63,2.05-2.84,2.72
		C104.68,47.64,103.3,47.97,101.77,47.97z M101.77,45c0.86,0,1.62-0.19,2.3-0.57c0.67-0.38,1.2-0.93,1.58-1.65
		c0.38-0.72,0.57-1.54,0.57-2.48c0-0.95-0.19-1.78-0.57-2.48c-0.38-0.7-0.91-1.24-1.58-1.62c-0.67-0.38-1.43-0.57-2.27-0.57
		s-1.6,0.19-2.27,0.57c-0.67,0.38-1.2,0.92-1.6,1.62c-0.39,0.7-0.59,1.53-0.59,2.48c0,0.93,0.2,1.76,0.59,2.48
		c0.39,0.72,0.92,1.27,1.6,1.65C100.21,44.81,100.95,45,101.77,45z"/>
	<path class="st1" d="M117.76,47.97c-1.27,0-2.47-0.16-3.61-0.49c-1.14-0.33-2.05-0.72-2.74-1.19l1.34-2.66
		c0.67,0.43,1.47,0.78,2.41,1.05c0.93,0.27,1.88,0.41,2.83,0.41c1.08,0,1.87-0.14,2.37-0.43c0.49-0.29,0.74-0.69,0.74-1.19
		c0-0.41-0.17-0.72-0.5-0.94c-0.34-0.21-0.78-0.38-1.32-0.49c-0.54-0.11-1.14-0.21-1.81-0.31c-0.66-0.09-1.33-0.22-1.99-0.38
		c-0.66-0.16-1.26-0.39-1.81-0.7c-0.54-0.31-0.98-0.72-1.32-1.25c-0.34-0.52-0.5-1.22-0.5-2.1c0-0.93,0.27-1.75,0.81-2.45
		c0.54-0.7,1.3-1.25,2.28-1.64c0.98-0.39,2.14-0.59,3.49-0.59c0.99,0,2,0.12,3.04,0.35s1.9,0.56,2.59,0.97l-1.37,2.66
		c-0.69-0.41-1.4-0.7-2.13-0.85c-0.73-0.16-1.45-0.24-2.16-0.24c-1.05,0-1.83,0.15-2.35,0.46c-0.52,0.31-0.78,0.7-0.78,1.19
		c0,0.45,0.17,0.78,0.5,1.01s0.77,0.4,1.32,0.52c0.54,0.12,1.14,0.23,1.81,0.34c0.66,0.1,1.32,0.23,1.97,0.39s1.26,0.38,1.81,0.67
		c0.55,0.29,0.99,0.7,1.33,1.22c0.34,0.52,0.5,1.2,0.5,2.04c0,0.95-0.28,1.77-0.83,2.45c-0.55,0.68-1.33,1.21-2.32,1.6
		C120.36,47.78,119.16,47.97,117.76,47.97z"/>
	<path class="st1" d="M134.56,47.97c-1.66,0-3.11-0.33-4.35-0.99s-2.2-1.57-2.88-2.72s-1.02-2.47-1.02-3.96
		c0-1.49,0.33-2.81,0.99-3.96c0.66-1.15,1.58-2.05,2.74-2.72s2.5-0.99,3.99-0.99c1.46,0,2.75,0.32,3.89,0.97s2.04,1.54,2.69,2.7
		c0.65,1.16,0.98,2.53,0.98,4.12c0,0.13,0,0.29-0.01,0.49s-0.02,0.37-0.04,0.52h-12.46v-2.32h10.61l-1.4,0.73
		c0.02-0.84-0.15-1.59-0.52-2.25c-0.36-0.66-0.86-1.18-1.5-1.54c-0.63-0.36-1.38-0.55-2.24-0.55c-0.84,0-1.59,0.18-2.25,0.55
		c-0.66,0.36-1.17,0.88-1.53,1.55s-0.53,1.45-0.53,2.32v0.56c0,0.9,0.2,1.69,0.6,2.38c0.4,0.69,0.98,1.23,1.72,1.61
		c0.75,0.38,1.61,0.57,2.6,0.57c0.84,0,1.6-0.14,2.27-0.42c0.67-0.28,1.27-0.69,1.79-1.23l1.9,2.18c-0.69,0.78-1.54,1.38-2.56,1.79
		S135.87,47.97,134.56,47.97z"/>
	<path class="st1" d="M144.98,47.77V27h3.47v20.78H144.98z M147.81,44.44l0.08-4.4l7.81-7.22h4.2l-6.64,6.64l-1.88,1.57
		L147.81,44.44z M156.26,47.77l-5.52-6.75l2.21-2.8l7.53,9.55H156.26z"/>
	<path class="st1" d="M43.45,81.57c-1.51,0-2.87-0.33-4.07-0.99s-2.15-1.57-2.84-2.73c-0.69-1.16-1.04-2.47-1.04-3.95
		c0-1.51,0.35-2.84,1.04-3.98c0.69-1.14,1.63-2.04,2.83-2.7c1.19-0.66,2.56-0.99,4.09-0.99c1.55,0,2.93,0.33,4.13,0.99
		s2.15,1.56,2.83,2.7c0.68,1.14,1.02,2.46,1.02,3.98c0,1.49-0.34,2.81-1.02,3.96s-1.63,2.05-2.84,2.72
		C46.35,81.24,44.98,81.57,43.45,81.57z M43.45,78.6c0.86,0,1.62-0.19,2.3-0.57c0.67-0.38,1.2-0.93,1.58-1.65
		c0.38-0.72,0.57-1.54,0.57-2.48c0-0.95-0.19-1.78-0.57-2.48c-0.38-0.7-0.91-1.24-1.58-1.62c-0.67-0.38-1.43-0.57-2.27-0.57
		s-1.6,0.19-2.27,0.57c-0.67,0.38-1.2,0.92-1.6,1.62c-0.39,0.7-0.59,1.53-0.59,2.48c0,0.93,0.2,1.76,0.59,2.48
		c0.39,0.72,0.92,1.27,1.6,1.65C41.88,78.41,42.63,78.6,43.45,78.6z"/>
	<path class="st1" d="M65.82,81.37l-5.49-14.95h3.3l4.73,13.19h-1.6l4.93-13.19h2.94l4.82,13.19h-1.57l4.84-13.19h3.11l-5.52,14.95
		h-3.36L72.63,69.7h1.01l-4.45,11.68H65.82z"/>
	<path class="st1" d="M89.23,87c-0.75,0-1.48-0.12-2.21-0.36c-0.73-0.24-1.33-0.58-1.79-1.01l1.37-2.55
		c0.35,0.3,0.75,0.54,1.19,0.73c0.44,0.19,0.9,0.28,1.39,0.28c0.63,0,1.15-0.16,1.54-0.48c0.39-0.32,0.76-0.86,1.09-1.62l0.84-1.9
		l0.34-0.45l5.63-13.22h3.36l-7,16.18c-0.47,1.1-0.98,1.97-1.55,2.62s-1.2,1.1-1.9,1.37C90.81,86.86,90.05,87,89.23,87z M92.28,81.9
		l-6.75-15.48h3.61l5.52,12.91L92.28,81.9z"/>
	<path class="st1" d="M104.18,81.37V60.6h3.47v20.78H104.18z M107.01,78.04l0.08-4.4l7.81-7.22h4.2l-6.64,6.64l-1.88,1.57
		L107.01,78.04z M115.46,81.37l-5.52-6.75l2.21-2.8l7.53,9.55H115.46z"/>
	<path class="st1" d="M121.85,81.37V66.42h3.33v4.12l-0.39-1.2c0.43-1.01,1.13-1.78,2.1-2.31c0.97-0.53,2.16-0.8,3.56-0.8v3.33
		c-0.13-0.02-0.26-0.03-0.39-0.04c-0.13-0.01-0.25-0.01-0.36-0.01c-1.34,0-2.41,0.38-3.19,1.15c-0.78,0.77-1.18,1.93-1.18,3.5v7.22
		H121.85z"/>
	<path class="st1" d="M140.33,81.57c-1.66,0-3.11-0.33-4.35-0.99s-2.2-1.57-2.88-2.72s-1.02-2.47-1.02-3.96
		c0-1.49,0.33-2.81,0.99-3.96c0.66-1.15,1.58-2.05,2.74-2.72s2.5-0.99,3.99-0.99c1.46,0,2.75,0.32,3.89,0.97s2.04,1.54,2.69,2.7
		c0.65,1.16,0.98,2.53,0.98,4.12c0,0.13,0,0.29-0.01,0.49s-0.02,0.37-0.04,0.52h-12.46v-2.32h10.61l-1.4,0.73
		c0.02-0.84-0.15-1.59-0.52-2.25c-0.36-0.66-0.86-1.18-1.5-1.54c-0.63-0.36-1.38-0.55-2.24-0.55c-0.84,0-1.59,0.18-2.25,0.55
		c-0.66,0.36-1.17,0.88-1.53,1.55s-0.53,1.45-0.53,2.32v0.56c0,0.9,0.2,1.69,0.6,2.38c0.4,0.69,0.98,1.23,1.72,1.61
		c0.75,0.38,1.61,0.57,2.6,0.57c0.84,0,1.6-0.14,2.27-0.42c0.67-0.28,1.27-0.69,1.79-1.23l1.9,2.18c-0.69,0.78-1.54,1.38-2.56,1.79
		S141.64,81.57,140.33,81.57z"/>
	<path class="st1" d="M155.36,81.57c-1.27,0-2.47-0.16-3.61-0.49c-1.14-0.33-2.05-0.72-2.74-1.19l1.34-2.66
		c0.67,0.43,1.47,0.78,2.41,1.05c0.93,0.27,1.88,0.41,2.83,0.41c1.08,0,1.87-0.14,2.37-0.43c0.49-0.29,0.74-0.69,0.74-1.19
		c0-0.41-0.17-0.72-0.5-0.94c-0.34-0.21-0.78-0.38-1.32-0.49c-0.54-0.11-1.14-0.21-1.81-0.31c-0.66-0.09-1.33-0.22-1.99-0.38
		c-0.66-0.16-1.26-0.39-1.81-0.7c-0.54-0.31-0.98-0.72-1.32-1.25c-0.34-0.52-0.5-1.22-0.5-2.1c0-0.93,0.27-1.75,0.81-2.45
		c0.54-0.7,1.3-1.25,2.28-1.64c0.98-0.39,2.14-0.59,3.49-0.59c0.99,0,2,0.12,3.04,0.35s1.9,0.56,2.59,0.97l-1.37,2.66
		c-0.69-0.41-1.4-0.7-2.13-0.85c-0.73-0.16-1.45-0.24-2.16-0.24c-1.05,0-1.83,0.15-2.35,0.46c-0.52,0.31-0.78,0.7-0.78,1.19
		c0,0.45,0.17,0.78,0.5,1.01s0.77,0.4,1.32,0.52c0.54,0.12,1.14,0.23,1.81,0.34c0.66,0.1,1.32,0.23,1.97,0.39s1.26,0.38,1.81,0.67
		c0.55,0.29,0.99,0.7,1.33,1.22c0.34,0.52,0.5,1.2,0.5,2.04c0,0.95-0.28,1.77-0.83,2.45c-0.55,0.68-1.33,1.21-2.32,1.6
		C157.96,81.38,156.76,81.57,155.36,81.57z M153.21,64.38l3.78-3.84h4.14l-4.9,3.84H153.21z"/>
	<path class="st1" d="M165.16,81.37V60.6h3.47v20.78H165.16z"/>
	<path class="st1" d="M180.26,81.57c-1.66,0-3.11-0.33-4.35-0.99s-2.2-1.57-2.88-2.72S172,75.39,172,73.9
		c0-1.49,0.33-2.81,0.99-3.96c0.66-1.15,1.58-2.05,2.74-2.72s2.5-0.99,3.99-0.99c1.46,0,2.75,0.32,3.89,0.97s2.04,1.54,2.69,2.7
		c0.65,1.16,0.98,2.53,0.98,4.12c0,0.13,0,0.29-0.01,0.49s-0.02,0.37-0.04,0.52h-12.46v-2.32h10.61l-1.4,0.73
		c0.02-0.84-0.15-1.59-0.52-2.25c-0.36-0.66-0.86-1.18-1.5-1.54c-0.63-0.36-1.38-0.55-2.24-0.55c-0.84,0-1.59,0.18-2.25,0.55
		c-0.66,0.36-1.17,0.88-1.53,1.55s-0.53,1.45-0.53,2.32v0.56c0,0.9,0.2,1.69,0.6,2.38c0.4,0.69,0.98,1.23,1.72,1.61
		c0.75,0.38,1.61,0.57,2.6,0.57c0.84,0,1.6-0.14,2.27-0.42c0.67-0.28,1.27-0.69,1.79-1.23l1.9,2.18c-0.69,0.78-1.54,1.38-2.56,1.79
		S181.56,81.57,180.26,81.57z"/>
	<path class="st1" d="M199.13,66.22c1.21,0,2.28,0.23,3.21,0.7c0.92,0.47,1.66,1.19,2.21,2.16c0.55,0.97,0.83,2.21,0.83,3.72v8.57
		h-3.5v-8.12c0-1.33-0.31-2.31-0.92-2.97c-0.62-0.65-1.49-0.98-2.63-0.98c-0.82,0-1.55,0.17-2.18,0.5c-0.63,0.34-1.12,0.84-1.47,1.5
		c-0.35,0.66-0.52,1.5-0.52,2.51v7.56h-3.47V66.42H194v4.06l-0.59-1.26c0.5-0.95,1.25-1.69,2.25-2.21
		C196.67,66.49,197.82,66.22,199.13,66.22z"/>
	<path class="st1" d="M211.59,63.96c-0.65,0-1.19-0.21-1.61-0.62c-0.42-0.41-0.63-0.91-0.63-1.51c0-0.56,0.21-1.05,0.63-1.46
		c0.42-0.41,0.96-0.62,1.61-0.62s1.19,0.19,1.61,0.57c0.42,0.38,0.63,0.87,0.63,1.47s-0.21,1.11-0.62,1.53
		C212.8,63.75,212.26,63.96,211.59,63.96z M209.85,81.37V66.42h3.47v14.95H209.85z"/>
	<path class="st1" d="M224.94,81.57c-1.66,0-3.11-0.33-4.35-0.99s-2.2-1.57-2.88-2.72s-1.02-2.47-1.02-3.96
		c0-1.49,0.33-2.81,0.99-3.96c0.66-1.15,1.58-2.05,2.74-2.72s2.5-0.99,3.99-0.99c1.46,0,2.75,0.32,3.89,0.97s2.04,1.54,2.69,2.7
		c0.65,1.16,0.98,2.53,0.98,4.12c0,0.13,0,0.29-0.01,0.49s-0.02,0.37-0.04,0.52h-12.46v-2.32h10.61l-1.4,0.73
		c0.02-0.84-0.15-1.59-0.52-2.25c-0.36-0.66-0.86-1.18-1.5-1.54c-0.63-0.36-1.38-0.55-2.24-0.55c-0.84,0-1.59,0.18-2.25,0.55
		c-0.66,0.36-1.17,0.88-1.53,1.55s-0.53,1.45-0.53,2.32v0.56c0,0.9,0.2,1.69,0.6,2.38c0.4,0.69,0.98,1.23,1.72,1.61
		c0.75,0.38,1.61,0.57,2.6,0.57c0.84,0,1.6-0.14,2.27-0.42c0.67-0.28,1.27-0.69,1.79-1.23l1.9,2.18c-0.69,0.78-1.54,1.38-2.56,1.79
		S226.25,81.57,224.94,81.57z"/>
	<path class="st1" d="M35.5,114.97v-2.21l9.21-11.14l0.67,1.2h-9.72v-2.8h12.49v2.21l-9.21,11.14l-0.7-1.2h10.16v2.8H35.5z"/>
	<path class="st1" d="M56.13,115.17c-1.12,0-2.1-0.19-2.94-0.57c-0.84-0.38-1.49-0.91-1.95-1.6c-0.46-0.68-0.69-1.45-0.69-2.31
		c0-0.84,0.2-1.6,0.6-2.27s1.06-1.2,1.97-1.6c0.92-0.39,2.13-0.59,3.64-0.59h4.34v2.32h-4.09c-1.18,0-1.97,0.19-2.39,0.57
		s-0.63,0.86-0.63,1.44c0,0.62,0.25,1.11,0.76,1.48c0.5,0.37,1.2,0.56,2.1,0.56c0.86,0,1.63-0.2,2.31-0.59
		c0.68-0.39,1.18-0.97,1.5-1.74l0.56,2.1c-0.34,0.88-0.93,1.56-1.79,2.04C58.58,114.93,57.48,115.17,56.13,115.17z M60.84,114.97
		v-3.05l-0.17-0.62v-5.29c0-1.03-0.31-1.82-0.94-2.39c-0.63-0.57-1.57-0.85-2.84-0.85c-0.82,0-1.63,0.13-2.44,0.39
		c-0.8,0.26-1.49,0.63-2.07,1.09l-1.37-2.55c0.82-0.62,1.78-1.08,2.88-1.4c1.1-0.32,2.25-0.48,3.44-0.48c2.18,0,3.86,0.52,5.04,1.57
		c1.18,1.05,1.76,2.65,1.76,4.82v8.76H60.84z"/>
	<path class="st1" d="M74.98,115.17c-1.44,0-2.73-0.32-3.88-0.95c-1.15-0.63-2.05-1.53-2.7-2.67c-0.65-1.15-0.98-2.5-0.98-4.05
		c0-1.53,0.33-2.88,0.98-4.03s1.55-2.05,2.7-2.69c1.15-0.63,2.44-0.95,3.88-0.95c1.25,0,2.37,0.28,3.36,0.83
		c0.99,0.55,1.77,1.39,2.35,2.52c0.58,1.13,0.87,2.57,0.87,4.33c0,1.74-0.28,3.17-0.84,4.31c-0.56,1.14-1.33,1.98-2.31,2.53
		C77.43,114.89,76.28,115.17,74.98,115.17z M75.4,112.2c0.84,0,1.59-0.19,2.25-0.57c0.66-0.38,1.19-0.93,1.6-1.65s0.6-1.54,0.6-2.48
		c0-0.95-0.2-1.78-0.6-2.48s-0.93-1.24-1.6-1.62c-0.66-0.38-1.41-0.57-2.25-0.57s-1.59,0.19-2.25,0.57c-0.66,0.38-1.2,0.92-1.6,1.62
		c-0.4,0.7-0.6,1.53-0.6,2.48c0,0.93,0.2,1.76,0.6,2.48c0.4,0.72,0.93,1.27,1.6,1.65C73.81,112.01,74.56,112.2,75.4,112.2z
		 M79.96,114.97v-3.53l0.08-3.98l-0.28-3.98v-9.3h3.53v20.78H79.96z"/>
	<path class="st1" d="M92.39,115.17c-1.12,0-2.1-0.19-2.94-0.57c-0.84-0.38-1.49-0.91-1.95-1.6c-0.46-0.68-0.69-1.45-0.69-2.31
		c0-0.84,0.2-1.6,0.6-2.27s1.06-1.2,1.97-1.6c0.92-0.39,2.13-0.59,3.64-0.59h4.34v2.32h-4.09c-1.18,0-1.97,0.19-2.39,0.57
		s-0.63,0.86-0.63,1.44c0,0.62,0.25,1.11,0.76,1.48c0.5,0.37,1.2,0.56,2.1,0.56c0.86,0,1.63-0.2,2.31-0.59
		c0.68-0.39,1.18-0.97,1.5-1.74l0.56,2.1c-0.34,0.88-0.93,1.56-1.79,2.04C94.84,114.93,93.74,115.17,92.39,115.17z M97.1,114.97
		v-3.05l-0.17-0.62v-5.29c0-1.03-0.31-1.82-0.94-2.39c-0.63-0.57-1.57-0.85-2.84-0.85c-0.82,0-1.63,0.13-2.44,0.39
		c-0.8,0.26-1.49,0.63-2.07,1.09l-1.37-2.55c0.82-0.62,1.78-1.08,2.88-1.4c1.1-0.32,2.25-0.48,3.44-0.48c2.18,0,3.86,0.52,5.04,1.57
		c1.18,1.05,1.76,2.65,1.76,4.82v8.76H97.1z"/>
	<path class="st1" d="M113.36,99.82c1.21,0,2.28,0.23,3.21,0.7c0.92,0.47,1.66,1.19,2.21,2.16c0.55,0.97,0.83,2.21,0.83,3.72v8.57
		h-3.5v-8.12c0-1.33-0.31-2.31-0.92-2.97c-0.62-0.65-1.49-0.98-2.63-0.98c-0.82,0-1.55,0.17-2.18,0.5c-0.63,0.34-1.12,0.84-1.47,1.5
		c-0.35,0.66-0.52,1.5-0.52,2.51v7.56h-3.47v-14.95h3.33v4.06l-0.59-1.26c0.5-0.95,1.25-1.69,2.25-2.21
		C110.9,100.08,112.06,99.82,113.36,99.82z M109.92,97.98l3.78-3.84h4.14l-4.9,3.84H109.92z"/>
	<path class="st1" d="M38.49,131.16c-0.65,0-1.19-0.21-1.61-0.62c-0.42-0.41-0.63-0.91-0.63-1.51c0-0.56,0.21-1.04,0.63-1.46
		c0.42-0.41,0.96-0.62,1.61-0.62c0.65,0,1.19,0.19,1.61,0.57s0.63,0.87,0.63,1.47c0,0.6-0.21,1.11-0.62,1.53
		C39.71,130.95,39.17,131.16,38.49,131.16z M36.76,148.57v-14.95h3.47v14.95H36.76z"/>
	<path class="st1" d="M53.31,133.42c1.21,0,2.28,0.23,3.21,0.7c0.92,0.47,1.66,1.19,2.21,2.16s0.83,2.21,0.83,3.72v8.57h-3.5v-8.12
		c0-1.33-0.31-2.31-0.92-2.97s-1.49-0.98-2.63-0.98c-0.82,0-1.55,0.17-2.18,0.5c-0.63,0.34-1.12,0.84-1.47,1.5
		c-0.35,0.66-0.52,1.5-0.52,2.51v7.56h-3.47v-14.95h3.33v4.06l-0.59-1.26c0.5-0.95,1.25-1.69,2.25-2.21
		C50.85,133.68,52,133.42,53.31,133.42z"/>
	<path class="st1" d="M67.02,148.57l-5.49-14.95h3.3l4.73,13.19h-1.6l4.93-13.19h2.94l4.82,13.19h-1.57l4.84-13.19h3.11l-5.52,14.95
		h-3.36l-4.34-11.68h1.01l-4.45,11.68H67.02z"/>
	<path class="st1" d="M96.06,148.77c-1.66,0-3.11-0.33-4.35-0.99c-1.24-0.66-2.2-1.57-2.88-2.72c-0.68-1.15-1.02-2.47-1.02-3.96
		s0.33-2.81,0.99-3.96c0.66-1.15,1.58-2.05,2.74-2.72c1.17-0.66,2.5-0.99,3.99-0.99c1.46,0,2.75,0.32,3.89,0.97
		c1.14,0.64,2.04,1.54,2.69,2.7c0.65,1.16,0.98,2.53,0.98,4.12c0,0.13,0,0.29-0.01,0.49s-0.02,0.37-0.04,0.52H90.57v-2.32h10.61
		l-1.4,0.73c0.02-0.84-0.15-1.59-0.52-2.25c-0.36-0.66-0.86-1.18-1.5-1.54c-0.63-0.36-1.38-0.55-2.24-0.55
		c-0.84,0-1.59,0.18-2.25,0.55c-0.66,0.36-1.17,0.88-1.53,1.55c-0.35,0.67-0.53,1.45-0.53,2.32v0.56c0,0.9,0.2,1.69,0.6,2.38
		s0.98,1.23,1.72,1.61c0.75,0.38,1.61,0.57,2.6,0.57c0.84,0,1.6-0.14,2.27-0.42s1.27-0.69,1.79-1.23l1.9,2.18
		c-0.69,0.78-1.54,1.38-2.56,1.79C98.53,148.56,97.37,148.77,96.06,148.77z"/>
	<path class="st1" d="M111.1,148.77c-1.27,0-2.47-0.16-3.61-0.49s-2.05-0.72-2.74-1.19l1.34-2.66c0.67,0.43,1.47,0.78,2.41,1.05
		s1.88,0.41,2.83,0.41c1.08,0,1.87-0.14,2.37-0.43c0.49-0.29,0.74-0.69,0.74-1.19c0-0.41-0.17-0.72-0.5-0.94
		c-0.34-0.21-0.78-0.38-1.32-0.49c-0.54-0.11-1.14-0.21-1.81-0.31c-0.66-0.09-1.33-0.22-1.99-0.38c-0.66-0.16-1.26-0.39-1.81-0.7
		c-0.54-0.31-0.98-0.72-1.32-1.25s-0.5-1.22-0.5-2.1c0-0.93,0.27-1.75,0.81-2.45c0.54-0.7,1.3-1.25,2.28-1.64
		c0.98-0.39,2.14-0.59,3.49-0.59c0.99,0,2,0.12,3.04,0.35s1.9,0.56,2.59,0.97l-1.37,2.66c-0.69-0.41-1.4-0.7-2.13-0.85
		c-0.73-0.16-1.45-0.24-2.16-0.24c-1.05,0-1.83,0.15-2.35,0.46c-0.52,0.31-0.78,0.7-0.78,1.19c0,0.45,0.17,0.78,0.5,1.01
		c0.34,0.22,0.77,0.4,1.32,0.52c0.54,0.12,1.14,0.23,1.81,0.34c0.66,0.1,1.32,0.23,1.97,0.39c0.65,0.16,1.26,0.38,1.81,0.67
		c0.55,0.29,0.99,0.7,1.33,1.22c0.34,0.52,0.5,1.2,0.5,2.04c0,0.95-0.28,1.77-0.83,2.45c-0.55,0.68-1.33,1.21-2.32,1.6
		C113.7,148.58,112.5,148.77,111.1,148.77z"/>
	<path class="st1" d="M118.88,136.53v-2.8h9.97v2.8H118.88z M126.5,148.77c-1.64,0-2.91-0.42-3.81-1.27
		c-0.9-0.85-1.34-2.09-1.34-3.74v-13.44h3.47v13.33c0,0.71,0.19,1.26,0.56,1.65c0.37,0.39,0.9,0.59,1.57,0.59
		c0.76,0,1.4-0.21,1.9-0.62l1.01,2.49c-0.43,0.34-0.94,0.59-1.54,0.76C127.72,148.68,127.11,148.77,126.5,148.77z"/>
	<path class="st1" d="M133.72,154.2c-0.75,0-1.48-0.12-2.21-0.36c-0.73-0.24-1.33-0.58-1.79-1.01l1.37-2.55
		c0.35,0.3,0.75,0.54,1.19,0.73c0.44,0.19,0.9,0.28,1.39,0.28c0.63,0,1.15-0.16,1.54-0.48s0.76-0.86,1.09-1.62l0.84-1.9l0.34-0.45
		l5.63-13.22h3.36l-7,16.18c-0.47,1.1-0.98,1.97-1.55,2.62c-0.57,0.64-1.2,1.1-1.9,1.37S134.54,154.2,133.72,154.2z M136.77,149.1
		l-6.75-15.48h3.61l5.52,12.91L136.77,149.1z"/>
	<path class="st1" d="M155.08,148.77c-1.57,0-2.96-0.33-4.19-0.99c-1.22-0.66-2.18-1.57-2.87-2.72c-0.69-1.15-1.04-2.47-1.04-3.96
		c0-1.51,0.34-2.84,1.04-3.98s1.65-2.04,2.87-2.7c1.22-0.66,2.62-0.99,4.19-0.99c1.44,0,2.72,0.3,3.84,0.9s1.96,1.47,2.52,2.6
		l-2.66,1.57c-0.45-0.69-0.99-1.21-1.64-1.55c-0.64-0.35-1.34-0.52-2.09-0.52c-0.86,0-1.63,0.19-2.32,0.57
		c-0.69,0.38-1.23,0.92-1.62,1.62c-0.39,0.7-0.59,1.53-0.59,2.48c0,0.95,0.2,1.78,0.59,2.49c0.39,0.71,0.93,1.26,1.62,1.64
		s1.47,0.57,2.32,0.57c0.75,0,1.44-0.17,2.09-0.52c0.64-0.34,1.19-0.87,1.64-1.58l2.66,1.57c-0.56,1.12-1.4,1.98-2.52,2.59
		S156.52,148.77,155.08,148.77z"/>
	<path class="st1" d="M165.56,154.2c-0.75,0-1.48-0.12-2.21-0.36c-0.73-0.24-1.33-0.58-1.79-1.01l1.37-2.55
		c0.35,0.3,0.75,0.54,1.19,0.73c0.44,0.19,0.9,0.28,1.39,0.28c0.63,0,1.15-0.16,1.54-0.48s0.76-0.86,1.09-1.62l0.84-1.9l0.34-0.45
		l5.63-13.22h3.36l-7,16.18c-0.47,1.1-0.98,1.97-1.55,2.62c-0.57,0.64-1.2,1.1-1.9,1.37S166.38,154.2,165.56,154.2z M168.61,149.1
		l-6.75-15.48h3.61l5.52,12.91L168.61,149.1z"/>
	<path class="st1" d="M178.49,154.2c-0.63,0-1.25-0.08-1.83-0.22c-0.59-0.15-1.09-0.36-1.5-0.64l1.01-2.6
		c0.54,0.39,1.22,0.59,2.04,0.59c0.63,0,1.13-0.2,1.48-0.6s0.53-0.99,0.53-1.78v-15.32h3.5v15.23c0,1.64-0.45,2.94-1.36,3.91
		C181.46,153.72,180.17,154.2,178.49,154.2z M181.96,131.16c-0.65,0-1.19-0.21-1.61-0.62c-0.42-0.41-0.63-0.91-0.63-1.51
		c0-0.56,0.21-1.04,0.63-1.46c0.42-0.41,0.96-0.62,1.61-0.62c0.65,0,1.19,0.19,1.61,0.57c0.42,0.38,0.63,0.87,0.63,1.47
		c0,0.6-0.21,1.11-0.62,1.53C183.18,130.95,182.64,131.16,181.96,131.16z"/>
	<path class="st1" d="M196.8,133.42c1.21,0,2.28,0.23,3.21,0.7c0.92,0.47,1.66,1.19,2.21,2.16c0.55,0.97,0.83,2.21,0.83,3.72v8.57
		h-3.5v-8.12c0-1.33-0.31-2.31-0.92-2.97c-0.62-0.65-1.49-0.98-2.63-0.98c-0.82,0-1.55,0.17-2.18,0.5c-0.63,0.34-1.12,0.84-1.47,1.5
		c-0.35,0.66-0.52,1.5-0.52,2.51v7.56h-3.47v-14.95h3.33v4.06l-0.59-1.26c0.5-0.95,1.25-1.69,2.25-2.21
		C194.34,133.68,195.5,133.42,196.8,133.42z"/>
	<path class="st1" d="M208.48,154.2c-0.75,0-1.48-0.12-2.21-0.36c-0.73-0.24-1.33-0.58-1.79-1.01l1.37-2.55
		c0.35,0.3,0.75,0.54,1.19,0.73c0.44,0.19,0.9,0.28,1.39,0.28c0.63,0,1.15-0.16,1.54-0.48s0.76-0.86,1.09-1.62l0.84-1.9l0.34-0.45
		l5.63-13.22h3.36l-7,16.18c-0.47,1.1-0.98,1.97-1.55,2.62c-0.57,0.64-1.2,1.1-1.9,1.37S209.3,154.2,208.48,154.2z M211.53,149.1
		l-6.75-15.48h3.61l5.52,12.91L211.53,149.1z"/>
	<path class="st1" d="M229.84,148.77c-1.57,0-2.96-0.33-4.19-0.99c-1.22-0.66-2.18-1.57-2.87-2.72c-0.69-1.15-1.04-2.47-1.04-3.96
		c0-1.51,0.34-2.84,1.04-3.98s1.65-2.04,2.87-2.7c1.22-0.66,2.62-0.99,4.19-0.99c1.44,0,2.72,0.3,3.84,0.9s1.96,1.47,2.52,2.6
		l-2.66,1.57c-0.45-0.69-0.99-1.21-1.64-1.55c-0.64-0.35-1.34-0.52-2.09-0.52c-0.86,0-1.63,0.19-2.32,0.57
		c-0.69,0.38-1.23,0.92-1.62,1.62c-0.39,0.7-0.59,1.53-0.59,2.48c0,0.95,0.2,1.78,0.59,2.49c0.39,0.71,0.93,1.26,1.62,1.64
		s1.47,0.57,2.32,0.57c0.75,0,1.44-0.17,2.09-0.52c0.64-0.34,1.19-0.87,1.64-1.58l2.66,1.57c-0.56,1.12-1.4,1.98-2.52,2.59
		S231.28,148.77,229.84,148.77z"/>
	<path class="st1" d="M247.6,133.42c1.21,0,2.28,0.23,3.21,0.7c0.92,0.47,1.66,1.19,2.21,2.16c0.55,0.97,0.83,2.21,0.83,3.72v8.57
		h-3.5v-8.12c0-1.33-0.31-2.31-0.92-2.97c-0.62-0.65-1.49-0.98-2.63-0.98c-0.82,0-1.55,0.17-2.18,0.5c-0.63,0.34-1.12,0.84-1.47,1.5
		c-0.35,0.66-0.52,1.5-0.52,2.51v7.56h-3.47v-20.78h3.47v9.88l-0.73-1.26c0.5-0.95,1.25-1.69,2.25-2.21
		C245.14,133.68,246.29,133.42,247.6,133.42z"/>
</g>
</svg>
