<?xml version="1.0" encoding="UTF-8" standalone="no"?>
<svg xmlns="http://www.w3.org/2000/svg" viewBox="0 0 50 24" version="1.1" width="50" height="24">
    <g transform="translate(2,2)">
        <polygon
            points="10.58,4.07 0,4.07 10.58,14.81"
            style="fill:#c00418" />
        <path
            class="cls-1"
            d="M 39.57,4.07 A 5.81,5.81 0 0 0 33.76,9.88 V 18 a 1.42,1.42 0 0 0 2.84,0 v -3.15 a 5.69,5.69 0 0 0 3,0.85 5.82,5.82 0 1 0 0,-11.63 m 0,8.78 a 3,3 0 1 1 3,-3 3,3 0 0 1 -3,3 m -19,-8.78 a 5.75,5.75 0 0 0 -3,0.85 v -3.5 a 1.42,1.42 0 1 0 -2.84,0 v 8.47 0 a 5.81,5.81 0 1 0 5.81,-5.83 m 0,8.79 a 3,3 0 1 1 3,-3 3,3 0 0 1 -3,3 M 31.47,13 c -0.2,-0.1 -0.78,-0.39 -0.78,-2.65 V 5.5 a 1.42,1.42 0 1 0 -2.83,0 v 4.86 c 0,1.72 0.24,4.13 2.33,5.19 a 1.43,1.43 0 0 0 1.91,-0.64 1.41,1.41 0 0 0 -0.63,-1.9 M 29.28,3.13 a 1.57,1.57 0 1 0 -1.57,-1.56 1.56,1.56 0 0 0 1.57,1.56"
            id="path10"
            style="fill:#c00418" />
    </g>
</svg>
