<?xml version="1.0" encoding="utf-8"?>
<!-- Generator: Adobe Illustrator 27.4.0, SVG Export Plug-In . SVG Version: 6.00 Build 0)  -->
<svg version="1.1" id="Warstwa_1" xmlns="http://www.w3.org/2000/svg" xmlns:xlink="http://www.w3.org/1999/xlink" x="0px" y="0px"
	 viewBox="0 0 300 225" style="enable-background:new 0 0 300 225;" xml:space="preserve">
<style type="text/css">
	.st0{fill:#786873;}
	.st1{fill-rule:evenodd;clip-rule:evenodd;fill:#FFC800;}
	.st2{fill-rule:evenodd;clip-rule:evenodd;fill:#00AB4E;stroke:#000000;stroke-width:0.1;}
	.st3{fill-rule:evenodd;clip-rule:evenodd;fill:#00AC4E;stroke:#000000;stroke-width:0.1;}
	.st4{fill-rule:evenodd;clip-rule:evenodd;fill:#0E8D49;stroke:#000000;stroke-width:0.1;}
	.st5{stroke:#000000;stroke-width:0.1;stroke-linecap:round;}
	.st6{fill:none;stroke:#000000;stroke-width:0.1;}
	.st7{fill-rule:evenodd;clip-rule:evenodd;fill:#00AC4E;}
	.st8{fill-rule:evenodd;clip-rule:evenodd;fill:#FFFFFF;stroke:#000000;stroke-width:0.1;}
	.st9{fill-rule:evenodd;clip-rule:evenodd;fill:#252122;stroke:#000000;stroke-width:0.1;}
	.st10{fill:none;stroke:#000000;stroke-width:0.1;stroke-linecap:round;}
	.st11{fill-rule:evenodd;clip-rule:evenodd;fill:#D6AC00;stroke:#000000;stroke-width:0.1;}
	.st12{fill:none;stroke:#504E4B;stroke-width:0.1;stroke-linecap:round;}
	.st13{fill:#FEFFFF;stroke:#000000;stroke-width:0.1;stroke-linecap:round;}
	.st14{fill-rule:evenodd;clip-rule:evenodd;fill:#FDAF17;stroke:#010000;stroke-width:0.1;}
	.st15{fill-rule:evenodd;clip-rule:evenodd;stroke:#000000;stroke-width:0.1;}
	.st16{fill-rule:evenodd;clip-rule:evenodd;fill:#FDAF17;stroke:#010000;stroke-width:0.1;stroke-miterlimit:4;}
	.st17{fill-rule:evenodd;clip-rule:evenodd;stroke:#000000;stroke-width:0.1;stroke-miterlimit:4;}
	.st18{fill:#FFFFFF;}
</style>
<rect class="st0" width="300" height="225"/>
<g id="g3342" transform="translate(-752.3692,0.000000)">
	<g id="g3141">
		<path id="path1334" class="st1" d="M796.27,177.57l-9.47,0.05v14.22c0.39,4.61,4.41,8.95,9.47,8.8V177.57z"/>
		<path id="path2482" class="st2" d="M790.86,182.96l0.01-0.74c0.01-0.3-0.16-0.33-0.3-0.23c-0.15,0.11-0.27,0.01-0.22-0.4
			c0.08-0.52-0.27-0.61-0.38-0.38c-0.17,0.28-0.29,0.04-0.23-0.27c0.06-0.53-0.28-0.67-0.46-0.35c-0.19,0.24-0.29,0.2-0.34-0.08
			c-0.01-0.25-0.24-0.25-0.46-0.25c-0.25,0.04-0.38,0.19-0.45,0.41c-0.05,0.3,0.07,0.42,0.29,0.46c0.25-0.01,0.42,0.18,0.08,0.37
			c-0.3,0.19-0.31,0.47,0.3,0.45c0.6-0.1,0.48,0.17,0.33,0.22c-0.33,0.18-0.02,0.46,0.46,0.38c0.48-0.06,0.6,0.15,0.42,0.22
			c-0.22,0.2-0.01,0.38,0.37,0.29C790.47,183.02,790.67,182.98,790.86,182.96z"/>
		<path id="path2486" class="st2" d="M790.85,187.99l0.02-0.8c0.02-0.32-0.18-0.36-0.33-0.25c-0.17,0.12-0.3,0.01-0.24-0.43
			c0.09-0.57-0.3-0.66-0.42-0.42c-0.19,0.31-0.32,0.05-0.26-0.3c0.07-0.58-0.31-0.73-0.51-0.39c-0.21,0.27-0.32,0.21-0.38-0.09
			c-0.01-0.27-0.26-0.27-0.51-0.27c-0.27,0.04-0.42,0.21-0.5,0.45c-0.06,0.32,0.08,0.46,0.32,0.51c0.28-0.01,0.46,0.2,0.09,0.4
			c-0.33,0.2-0.35,0.52,0.33,0.49c0.66-0.11,0.53,0.19,0.36,0.24c-0.37,0.19-0.02,0.5,0.51,0.42c0.53-0.06,0.66,0.16,0.47,0.24
			c-0.24,0.22-0.01,0.41,0.41,0.31C790.43,188.05,790.65,188.01,790.85,187.99z"/>
		<path id="path2488" class="st2" d="M790.9,191.8l-0.22-0.74c-0.08-0.3-0.27-0.28-0.38-0.14c-0.12,0.16-0.28,0.1-0.35-0.33
			c-0.08-0.54-0.47-0.52-0.51-0.26c-0.08,0.34-0.28,0.13-0.32-0.2c-0.11-0.55-0.5-0.58-0.59-0.21c-0.11,0.3-0.24,0.29-0.37,0.02
			c-0.09-0.24-0.32-0.17-0.55-0.1c-0.24,0.12-0.33,0.31-0.33,0.55c0.04,0.31,0.21,0.4,0.44,0.37c0.26-0.09,0.49,0.05,0.2,0.34
			c-0.24,0.28-0.17,0.57,0.45,0.36c0.58-0.29,0.54,0.02,0.4,0.12c-0.28,0.28,0.12,0.46,0.6,0.24c0.47-0.21,0.66-0.04,0.5,0.09
			c-0.16,0.27,0.11,0.38,0.47,0.17C790.52,191.97,790.71,191.87,790.9,191.8z"/>
		<path id="path2490" class="st2" d="M792.07,183.15l0.12-0.73c0.04-0.29,0.22-0.3,0.34-0.17c0.13,0.14,0.27,0.06,0.29-0.35
			c0.02-0.52,0.38-0.55,0.44-0.31c0.12,0.31,0.28,0.09,0.28-0.23c0.04-0.53,0.4-0.61,0.52-0.26c0.14,0.27,0.25,0.25,0.35-0.02
			c0.06-0.24,0.28-0.2,0.5-0.16c0.24,0.08,0.34,0.25,0.37,0.48c0,0.3-0.15,0.4-0.37,0.4c-0.25-0.06-0.45,0.1-0.15,0.35
			c0.26,0.24,0.22,0.52-0.38,0.39c-0.57-0.21-0.5,0.08-0.36,0.16c0.29,0.23-0.06,0.45-0.52,0.29c-0.46-0.14-0.61,0.04-0.45,0.14
			c0.18,0.24-0.06,0.37-0.41,0.22C792.44,183.27,792.25,183.19,792.07,183.15z"/>
		<path id="path2492" class="st2" d="M792.4,187.58l0.05-0.8c0.01-0.32,0.21-0.35,0.35-0.22c0.16,0.14,0.3,0.04,0.28-0.41
			c-0.04-0.57,0.35-0.64,0.46-0.38c0.16,0.32,0.31,0.07,0.28-0.27c-0.02-0.59,0.37-0.7,0.54-0.34c0.18,0.28,0.31,0.24,0.38-0.06
			c0.04-0.27,0.29-0.24,0.53-0.22c0.27,0.07,0.41,0.24,0.46,0.49c0.03,0.33-0.12,0.45-0.36,0.48c-0.28-0.03-0.48,0.16-0.12,0.39
			c0.31,0.23,0.3,0.55-0.37,0.46c-0.65-0.17-0.54,0.14-0.38,0.21c0.35,0.22-0.02,0.5-0.55,0.37c-0.52-0.11-0.67,0.1-0.49,0.2
			c0.22,0.24-0.03,0.41-0.43,0.28C792.82,187.68,792.6,187.62,792.4,187.58z"/>
		<path id="path2221" class="st3" d="M791.38,182.26l0,1.14c-0.9-1-1.81-2.03-2.94-2.71c1.03,0.91,1.93,1.89,2.82,2.86l-0.45-0.25
			l-0.11,0.12c0.23,0.17,0.58,0.3,0.54,0.57l-0.28-0.11l-0.04,0.14c0.17,0.1,0.36,0.18,0.29,0.44l-0.01,0.64l-0.12,0.11l-0.48-0.47
			l-0.11,0.15l0.6,0.63l-0.39-0.19l-0.04,0.13c0.25,0.14,0.5,0.27,0.55,0.63l-0.08,2.11c-0.85-0.87-1.78-1.91-2.79-2.6l2.83,2.93
			l-0.34-0.23l-0.13,0.13c0.27,0.09,0.46,0.28,0.43,0.74l0.01,0.41l-0.53-0.37l-0.04,0.22l0.62,0.45l-0.4-0.08l-0.07,0.14
			c0.24,0.03,0.43,0.13,0.41,0.53l-0.02,1.24c-1.07-0.56-2.13-0.95-3.2-1.31l2.93,1.47l0.22,0.43v1.46
			c-0.03,0.62-0.21,1.83-0.51,1.85l-0.31,0.03c-0.12,0.1-0.24,0.09-0.38,0c-0.28-0.24-0.43-0.09-0.55,0.14
			c0.13-0.07,0.26-0.15,0.41-0.04l0.28-0.03c-0.46,0.07-0.35,0.35-0.38,0.57c0.17-0.39,0.45-0.37,0.71-0.45
			c0.49,0.11,0.58-0.21,0.72-0.46c-0.11,0.25-0.12,0.57-0.53,0.62c-0.42-0.05-0.44,0.2-0.44,0.45c0.05-0.28,0.4-0.37,0.67-0.52
			c-0.28,0.23-0.42,0.44-0.32,0.62c0.12-0.2,0.23-0.43,0.45-0.49c0.2-0.1,0.29-0.3,0.4-0.49c0.04,0.18,0.11,0.37-0.04,0.51
			c-0.1,0.21-0.01,0.37,0.03,0.54c0.05-0.35,0.23-0.52,0.41-0.68c-0.2,0.28-0.08,0.44,0.1,0.58c-0.03-0.2-0.03-0.38,0.1-0.54
			c-0.03-0.21,0.04-0.35,0.15-0.46c0.18,0.36,0.2,0.76,0.24,1.17c0.05-0.15,0.14-0.29,0.08-0.49c0.2,0.08,0.31,0.26,0.42,0.45
			c0.03-0.4-0.45-0.59-0.48-1.13c0.1,0.2,0.08,0.54,0.42,0.45c0.27,0,0.32,0.14,0.34,0.3c-0.06,0.17,0.04,0.25,0.21,0.3
			c-0.07-0.13-0.12-0.27-0.1-0.43c0.17,0.01,0.24,0.36,0.41,0.43c0.08,0.01,0.14,0,0.12-0.08c-0.21-0.1-0.29-0.52-0.49-0.51
			c-0.2-0.07-0.32-0.19-0.43-0.33c0.34-0.2,0.55-0.06,0.75,0.11c0.2,0.2,0.56,0.34,0.5,0.65l0.08,0.01l0.07-0.22
			c0.1,0.17,0.19,0.33,0.4,0.47l0.16-0.04c-0.15-0.13-0.26-0.27-0.29-0.45c-0.05-0.1-0.08-0.22-0.27-0.21
			c-0.25-0.07-0.37-0.21-0.48-0.36c-0.19-0.23-0.44-0.3-0.72-0.27c-0.65-0.03-0.46-0.48-0.61-0.76l0-1.73
			c0.12-0.4,0.37-0.54,0.62-0.68c-0.27-0.05-0.53-0.03-0.77,0.29l-0.03-2.55c0.16-0.38,0.39-0.6,0.62-0.82l-0.11-0.25l-0.48,0.54
			l-0.14-0.06c-0.14-0.86,0.23-1,0.58-1.17l-0.06-0.2l-0.49,0.34c0.86-1.08,1.84-2.09,3.04-2.96c-1.08,0.63-2.3,1.47-3.22,2.67
			v-2.23c0.09-0.29,0.29-0.4,0.48-0.53l-0.1-0.16l-0.33,0.15l0.74-0.67l-0.11-0.21l-0.82,0.69l0.04-0.88
			c0.05-0.25,0.19-0.3,0.3-0.43l-0.09-0.18l-0.24,0.18c0.91-1.01,2.09-1.7,3.22-2.45c-1.29,0.6-2.54,1.26-3.47,2.32l0.06-1.39
			L791.38,182.26z"/>
		<path id="path2494" class="st2" d="M792.23,191.67l0.16-0.75c0.06-0.31,0.25-0.3,0.37-0.17c0.13,0.15,0.28,0.07,0.32-0.35
			c0.04-0.55,0.43-0.56,0.49-0.3c0.11,0.33,0.29,0.11,0.31-0.22c0.07-0.56,0.45-0.62,0.57-0.26c0.14,0.29,0.26,0.27,0.38-0.01
			c0.07-0.25,0.31-0.2,0.54-0.14c0.25,0.1,0.36,0.28,0.37,0.52c-0.01,0.31-0.18,0.41-0.41,0.41c-0.26-0.07-0.48,0.09-0.17,0.36
			c0.26,0.26,0.21,0.55-0.42,0.39c-0.6-0.24-0.54,0.07-0.39,0.15c0.3,0.26-0.09,0.47-0.58,0.28c-0.49-0.17-0.66,0.01-0.49,0.13
			c0.18,0.25-0.08,0.39-0.45,0.21C792.62,191.81,792.42,191.73,792.23,191.67z"/>
		<path id="path2225" class="st3" d="M791.87,191.92c0.95-0.8,2.11-1.3,3.22-1.88c-1.11,0.65-2.19,1.32-3.13,2.11"/>
		<path id="path2293" class="st2" d="M790.97,181.51l1.15,0.04c-0.01-0.53,0.2-1.5-0.52-1.58
			C790.89,180.04,791,180.83,790.97,181.51z"/>
		<path id="path2227" class="st4" d="M790.79,181.52h1.51c-0.03,0.42-0.19,0.79-0.81,0.8C790.77,182.26,790.8,181.79,790.79,181.52z
			"/>
		<path id="path2229" class="st4" d="M791.93,181.53l0.29,0.32"/>
		<path id="path2231" class="st4" d="M791.58,181.53l0.54,0.53"/>
		<path id="path2233" class="st4" d="M791.21,181.51l0.71,0.71"/>
		<path id="path2235" class="st4" d="M790.89,181.52l0.76,0.77"/>
		<path id="path2237" class="st4" d="M790.78,181.72"/>
		<path id="path2239" class="st4" d="M790.8,181.72l0.53,0.56"/>
		<path id="path2241" class="st4" d="M792.19,181.51l-0.81,0.78"/>
		<path id="path2243" class="st4" d="M791.87,181.52l-0.72,0.7"/>
		<path id="path2245" class="st4" d="M791.57,181.52l-0.6,0.57"/>
		<path id="path2247" class="st4" d="M791.22,181.51l-0.38,0.39"/>
		<path id="path2249" class="st4" d="M790.91,181.52l-0.11,0.14"/>
		<path id="path2291" class="st4" d="M792.26,181.76l-0.56,0.53"/>
		<path id="path2295" class="st5" d="M791.67,179.9c0,0.03-0.03,0.05-0.06,0.05c-0.03,0-0.06-0.02-0.06-0.05
			c0-0.03,0.03-0.05,0.06-0.05C791.65,179.85,791.67,179.87,791.67,179.9z"/>
		<path id="path2316" class="st2" d="M789.5,184.93l0.78-1.02c-0.44-0.3-1.09-1.05-1.62-0.45
			C788.25,184.14,788.97,184.5,789.5,184.93z"/>
		<g id="g3070">
			<path id="path2320" class="st4" d="M789.44,185.02l0.88-1.23c0.32,0.27,0.53,0.61,0.18,1.13
				C790.04,185.47,789.67,185.17,789.44,185.02z"/>
			<path id="path2322" class="st4" d="M790.11,184.1l0.43-0.05"/>
			<path id="path2324" class="st4" d="M789.91,184.39l0.74-0.13"/>
			<path id="path2326" class="st4" d="M789.68,184.67l0.99-0.16"/>
			<path id="path2328" class="st4" d="M789.5,184.94l1.07-0.17"/>
			<path id="path2330" class="st4" d="M789.6,185.14"/>
			<path id="path2332" class="st4" d="M789.61,185.13l0.77-0.1"/>
			<path id="path2334" class="st4" d="M790.25,183.87l0.16,1.11"/>
			<path id="path2336" class="st4" d="M790.07,184.14l0.15,1"/>
			<path id="path2338" class="st4" d="M789.9,184.39l0.12,0.82"/>
			<path id="path2340" class="st4" d="M789.68,184.66l0.1,0.54"/>
			<path id="path2342" class="st4" d="M789.51,184.93l0.04,0.17"/>
			<path id="path2344" class="st4" d="M790.49,183.97l0.11,0.76"/>
		</g>
		<path id="path2348" class="st2" d="M793.65,184.82l-0.6-1.19c0.49-0.21,1.27-0.82,1.7-0.1
			C795.03,184.31,794.26,184.51,793.65,184.82z"/>
		<path id="path2352" class="st4" d="M793.68,184.91l-0.63-1.37c-0.37,0.2-0.64,0.5-0.39,1.07
			C793.01,185.24,793.42,185.02,793.68,184.91z"/>
		<path id="path2354" class="st4" d="M793.19,183.88l-0.41-0.13"/>
		<path id="path2356" class="st4" d="M793.34,184.21l-0.7-0.27"/>
		<path id="path2358" class="st4" d="M793.51,184.52l-0.94-0.35"/>
		<path id="path2360" class="st4" d="M793.63,184.82l-1.02-0.37"/>
		<path id="path2362" class="st4" d="M793.5,185"/>
		<path id="path2364" class="st4" d="M793.49,184.98l-0.73-0.24"/>
		<path id="path2366" class="st4" d="M793.1,183.63l-0.37,1.06"/>
		<path id="path2368" class="st4" d="M793.22,183.93l-0.34,0.95"/>
		<path id="path2370" class="st4" d="M793.35,184.2l-0.27,0.78"/>
		<path id="path2372" class="st4" d="M793.51,184.51l-0.2,0.51"/>
		<path id="path2374" class="st4" d="M793.62,184.81l-0.08,0.16"/>
		<path id="path2376" class="st4" d="M792.84,183.68l-0.25,0.73"/>
		<path id="path2380" class="st2" d="M793.72,189.32l-0.56-1.15c0.49-0.21,1.28-0.81,1.69-0.11
			C795.1,188.8,794.33,189,793.72,189.32z"/>
		<g id="g3126">
			<path id="path2384" class="st4" d="M793.76,189.42l-0.62-1.38c-0.37,0.2-0.64,0.49-0.4,1.07
				C793.09,189.74,793.5,189.52,793.76,189.42z"/>
			<path id="path2386" class="st4" d="M793.28,188.39l-0.41-0.14"/>
			<path id="path2388" class="st4" d="M793.43,188.71l-0.7-0.28"/>
			<path id="path2390" class="st4" d="M793.6,189.03l-0.93-0.36"/>
			<path id="path2392" class="st4" d="M793.72,189.33l-1.02-0.38"/>
			<path id="path2394" class="st4" d="M793.58,189.51"/>
			<path id="path2396" class="st4" d="M793.57,189.49l-0.73-0.25"/>
			<path id="path2398" class="st4" d="M793.19,188.14l-0.38,1.06"/>
			<path id="path2400" class="st4" d="M793.31,188.44l-0.35,0.95"/>
			<path id="path2402" class="st4" d="M793.44,188.71l-0.28,0.78"/>
			<path id="path2404" class="st4" d="M793.59,189.02l-0.2,0.51"/>
			<path id="path2406" class="st4" d="M793.71,189.32l-0.08,0.16"/>
			<path id="path2408" class="st4" d="M792.94,188.19l-0.26,0.72"/>
		</g>
		<path id="path2444" class="st2" d="M789.55,189.7l0.56-1.15c-0.49-0.21-1.28-0.81-1.69-0.11
			C788.16,189.18,788.94,189.39,789.55,189.7z"/>
		<g id="g3098">
			<path id="path2448" class="st4" d="M789.51,189.8l0.62-1.38c0.37,0.2,0.64,0.49,0.4,1.07
				C790.18,190.13,789.77,189.91,789.51,189.8z"/>
			<path id="path2450" class="st4" d="M789.98,188.77l0.41-0.14"/>
			<path id="path2452" class="st4" d="M789.84,189.09l0.7-0.28"/>
			<path id="path2454" class="st4" d="M789.67,189.41l0.93-0.36"/>
			<path id="path2456" class="st4" d="M789.55,189.71l1.02-0.38"/>
			<path id="path2458" class="st4" d="M789.69,189.89"/>
			<path id="path2460" class="st4" d="M789.69,189.88l0.73-0.25"/>
			<path id="path2462" class="st4" d="M790.07,188.52l0.38,1.06"/>
			<path id="path2464" class="st4" d="M789.95,188.82l0.35,0.95"/>
			<path id="path2466" class="st4" d="M789.83,189.09l0.28,0.78"/>
			<path id="path2468" class="st4" d="M789.67,189.41l0.2,0.51"/>
			<path id="path2470" class="st4" d="M789.56,189.7l0.08,0.16"/>
			<path id="path2472" class="st4" d="M790.33,188.57l0.26,0.72"/>
		</g>
		<path id="path2474" class="st5" d="M794.88,183.53c0,0.03-0.03,0.05-0.06,0.05c-0.03,0-0.06-0.02-0.06-0.05s0.03-0.05,0.06-0.05
			C794.85,183.47,794.88,183.5,794.88,183.53z"/>
		<path id="path2476" class="st5" d="M788.69,183.39c0,0.03-0.03,0.05-0.06,0.05s-0.06-0.02-0.06-0.05c0-0.03,0.03-0.05,0.06-0.05
			S788.69,183.36,788.69,183.39z"/>
		<path id="path2478" class="st5" d="M788.5,188.38c0,0.03-0.03,0.05-0.06,0.05c-0.03,0-0.06-0.02-0.06-0.05s0.03-0.05,0.06-0.05
			C788.47,188.33,788.5,188.35,788.5,188.38z"/>
		<path id="path2480" class="st5" d="M794.92,188.12c0,0.03-0.03,0.05-0.06,0.05c-0.03,0-0.06-0.02-0.06-0.05s0.03-0.05,0.06-0.05
			C794.89,188.07,794.92,188.09,794.92,188.12z"/>
		<path id="path2484" class="st6" d="M789.73,180.89h-0.01"/>
	</g>
	<g id="g3300">
		<path id="path2209" class="st7" d="M796.26,177.57l9.47,0.05v14.22c-0.39,4.61-4.41,8.95-9.47,8.8V177.57z"/>
		<g id="g3233">
			<g id="g2640" transform="translate(750.1832,0.000000)">
				<path id="path2594" class="st8" d="M50,189c0.07-1-0.48-1.64-0.88-2.37c-0.74-1.38-0.13-2.42,0.52-2.82
					c0.39-0.34,0.45-0.86-0.15-1.04l-3.02-0.81h2.39c0.13-0.14,0.31-0.25,0.55-0.24c0.05,0.25,0.22,0.5,0.59,0.66
					c0.6,0.13,0.96,0.92,0.32,1.69c-0.57,0.52-0.95,1.11-0.51,1.93c0.21,0.25,0.42,0.18,0.63-0.02c0.75-0.7,1.05-0.59,1.74-0.12
					c0.49,0.27,0.92,0.68,1.29,1.16c1.17,1.09,1.92,4.72,1.56,5.8c-0.03-0.05-0.07-0.08-0.07-0.17c0.16-1.18-0.34-2.14-0.68-3.15
					c0.36,1.04,0.76,2.06,0.61,3.18c-0.08,0.18-0.13,0.23-0.19,0.28c-0.35-0.93-0.76-1.79-1.72-2.22c-0.64-0.38-1.27-0.77-1.78-1.34
					l-0.16,0.36l-0.12-0.73c0.01,0.33-0.03,0.62-0.18,0.84c0.07-0.3,0.01-0.61-0.07-0.91c-0.04,0.29-0.16,0.43-0.27,0.59
					c0.08-0.25,0.08-0.52,0.06-0.79c-0.05,0.17-0.12,0.32-0.25,0.38c0.11-0.29,0.03-0.57-0.07-0.86L50,189z"/>
				<path id="path2596" class="st9" d="M49.4,181.7c0.68-0.09,0.95,0.3,1.23,0.69c0.18,0.32,0.39,0.75,0.81,0.84
					c-0.19,0.12-0.34-0.01-0.5-0.06l0.41,0.33c-0.23-0.03-0.47-0.05-0.68-0.34c-0.02-0.4-0.28-0.64-0.62-0.8
					C49.65,182.26,49.48,182.02,49.4,181.7z"/>
				<path id="path2604" class="st9" d="M54.41,189.87l-0.15-0.37c-0.02,0.08-0.02,0.11,0.04,0.37c-0.36-0.11-0.43-0.43-0.6-0.68
					c0.05,0.18,0.1,0.37,0.25,0.57c-0.39-0.08-0.44-0.36-0.63-0.64c0.04,0.14,0.03,0.25,0.13,0.4c-0.41-0.15-0.49-0.43-0.6-0.71
					c-0.03,0.2,0.07,0.32,0.13,0.46c-0.34,0.06-0.37-0.35-0.49-0.62c-0.03,0.11,0.01,0.27,0.06,0.43c-0.3-0.15-0.33-0.39-0.42-0.65
					c-0.02,0.12-0.03,0.26,0.04,0.42c-0.32-0.11-0.41-0.46-0.54-0.77c-0.01,0.15,0.01,0.25,0.07,0.49
					c-0.55-0.48-0.73-1.03-0.66-1.76c0.1-0.48,0.41-0.61,0.94-0.42c-0.22-0.18-0.68-0.53-1.11-0.16c-0.31,0.43-0.19,0.8-0.1,1.16
					l-0.35-0.2l0.53,0.37c0.06,0.1,0.04,0.14,0.03,0.19l-0.23-0.18l0.41,0.36c0,0.08,0,0.15-0.06,0.12l-0.32-0.26l0.46,0.44
					c0.05,0.1-0.01,0.1-0.07,0.11l-0.2-0.16c0.11,0.23,0.38,0.41,0.51,0.62c0.03,0.07,0,0.09-0.04,0.1
					c-0.08-0.11-0.16-0.16-0.23-0.2l0.3,0.46c0.02,0.14-0.03,0.17-0.13,0.14c-0.12-0.26-0.5-0.77-0.52-0.71
					c0.15,0.2,0.29,0.41,0.3,0.72c-0.04,0.05-0.1,0.03-0.14,0l0.06,0.38l0.15-0.32c0.21,0.21,0.44,0.42,0.68,0.61
					c0.14,0.11,0.2,0.12,0.35,0.23l0.82,0.51c0.83,0.37,1.35,1.24,1.66,2.16c0.05-0.05,0.1-0.12,0.14-0.2
					c-0.04,0.01,0.14,0.02,0.12-0.04c0.11-0.9-0.05-1.37-0.26-1.98C54.71,190.68,54.44,189.99,54.41,189.87z"/>
				<path id="path2606" class="st10" d="M49.91,183.77c-0.12,0.18-0.33,0.25-0.49,0.46"/>
				<path id="path2608" class="st10" d="M49.2,184.22c0,0.16,0.03,0.3,0.08,0.41"/>
				<path id="path2610" class="st10" d="M49.01,184.5c0.04,0.16,0.09,0.32,0.18,0.45"/>
				<path id="path2612" class="st10" d="M48.9,184.78c0.02,0.18,0.13,0.36,0.26,0.54"/>
				<path id="path2614" class="st6" d="M48.79,185.13"/>
				<path id="path2616" class="st10" d="M48.82,185.24c0.09,0.27,0.2,0.52,0.4,0.69"/>
				<path id="path2618" class="st10" d="M49.04,186.02c0.11,0.21,0.24,0.42,0.48,0.57"/>
				<path id="path2620" class="st10" d="M49.44,186.78c0.12,0.19,0.26,0.33,0.43,0.41"/>
				<path id="path2622" class="st10" d="M49.76,187.38c0.13,0.19,0.24,0.43,0.42,0.52"/>
				<path id="path2624" class="st8" d="M51.48,188.53c0.01,0.24,0.12,0.45,0.34,0.57c0.08-0.05-0.05-0.34-0.01-0.44
					C51.69,188.7,51.59,188.58,51.48,188.53z"/>
				<path id="path2626" class="st8" d="M51.9,188.76c-0.01,0.39,0.11,0.66,0.36,0.83c0.1-0.09-0.15-0.53-0.03-0.68
					C52.09,188.9,52,188.82,51.9,188.76z"/>
				<path id="path2628" class="st8" d="M52.25,188.93c0.04,0.32,0.11,0.74,0.3,0.78c0.05-0.14-0.09-0.54,0.01-0.58
					C52.4,189.12,52.34,189.01,52.25,188.93z"/>
				<path id="path2630" class="st8" d="M52.59,189.17l0.27,0.19c-0.16,0.01,0.1,0.42,0.05,0.62
					C52.59,189.91,52.63,189.48,52.59,189.17z"/>
				<path id="path2632" class="st8" d="M52.89,189.34c0.11-0.07,0.21,0,0.31,0.12c-0.18,0.19,0.22,0.71,0.19,0.84
					C53.07,190.3,52.8,189.5,52.89,189.34z"/>
				<path id="path2634" class="st8" d="M53.23,189.49c-0.04,0.42,0.27,0.94,0.68,1.13c0.09-0.08-0.47-0.58-0.37-1.06
					C53.46,189.56,53.44,189.62,53.23,189.49z"/>
				<path id="path2636" class="st8" d="M53.59,189.64c0.14,0.14,0.29,0.15,0.43,0.17c-0.08,0.16,0.34,0.79,0.3,0.94
					C53.82,190.45,53.64,190.09,53.59,189.64z"/>
				<path id="path2638" class="st8" d="M54.07,189.82c0.1,0.04,0.21,0.12,0.29,0.07l0.33,0.96c-0.28,0.11-0.51-0.65-0.66-1.02"/>
				<path id="path2592" class="st11" d="M46.51,181.98h2.38c0.23,0.09,0.18,0.43,0.38,0.59C48.23,182.39,47.27,182.2,46.51,181.98z"
					/>
				<path id="path2598" class="st12" d="M47.94,182.13l0.71-0.01"/>
				<path id="path2600" class="st13" d="M49.42,182.22c0,0.06-0.05,0.11-0.12,0.11s-0.12-0.05-0.12-0.11c0-0.06,0.05-0.11,0.12-0.11
					S49.42,182.16,49.42,182.22z"/>
				<path id="path2602" class="st5" d="M49.32,182.21c0,0.02-0.02,0.04-0.04,0.04c-0.02,0-0.04-0.02-0.04-0.04
					c0-0.02,0.02-0.04,0.04-0.04C49.3,182.17,49.32,182.19,49.32,182.21L49.32,182.21z"/>
			</g>
			<path id="path3231" class="st8" d="M804.4,190.81c0.11-0.07,0.34,0.23,0.51,0.1c0.06,0.14,0.1,0.34,0.14,0.49
				c0.07,0.38,0.12,0.67,0.05,1.21l-0.13,0.28C805.04,191.91,804.75,191.32,804.4,190.81z"/>
		</g>
		<g id="g3281" transform="translate(755.0933,0.000000)">
			<path id="path3261" class="st14" d="M46.83,189.79l0.45,0.32c-0.46,0.19,0.07,0.86-0.36,1.01c0.07-0.01,0.14-0.04,0.2-0.2
				c0,0.22-0.1,0.48-0.23,0.51c0.17-0.06,0.15-0.13,0.2-0.21c-0.23,0.7-0.31,1.38-0.41,2.06c0.02,0.2-0.14,0.43,0.17,0.51
				c0.29,0.05,0.56-0.16,0.65-0.01l-0.03,0.2c-0.08,0.06-0.15,0.01-0.35-0.01c-0.21-0.01-0.47-0.02-0.57-0.08
				c-0.26,0.02-0.63,0.39-1.02,0.37c-0.1,0.04-0.15,0.07-0.27,0.05l-0.06-0.18c0.15-0.06,0.26,0.03,0.38,0
				c0.15-0.03,0.3-0.09,0.46-0.16c-1.07,0.08-1,0-1.27,0.06c-0.12,0.06-0.24,0.07-0.35,0.01l-0.04-0.17c0.17-0.08,0.35-0.09,0.58,0
				c0.15,0.07,0.51,0,0.77-0.01c-0.09-0.1-0.31-0.14-0.57-0.17l-0.15,0.01l0.01-0.19c0.16-0.01,0.33,0.02,0.53,0.15
				c0.25,0.05,0.68,0.2,0.81-0.12c0.13-0.63,0.3-1.23,0.29-1.99c-0.03-0.24-0.05-0.39,0.07-0.65
				C46.94,190.61,46.81,190.12,46.83,189.79z"/>
			<path id="path3263" class="st15" d="M45.05,193.51c-0.05-0.07-0.4,0.03-0.4,0.13c0.13-0.06,0.26-0.02,0.4,0.02V193.51z"/>
			<path id="path3265" class="st15" d="M44.41,193.87l0.03,0.16c-0.2-0.03-0.3,0.02-0.39,0.09
				C44.13,194.01,44.17,193.88,44.41,193.87z"/>
			<path id="path3267" class="st15" d="M45.22,194.13c-0.21,0.05-0.27,0.16-0.3,0.28c0.09-0.1,0.21-0.14,0.35-0.13L45.22,194.13z"/>
			<path id="path3269" class="st15" d="M47.54,193.78c0.22,0.01,0.29,0.11,0.34,0.22c-0.11-0.08-0.23-0.1-0.37-0.07L47.54,193.78z"
				/>
		</g>
		<g id="g3288" transform="matrix(0.990952,-0.134212,0.134212,0.990952,705.1874,101.0856)">
			<path id="path3290" class="st16" d="M84.15,100.57l0.53,0.4c-0.36,0.25-0.03,1.58-0.46,1.73c0.07-0.01,0.14-0.04,0.2-0.2
				c0,0.22-0.1,0.48-0.23,0.51c0.17-0.06,0.15-0.13,0.2-0.21c-0.23,0.7-0.33,1.53-0.43,2.22c0.02,0.2-0.14,0.43,0.17,0.51
				c0.29,0.05,0.56-0.16,0.65-0.01l-0.03,0.2c-0.08,0.06-0.15,0.01-0.35-0.01c-0.21-0.01-0.47-0.02-0.57-0.08
				c-0.26,0.02-0.59,0.33-1.01,0.41c-0.1,0.04-0.13,0.13-0.25,0.11l-0.06-0.18c0.15-0.06,0.25,0.01,0.36-0.05
				c0.12-0.07,0.28-0.14,0.44-0.2c-1.07,0.08-1,0-1.27,0.06c-0.12,0.06-0.24,0.07-0.35,0.01l-0.04-0.17c0.17-0.08,0.35-0.09,0.58,0
				c0.15,0.07,0.51,0,0.77-0.01c-0.09-0.1-0.31-0.14-0.57-0.17l-0.15,0.01l0.01-0.19c0.16-0.01,0.33,0.02,0.53,0.15
				c0.25,0.05,0.68,0.2,0.81-0.12c0.13-0.63,0.32-1.38,0.31-2.15c-0.03-0.24-0.05-0.39,0.07-0.65
				C84.25,102.13,84.23,100.94,84.15,100.57z"/>
			<path id="path3292" class="st17" d="M82.33,105.26c-0.05-0.07-0.4,0.03-0.4,0.13c0.13-0.06,0.26-0.02,0.4,0.02V105.26z"/>
			<path id="path3294" class="st17" d="M81.69,105.62l0.03,0.16c-0.2-0.03-0.3,0.02-0.39,0.09
				C81.41,105.76,81.45,105.62,81.69,105.62z"/>
			<path id="path3296" class="st17" d="M82.52,105.97c-0.21,0.05-0.27,0.16-0.3,0.28c0.09-0.1,0.21-0.14,0.35-0.13L82.52,105.97z"/>
			<path id="path3298" class="st17" d="M84.81,105.53c0.22,0.01,0.29,0.11,0.34,0.22c-0.11-0.08-0.23-0.1-0.37-0.07L84.81,105.53z"
				/>
		</g>
	</g>
</g>
<g>
	<g>
		<path class="st18" d="M45.58,50.13c-1.46,0-2.79-0.28-3.99-0.85s-2.24-1.33-3.12-2.3c-0.88-0.96-1.55-2.04-2.02-3.25
			c-0.47-1.2-0.7-2.45-0.7-3.74c0-1.33,0.25-2.58,0.74-3.78c0.49-1.19,1.19-2.26,2.07-3.21c0.89-0.94,1.94-1.68,3.15-2.23
			c1.21-0.54,2.54-0.81,3.98-0.81c1.47,0,2.81,0.28,4.02,0.85c1.2,0.57,2.24,1.34,3.11,2.31c0.87,0.97,1.54,2.06,2,3.26
			c0.47,1.2,0.7,2.43,0.7,3.68c0,1.33-0.24,2.59-0.73,3.78c-0.49,1.19-1.18,2.26-2.07,3.21c-0.9,0.94-1.95,1.69-3.15,2.24
			C48.36,49.86,47.03,50.13,45.58,50.13z M40.4,40.05c0,0.77,0.12,1.51,0.35,2.23s0.57,1.36,1.01,1.92s0.98,1.01,1.62,1.34
			c0.64,0.34,1.4,0.5,2.28,0.5c0.86,0,1.61-0.17,2.27-0.52s1.2-0.81,1.62-1.4c0.43-0.59,0.75-1.24,0.97-1.95
			c0.21-0.71,0.32-1.44,0.32-2.18c0-0.77-0.12-1.5-0.35-2.21c-0.23-0.71-0.57-1.35-1.01-1.92c-0.44-0.57-0.99-1.01-1.64-1.33
			c-0.65-0.32-1.39-0.48-2.21-0.48c-0.88,0-1.64,0.17-2.3,0.5c-0.65,0.34-1.19,0.79-1.62,1.37c-0.43,0.58-0.76,1.22-0.98,1.92
			C40.51,38.56,40.4,39.29,40.4,40.05z"/>
		<path class="st18" d="M66.63,50.27c-1.12,0-2.1-0.23-2.93-0.7c-0.83-0.47-1.5-1.14-2-2.02v2.44h-3.89V29.55h4.48v8.34
			c0.49-0.84,1.13-1.49,1.95-1.96c0.81-0.47,1.78-0.7,2.9-0.7c0.91,0,1.76,0.19,2.53,0.57c0.77,0.38,1.45,0.92,2.02,1.62
			s1.01,1.51,1.33,2.42s0.48,1.9,0.48,2.97c0,1.03-0.17,2.01-0.52,2.93c-0.35,0.92-0.83,1.72-1.44,2.4s-1.34,1.21-2.17,1.58
			C68.53,50.09,67.62,50.27,66.63,50.27z M65.37,46.49c0.52,0,0.99-0.1,1.41-0.29c0.42-0.19,0.79-0.45,1.11-0.78
			s0.56-0.71,0.74-1.16c0.18-0.45,0.27-0.92,0.27-1.43c0-0.69-0.14-1.33-0.42-1.91c-0.28-0.58-0.67-1.05-1.18-1.41
			c-0.5-0.35-1.07-0.53-1.71-0.53c-0.47,0-0.92,0.11-1.34,0.34c-0.43,0.23-0.81,0.53-1.15,0.9c-0.34,0.37-0.61,0.8-0.81,1.27v3.03
			c0.15,0.29,0.34,0.56,0.56,0.81s0.47,0.46,0.74,0.63c0.27,0.17,0.56,0.3,0.87,0.4C64.77,46.45,65.07,46.49,65.37,46.49z"/>
		<path class="st18" d="M93.88,35.46h4.23l-6.08,14.53h-3.72l-2.21-5.92l-2.21,5.92h-3.72l-6.08-14.53h4.23l3.95,10.35l1.4-4.07
			l-2.63-6.28h3.67l1.4,4.37l1.37-4.37h3.7l-2.63,6.28l1.4,4.07L93.88,35.46z"/>
		<path class="st18" d="M99.53,33.64v-4.09h4.48v4.09H99.53z M99.53,49.99v-14.7h4.48v14.7H99.53z"/>
		<path class="st18" d="M114.12,50.27c-1.25,0-2.36-0.2-3.33-0.59c-0.97-0.4-1.8-0.94-2.48-1.62s-1.2-1.47-1.55-2.37
			c-0.35-0.9-0.53-1.83-0.53-2.81c0-1.4,0.31-2.67,0.94-3.82c0.62-1.15,1.53-2.07,2.7-2.77c1.18-0.7,2.59-1.05,4.26-1.05
			c1.66,0,3.08,0.35,4.26,1.04c1.18,0.69,2.07,1.61,2.67,2.75c0.61,1.14,0.91,2.37,0.91,3.68c0,0.26-0.01,0.51-0.04,0.76
			c-0.03,0.25-0.05,0.47-0.07,0.65h-10.86c0.04,0.64,0.21,1.17,0.53,1.61c0.32,0.44,0.72,0.76,1.2,0.98s0.99,0.33,1.51,0.33
			c0.69,0,1.33-0.16,1.92-0.48s0.98-0.74,1.19-1.26l3.81,1.09c-0.37,0.77-0.9,1.43-1.57,2s-1.47,1.03-2.39,1.37
			S115.24,50.27,114.12,50.27z M110.9,41.37h6.36c-0.06-0.59-0.23-1.11-0.53-1.55c-0.3-0.44-0.67-0.78-1.12-1.03
			c-0.45-0.24-0.97-0.36-1.57-0.36c-0.54,0-1.05,0.12-1.51,0.36c-0.47,0.24-0.84,0.58-1.12,1.01
			C111.13,40.24,110.96,40.76,110.9,41.37z"/>
		<path class="st18" d="M129.63,50.27c-1.25,0-2.47-0.21-3.65-0.63s-2.2-1.03-3.04-1.83l1.57-2.8c0.88,0.65,1.74,1.14,2.59,1.47
			c0.85,0.33,1.65,0.49,2.39,0.49c0.56,0,1-0.08,1.33-0.25c0.33-0.17,0.49-0.44,0.49-0.8c0-0.28-0.1-0.49-0.29-0.63
			c-0.2-0.15-0.48-0.29-0.85-0.43c-0.37-0.14-0.84-0.28-1.4-0.43c-1.12-0.39-2.05-0.75-2.8-1.09c-0.75-0.34-1.31-0.76-1.68-1.27
			c-0.37-0.51-0.56-1.16-0.56-1.97c0-0.97,0.25-1.83,0.76-2.55c0.5-0.73,1.21-1.29,2.11-1.7c0.91-0.4,1.99-0.61,3.26-0.61
			c1.01,0,2,0.16,2.97,0.48c0.97,0.32,1.88,0.86,2.72,1.62l-1.76,2.77c-0.82-0.58-1.56-1-2.23-1.26c-0.66-0.26-1.3-0.39-1.92-0.39
			c-0.32,0-0.61,0.04-0.87,0.11c-0.26,0.07-0.47,0.19-0.63,0.36c-0.16,0.17-0.24,0.39-0.24,0.69c0,0.26,0.08,0.47,0.24,0.65
			c0.16,0.17,0.41,0.32,0.76,0.44s0.77,0.25,1.27,0.4c1.23,0.37,2.25,0.72,3.07,1.07c0.81,0.35,1.42,0.79,1.82,1.32
			s0.6,1.23,0.6,2.09c0,1.47-0.54,2.62-1.62,3.45C132.95,49.86,131.48,50.27,129.63,50.27z"/>
		<path class="st18" d="M137.05,47.31l7.45-8.74h-7.08v-3.11h11.82v2.69l-7.42,8.74h7.62v3.11h-12.38V47.31z"/>
		<path class="st18" d="M158.78,50.27c-1.25,0-2.36-0.2-3.33-0.61c-0.97-0.41-1.8-0.96-2.48-1.66c-0.68-0.7-1.2-1.5-1.55-2.4
			c-0.35-0.9-0.53-1.86-0.53-2.88c0-1.34,0.31-2.58,0.94-3.72c0.62-1.13,1.53-2.05,2.7-2.74c1.18-0.69,2.59-1.04,4.23-1.04
			c1.7,0,3.13,0.35,4.3,1.06c1.17,0.71,2.04,1.64,2.62,2.8l-4.37,1.32c-0.28-0.45-0.64-0.8-1.08-1.05s-0.93-0.38-1.47-0.38
			c-0.62,0-1.17,0.16-1.67,0.48c-0.5,0.32-0.89,0.76-1.18,1.31c-0.29,0.55-0.43,1.21-0.43,1.95c0,0.75,0.14,1.41,0.43,1.98
			c0.29,0.57,0.69,1.01,1.19,1.32c0.5,0.31,1.05,0.46,1.65,0.46c0.39,0,0.75-0.06,1.08-0.18c0.33-0.12,0.62-0.29,0.9-0.52
			c0.27-0.22,0.48-0.47,0.63-0.73l4.34,1.32c-0.37,0.77-0.89,1.43-1.54,2c-0.65,0.57-1.43,1.03-2.32,1.37
			C160.94,50.1,159.92,50.27,158.78,50.27z"/>
		<path class="st18" d="M166.84,47.31l7.45-8.74h-7.08v-3.11h11.82v2.69l-7.42,8.74h7.62v3.11h-12.38V47.31z"/>
		<path class="st18" d="M188.57,50.27c-1.25,0-2.36-0.2-3.33-0.59c-0.97-0.4-1.8-0.94-2.48-1.62s-1.2-1.47-1.55-2.37
			c-0.35-0.9-0.53-1.83-0.53-2.81c0-1.4,0.31-2.67,0.94-3.82c0.62-1.15,1.53-2.07,2.7-2.77c1.18-0.7,2.59-1.05,4.26-1.05
			c1.66,0,3.08,0.35,4.26,1.04c1.18,0.69,2.07,1.61,2.67,2.75c0.61,1.14,0.91,2.37,0.91,3.68c0,0.26-0.01,0.51-0.04,0.76
			c-0.03,0.25-0.05,0.47-0.07,0.65h-10.86c0.04,0.64,0.21,1.17,0.53,1.61c0.32,0.44,0.72,0.76,1.2,0.98s0.99,0.33,1.51,0.33
			c0.69,0,1.33-0.16,1.92-0.48s0.98-0.74,1.19-1.26l3.81,1.09c-0.37,0.77-0.9,1.43-1.57,2s-1.47,1.03-2.39,1.37
			S189.69,50.27,188.57,50.27z M185.35,41.37h6.36c-0.06-0.59-0.23-1.11-0.53-1.55c-0.3-0.44-0.67-0.78-1.12-1.03
			c-0.45-0.24-0.97-0.36-1.57-0.36c-0.54,0-1.05,0.12-1.51,0.36c-0.47,0.24-0.84,0.58-1.12,1.01
			C185.58,40.24,185.41,40.76,185.35,41.37z"/>
		<path class="st18" d="M212.65,49.99h-4.48v-8.11c0-0.95-0.19-1.65-0.57-2.08c-0.38-0.43-0.86-0.65-1.44-0.65
			c-0.41,0-0.83,0.11-1.26,0.33c-0.43,0.22-0.82,0.51-1.18,0.89c-0.35,0.38-0.62,0.81-0.78,1.3v8.32h-4.48V35.46h4.03v2.48
			c0.37-0.59,0.84-1.09,1.4-1.49c0.56-0.41,1.2-0.71,1.93-0.91c0.73-0.2,1.51-0.3,2.35-0.3c0.97,0,1.75,0.17,2.34,0.5
			c0.59,0.33,1.04,0.77,1.34,1.31c0.31,0.54,0.52,1.14,0.63,1.78c0.11,0.64,0.17,1.27,0.17,1.88V49.99z"/>
		<path class="st18" d="M215.59,33.64v-4.09h4.48v4.09H215.59z M215.59,49.99v-14.7h4.48v14.7H215.59z"/>
		<path class="st18" d="M230.18,50.27c-1.25,0-2.36-0.2-3.33-0.59c-0.97-0.4-1.8-0.94-2.48-1.62s-1.2-1.47-1.55-2.37
			c-0.35-0.9-0.53-1.83-0.53-2.81c0-1.4,0.31-2.67,0.94-3.82c0.62-1.15,1.53-2.07,2.7-2.77c1.18-0.7,2.59-1.05,4.26-1.05
			c1.66,0,3.08,0.35,4.26,1.04c1.18,0.69,2.07,1.61,2.67,2.75c0.61,1.14,0.91,2.37,0.91,3.68c0,0.26-0.01,0.51-0.04,0.76
			c-0.03,0.25-0.05,0.47-0.07,0.65h-10.86c0.04,0.64,0.21,1.17,0.53,1.61c0.32,0.44,0.72,0.76,1.2,0.98s0.99,0.33,1.51,0.33
			c0.69,0,1.33-0.16,1.92-0.48s0.98-0.74,1.19-1.26l3.81,1.09c-0.37,0.77-0.9,1.43-1.57,2s-1.47,1.03-2.39,1.37
			S231.3,50.27,230.18,50.27z M226.96,41.37h6.36c-0.06-0.59-0.23-1.11-0.53-1.55c-0.3-0.44-0.67-0.78-1.12-1.03
			c-0.45-0.24-0.97-0.36-1.57-0.36c-0.54,0-1.05,0.12-1.51,0.36c-0.47,0.24-0.84,0.58-1.12,1.01
			C227.18,40.24,227.02,40.76,226.96,41.37z"/>
		<path class="st18" d="M43.45,63.74h4.23l2.07,6.38l2.1-6.38h4.23l-3.39,9.24l2.02,5.29l4.98-14.56h4.98l-7.73,19.88h-3.98
			l-3.22-7.78l-3.19,7.78h-4l-7.73-19.88h4.98l5.01,14.56l1.96-5.29L43.45,63.74z"/>
		<path class="st18" d="M73.07,83.87c-1.27,0-2.38-0.2-3.35-0.59c-0.96-0.4-1.78-0.95-2.46-1.66c-0.68-0.71-1.2-1.52-1.54-2.42
			c-0.35-0.9-0.52-1.85-0.52-2.85c0-1.01,0.18-1.97,0.53-2.87s0.86-1.7,1.53-2.4c0.66-0.7,1.48-1.25,2.46-1.64
			c0.98-0.4,2.09-0.59,3.35-0.59c1.25,0,2.36,0.2,3.33,0.59c0.97,0.4,1.79,0.94,2.46,1.64c0.67,0.7,1.19,1.5,1.54,2.4
			s0.53,1.86,0.53,2.87c0,1-0.17,1.94-0.52,2.85c-0.35,0.9-0.86,1.71-1.54,2.42c-0.68,0.71-1.51,1.26-2.48,1.66
			C75.44,83.68,74.32,83.87,73.07,83.87z M69.8,76.36c0,0.73,0.14,1.37,0.43,1.94c0.29,0.56,0.68,1,1.16,1.32
			c0.48,0.32,1.04,0.48,1.68,0.48c0.62,0,1.17-0.16,1.67-0.48c0.49-0.32,0.88-0.75,1.16-1.31s0.42-1.21,0.42-1.95
			s-0.14-1.4-0.42-1.95c-0.28-0.55-0.67-1-1.16-1.32c-0.5-0.33-1.05-0.49-1.67-0.49s-1.17,0.16-1.65,0.48
			c-0.49,0.32-0.88,0.76-1.18,1.32S69.8,75.61,69.8,76.36z M74.5,67.61l-2.88-0.81l1.51-3.64h4.06L74.5,67.61z"/>
		<path class="st18" d="M82.34,89.28c-0.71,0-1.4-0.13-2.09-0.38c-0.68-0.25-1.29-0.61-1.83-1.08l1.88-3
			c0.19,0.19,0.42,0.33,0.7,0.43c0.28,0.1,0.55,0.15,0.81,0.15c0.28,0,0.53-0.06,0.76-0.19c0.22-0.13,0.4-0.31,0.53-0.55
			c0.13-0.24,0.2-0.51,0.2-0.8v-14.8h4.48v14.47c0,1.11-0.24,2.1-0.73,2.97c-0.49,0.87-1.13,1.55-1.93,2.04
			C84.31,89.03,83.39,89.28,82.34,89.28z M83.29,67.41v-4.09h4.48v4.09H83.29z"/>
		<path class="st18" d="M100.32,82.78c-0.39,0.19-0.84,0.36-1.33,0.53c-0.5,0.17-1.01,0.3-1.54,0.41c-0.53,0.1-1.07,0.15-1.61,0.15
			c-0.75,0-1.43-0.12-2.04-0.37c-0.62-0.25-1.11-0.66-1.48-1.23c-0.37-0.57-0.56-1.32-0.56-2.26v-7.53h-1.88v-3.42h1.88v-4.7h4.48
			v4.7h2.97v3.42h-2.97v5.94c0.02,0.49,0.14,0.84,0.36,1.05c0.22,0.21,0.53,0.31,0.92,0.31c0.34,0,0.68-0.06,1.02-0.18
			c0.35-0.12,0.66-0.23,0.94-0.32L100.32,82.78z"/>
		<path class="st18" d="M101.16,79.25c0-0.94,0.27-1.78,0.81-2.5c0.54-0.73,1.29-1.3,2.24-1.72c0.95-0.41,2.04-0.62,3.28-0.62
			c0.6,0,1.18,0.05,1.76,0.15c0.58,0.1,1.08,0.25,1.51,0.43v-0.64c0-0.79-0.24-1.39-0.73-1.8c-0.49-0.41-1.22-0.61-2.21-0.61
			c-0.8,0-1.57,0.14-2.3,0.42c-0.73,0.28-1.49,0.68-2.3,1.2l-1.34-2.86c0.97-0.63,1.98-1.11,3.04-1.41s2.17-0.46,3.35-0.46
			c2.2,0,3.92,0.51,5.14,1.54c1.22,1.03,1.83,2.53,1.83,4.51v3.74c0,0.44,0.07,0.75,0.21,0.94c0.14,0.18,0.38,0.28,0.71,0.3v3.72
			c-0.37,0.09-0.72,0.15-1.04,0.18c-0.32,0.03-0.6,0.04-0.84,0.04c-0.84,0-1.47-0.17-1.9-0.5c-0.43-0.34-0.71-0.79-0.84-1.37
			l-0.11-0.64c-0.63,0.84-1.4,1.48-2.31,1.92s-1.85,0.66-2.84,0.66c-0.97,0-1.84-0.2-2.62-0.59s-1.39-0.95-1.83-1.65
			C101.38,80.93,101.16,80.14,101.16,79.25z M110.06,79.78c0.21-0.16,0.37-0.35,0.5-0.56c0.13-0.21,0.2-0.39,0.2-0.56v-1.28
			c-0.37-0.14-0.79-0.26-1.26-0.34s-0.9-0.12-1.29-0.12c-0.8,0-1.47,0.18-2.02,0.54c-0.54,0.36-0.81,0.82-0.81,1.39
			c0,0.31,0.09,0.6,0.28,0.88c0.19,0.28,0.44,0.5,0.77,0.65c0.33,0.15,0.71,0.23,1.16,0.23c0.45,0,0.9-0.08,1.34-0.23
			C109.39,80.24,109.76,80.04,110.06,79.78z"/>
		<path class="st18" d="M133.78,83.73c-1.29,0-2.51-0.25-3.65-0.74c-1.15-0.49-2.16-1.19-3.04-2.09c-0.88-0.9-1.57-1.97-2.09-3.22
			c-0.51-1.25-0.77-2.64-0.77-4.17c0-1.36,0.26-2.65,0.77-3.85c0.51-1.2,1.22-2.26,2.11-3.18c0.9-0.91,1.95-1.63,3.15-2.14
			c1.2-0.51,2.51-0.77,3.91-0.77c1.83,0,3.44,0.39,4.84,1.18c1.4,0.78,2.45,1.84,3.14,3.16l-3.44,2.58c-0.45-0.9-1.1-1.59-1.95-2.09
			c-0.85-0.49-1.77-0.74-2.76-0.74c-0.75,0-1.43,0.15-2.06,0.46c-0.62,0.31-1.16,0.74-1.61,1.29c-0.45,0.55-0.8,1.19-1.05,1.92
			s-0.38,1.51-0.38,2.35c0,0.86,0.13,1.65,0.39,2.38c0.26,0.73,0.62,1.36,1.09,1.89c0.47,0.53,1.02,0.95,1.67,1.25
			c0.64,0.3,1.35,0.45,2.11,0.45c0.95,0,1.87-0.24,2.74-0.71c0.88-0.48,1.68-1.17,2.41-2.09v4.51
			C137.73,82.94,135.89,83.73,133.78,83.73z M139.01,76.51h-3.81v-3.3h7.64v10.39h-3.84V76.51z"/>
		<path class="st18" d="M168.75,83.59h-4.48v-8.11c0-0.94-0.17-1.62-0.52-2.06c-0.35-0.44-0.82-0.66-1.41-0.66
			c-0.58,0-1.16,0.24-1.74,0.72c-0.58,0.48-0.99,1.1-1.23,1.87v8.25h-4.48v-8.11c0-0.95-0.18-1.65-0.53-2.08
			c-0.35-0.43-0.81-0.65-1.37-0.65c-0.58,0-1.16,0.23-1.74,0.69c-0.58,0.46-1,1.07-1.26,1.83v8.32h-4.48V69.06h4.03v2.48
			c0.54-0.88,1.27-1.56,2.2-2.02c0.92-0.46,2.01-0.69,3.26-0.69c1.21,0,2.14,0.28,2.79,0.83c0.64,0.55,1.06,1.21,1.25,1.96
			c0.56-0.88,1.3-1.57,2.23-2.06s1.96-0.73,3.12-0.73c0.93,0,1.68,0.17,2.25,0.5c0.57,0.33,1.01,0.77,1.32,1.33
			c0.31,0.55,0.52,1.15,0.63,1.78c0.11,0.64,0.17,1.26,0.17,1.87V83.59z"/>
		<path class="st18" d="M171.69,67.24v-4.09h4.48v4.09H171.69z M171.69,83.59v-14.7h4.48v14.7H171.69z"/>
		<path class="st18" d="M193.44,83.59h-4.48v-8.11c0-0.95-0.19-1.65-0.57-2.08c-0.38-0.43-0.86-0.65-1.44-0.65
			c-0.41,0-0.83,0.11-1.26,0.33c-0.43,0.22-0.82,0.51-1.18,0.89c-0.35,0.38-0.62,0.81-0.78,1.3v8.32h-4.48V69.06h4.03v2.48
			c0.37-0.59,0.84-1.09,1.4-1.49c0.56-0.41,1.2-0.71,1.93-0.91c0.73-0.2,1.51-0.3,2.35-0.3c0.97,0,1.75,0.17,2.34,0.5
			c0.59,0.33,1.04,0.77,1.34,1.31c0.31,0.54,0.52,1.14,0.63,1.78c0.11,0.64,0.17,1.27,0.17,1.88V83.59z"/>
		<path class="st18" d="M196.5,85.81c0.37,0.11,0.72,0.2,1.05,0.27c0.33,0.06,0.62,0.1,0.88,0.1c0.37,0.02,0.68-0.05,0.91-0.21
			s0.45-0.43,0.64-0.81c0.2-0.38,0.36-0.89,0.49-1.51l-5.57-14.58h4.62l3.44,10.03l2.91-10.03h4.2L204.48,86
			c-0.26,0.8-0.66,1.5-1.2,2.11c-0.54,0.61-1.2,1.09-1.97,1.45c-0.78,0.35-1.61,0.52-2.51,0.5c-0.37,0-0.75-0.03-1.13-0.1
			c-0.38-0.07-0.77-0.17-1.16-0.32V85.81z"/>
		<path class="st18" d="M53.31,112.07c0,1.16-0.3,2.11-0.9,2.86c-0.6,0.75-1.41,1.31-2.44,1.69c-1.03,0.38-2.17,0.57-3.42,0.57H36.9
			V97.31h11.03c0.93,0,1.74,0.25,2.42,0.74c0.68,0.5,1.2,1.13,1.57,1.92c0.36,0.78,0.55,1.6,0.55,2.44c0,0.92-0.24,1.81-0.71,2.67
			c-0.48,0.87-1.19,1.51-2.14,1.92c1.14,0.34,2.04,0.93,2.7,1.79C52.97,109.65,53.31,110.74,53.31,112.07z M41.49,101.23v4.12h4.48
			c0.35,0,0.68-0.07,0.98-0.22c0.3-0.15,0.54-0.37,0.71-0.67c0.18-0.3,0.27-0.68,0.27-1.15c0-0.47-0.08-0.85-0.24-1.15
			c-0.16-0.3-0.37-0.53-0.63-0.69c-0.26-0.16-0.57-0.24-0.92-0.24H41.49z M48.66,111.17c0-0.41-0.08-0.78-0.25-1.12
			s-0.39-0.6-0.66-0.8s-0.6-0.29-0.99-0.29h-5.26v4.34h5.07c0.41,0,0.77-0.09,1.09-0.28c0.32-0.19,0.56-0.44,0.74-0.76
			C48.57,111.95,48.66,111.58,48.66,111.17z"/>
		<path class="st18" d="M55.69,100.84v-4.09h4.48v4.09H55.69z M55.69,117.19v-14.7h4.48v14.7H55.69z"/>
		<path class="st18" d="M62.32,112.85c0-0.94,0.27-1.78,0.81-2.5c0.54-0.73,1.29-1.3,2.24-1.72c0.95-0.41,2.04-0.62,3.28-0.62
			c0.6,0,1.18,0.05,1.76,0.15c0.58,0.1,1.08,0.25,1.51,0.43v-0.64c0-0.79-0.24-1.39-0.73-1.8c-0.49-0.41-1.22-0.61-2.21-0.61
			c-0.8,0-1.57,0.14-2.3,0.42c-0.73,0.28-1.49,0.68-2.3,1.2l-1.34-2.86c0.97-0.63,1.98-1.11,3.04-1.41s2.17-0.46,3.35-0.46
			c2.2,0,3.92,0.51,5.14,1.54c1.22,1.03,1.83,2.53,1.83,4.51v3.74c0,0.44,0.07,0.75,0.21,0.94c0.14,0.18,0.38,0.28,0.71,0.3v3.72
			c-0.37,0.09-0.72,0.15-1.04,0.18c-0.32,0.03-0.6,0.04-0.84,0.04c-0.84,0-1.47-0.17-1.9-0.5c-0.43-0.34-0.71-0.79-0.84-1.37
			l-0.11-0.64c-0.63,0.84-1.4,1.48-2.31,1.92s-1.85,0.66-2.84,0.66c-0.97,0-1.84-0.2-2.62-0.59s-1.39-0.95-1.83-1.65
			S62.32,113.74,62.32,112.85z M71.22,113.38c0.21-0.16,0.37-0.35,0.5-0.56c0.13-0.21,0.2-0.39,0.2-0.56v-1.28
			c-0.37-0.14-0.79-0.26-1.26-0.34s-0.9-0.12-1.29-0.12c-0.8,0-1.47,0.18-2.02,0.54c-0.54,0.36-0.81,0.82-0.81,1.39
			c0,0.31,0.09,0.6,0.28,0.88c0.19,0.28,0.44,0.5,0.77,0.65c0.33,0.15,0.71,0.23,1.16,0.23c0.45,0,0.9-0.08,1.34-0.23
			C70.55,113.84,70.93,113.64,71.22,113.38z"/>
		<path class="st18" d="M79.04,109.89l-1.06-2.41l9.18-4.98l1.06,2.38L79.04,109.89z M80.3,96.75h4.48v15.2
			c0,0.62,0.12,1.05,0.36,1.32c0.24,0.26,0.56,0.39,0.95,0.39c0.28,0,0.56-0.04,0.85-0.11c0.29-0.07,0.55-0.19,0.77-0.34l0.59,3.39
			c-0.58,0.24-1.23,0.45-1.95,0.62s-1.4,0.25-2.03,0.25c-1.29,0-2.28-0.34-2.98-1.02c-0.7-0.68-1.05-1.66-1.05-2.93V96.75z"/>
		<path class="st18" d="M96.87,117.47c-1.25,0-2.36-0.2-3.33-0.59c-0.97-0.4-1.8-0.94-2.48-1.62c-0.68-0.68-1.2-1.47-1.55-2.37
			c-0.35-0.9-0.53-1.83-0.53-2.81c0-1.4,0.31-2.67,0.94-3.82c0.62-1.15,1.53-2.07,2.7-2.77c1.18-0.7,2.59-1.05,4.26-1.05
			c1.66,0,3.08,0.35,4.26,1.04c1.18,0.69,2.07,1.61,2.67,2.75c0.61,1.14,0.91,2.37,0.91,3.68c0,0.26-0.01,0.51-0.04,0.76
			c-0.03,0.25-0.05,0.47-0.07,0.65H93.74c0.04,0.64,0.21,1.17,0.53,1.61c0.32,0.44,0.72,0.76,1.2,0.98s0.99,0.33,1.51,0.33
			c0.69,0,1.33-0.16,1.92-0.48s0.98-0.74,1.19-1.26l3.81,1.09c-0.37,0.77-0.9,1.43-1.57,2s-1.47,1.03-2.39,1.37
			C99.02,117.3,97.99,117.47,96.87,117.47z M93.65,108.57h6.36c-0.06-0.59-0.23-1.11-0.53-1.55c-0.3-0.44-0.67-0.78-1.12-1.03
			c-0.45-0.24-0.97-0.36-1.57-0.36c-0.54,0-1.05,0.12-1.51,0.36c-0.47,0.24-0.84,0.58-1.12,1.01
			C93.88,107.44,93.71,107.96,93.65,108.57z"/>
		<path class="st18" d="M130.05,112.07c0,1.16-0.3,2.11-0.9,2.86c-0.6,0.75-1.41,1.31-2.44,1.69c-1.03,0.38-2.17,0.57-3.42,0.57
			h-9.66V97.31h11.03c0.93,0,1.74,0.25,2.42,0.74c0.68,0.5,1.2,1.13,1.57,1.92c0.36,0.78,0.55,1.6,0.55,2.44
			c0,0.92-0.24,1.81-0.71,2.67c-0.48,0.87-1.19,1.51-2.14,1.92c1.14,0.34,2.04,0.93,2.7,1.79
			C129.72,109.65,130.05,110.74,130.05,112.07z M118.24,101.23v4.12h4.48c0.35,0,0.68-0.07,0.98-0.22c0.3-0.15,0.54-0.37,0.71-0.67
			c0.18-0.3,0.27-0.68,0.27-1.15c0-0.47-0.08-0.85-0.24-1.15c-0.16-0.3-0.37-0.53-0.63-0.69c-0.26-0.16-0.57-0.24-0.92-0.24H118.24z
			 M125.4,111.17c0-0.41-0.08-0.78-0.25-1.12s-0.39-0.6-0.66-0.8s-0.6-0.29-0.99-0.29h-5.26v4.34h5.07c0.41,0,0.77-0.09,1.09-0.28
			c0.32-0.19,0.56-0.44,0.74-0.76C125.32,111.95,125.4,111.58,125.4,111.17z"/>
		<path class="st18" d="M131.82,109.89l-1.06-2.41l9.18-4.98l1.06,2.38L131.82,109.89z M133.08,96.75h4.48v15.2
			c0,0.62,0.12,1.05,0.36,1.32c0.24,0.26,0.56,0.39,0.95,0.39c0.28,0,0.56-0.04,0.85-0.11c0.29-0.07,0.55-0.19,0.77-0.34l0.59,3.39
			c-0.58,0.24-1.23,0.45-1.95,0.62s-1.4,0.25-2.03,0.25c-1.29,0-2.28-0.34-2.98-1.02c-0.7-0.68-1.05-1.66-1.05-2.93V96.75z"/>
		<path class="st18" d="M149.62,117.47c-1.27,0-2.38-0.2-3.35-0.59c-0.96-0.4-1.78-0.95-2.46-1.66c-0.68-0.71-1.2-1.51-1.54-2.42
			c-0.35-0.9-0.52-1.85-0.52-2.85c0-1.01,0.18-1.97,0.53-2.87s0.86-1.7,1.53-2.4c0.66-0.7,1.48-1.25,2.46-1.64
			c0.98-0.4,2.09-0.59,3.35-0.59c1.25,0,2.36,0.2,3.33,0.59c0.97,0.4,1.79,0.94,2.46,1.64c0.67,0.7,1.19,1.5,1.54,2.4
			s0.53,1.86,0.53,2.87c0,1-0.17,1.94-0.52,2.85c-0.35,0.9-0.86,1.71-1.54,2.42c-0.68,0.71-1.51,1.26-2.48,1.66
			C151.99,117.28,150.87,117.47,149.62,117.47z M146.35,109.96c0,0.73,0.14,1.37,0.43,1.94c0.29,0.56,0.68,1,1.16,1.32
			c0.48,0.32,1.04,0.48,1.68,0.48c0.62,0,1.17-0.16,1.67-0.48c0.49-0.32,0.88-0.75,1.16-1.31s0.42-1.21,0.42-1.95
			s-0.14-1.4-0.42-1.95c-0.28-0.55-0.67-1-1.16-1.32c-0.5-0.33-1.05-0.49-1.67-0.49s-1.17,0.16-1.65,0.48
			c-0.49,0.32-0.88,0.76-1.18,1.32S146.35,109.21,146.35,109.96z"/>
		<path class="st18" d="M169.2,116.38c-0.39,0.19-0.84,0.36-1.33,0.53c-0.5,0.17-1.01,0.3-1.54,0.41s-1.07,0.15-1.61,0.15
			c-0.75,0-1.43-0.12-2.04-0.37c-0.62-0.25-1.11-0.66-1.48-1.23c-0.37-0.57-0.56-1.32-0.56-2.26v-7.53h-1.88v-3.42h1.88v-4.7h4.48
			v4.7h2.97v3.42h-2.97v5.94c0.02,0.49,0.14,0.84,0.36,1.05c0.22,0.21,0.53,0.31,0.92,0.31c0.34,0,0.68-0.06,1.02-0.18
			c0.35-0.12,0.66-0.23,0.94-0.32L169.2,116.38z"/>
		<path class="st18" d="M170.04,112.85c0-0.94,0.27-1.78,0.81-2.5c0.54-0.73,1.29-1.3,2.24-1.72c0.95-0.41,2.04-0.62,3.28-0.62
			c0.6,0,1.18,0.05,1.76,0.15c0.58,0.1,1.08,0.25,1.51,0.43v-0.64c0-0.79-0.24-1.39-0.73-1.8c-0.49-0.41-1.22-0.61-2.21-0.61
			c-0.8,0-1.57,0.14-2.3,0.42c-0.73,0.28-1.49,0.68-2.3,1.2l-1.34-2.86c0.97-0.63,1.98-1.11,3.04-1.41s2.17-0.46,3.35-0.46
			c2.2,0,3.92,0.51,5.14,1.54c1.22,1.03,1.83,2.53,1.83,4.51v3.74c0,0.44,0.07,0.75,0.21,0.94c0.14,0.18,0.38,0.28,0.71,0.3v3.72
			c-0.37,0.09-0.72,0.15-1.04,0.18c-0.32,0.03-0.6,0.04-0.84,0.04c-0.84,0-1.47-0.17-1.9-0.5c-0.43-0.34-0.71-0.79-0.84-1.37
			l-0.11-0.64c-0.63,0.84-1.4,1.48-2.31,1.92s-1.85,0.66-2.84,0.66c-0.97,0-1.84-0.2-2.62-0.59s-1.39-0.95-1.83-1.65
			S170.04,113.74,170.04,112.85z M178.94,113.38c0.21-0.16,0.37-0.35,0.5-0.56c0.13-0.21,0.2-0.39,0.2-0.56v-1.28
			c-0.37-0.14-0.79-0.26-1.26-0.34s-0.9-0.12-1.29-0.12c-0.8,0-1.47,0.18-2.02,0.54c-0.54,0.36-0.81,0.82-0.81,1.39
			c0,0.31,0.09,0.6,0.28,0.88c0.19,0.28,0.44,0.5,0.77,0.65c0.33,0.15,0.71,0.23,1.16,0.23c0.45,0,0.9-0.08,1.34-0.23
			C178.27,113.84,178.64,113.64,178.94,113.38z"/>
	</g>
</g>
</svg>
