<?xml version="1.0" encoding="UTF-8" standalone="no"?>
<!-- Created with Inkscape (http://www.inkscape.org/) -->
<svg
   xmlns:dc="http://purl.org/dc/elements/1.1/"
   xmlns:cc="http://web.resource.org/cc/"
   xmlns:rdf="http://www.w3.org/1999/02/22-rdf-syntax-ns#"
   xmlns:svg="http://www.w3.org/2000/svg"
   xmlns="http://www.w3.org/2000/svg"
   xmlns:sodipodi="http://inkscape.sourceforge.net/DTD/sodipodi-0.dtd"
   xmlns:inkscape="http://www.inkscape.org/namespaces/inkscape"
   id="svg1325"
   sodipodi:version="0.32"
   inkscape:version="0.42+devel"
   width="210mm"
   height="725pt"
   sodipodi:docbase="D:\Wikipedia\Na zamówienie"
   sodipodi:docname="POL_Białe_Błota_COA.svg"
   version="1.0">
  <metadata
     id="metadata1330">
    <rdf:RDF>
      <cc:Work
         rdf:about="">
        <dc:format>image/svg+xml</dc:format>
        <dc:type
           rdf:resource="http://purl.org/dc/dcmitype/StillImage" />
      </cc:Work>
    </rdf:RDF>
  </metadata>
  <defs
     id="defs1328" />
  <sodipodi:namedview
     inkscape:window-height="682"
     inkscape:window-width="751"
     inkscape:pageshadow="2"
     inkscape:pageopacity="0.0"
     borderopacity="1.0"
     bordercolor="#666666"
     pagecolor="#ffffff"
     id="base"
     inkscape:zoom="0.44393097"
     inkscape:cx="397.25314"
     inkscape:cy="518.59451"
     inkscape:window-x="-4"
     inkscape:window-y="-9"
     inkscape:current-layer="svg1325" />
  <g
     id="g3271" />
  <g
     id="g3342"
     transform="translate(-752.3692,0.000000)">
    <g
       id="g3141">
      <path
         style="fill:#ffc800;fill-opacity:1;fill-rule:evenodd;stroke:#000000;stroke-width:10.62992096;stroke-linecap:butt;stroke-linejoin:miter;stroke-miterlimit:4;stroke-dasharray:none;stroke-opacity:1"
         d="M 1122.7757,11.310211 L 760.06084,13.132899 L 760.06084,558.1166 C 775.0736,734.75293 929.19124,900.89864 1122.7757,895.31387 L 1122.7757,11.310211 z "
         id="path1334"
         sodipodi:nodetypes="ccccc" />
      <path
         style="fill:#00ab4e;fill-opacity:1;fill-rule:evenodd;stroke:#000000;stroke-width:4.07480335;stroke-linecap:butt;stroke-linejoin:miter;stroke-miterlimit:4;stroke-dasharray:none;stroke-opacity:1"
         d="M 915.39814,218.00401 L 915.92033,189.80577 C 916.45714,178.42214 909.69113,177.07867 904.43216,180.92854 C 898.58813,185.20636 893.91856,181.37266 896.07712,165.78504 C 899.13202,145.90976 885.70424,142.50223 881.45581,151.16373 C 874.90929,162.03227 870.37787,152.77447 872.57859,140.71994 C 874.84375,120.32285 861.81718,115.00782 854.82414,127.14301 C 847.67991,136.50759 843.55295,134.62601 841.7694,124.00987 C 841.30334,114.51596 832.63026,114.59691 824.01495,114.61046 C 814.56262,116.12412 809.27883,121.80631 806.78269,130.27615 C 804.71752,141.64239 809.60773,146.38445 817.74867,148.03059 C 827.43466,147.66646 833.82549,154.9973 820.88181,162.12972 C 809.55617,169.26478 808.84687,180.26991 832.36998,179.36198 C 855.19874,175.46476 850.69898,185.94335 844.90253,187.71701 C 832.19404,194.49146 844.11281,205.25971 862.65698,202.33832 C 881.0308,200.10085 885.53721,207.94955 878.84486,210.69336 C 870.50415,218.31751 878.632,225.20581 892.94398,221.65934 C 900.60444,220.08942 908.21767,218.61396 915.39814,218.00401 z "
         id="path2482"
         sodipodi:nodetypes="cccccccccccccccccc" />
      <path
         sodipodi:nodetypes="cccccccccccccccccc"
         id="path2486"
         d="M 915.2111,410.51623 L 915.78778,379.70519 C 916.38061,367.26676 908.90854,365.79882 903.10077,370.0054 C 896.64689,374.6796 891.49003,370.49068 893.87385,353.45873 C 897.24754,331.74184 882.41851,328.01858 877.72674,337.48264 C 870.49706,349.35824 865.49277,339.24262 867.92314,326.07114 C 870.42468,303.78409 856.03874,297.97658 848.31594,311.23619 C 840.42618,321.46848 835.86856,319.41256 833.89889,307.81275 C 833.38419,297.43914 823.80604,297.5276 814.29168,297.5424 C 803.85297,299.19631 798.01779,305.405 795.26116,314.65965 C 792.98048,327.07906 798.38101,332.26051 807.37149,334.05918 C 818.06825,333.66131 825.12599,341.67142 810.83159,349.46472 C 798.32407,357.2609 797.54075,369.28574 823.5186,368.29369 C 848.72963,364.03536 843.7603,375.48488 837.35897,377.42288 C 823.3243,384.82504 836.48684,396.59106 856.96617,393.39898 C 877.25738,390.95419 882.23405,399.53013 874.84333,402.52818 C 865.63223,410.85877 874.60825,418.38533 890.41375,414.51026 C 898.87361,412.79487 907.28131,411.1827 915.2111,410.51623 z "
         style="fill:#00ab4e;fill-opacity:1;fill-rule:evenodd;stroke:#000000;stroke-width:4.07480335;stroke-linecap:butt;stroke-linejoin:miter;stroke-miterlimit:4;stroke-dasharray:none;stroke-opacity:1" />
      <path
         style="fill:#00ab4e;fill-opacity:1;fill-rule:evenodd;stroke:#000000;stroke-width:4.07480335;stroke-linecap:butt;stroke-linejoin:miter;stroke-miterlimit:4;stroke-dasharray:none;stroke-opacity:1"
         d="M 917.04681,556.43933 L 908.61713,528.16265 C 905.54758,516.64663 898.19848,517.39744 894.04205,522.86075 C 889.42313,528.93148 883.42718,526.5517 880.6804,510.34302 C 877.48761,489.58236 862.66696,490.33332 861.07395,500.2819 C 857.83145,513.14102 850.25259,505.3104 848.67205,492.6114 C 844.50544,471.57445 829.48888,470.29956 826.19221,484.55957 C 821.86014,496.10381 817.03987,495.50278 811.84044,485.46886 C 808.34562,476.14684 799.49827,478.90708 790.68859,481.58226 C 781.49946,486.01174 777.90013,493.30964 778.03889,502.52576 C 779.5393,514.49663 786.04973,517.71392 794.9017,516.84011 C 804.6953,513.48458 813.5639,518.81945 802.58905,529.92982 C 793.27039,540.54293 796.04314,551.73484 819.82009,543.56219 C 841.9364,532.62355 840.66391,544.46153 835.29762,548.02076 C 824.44959,558.70156 840.06632,565.75588 858.10944,557.11391 C 876.19571,549.20647 883.30106,555.63986 877.3266,560.44319 C 871.21718,570.62177 881.72218,574.97875 895.23682,567.02106 C 902.57488,563.08907 909.89464,559.26588 917.04681,556.43933 z "
         id="path2488"
         sodipodi:nodetypes="cccccccccccccccccc" />
      <path
         sodipodi:nodetypes="cccccccccccccccccc"
         id="path2490"
         d="M 961.78261,224.93655 L 966.36381,197.10804 C 967.8926,185.81477 974.78999,185.71588 979.26683,190.45257 C 984.24177,195.71587 989.52715,192.78895 990.22045,177.06786 C 990.80685,156.96773 1004.6293,156.04238 1007.2429,165.32893 C 1011.718,177.20141 1017.8475,168.9147 1017.861,156.66094 C 1019.3184,136.19027 1033.0909,133.31633 1037.7763,146.51529 C 1043.1109,157.01655 1047.5099,155.91159 1051.1822,145.79241 C 1053.356,136.53896 1061.8717,138.18561 1070.3428,139.75553 C 1079.366,142.95211 1083.5362,149.49544 1084.461,158.27689 C 1084.4385,169.8292 1078.772,173.60966 1070.4676,173.75782 C 1061.0069,171.64964 1053.3967,177.70515 1064.8387,187.05882 C 1074.6888,196.12275 1073.398,207.07492 1050.4261,201.93182 C 1028.6772,193.97409 1031.2096,205.09324 1036.5902,207.885 C 1047.8656,216.8441 1034.1974,225.28167 1016.4862,219.05784 C 998.81904,213.53745 992.96871,220.44277 999.05518,224.35059 C 1005.8811,233.35624 996.64246,238.66265 983.20679,232.58869 C 975.95605,229.66054 968.7347,226.83382 961.78261,224.93655 z "
         style="fill:#00ab4e;fill-opacity:1;fill-rule:evenodd;stroke:#000000;stroke-width:4.07480335;stroke-linecap:butt;stroke-linejoin:miter;stroke-miterlimit:4;stroke-dasharray:none;stroke-opacity:1" />
      <path
         style="fill:#00ab4e;fill-opacity:1;fill-rule:evenodd;stroke:#000000;stroke-width:4.07480335;stroke-linecap:butt;stroke-linejoin:miter;stroke-miterlimit:4;stroke-dasharray:none;stroke-opacity:1"
         d="M 974.38122,394.95731 L 976.44074,364.20977 C 976.91346,351.7662 984.48366,350.94243 989.91054,355.63012 C 995.94119,360.83896 1001.4373,357.10624 1000.5183,339.93285 C 999.01355,318.00705 1014.1066,315.56517 1017.9721,325.39569 C 1024.1601,337.84588 1030.0108,328.19512 1028.7154,314.8641 C 1028.1284,292.44478 1042.9581,287.88841 1049.5191,301.75971 C 1056.5052,312.62904 1061.2219,310.97028 1064.176,299.58133 C 1065.5757,289.2897 1075.1112,290.19668 1084.5895,291.02483 C 1094.8486,293.5651 1100.1316,300.24992 1102.0869,309.70636 C 1103.2975,322.27527 1097.4738,326.97605 1088.3624,327.99954 C 1077.7389,326.68864 1070.0222,334.06605 1083.598,343.05286 C 1095.3932,351.88978 1095.1456,363.93757 1069.3477,360.72826 C 1044.593,354.3302 1048.5653,366.16264 1054.7775,368.6408 C 1068.128,377.21571 1054.0078,387.81337 1033.8763,382.88217 C 1013.8684,378.7116 1008.1768,386.83068 1015.2841,390.4496 C 1023.7493,399.53716 1014.1627,406.26879 998.74634,401.05668 C 990.46409,398.62432 982.225,396.29926 974.38122,394.95731 z "
         id="path2492"
         sodipodi:nodetypes="cccccccccccccccccc" />
      <path
         style="fill:#00ac4e;fill-opacity:1;fill-rule:evenodd;stroke:#000000;stroke-width:4.07480335;stroke-linecap:butt;stroke-linejoin:miter;stroke-miterlimit:4;stroke-dasharray:none;stroke-opacity:1"
         d="M 935.53804,190.98071 L 935.47634,234.60484 C 900.86337,196.43565 866.13152,156.9593 822.66536,130.86373 C 861.96786,165.80851 896.52856,203.12419 930.77055,240.59922 L 913.37595,231.00727 L 909.27528,235.44966 C 918.12567,242.06775 931.63193,247.13388 929.7786,257.31987 L 919.18522,253.2192 L 917.81833,258.68676 C 924.20456,262.39159 931.42492,265.50061 929.09516,275.43114 L 928.75344,300.03512 L 924.31105,304.13579 L 905.85806,286.02452 L 901.7574,291.83379 L 924.65277,316.09606 L 909.617,308.9199 L 907.90839,314.04573 C 917.33826,319.37093 927.17101,324.22611 929.09516,338.30799 L 926.01966,419.29611 C 893.40829,385.81747 857.76075,346.06335 819.06067,319.855 L 927.38655,431.93983 L 914.40111,423.05505 L 909.27528,428.18088 C 919.68951,431.58926 926.81165,439.02129 925.67794,456.54381 L 926.01966,472.26302 L 905.85806,458.25242 L 904.14945,466.79547 L 927.72827,484.2233 L 912.35078,481.1478 L 909.617,486.61535 C 918.997,487.64303 926.18591,491.68345 925.33622,506.77695 L 924.65277,554.27631 C 883.76004,532.7401 842.8673,517.95737 801.97456,504.04317 L 914.40111,560.42731 L 922.94416,576.82997 L 922.94416,632.87238 C 921.93349,656.79913 914.74907,702.87925 903.46601,703.60884 L 891.50574,704.634 C 887.09825,708.55825 882.12928,707.99057 876.81169,704.634 C 865.91933,695.51338 860.20031,701.17371 855.62492,710.10156 C 860.59477,707.48682 865.49246,704.29476 871.34414,708.73467 L 881.93752,707.7095 C 864.33854,710.32027 868.68359,721.01568 867.24347,729.57971 C 873.72925,714.6905 884.66336,715.3705 894.58123,712.49361 C 913.23104,716.62196 916.72305,704.58199 922.26072,694.72406 C 917.94145,704.35999 917.48847,716.67258 902.09912,718.64461 C 886.06756,716.90659 885.3005,726.19293 885.35474,736.07243 C 887.16289,725.42486 900.70448,721.81736 910.98389,716.25255 C 900.15415,725.0672 894.94901,733.17877 898.6819,740.17309 C 903.40835,732.45482 907.54998,723.8593 915.768,721.37838 C 923.42313,717.64278 926.97847,709.80739 931.14549,702.58367 C 932.69094,709.57666 935.23754,716.81994 929.7786,722.06183 C 926.06965,730.2465 929.43652,736.07255 930.80377,742.56515 C 932.53961,729.23632 939.43187,722.78273 946.52298,716.59427 C 938.95147,727.30744 943.42983,733.5019 950.28193,738.80621 C 948.98366,731.24284 949.01147,724.05835 954.04087,718.30288 C 952.99114,710.38893 955.44253,704.80906 959.85014,700.53334 C 966.55875,714.24416 967.67541,729.81897 969.07664,745.29892 C 970.96588,739.37965 974.49687,734.11707 972.15213,726.50421 C 979.74794,729.51078 984.21462,736.42877 988.21307,743.93204 C 989.53631,728.63534 970.8759,721.1405 969.76008,700.53334 C 973.67718,708.04035 972.77665,721.24093 985.82102,717.96116 C 996.32549,717.90383 998.19219,723.34327 998.80645,729.57971 C 996.41833,736.01351 1000.3149,739.30496 1007.0078,741.19826 C 1004.3828,736.13067 1002.2398,730.77171 1003.2488,724.7956 C 1009.9174,725.26235 1012.5733,738.74801 1018.9681,741.19826 C 1021.9822,741.59257 1024.3474,741.33787 1023.7522,738.12276 C 1015.5457,734.27822 1012.5057,718.07871 1004.9575,718.64461 C 997.29141,716.0789 992.61325,711.27229 988.55479,706.00089 C 1001.5634,698.19343 1009.6259,703.5755 1017.2594,710.10156 C 1024.8125,717.92752 1038.653,723.13372 1036.3959,735.04726 L 1039.4714,735.38899 L 1042.2052,726.84594 C 1045.9023,733.16877 1049.4531,739.52086 1057.5826,744.9572 L 1063.7336,743.24859 C 1057.9135,738.37772 1053.7291,732.85253 1052.4568,726.16249 C 1050.4155,722.39604 1049.4568,717.72737 1042.2052,718.30288 C 1032.5696,715.48888 1028.0262,710.12877 1023.7522,704.634 C 1016.4629,695.88934 1007.0039,693.11166 996.07268,694.38234 C 971.01738,693.35502 978.28952,676.16398 972.83558,665.33597 L 972.91647,598.8916 C 977.49272,583.55852 986.97591,578.03933 996.5966,572.79513 C 986.26402,570.93267 976.17299,571.72731 967.11726,583.91029 L 966.15072,486.29017 C 972.40187,471.71381 981.0521,463.13514 989.83085,454.87776 L 985.48144,445.2124 L 967.11726,465.99292 L 961.80131,463.57658 C 956.36286,430.6073 970.70712,425.3338 984.03163,418.63266 L 981.6153,410.90038 L 962.76785,423.94861 C 995.87357,382.66254 1033.2757,343.95431 1079.2354,310.38065 C 1037.9894,334.52969 991.16338,366.84953 956.0021,412.83345 L 956.0021,327.29502 C 959.50187,316.15991 967.13665,311.91645 974.36628,306.99777 L 970.50013,300.71529 L 957.93517,306.5145 L 986.44797,280.9013 L 982.09856,272.68575 L 950.68615,299.26548 L 952.13595,265.43673 C 953.96142,255.87836 959.59922,253.94461 963.73438,249.00562 L 960.35151,242.23987 L 951.16942,249.00562 C 985.86908,210.46502 1031.1355,184.00071 1074.4027,155.25164 C 1024.8457,178.20069 977.07329,203.42118 941.50406,244.17294 L 943.9204,191.01347 L 935.53804,190.98071 z "
         id="path2221"
         sodipodi:nodetypes="cccccccccccccccccccccccccccccccccccccccccccccccccccccccccccccccccccccccccccccccccccccccccccccccccccccccccccc" />
      <path
         sodipodi:nodetypes="cccccccccccccccccc"
         id="path2494"
         d="M 968.05534,551.53092 L 974.2497,522.682 C 976.41,510.96134 983.79529,511.13559 988.36592,516.25741 C 993.44509,521.94866 999.23675,519.10763 1000.7086,502.73388 C 1002.2694,481.78721 1017.1034,481.37778 1019.4689,491.17147 C 1023.7063,503.7379 1030.6501,495.33901 1031.2335,482.55533 C 1033.7435,461.25712 1048.6146,458.81274 1053.0154,472.77154 C 1058.2363,483.94197 1062.9949,482.96612 1067.3944,472.5566 C 1070.1501,462.99 1079.1861,465.05046 1088.1779,467.02907 C 1097.685,470.72697 1101.8436,477.7213 1102.4254,486.92008 C 1101.865,498.97159 1095.6259,502.68777 1086.7327,502.50833 C 1076.7068,499.92833 1068.2822,505.93989 1080.0917,516.15871 C 1090.2112,526.0112 1088.3214,537.38556 1063.9786,531.09583 C 1041.0751,521.91881 1043.2687,533.62117 1048.8967,536.75019 C 1060.5462,546.55066 1045.5285,554.80371 1026.8652,547.59806 C 1008.2164,541.12806 1001.6354,548.09699 1007.967,552.41879 C 1014.8531,562.08886 1004.7206,567.25338 990.6255,560.37606 C 983.00263,557.02949 975.40651,553.78996 968.05534,551.53092 z "
         style="fill:#00ab4e;fill-opacity:1;fill-rule:evenodd;stroke:#000000;stroke-width:4.07480335;stroke-linecap:butt;stroke-linejoin:miter;stroke-miterlimit:4;stroke-dasharray:none;stroke-opacity:1" />
      <path
         style="fill:#00ac4e;fill-opacity:1;fill-rule:evenodd;stroke:#000000;stroke-width:4.07480335;stroke-linecap:butt;stroke-linejoin:miter;stroke-miterlimit:4;stroke-dasharray:none;stroke-opacity:1"
         d="M 954.06902,561.1967 C 990.38413,530.52667 1034.9974,511.47404 1077.3023,489.18978 C 1034.9314,514.15502 993.45862,539.83886 957.4519,569.89552"
         id="path2225"
         sodipodi:nodetypes="ccc" />
      <path
         style="fill:#00ab4e;fill-opacity:1;fill-rule:evenodd;stroke:#000000;stroke-width:4.07480335;stroke-linecap:butt;stroke-linejoin:miter;stroke-miterlimit:4;stroke-dasharray:none;stroke-opacity:1"
         d="M 919.67019,162.43042 L 963.88975,163.82683 C 963.6129,143.35461 971.47359,106.34411 943.87458,103.31585 C 916.58636,106.01336 920.97389,136.11061 919.67019,162.43042 z "
         id="path2293"
         sodipodi:nodetypes="cccc" />
      <path
         style="fill:#0e8d49;fill-opacity:1;fill-rule:evenodd;stroke:#000000;stroke-width:3.01181102;stroke-linecap:butt;stroke-linejoin:miter;stroke-miterlimit:4;stroke-dasharray:none;stroke-opacity:1"
         d="M 912.9669,162.48109 L 970.86184,162.48109 C 969.69801,178.64059 963.74752,192.61228 939.71583,193.26068 C 912.21911,191.06922 913.38216,173.1367 912.9669,162.48109 z "
         id="path2227"
         sodipodi:nodetypes="cccc" />
      <path
         sodipodi:nodetypes="cc"
         style="fill:#0e8d49;fill-opacity:1;fill-rule:evenodd;stroke:#000000;stroke-width:3.01181102;stroke-linecap:butt;stroke-linejoin:miter;stroke-miterlimit:4;stroke-dasharray:none;stroke-opacity:1"
         d="M 956.59704,162.89251 L 967.84045,175.07448"
         id="path2229" />
      <path
         sodipodi:nodetypes="cc"
         style="fill:#0e8d49;fill-opacity:1;fill-rule:evenodd;stroke:#000000;stroke-width:3.01181102;stroke-linecap:butt;stroke-linejoin:miter;stroke-miterlimit:4;stroke-dasharray:none;stroke-opacity:1"
         d="M 942.89792,162.9825 L 963.63241,183.09986"
         id="path2231" />
      <path
         sodipodi:nodetypes="cc"
         style="fill:#0e8d49;fill-opacity:1;fill-rule:evenodd;stroke:#000000;stroke-width:3.01181102;stroke-linecap:butt;stroke-linejoin:miter;stroke-miterlimit:4;stroke-dasharray:none;stroke-opacity:1"
         d="M 929.08954,162.11467 L 956.17024,189.19537"
         id="path2233" />
      <path
         sodipodi:nodetypes="cc"
         style="fill:#0e8d49;fill-opacity:1;fill-rule:evenodd;stroke:#000000;stroke-width:3.01181102;stroke-linecap:butt;stroke-linejoin:miter;stroke-miterlimit:4;stroke-dasharray:none;stroke-opacity:1"
         d="M 916.6954,162.61608 L 945.94503,192.16141"
         id="path2235" />
      <path
         style="fill:#0e8d49;fill-opacity:1;fill-rule:evenodd;stroke:#000000;stroke-width:3.01181102;stroke-linecap:butt;stroke-linejoin:miter;stroke-miterlimit:4;stroke-dasharray:none;stroke-opacity:1"
         d="M 912.60048,170.17599 C 912.84476,170.17599 913.08904,170.17599 912.60048,170.17599 z "
         id="path2237" />
      <path
         style="fill:#0e8d49;fill-opacity:1;fill-rule:evenodd;stroke:#000000;stroke-width:3.01181102;stroke-linecap:butt;stroke-linejoin:miter;stroke-miterlimit:4;stroke-dasharray:none;stroke-opacity:1"
         d="M 913.33332,170.17599 L 933.48662,191.79498"
         id="path2239" />
      <path
         sodipodi:nodetypes="cc"
         style="fill:#0e8d49;fill-opacity:1;fill-rule:evenodd;stroke:#000000;stroke-width:3.01181102;stroke-linecap:butt;stroke-linejoin:miter;stroke-miterlimit:4;stroke-dasharray:none;stroke-opacity:1"
         d="M 966.60333,162.13199 L 935.61946,191.99164"
         id="path2241" />
      <path
         sodipodi:nodetypes="cc"
         style="fill:#0e8d49;fill-opacity:1;fill-rule:evenodd;stroke:#000000;stroke-width:3.01181102;stroke-linecap:butt;stroke-linejoin:miter;stroke-miterlimit:4;stroke-dasharray:none;stroke-opacity:1"
         d="M 954.36177,162.57108 L 926.6929,189.49739"
         id="path2243" />
      <path
         sodipodi:nodetypes="cc"
         style="fill:#0e8d49;fill-opacity:1;fill-rule:evenodd;stroke:#000000;stroke-width:3.01181102;stroke-linecap:butt;stroke-linejoin:miter;stroke-miterlimit:4;stroke-dasharray:none;stroke-opacity:1"
         d="M 942.76293,162.57108 L 919.92895,184.46651"
         id="path2245" />
      <path
         style="fill:#0e8d49;fill-opacity:1;fill-rule:evenodd;stroke:#000000;stroke-width:3.01181102;stroke-linecap:butt;stroke-linejoin:miter;stroke-miterlimit:4;stroke-dasharray:none;stroke-opacity:1"
         d="M 929.45596,162.11467 L 914.79902,177.13804"
         id="path2247" />
      <path
         sodipodi:nodetypes="cc"
         style="fill:#0e8d49;fill-opacity:1;fill-rule:evenodd;stroke:#000000;stroke-width:3.01181102;stroke-linecap:butt;stroke-linejoin:miter;stroke-miterlimit:4;stroke-dasharray:none;stroke-opacity:1"
         d="M 917.27399,162.77679 L 912.9669,167.97745"
         id="path2249" />
      <path
         id="path2291"
         d="M 969.02405,171.88046 L 947.75538,192.17384"
         style="fill:#0e8d49;fill-opacity:1;fill-rule:evenodd;stroke:#000000;stroke-width:3.01181102;stroke-linecap:butt;stroke-linejoin:miter;stroke-miterlimit:4;stroke-dasharray:none;stroke-opacity:1"
         sodipodi:nodetypes="cc" />
      <path
         sodipodi:type="arc"
         style="opacity:1;fill:#000000;fill-opacity:1;fill-rule:nonzero;stroke:#000000;stroke-width:4.07480335;stroke-linecap:round;stroke-linejoin:miter;stroke-miterlimit:4;stroke-dasharray:none;stroke-dashoffset:0;stroke-opacity:1"
         id="path2295"
         sodipodi:cx="203.40999"
         sodipodi:cy="99.824837"
         sodipodi:rx="2.3273454"
         sodipodi:ry="2.0946109"
         d="M 205.73733 99.824837 A 2.3273454 2.0946109 0 1 1  201.08264,99.824837 A 2.3273454 2.0946109 0 1 1  205.73733 99.824837 z"
         transform="translate(740.9301,0.930938)" />
      <path
         sodipodi:nodetypes="cccc"
         id="path2316"
         d="M 863.53372,293.17173 L 893.32722,254.12269 C 876.50749,242.44679 851.51895,213.80129 831.17074,236.91688 C 815.67799,263.08766 842.98528,276.66469 863.53372,293.17173 z "
         style="fill:#00ab4e;fill-opacity:1;fill-rule:evenodd;stroke:#000000;stroke-width:4.07480335;stroke-linecap:butt;stroke-linejoin:miter;stroke-miterlimit:4;stroke-dasharray:none;stroke-opacity:1" />
      <g
         id="g3070">
        <path
           style="fill:#0e8d49;fill-opacity:1;fill-rule:evenodd;stroke:#000000;stroke-width:2.65748024;stroke-linecap:butt;stroke-linejoin:miter;stroke-miterlimit:4;stroke-dasharray:none;stroke-opacity:1"
           d="M 861.12303,296.64722 L 894.88487,249.61575 C 907.33349,259.98472 915.21345,272.96634 901.72593,292.86682 C 883.91078,313.92607 870.02137,302.52378 861.12303,296.64722 z "
           id="path2320"
           sodipodi:nodetypes="cccc" />
        <path
           sodipodi:nodetypes="cc"
           style="fill:#0e8d49;fill-opacity:1;fill-rule:evenodd;stroke:#000000;stroke-width:2.65748024;stroke-linecap:butt;stroke-linejoin:miter;stroke-miterlimit:4;stroke-dasharray:none;stroke-opacity:1"
           d="M 886.90047,261.44381 L 903.35328,259.41412"
           id="path2322" />
        <path
           sodipodi:nodetypes="cc"
           style="fill:#0e8d49;fill-opacity:1;fill-rule:evenodd;stroke:#000000;stroke-width:2.65748024;stroke-linecap:butt;stroke-linejoin:miter;stroke-miterlimit:4;stroke-dasharray:none;stroke-opacity:1"
           d="M 878.98484,272.62489 L 907.41882,267.51262"
           id="path2324" />
        <path
           sodipodi:nodetypes="cc"
           style="fill:#0e8d49;fill-opacity:1;fill-rule:evenodd;stroke:#000000;stroke-width:2.65748024;stroke-linecap:butt;stroke-linejoin:miter;stroke-miterlimit:4;stroke-dasharray:none;stroke-opacity:1"
           d="M 870.2274,283.33617 L 908.01895,277.12922"
           id="path2326" />
        <path
           sodipodi:nodetypes="cc"
           style="fill:#0e8d49;fill-opacity:1;fill-rule:evenodd;stroke:#000000;stroke-width:2.65748024;stroke-linecap:butt;stroke-linejoin:miter;stroke-miterlimit:4;stroke-dasharray:none;stroke-opacity:1"
           d="M 863.40699,293.69706 L 904.46553,287.16543"
           id="path2328" />
        <path
           style="fill:#0e8d49;fill-opacity:1;fill-rule:evenodd;stroke:#000000;stroke-width:2.65748024;stroke-linecap:butt;stroke-linejoin:miter;stroke-miterlimit:4;stroke-dasharray:none;stroke-opacity:1"
           d="M 867.16037,301.43222 C 867.30283,301.23378 867.44528,301.03534 867.16037,301.43222 z "
           id="path2330" />
        <path
           style="fill:#0e8d49;fill-opacity:1;fill-rule:evenodd;stroke:#000000;stroke-width:2.65748024;stroke-linecap:butt;stroke-linejoin:miter;stroke-miterlimit:4;stroke-dasharray:none;stroke-opacity:1"
           d="M 867.58773,300.83689 L 896.90265,297.07244"
           id="path2332" />
        <path
           sodipodi:nodetypes="cc"
           style="fill:#0e8d49;fill-opacity:1;fill-rule:evenodd;stroke:#000000;stroke-width:2.65748024;stroke-linecap:butt;stroke-linejoin:miter;stroke-miterlimit:4;stroke-dasharray:none;stroke-opacity:1"
           d="M 892.1179,252.87161 L 898.30619,295.4545"
           id="path2334" />
        <path
           sodipodi:nodetypes="cc"
           style="fill:#0e8d49;fill-opacity:1;fill-rule:evenodd;stroke:#000000;stroke-width:2.65748024;stroke-linecap:butt;stroke-linejoin:miter;stroke-miterlimit:4;stroke-dasharray:none;stroke-opacity:1"
           d="M 885.33584,263.07221 L 891.07438,301.25153"
           id="path2336" />
        <path
           sodipodi:nodetypes="cc"
           style="fill:#0e8d49;fill-opacity:1;fill-rule:evenodd;stroke:#000000;stroke-width:2.65748024;stroke-linecap:butt;stroke-linejoin:miter;stroke-miterlimit:4;stroke-dasharray:none;stroke-opacity:1"
           d="M 878.5719,272.49463 L 883.04305,303.81249"
           id="path2338" />
        <path
           style="fill:#0e8d49;fill-opacity:1;fill-rule:evenodd;stroke:#000000;stroke-width:2.65748024;stroke-linecap:butt;stroke-linejoin:miter;stroke-miterlimit:4;stroke-dasharray:none;stroke-opacity:1"
           d="M 870.44108,283.03851 L 874.09815,303.70619"
           id="path2340" />
        <path
           sodipodi:nodetypes="cc"
           style="fill:#0e8d49;fill-opacity:1;fill-rule:evenodd;stroke:#000000;stroke-width:2.65748024;stroke-linecap:butt;stroke-linejoin:miter;stroke-miterlimit:4;stroke-dasharray:none;stroke-opacity:1"
           d="M 863.87496,293.32076 L 865.58805,299.85246"
           id="path2342" />
        <path
           id="path2344"
           d="M 901.44881,256.59 L 905.53135,285.70202"
           style="fill:#0e8d49;fill-opacity:1;fill-rule:evenodd;stroke:#000000;stroke-width:2.65748024;stroke-linecap:butt;stroke-linejoin:miter;stroke-miterlimit:4;stroke-dasharray:none;stroke-opacity:1"
           sodipodi:nodetypes="cc" />
      </g>
      <path
         style="fill:#00ab4e;fill-opacity:1;fill-rule:evenodd;stroke:#000000;stroke-width:4.07480335;stroke-linecap:butt;stroke-linejoin:miter;stroke-miterlimit:4;stroke-dasharray:none;stroke-opacity:1"
         d="M 1022.2839,289.28544 L 999.25104,243.79871 C 1018.0968,235.73048 1048.0532,212.43585 1064.3999,239.9454 C 1075.3609,269.46845 1045.6962,277.18406 1022.2839,289.28544 z "
         id="path2348"
         sodipodi:nodetypes="cccc" />
      <path
         style="fill:#0e8d49;fill-opacity:1;fill-rule:evenodd;stroke:#000000;stroke-width:2.65748024;stroke-linecap:butt;stroke-linejoin:miter;stroke-miterlimit:4;stroke-dasharray:none;stroke-opacity:1"
         d="M 1023.4491,292.5237 L 999.23891,239.9339 C 985.04686,247.74857 974.84379,258.99639 984.30423,281.0971 C 997.79329,305.15778 1013.5962,296.60239 1023.4491,292.5237 z "
         id="path2352"
         sodipodi:nodetypes="cccc" />
      <path
         sodipodi:nodetypes="cc"
         style="fill:#0e8d49;fill-opacity:1;fill-rule:evenodd;stroke:#000000;stroke-width:2.65748024;stroke-linecap:butt;stroke-linejoin:miter;stroke-miterlimit:4;stroke-dasharray:none;stroke-opacity:1"
         d="M 1004.8304,253.06361 L 989.06297,247.94466"
         id="path2354" />
      <path
         sodipodi:nodetypes="cc"
         style="fill:#0e8d49;fill-opacity:1;fill-rule:evenodd;stroke:#000000;stroke-width:2.65748024;stroke-linecap:butt;stroke-linejoin:miter;stroke-miterlimit:4;stroke-dasharray:none;stroke-opacity:1"
         d="M 1010.4772,265.54505 L 983.53268,255.1231"
         id="path2356" />
      <path
         sodipodi:nodetypes="cc"
         style="fill:#0e8d49;fill-opacity:1;fill-rule:evenodd;stroke:#000000;stroke-width:2.65748024;stroke-linecap:butt;stroke-linejoin:miter;stroke-miterlimit:4;stroke-dasharray:none;stroke-opacity:1"
         d="M 1017.0398,277.72521 L 981.11621,264.45047"
         id="path2358" />
      <path
         sodipodi:nodetypes="cc"
         style="fill:#0e8d49;fill-opacity:1;fill-rule:evenodd;stroke:#000000;stroke-width:2.65748024;stroke-linecap:butt;stroke-linejoin:miter;stroke-miterlimit:4;stroke-dasharray:none;stroke-opacity:1"
         d="M 1021.7673,289.1933 L 982.69788,274.97902"
         id="path2360" />
      <path
         style="fill:#0e8d49;fill-opacity:1;fill-rule:evenodd;stroke:#000000;stroke-width:2.65748024;stroke-linecap:butt;stroke-linejoin:miter;stroke-miterlimit:4;stroke-dasharray:none;stroke-opacity:1"
         d="M 1016.6125,296.07435 C 1016.5104,295.85245 1016.4082,295.63056 1016.6125,296.07435 z "
         id="path2362" />
      <path
         style="fill:#0e8d49;fill-opacity:1;fill-rule:evenodd;stroke:#000000;stroke-width:2.65748024;stroke-linecap:butt;stroke-linejoin:miter;stroke-miterlimit:4;stroke-dasharray:none;stroke-opacity:1"
         d="M 1016.3061,295.40866 L 988.24052,286.14259"
         id="path2364" />
      <path
         sodipodi:nodetypes="cc"
         style="fill:#0e8d49;fill-opacity:1;fill-rule:evenodd;stroke:#000000;stroke-width:2.65748024;stroke-linecap:butt;stroke-linejoin:miter;stroke-miterlimit:4;stroke-dasharray:none;stroke-opacity:1"
         d="M 1001.3368,243.6562 L 987.16998,284.28743"
         id="path2366" />
      <path
         sodipodi:nodetypes="cc"
         style="fill:#0e8d49;fill-opacity:1;fill-rule:evenodd;stroke:#000000;stroke-width:2.65748024;stroke-linecap:butt;stroke-linejoin:miter;stroke-miterlimit:4;stroke-dasharray:none;stroke-opacity:1"
         d="M 1006.0571,254.95964 L 993.16853,291.35298"
         id="path2368" />
      <path
         sodipodi:nodetypes="cc"
         style="fill:#0e8d49;fill-opacity:1;fill-rule:evenodd;stroke:#000000;stroke-width:2.65748024;stroke-linecap:butt;stroke-linejoin:miter;stroke-miterlimit:4;stroke-dasharray:none;stroke-opacity:1"
         d="M 1010.9074,265.49563 L 1000.5669,295.39334"
         id="path2370" />
      <path
         style="fill:#0e8d49;fill-opacity:1;fill-rule:evenodd;stroke:#000000;stroke-width:2.65748024;stroke-linecap:butt;stroke-linejoin:miter;stroke-miterlimit:4;stroke-dasharray:none;stroke-opacity:1"
         d="M 1016.8866,277.39237 L 1009.3691,296.98862"
         id="path2372" />
      <path
         sodipodi:nodetypes="cc"
         style="fill:#0e8d49;fill-opacity:1;fill-rule:evenodd;stroke:#000000;stroke-width:2.65748024;stroke-linecap:butt;stroke-linejoin:miter;stroke-miterlimit:4;stroke-dasharray:none;stroke-opacity:1"
         d="M 1021.3794,288.73494 L 1018.4564,294.82213"
         id="path2374" />
      <path
         id="path2376"
         d="M 991.46936,245.53386 L 981.92955,273.33976"
         style="fill:#0e8d49;fill-opacity:1;fill-rule:evenodd;stroke:#000000;stroke-width:2.65748024;stroke-linecap:butt;stroke-linejoin:miter;stroke-miterlimit:4;stroke-dasharray:none;stroke-opacity:1"
         sodipodi:nodetypes="cc" />
      <path
         sodipodi:nodetypes="cccc"
         id="path2380"
         d="M 1024.9513,461.36249 L 1003.3509,417.24525 C 1022.2115,409.25208 1052.4658,386.35316 1067.921,413.01677 C 1077.9939,441.68016 1048.4365,449.40921 1024.9513,461.36249 z "
         style="fill:#00ab4e;fill-opacity:1;fill-rule:evenodd;stroke:#000000;stroke-width:4.07480288;stroke-linecap:butt;stroke-linejoin:miter;stroke-miterlimit:4;stroke-dasharray:none;stroke-opacity:1" />
      <g
         id="g3126">
        <path
           style="fill:#0e8d49;fill-opacity:1;fill-rule:evenodd;stroke:#000000;stroke-width:2.65748024;stroke-linecap:butt;stroke-linejoin:miter;stroke-miterlimit:4;stroke-dasharray:none;stroke-opacity:1"
           d="M 1026.5495,465.35833 L 1002.8552,412.53406 C 988.58729,420.20948 978.27463,431.35692 987.51835,453.54919 C 1000.7713,477.74075 1016.6572,469.34041 1026.5495,465.35833 z "
           id="path2384"
           sodipodi:nodetypes="cccc" />
        <path
           sodipodi:nodetypes="cc"
           style="fill:#0e8d49;fill-opacity:1;fill-rule:evenodd;stroke:#000000;stroke-width:2.65748024;stroke-linecap:butt;stroke-linejoin:miter;stroke-miterlimit:4;stroke-dasharray:none;stroke-opacity:1"
           d="M 1008.3179,425.71787 L 992.6013,420.44486"
           id="path2386" />
        <path
           sodipodi:nodetypes="cc"
           style="fill:#0e8d49;fill-opacity:1;fill-rule:evenodd;stroke:#000000;stroke-width:2.65748024;stroke-linecap:butt;stroke-linejoin:miter;stroke-miterlimit:4;stroke-dasharray:none;stroke-opacity:1"
           d="M 1013.8423,438.254 L 987.00102,427.56885"
           id="path2388" />
        <path
           sodipodi:nodetypes="cc"
           style="fill:#0e8d49;fill-opacity:1;fill-rule:evenodd;stroke:#000000;stroke-width:2.65748024;stroke-linecap:butt;stroke-linejoin:miter;stroke-miterlimit:4;stroke-dasharray:none;stroke-opacity:1"
           d="M 1020.2854,450.49781 L 984.49338,436.87213"
           id="path2390" />
        <path
           sodipodi:nodetypes="cc"
           style="fill:#0e8d49;fill-opacity:1;fill-rule:evenodd;stroke:#000000;stroke-width:2.65748024;stroke-linecap:butt;stroke-linejoin:miter;stroke-miterlimit:4;stroke-dasharray:none;stroke-opacity:1"
           d="M 1024.9004,462.01163 L 985.97195,447.41567"
           id="path2392" />
        <path
           style="fill:#0e8d49;fill-opacity:1;fill-rule:evenodd;stroke:#000000;stroke-width:2.65748024;stroke-linecap:butt;stroke-linejoin:miter;stroke-miterlimit:4;stroke-dasharray:none;stroke-opacity:1"
           d="M 1019.6786,468.84191 C 1019.5786,468.61903 1019.4786,468.39614 1019.6786,468.84191 z "
           id="path2394" />
        <path
           style="fill:#0e8d49;fill-opacity:1;fill-rule:evenodd;stroke:#000000;stroke-width:2.65748024;stroke-linecap:butt;stroke-linejoin:miter;stroke-miterlimit:4;stroke-dasharray:none;stroke-opacity:1"
           d="M 1019.3786,468.17326 L 991.40507,458.63296"
           id="path2396" />
        <path
           sodipodi:nodetypes="cc"
           style="fill:#0e8d49;fill-opacity:1;fill-rule:evenodd;stroke:#000000;stroke-width:2.65748024;stroke-linecap:butt;stroke-linejoin:miter;stroke-miterlimit:4;stroke-dasharray:none;stroke-opacity:1"
           d="M 1004.9166,416.27672 L 990.35274,456.76741"
           id="path2398" />
        <path
           sodipodi:nodetypes="cc"
           style="fill:#0e8d49;fill-opacity:1;fill-rule:evenodd;stroke:#000000;stroke-width:2.65748024;stroke-linecap:butt;stroke-linejoin:miter;stroke-miterlimit:4;stroke-dasharray:none;stroke-opacity:1"
           d="M 1009.526,427.62582 L 996.28186,463.89133"
           id="path2400" />
        <path
           sodipodi:nodetypes="cc"
           style="fill:#0e8d49;fill-opacity:1;fill-rule:evenodd;stroke:#000000;stroke-width:2.65748024;stroke-linecap:butt;stroke-linejoin:miter;stroke-miterlimit:4;stroke-dasharray:none;stroke-opacity:1"
           d="M 1014.273,438.20879 L 1003.6404,468.00391"
           id="path2402" />
        <path
           style="fill:#0e8d49;fill-opacity:1;fill-rule:evenodd;stroke:#000000;stroke-width:2.65748024;stroke-linecap:butt;stroke-linejoin:miter;stroke-miterlimit:4;stroke-dasharray:none;stroke-opacity:1"
           d="M 1020.1355,450.16349 L 1012.4265,469.68525"
           id="path2404" />
        <path
           sodipodi:nodetypes="cc"
           style="fill:#0e8d49;fill-opacity:1;fill-rule:evenodd;stroke:#000000;stroke-width:2.65748024;stroke-linecap:butt;stroke-linejoin:miter;stroke-miterlimit:4;stroke-dasharray:none;stroke-opacity:1"
           d="M 1024.517,461.54949 L 1021.5346,467.6078"
           id="path2406" />
        <path
           id="path2408"
           d="M 995.03117,418.05772 L 985.21969,445.76897"
           style="fill:#0e8d49;fill-opacity:1;fill-rule:evenodd;stroke:#000000;stroke-width:2.65748024;stroke-linecap:butt;stroke-linejoin:miter;stroke-miterlimit:4;stroke-dasharray:none;stroke-opacity:1"
           sodipodi:nodetypes="cc" />
      </g>
      <path
         style="fill:#00ab4e;fill-opacity:1;fill-rule:evenodd;stroke:#000000;stroke-width:4.07480288;stroke-linecap:butt;stroke-linejoin:miter;stroke-miterlimit:4;stroke-dasharray:none;stroke-opacity:1"
         d="M 865.27156,475.98379 L 886.87205,431.86655 C 868.0114,423.87338 837.75705,400.97446 822.30188,427.63807 C 812.22899,456.30146 841.78639,464.03051 865.27156,475.98379 z "
         id="path2444"
         sodipodi:nodetypes="cccc" />
      <g
         id="g3098">
        <path
           sodipodi:nodetypes="cccc"
           id="path2448"
           d="M 863.67336,479.97963 L 887.36773,427.15536 C 901.63561,434.83078 911.94827,445.97822 902.70455,468.17049 C 889.45158,492.36205 873.56566,483.96171 863.67336,479.97963 z "
           style="fill:#0e8d49;fill-opacity:1;fill-rule:evenodd;stroke:#000000;stroke-width:2.65748024;stroke-linecap:butt;stroke-linejoin:miter;stroke-miterlimit:4;stroke-dasharray:none;stroke-opacity:1" />
        <path
           id="path2450"
           d="M 881.90504,440.33917 L 897.6216,435.06616"
           style="fill:#0e8d49;fill-opacity:1;fill-rule:evenodd;stroke:#000000;stroke-width:2.65748024;stroke-linecap:butt;stroke-linejoin:miter;stroke-miterlimit:4;stroke-dasharray:none;stroke-opacity:1"
           sodipodi:nodetypes="cc" />
        <path
           id="path2452"
           d="M 876.38058,452.8753 L 903.22188,442.19015"
           style="fill:#0e8d49;fill-opacity:1;fill-rule:evenodd;stroke:#000000;stroke-width:2.65748024;stroke-linecap:butt;stroke-linejoin:miter;stroke-miterlimit:4;stroke-dasharray:none;stroke-opacity:1"
           sodipodi:nodetypes="cc" />
        <path
           id="path2454"
           d="M 869.93747,465.11911 L 905.72952,451.49343"
           style="fill:#0e8d49;fill-opacity:1;fill-rule:evenodd;stroke:#000000;stroke-width:2.65748024;stroke-linecap:butt;stroke-linejoin:miter;stroke-miterlimit:4;stroke-dasharray:none;stroke-opacity:1"
           sodipodi:nodetypes="cc" />
        <path
           id="path2456"
           d="M 865.32247,476.63293 L 904.25095,462.03697"
           style="fill:#0e8d49;fill-opacity:1;fill-rule:evenodd;stroke:#000000;stroke-width:2.65748024;stroke-linecap:butt;stroke-linejoin:miter;stroke-miterlimit:4;stroke-dasharray:none;stroke-opacity:1"
           sodipodi:nodetypes="cc" />
        <path
           id="path2458"
           d="M 870.54435,483.46321 C 870.64432,483.24033 870.7443,483.01744 870.54435,483.46321 z "
           style="fill:#0e8d49;fill-opacity:1;fill-rule:evenodd;stroke:#000000;stroke-width:2.65748024;stroke-linecap:butt;stroke-linejoin:miter;stroke-miterlimit:4;stroke-dasharray:none;stroke-opacity:1" />
        <path
           id="path2460"
           d="M 870.84427,482.79456 L 898.81783,473.25426"
           style="fill:#0e8d49;fill-opacity:1;fill-rule:evenodd;stroke:#000000;stroke-width:2.65748024;stroke-linecap:butt;stroke-linejoin:miter;stroke-miterlimit:4;stroke-dasharray:none;stroke-opacity:1" />
        <path
           id="path2462"
           d="M 885.30635,430.89802 L 899.87016,471.38871"
           style="fill:#0e8d49;fill-opacity:1;fill-rule:evenodd;stroke:#000000;stroke-width:2.65748024;stroke-linecap:butt;stroke-linejoin:miter;stroke-miterlimit:4;stroke-dasharray:none;stroke-opacity:1"
           sodipodi:nodetypes="cc" />
        <path
           id="path2464"
           d="M 880.69694,442.24712 L 893.94104,478.51263"
           style="fill:#0e8d49;fill-opacity:1;fill-rule:evenodd;stroke:#000000;stroke-width:2.65748024;stroke-linecap:butt;stroke-linejoin:miter;stroke-miterlimit:4;stroke-dasharray:none;stroke-opacity:1"
           sodipodi:nodetypes="cc" />
        <path
           id="path2466"
           d="M 875.94994,452.83009 L 886.58253,482.62521"
           style="fill:#0e8d49;fill-opacity:1;fill-rule:evenodd;stroke:#000000;stroke-width:2.65748024;stroke-linecap:butt;stroke-linejoin:miter;stroke-miterlimit:4;stroke-dasharray:none;stroke-opacity:1"
           sodipodi:nodetypes="cc" />
        <path
           id="path2468"
           d="M 870.08743,464.78479 L 877.79642,484.30655"
           style="fill:#0e8d49;fill-opacity:1;fill-rule:evenodd;stroke:#000000;stroke-width:2.65748024;stroke-linecap:butt;stroke-linejoin:miter;stroke-miterlimit:4;stroke-dasharray:none;stroke-opacity:1" />
        <path
           id="path2470"
           d="M 865.7059,476.17079 L 868.68833,482.2291"
           style="fill:#0e8d49;fill-opacity:1;fill-rule:evenodd;stroke:#000000;stroke-width:2.65748024;stroke-linecap:butt;stroke-linejoin:miter;stroke-miterlimit:4;stroke-dasharray:none;stroke-opacity:1"
           sodipodi:nodetypes="cc" />
        <path
           sodipodi:nodetypes="cc"
           style="fill:#0e8d49;fill-opacity:1;fill-rule:evenodd;stroke:#000000;stroke-width:2.65748024;stroke-linecap:butt;stroke-linejoin:miter;stroke-miterlimit:4;stroke-dasharray:none;stroke-opacity:1"
           d="M 895.19173,432.67902 L 905.00321,460.39027"
           id="path2472" />
      </g>
      <path
         transform="translate(863.6446,139.8334)"
         d="M 205.73733 99.824837 A 2.3273454 2.0946109 0 1 1  201.08264,99.824837 A 2.3273454 2.0946109 0 1 1  205.73733 99.824837 z"
         sodipodi:ry="2.0946109"
         sodipodi:rx="2.3273454"
         sodipodi:cy="99.824837"
         sodipodi:cx="203.40999"
         id="path2474"
         style="opacity:1;fill:#000000;fill-opacity:1;fill-rule:nonzero;stroke:#000000;stroke-width:4.07480335;stroke-linecap:round;stroke-linejoin:miter;stroke-miterlimit:4;stroke-dasharray:none;stroke-dashoffset:0;stroke-opacity:1"
         sodipodi:type="arc" />
      <path
         sodipodi:type="arc"
         style="opacity:1;fill:#000000;fill-opacity:1;fill-rule:nonzero;stroke:#000000;stroke-width:4.07480335;stroke-linecap:round;stroke-linejoin:miter;stroke-miterlimit:4;stroke-dasharray:none;stroke-dashoffset:0;stroke-opacity:1"
         id="path2476"
         sodipodi:cx="203.40999"
         sodipodi:cy="99.824837"
         sodipodi:rx="2.3273454"
         sodipodi:ry="2.0946109"
         d="M 205.73733 99.824837 A 2.3273454 2.0946109 0 1 1  201.08264,99.824837 A 2.3273454 2.0946109 0 1 1  205.73733 99.824837 z"
         transform="translate(626.5705,134.6115)" />
      <path
         transform="translate(619.2598,325.7329)"
         d="M 205.73733 99.824837 A 2.3273454 2.0946109 0 1 1  201.08264,99.824837 A 2.3273454 2.0946109 0 1 1  205.73733 99.824837 z"
         sodipodi:ry="2.0946109"
         sodipodi:rx="2.3273454"
         sodipodi:cy="99.824837"
         sodipodi:cx="203.40999"
         id="path2478"
         style="opacity:1;fill:#000000;fill-opacity:1;fill-rule:nonzero;stroke:#000000;stroke-width:4.07480335;stroke-linecap:round;stroke-linejoin:miter;stroke-miterlimit:4;stroke-dasharray:none;stroke-dashoffset:0;stroke-opacity:1"
         sodipodi:type="arc" />
      <path
         sodipodi:type="arc"
         style="opacity:1;fill:#000000;fill-opacity:1;fill-rule:nonzero;stroke:#000000;stroke-width:4.07480335;stroke-linecap:round;stroke-linejoin:miter;stroke-miterlimit:4;stroke-dasharray:none;stroke-dashoffset:0;stroke-opacity:1"
         id="path2480"
         sodipodi:cx="203.40999"
         sodipodi:cy="99.824837"
         sodipodi:rx="2.3273454"
         sodipodi:ry="2.0946109"
         d="M 205.73733 99.824837 A 2.3273454 2.0946109 0 1 1  201.08264,99.824837 A 2.3273454 2.0946109 0 1 1  205.73733 99.824837 z"
         transform="translate(865.2111,315.8113)" />
      <path
         style="fill:none;fill-opacity:0.75;fill-rule:evenodd;stroke:#000000;stroke-width:4.07480335;stroke-linecap:butt;stroke-linejoin:miter;stroke-miterlimit:4;stroke-dasharray:none;stroke-opacity:1"
         d="M 872.0564,138.63118 L 871.53421,138.63118"
         id="path2484" />
    </g>
    <g
       id="g3300">
      <path
         sodipodi:nodetypes="ccccc"
         id="path2209"
         d="M 1125.8396,11.310211 L 1488.5545,13.132899 L 1488.5545,558.1166 C 1473.5418,734.75293 1319.4241,900.89864 1125.8396,895.31387 L 1125.8396,11.310211 z "
         style="fill:#00ac4e;fill-opacity:1;fill-rule:evenodd;stroke:#000000;stroke-width:10.62992096;stroke-linecap:butt;stroke-linejoin:miter;stroke-miterlimit:4;stroke-dasharray:none;stroke-opacity:1" />
      <g
         id="g3233">
        <g
           transform="translate(750.1832,0.000000)"
           id="g2640">
          <path
             style="fill:#ffffff;fill-opacity:1;fill-rule:evenodd;stroke:#000000;stroke-width:3.18897629;stroke-linecap:butt;stroke-linejoin:miter;stroke-miterlimit:4;stroke-dasharray:none;stroke-opacity:1"
             d="M 526.06571,449.21554 C 528.75063,411.0039 507.52909,386.45308 492.40022,358.42075 C 463.88447,305.63878 487.4002,265.70788 512.46349,250.28313 C 527.57738,237.4267 529.56971,217.45675 506.68255,210.49665 L 391.06371,179.55161 L 482.53861,179.55161 C 487.38443,174.21278 494.24345,170.14135 503.62205,170.24185 C 505.48157,179.92841 511.87478,189.46807 526.40576,195.53421 C 549.37699,200.64959 563.20969,230.93577 538.64776,260.14474 C 516.65308,280.19349 502.26723,302.54258 518.92454,334.27682 C 526.97252,343.82543 535.0205,341.2066 543.06848,333.5967 C 571.62704,306.6727 583.33047,311.17157 609.71933,328.83593 C 628.52558,339.23932 645.03055,354.72123 659.2066,373.17565 C 703.97548,414.85336 732.87681,553.93093 718.87712,595.43936 C 717.643,593.70204 716.09261,592.36006 716.2356,588.90135 C 722.32567,543.53793 703.30451,506.96345 690.20459,468.31653 C 704.05042,507.98497 719.47192,547.41706 713.55594,590.04978 C 710.45053,597.02741 708.39815,598.73992 706.28257,600.76843 C 693.04556,564.9951 676.98046,532.307 640.43942,515.78484 C 615.82121,501.22527 591.87884,486.10233 572.29943,464.48844 L 566.17448,478.26956 L 561.58077,450.32451 C 562.10902,462.92656 560.27945,473.95673 554.69021,482.48046 C 557.54079,470.86859 555.21066,459.25671 552.01055,447.64484 C 550.64379,458.63762 545.99512,464.16054 541.67471,470.23058 C 544.8649,460.75608 544.83056,450.47546 543.97156,439.98866 C 541.95425,446.40126 539.44764,452.16145 534.40134,454.5354 C 538.64699,443.56154 535.50443,432.58769 531.72168,421.61383 L 526.06571,449.21554 z "
             id="path2594"
             sodipodi:nodetypes="ccccccccccccccccccccccccccccc" />
          <path
             style="fill:#252122;fill-opacity:1;fill-rule:evenodd;stroke:#000000;stroke-width:1px;stroke-linecap:butt;stroke-linejoin:miter;stroke-opacity:1"
             d="M 503.011,169.72552 C 528.9699,166.41734 539.53024,181.36376 550.09651,196.13934 C 557.06045,208.51363 565.07399,224.89775 581.10403,228.29529 C 573.96405,232.84849 568.1582,228.06274 561.96358,225.99844 L 577.65875,238.63114 C 568.66967,237.41338 559.62605,236.74106 551.62774,225.61563 C 550.67208,210.1906 541.04796,201.26691 527.89359,194.99091 C 512.73428,191.14585 505.96054,181.71042 503.011,169.72552 z "
             id="path2596"
             sodipodi:nodetypes="cccccccc" />
          <path
             style="fill:#252122;fill-opacity:1;fill-rule:evenodd;stroke:#000000;stroke-width:1.41732287;stroke-linecap:butt;stroke-linejoin:miter;stroke-miterlimit:4;stroke-dasharray:none;stroke-opacity:1"
             d="M 695.07056,482.60979 L 689.16044,468.38671 C 688.2362,471.61866 688.48579,472.78735 690.77399,482.44418 C 676.9209,478.15151 674.30787,465.83023 667.66625,456.38651 C 669.52736,463.47155 671.51515,470.57468 677.2699,478.21595 C 662.141,475.31753 660.30021,464.45726 653.21162,453.51853 C 654.92339,458.92672 654.50621,463.26967 658.32482,468.67786 C 642.58187,463.11007 639.42709,452.14736 635.21708,441.63689 C 633.90252,449.21035 637.74059,453.83945 640.11723,459.30366 C 627.0646,461.69384 626.1292,445.90817 621.45077,435.73704 C 620.3141,439.79013 621.98153,446.08651 623.61405,452.35495 C 611.95173,446.45647 610.80786,437.56129 607.68445,427.37892 C 606.84905,432.12359 606.61939,437.17112 609.15941,443.6035 C 596.76434,439.28234 593.28976,426.04068 588.50994,414.10426 C 588.16901,419.66318 588.98049,423.60486 591.01738,432.81989 C 570.07311,414.58927 563.00315,393.52401 565.89385,365.4305 C 569.73405,347.09155 581.54241,342.1962 601.7846,349.20592 C 593.2008,342.42576 575.69476,328.92145 559.37124,343.17496 C 547.5783,359.77078 552.1495,373.66693 555.56912,387.55494 L 541.99947,380.01624 L 562.32206,394.03552 C 564.77287,397.87965 563.99106,399.56871 563.30448,401.32125 L 554.35637,394.50365 L 570.12208,408.13886 C 570.21249,411.30239 570.0228,413.90569 567.99158,412.82596 L 555.63467,403.02565 L 573.10478,420.06966 C 574.83034,423.83341 572.6639,424.05898 570.54818,424.33066 L 562.87838,418.36526 C 566.95303,427.24121 577.59566,434.0404 582.47899,442.22687 C 583.59488,444.76819 582.50397,445.65441 580.77458,446.06177 C 577.79188,441.68047 574.80918,439.96231 571.82648,438.39197 L 583.33119,455.86208 C 584.15444,461.20834 582.04447,462.49322 578.21798,461.40138 C 573.45571,451.49869 559.2412,431.79878 558.19127,434.13097 C 563.85978,441.89626 569.29422,449.84879 569.69598,461.82748 C 568.13361,463.88513 565.7652,462.93061 564.20283,461.82748 L 566.38196,476.35857 L 572.15862,463.99919 C 580.3208,472.11126 588.85198,479.97733 598.08645,487.37454 C 603.61068,491.56797 605.8348,492.16322 611.38622,496.37539 L 642.91589,516.01677 C 674.76469,530.23234 694.8203,563.65102 706.64328,598.67492 C 708.74486,596.58692 710.59701,594.12476 711.97558,590.95224 C 710.63221,591.4686 717.2276,591.58837 716.39149,589.56842 C 720.69862,555.13497 714.59937,536.96985 706.30353,513.6949 C 706.30353,513.6949 696.00231,487.27199 695.07056,482.60979 z "
             id="path2604"
             sodipodi:nodetypes="ccccccccccccccccccccccccccccccccccccccccccccccc" />
          <path
             sodipodi:nodetypes="cc"
             style="fill:none;fill-opacity:0.75;fill-rule:evenodd;stroke:#000000;stroke-width:4.6062994;stroke-linecap:round;stroke-linejoin:miter;stroke-miterlimit:4;stroke-dasharray:none;stroke-opacity:1"
             d="M 522.44764,248.85703 C 518.04023,255.63653 509.96139,258.45413 503.54339,266.35452"
             id="path2606" />
          <path
             style="fill:none;fill-opacity:0.75;fill-rule:evenodd;stroke:#000000;stroke-width:3.54330707;stroke-linecap:round;stroke-linejoin:miter;stroke-miterlimit:4;stroke-dasharray:none;stroke-opacity:1"
             d="M 495.30145,266.12586 C 495.26711,272.43978 496.38285,277.60361 498.44123,281.8248"
             id="path2608"
             sodipodi:nodetypes="cc" />
          <path
             style="fill:none;fill-opacity:0.75;fill-rule:evenodd;stroke:#000000;stroke-width:4.25196838;stroke-linecap:round;stroke-linejoin:miter;stroke-miterlimit:4;stroke-dasharray:none;stroke-opacity:1"
             d="M 488.23692,276.72265 C 489.83165,282.85898 491.64466,288.88617 495.30145,293.99147"
             id="path2610"
             sodipodi:nodetypes="cc" />
          <path
             style="fill:none;fill-opacity:0.75;fill-rule:evenodd;stroke:#000000;stroke-width:4.6062994;stroke-linecap:round;stroke-linejoin:miter;stroke-miterlimit:4;stroke-dasharray:none;stroke-opacity:1"
             d="M 483.91972,287.7119 C 484.6685,294.6456 488.83872,301.57929 493.73155,308.51299"
             id="path2612"
             sodipodi:nodetypes="cc" />
          <path
             style="fill:none;fill-opacity:0.75;fill-rule:evenodd;stroke:#000000;stroke-width:1px;stroke-linecap:butt;stroke-linejoin:miter;stroke-opacity:1"
             d="M 479.60251,301.056 C 479.73333,301.056 479.86416,301.056 479.60251,301.056 z "
             id="path2614" />
          <path
             style="fill:none;fill-opacity:0.75;fill-rule:evenodd;stroke:#000000;stroke-width:4.25196838;stroke-linecap:round;stroke-linejoin:miter;stroke-miterlimit:4;stroke-dasharray:none;stroke-opacity:1"
             d="M 480.77993,305.3732 C 484.29253,315.728 488.43571,325.4522 496.08639,331.66892"
             id="path2616"
             sodipodi:nodetypes="cc" />
          <path
             style="fill:none;fill-opacity:0.75;fill-rule:evenodd;stroke:#000000;stroke-width:4.96062994;stroke-linecap:round;stroke-linejoin:miter;stroke-miterlimit:4;stroke-dasharray:none;stroke-opacity:1"
             d="M 489.41434,335.20119 C 493.49667,343.35393 498.59156,351.10165 507.8606,357.1797"
             id="path2618"
             sodipodi:nodetypes="cc" />
          <path
             style="fill:none;fill-opacity:0.75;fill-rule:evenodd;stroke:#000000;stroke-width:4.96062994;stroke-linecap:round;stroke-linejoin:miter;stroke-miterlimit:4;stroke-dasharray:none;stroke-opacity:1"
             d="M 504.72081,364.24422 C 509.25759,371.39289 514.57777,376.97476 521.20469,379.94315"
             id="path2620"
             sodipodi:nodetypes="cc" />
          <path
             style="fill:none;fill-opacity:0.75;fill-rule:evenodd;stroke:#000000;stroke-width:4.96062994;stroke-linecap:round;stroke-linejoin:miter;stroke-miterlimit:4;stroke-dasharray:none;stroke-opacity:1"
             d="M 516.88748,387.00768 C 521.98311,394.21606 525.98968,403.60258 532.97889,407.02382"
             id="path2622"
             sodipodi:nodetypes="cc" />
          <path
             style="fill:#ffffff;fill-opacity:1;fill-rule:evenodd;stroke:#000000;stroke-width:1px;stroke-linecap:butt;stroke-linejoin:miter;stroke-opacity:1"
             d="M 582.83275,431.3419 C 583.19152,440.57315 587.4717,448.40804 595.85017,453.36213 C 599.04708,451.5712 593.85825,440.22537 595.50233,436.31796 C 590.79519,437.63785 587.05739,433.15822 582.83275,431.3419 z "
             id="path2624"
             sodipodi:nodetypes="cccc" />
          <path
             style="fill:#ffffff;fill-opacity:1;fill-rule:evenodd;stroke:#000000;stroke-width:1px;stroke-linecap:butt;stroke-linejoin:miter;stroke-opacity:1"
             d="M 598.78091,439.99686 C 598.23428,454.87178 602.90322,465.35464 612.51488,471.67521 C 616.42421,468.29999 606.69426,451.23195 611.3119,445.61074 C 605.97128,445.29095 602.61614,442.32385 598.78091,439.99686 z "
             id="path2626"
             sodipodi:nodetypes="cccc" />
          <path
             style="fill:#ffffff;fill-opacity:1;fill-rule:evenodd;stroke:#000000;stroke-width:1px;stroke-linecap:butt;stroke-linejoin:miter;stroke-opacity:1"
             d="M 612.01623,446.66525 C 613.36755,458.93068 616.05169,475.10811 623.46768,476.43902 C 625.49064,470.90394 620.06578,455.58542 623.97663,454.29955 C 617.99648,453.74814 615.46447,449.74858 612.01623,446.66525 z "
             id="path2628"
             sodipodi:nodetypes="cccc" />
          <path
             style="fill:#ffffff;fill-opacity:1;fill-rule:evenodd;stroke:#000000;stroke-width:1px;stroke-linecap:butt;stroke-linejoin:miter;stroke-opacity:1"
             d="M 625.24902,455.57193 L 635.68256,462.95176 C 629.58591,463.21918 639.32415,478.9767 637.46389,486.87256 C 625.34953,483.96266 626.5758,467.68723 625.24902,455.57193 z "
             id="path2630"
             sodipodi:nodetypes="cccc" />
          <path
             style="fill:#ffffff;fill-opacity:1;fill-rule:evenodd;stroke:#000000;stroke-width:1px;stroke-linecap:butt;stroke-linejoin:miter;stroke-opacity:1"
             d="M 636.70046,462.4428 C 640.99618,459.63847 644.78522,462.40763 648.40639,467.02338 C 641.5752,474.18352 656.89701,494.18428 655.78621,499.08743 C 643.63204,499.15483 633.15028,468.5127 636.70046,462.4428 z "
             id="path2632"
             sodipodi:nodetypes="cccc" />
          <path
             style="fill:#ffffff;fill-opacity:1;fill-rule:evenodd;stroke:#000000;stroke-width:1px;stroke-linecap:butt;stroke-linejoin:miter;stroke-opacity:1"
             d="M 649.67877,468.04129 C 648.02695,483.94235 660.13521,504.10437 675.88986,511.30231 C 679.36571,508.19001 657.94701,489.08146 661.63917,470.58605 C 658.73102,470.81644 657.65136,472.87534 649.67877,468.04129 z "
             id="path2634"
             sodipodi:nodetypes="cccc" />
          <path
             style="fill:#ffffff;fill-opacity:1;fill-rule:evenodd;stroke:#000000;stroke-width:1px;stroke-linecap:butt;stroke-linejoin:miter;stroke-opacity:1"
             d="M 663.67498,473.89425 C 669.18864,479.26029 674.7023,479.75396 680.21596,480.51064 C 676.99594,486.58176 693.16043,510.81693 691.66741,516.39185 C 672.24698,504.77585 665.48715,490.92817 663.67498,473.89425 z "
             id="path2636"
             sodipodi:nodetypes="cccc" />
          <path
             style="fill:#ffffff;fill-opacity:1;fill-rule:evenodd;stroke:#000000;stroke-width:1px;stroke-linecap:butt;stroke-linejoin:miter;stroke-opacity:1"
             d="M 681.9973,480.76512 C 685.84165,482.28555 689.97377,485.53257 693.19427,483.30988 L 705.9181,520.20899 C 695.06431,524.50014 686.27355,495.21002 680.72492,481.27407"
             id="path2638"
             sodipodi:nodetypes="cccc" />
          <path
             style="fill:#d6ac00;fill-opacity:1;fill-rule:evenodd;stroke:#000000;stroke-width:3.18897629;stroke-linecap:butt;stroke-linejoin:miter;stroke-miterlimit:4;stroke-dasharray:none;stroke-opacity:1"
             d="M 392.10388,180.1317 L 483.19872,180.1317 C 492.07447,183.47984 489.91073,196.67318 497.72109,202.57536 C 458.33195,195.85476 421.57021,188.65645 392.10388,180.1317 z "
             id="path2592"
             sodipodi:nodetypes="cccc" />
          <path
             style="fill:none;fill-opacity:0.75;fill-rule:evenodd;stroke:#504e4b;stroke-width:2.77086616;stroke-linecap:round;stroke-linejoin:miter;stroke-miterlimit:4;stroke-dasharray:none;stroke-opacity:1"
             d="M 447.12089,186.1863 L 474.30033,185.8035"
             id="path2598"
             sodipodi:nodetypes="cc" />
          <path
             sodipodi:type="arc"
             style="opacity:1;fill:#feffff;fill-opacity:1;fill-rule:nonzero;stroke:#000000;stroke-width:2.06388211;stroke-linecap:round;stroke-linejoin:miter;stroke-miterlimit:4;stroke-dasharray:none;stroke-dashoffset:0;stroke-opacity:1"
             id="path2600"
             sodipodi:cx="501.67117"
             sodipodi:cy="191.35423"
             sodipodi:rx="8.2303934"
             sodipodi:ry="4.7851124"
             d="M 509.90157 191.35423 A 8.2303934 4.7851124 0 1 1  493.44078,191.35423 A 8.2303934 4.7851124 0 1 1  509.90157 191.35423 z"
             transform="matrix(0.553285,0.000000,0.000000,0.864615,221.4927,23.99236)" />
          <path
             sodipodi:type="arc"
             style="opacity:1;fill:#000000;fill-opacity:1;fill-rule:nonzero;stroke:#000000;stroke-width:1.61929131;stroke-linecap:round;stroke-linejoin:miter;stroke-miterlimit:4;stroke-dasharray:none;stroke-dashoffset:0;stroke-opacity:1"
             id="path2602"
             sodipodi:cx="512.96405"
             sodipodi:cy="157.85844"
             sodipodi:rx="1.5312359"
             sodipodi:ry="1.5312359"
             d="M 514.49529 157.85844 A 1.5312359 1.5312359 0 1 1  511.43281,157.85844 A 1.5312359 1.5312359 0 1 1  514.49529 157.85844 z"
             transform="translate(-14.54674,31.39034)" />
        </g>
        <path
           sodipodi:nodetypes="cccccc"
           id="path3231"
           d="M 1437.7155,518.56458 C 1442.0067,515.9326 1450.6035,527.40979 1457.1687,522.52431 C 1459.5677,528.05453 1460.9792,535.3661 1462.6047,541.40406 C 1465.3749,556.04474 1467.2745,567.17167 1464.3616,587.66863 L 1459.3837,598.20993 C 1462.1207,560.75319 1451.1921,538.26361 1437.7155,518.56458 z "
           style="fill:#ffffff;fill-opacity:1;fill-rule:evenodd;stroke:#000000;stroke-width:1px;stroke-linecap:butt;stroke-linejoin:miter;stroke-opacity:1" />
      </g>
      <g
         id="g3281"
         transform="translate(755.0933,0.000000)">
        <path
           style="fill:#fdaf17;fill-opacity:1;fill-rule:evenodd;stroke:#010000;stroke-width:1.77165353;stroke-linecap:butt;stroke-linejoin:miter;stroke-miterlimit:4;stroke-dasharray:none;stroke-opacity:1"
           d="M 587.8667,479.35893 L 605.18686,491.58493 C 587.56843,498.78287 607.82967,524.56958 591.43261,530.30059 C 594.23945,529.83154 596.96696,528.72788 599.07386,522.65934 C 599.12541,531.06755 595.23079,540.87292 590.41378,542.01717 C 596.87323,539.85919 596.06182,536.9288 598.05503,533.8665 C 589.27476,560.68869 586.32364,586.67813 582.26312,612.82607 C 583.02342,620.35402 577.02238,629.24138 588.79719,632.23395 C 599.90028,633.96235 610.20161,626.03806 613.84694,631.67448 L 612.82811,639.31573 C 609.88094,641.67932 607.09849,639.51067 599.52012,639.00528 C 591.41616,638.46484 581.40898,638.22326 577.67837,635.74981 C 567.60535,636.62913 553.66372,650.84327 538.45329,650.01348 C 534.67385,651.41058 532.72577,652.69924 528.24021,651.97794 L 526.06628,645.22301 C 531.71237,643.07963 535.92364,646.25723 540.75377,645.40388 C 546.36828,644.41194 552.11357,641.80109 558.32054,639.31573 C 517.1813,642.56133 520.06726,639.16014 509.78169,641.58602 C 505.02674,643.79586 500.58197,644.14462 496.53686,642.09544 L 494.92026,635.42296 C 501.35645,632.487 508.49167,631.78652 517.0578,635.2404 C 522.97877,638.00411 536.65703,635.34726 546.67902,634.69345 C 543.04995,630.79712 534.68208,629.18091 524.69905,628.10856 L 519.09546,628.61798 L 519.60488,621.48615 C 525.83585,621.10902 532.40036,622.06602 539.98154,627.08973 C 549.49927,628.97484 566.08976,634.81713 571.05595,622.50498 C 576.10715,598.34963 582.37137,575.4073 582.26312,546.0925 C 580.96414,536.7532 580.17204,531.14189 584.8102,521.27002 C 591.96021,510.81727 586.93897,492.30059 587.8667,479.35893 z "
           id="path3261"
           sodipodi:nodetypes="ccccccccccsccccscccccccccccccc" />
        <path
           style="fill:#000000;fill-opacity:1;fill-rule:evenodd;stroke:#000000;stroke-width:1px;stroke-linecap:butt;stroke-linejoin:miter;stroke-opacity:1"
           d="M 519.54185,622.12123 C 517.67,619.43548 504.15961,623.32808 504.31819,627.24191 C 509.15533,624.86107 514.34353,626.34176 519.54185,627.9339 L 519.54185,622.12123 z "
           id="path3263"
           sodipodi:nodetypes="cccc" />
        <path
           style="fill:#000000;fill-opacity:1;fill-rule:evenodd;stroke:#000000;stroke-width:1px;stroke-linecap:butt;stroke-linejoin:miter;stroke-opacity:1"
           d="M 495.184,635.96091 L 496.29117,642.18878 C 488.75898,641.00851 484.61703,642.93597 481.48271,645.78709 C 484.34423,641.37464 485.97995,636.14501 495.184,635.96091 z "
           id="path3265"
           sodipodi:nodetypes="cccc" />
        <path
           style="fill:#000000;fill-opacity:1;fill-rule:evenodd;stroke:#000000;stroke-width:1px;stroke-linecap:butt;stroke-linejoin:miter;stroke-opacity:1"
           d="M 526.18489,645.6487 C 518.13026,647.6732 515.96051,651.86582 514.83635,656.44365 C 518.33123,652.68234 522.78234,651.02476 528.12245,651.32297 L 526.18489,645.6487 z "
           id="path3267"
           sodipodi:nodetypes="cccc" />
        <path
           style="fill:#000000;fill-opacity:1;fill-rule:evenodd;stroke:#000000;stroke-width:1px;stroke-linecap:butt;stroke-linejoin:miter;stroke-opacity:1"
           d="M 614.81408,632.49119 C 623.1038,632.99758 626.00861,636.71886 627.95667,641.01135 C 623.82882,637.95805 619.14857,637.14861 613.95474,638.42525 L 614.81408,632.49119 z "
           id="path3269"
           sodipodi:nodetypes="cccc" />
      </g>
      <g
         transform="matrix(0.990952,-0.134212,0.134212,0.990952,705.1874,101.0856)"
         id="g3288">
        <path
           sodipodi:nodetypes="ccccccccccsccccscccccccccccccc"
           id="path3290"
           d="M 588.67596,448.65137 L 608.92907,463.95436 C 594.99057,473.66051 607.82967,524.56958 591.43261,530.30059 C 594.23945,529.83154 596.96696,528.72788 599.07386,522.65934 C 599.12541,531.06755 595.23079,540.87292 590.41378,542.01717 C 596.87323,539.85919 596.06182,536.9288 598.05503,533.8665 C 589.27476,560.68869 585.51837,592.62385 581.45785,618.77179 C 582.21815,626.29974 576.21711,635.1871 587.99192,638.17967 C 599.09501,639.90807 609.39634,631.98378 613.04167,637.6202 L 612.02284,645.26145 C 609.07567,647.62504 606.29322,645.45639 598.71485,644.951 C 590.61089,644.41056 580.60371,644.16898 576.8731,641.69553 C 566.80008,642.57485 554.27361,654.20955 538.28686,657.53786 C 534.50742,658.93496 533.32245,662.4586 528.83689,661.7373 L 526.66296,654.98237 C 532.30905,652.83899 536.33805,655.37814 540.58734,652.92826 C 545.14437,650.30096 551.3083,647.74681 557.51527,645.26145 C 516.37603,648.50705 519.26199,645.10586 508.97642,647.53174 C 504.22147,649.74158 499.7767,650.09034 495.73159,648.04116 L 494.11499,641.36868 C 500.55118,638.43272 507.6864,637.73224 516.25253,641.18612 C 522.1735,643.94983 535.85176,641.29298 545.87375,640.63917 C 542.24468,636.74284 533.87681,635.12663 523.89378,634.05428 L 518.29019,634.5637 L 518.79961,627.43187 C 525.03058,627.05474 531.59509,628.01174 539.17627,633.03545 C 548.694,634.92056 565.28449,640.76285 570.25068,628.4507 C 575.30188,604.29535 582.37137,575.4073 582.26312,546.0925 C 580.96414,536.7532 580.17204,531.14189 584.8102,521.27002 C 592.31661,508.18579 591.60636,462.78551 588.67596,448.65137 z "
           style="fill:#fdaf17;fill-opacity:1;fill-rule:evenodd;stroke:#010000;stroke-width:1.77165353;stroke-linecap:butt;stroke-linejoin:miter;stroke-miterlimit:4;stroke-dasharray:none;stroke-opacity:1" />
        <path
           sodipodi:nodetypes="cccc"
           id="path3292"
           d="M 518.73659,628.06693 C 516.86474,625.38118 503.35435,629.27378 503.51293,633.18761 C 508.35007,630.80677 513.53827,632.28746 518.73659,633.8796 L 518.73659,628.06693 z "
           style="fill:#000000;fill-opacity:1;fill-rule:evenodd;stroke:#000000;stroke-width:1px;stroke-linecap:butt;stroke-linejoin:miter;stroke-opacity:1" />
        <path
           sodipodi:nodetypes="cccc"
           id="path3294"
           d="M 494.37874,641.90661 L 495.48591,648.13448 C 487.95372,646.95421 483.81177,648.88167 480.67745,651.73279 C 483.53897,647.32034 485.17469,642.09071 494.37874,641.90661 z "
           style="fill:#000000;fill-opacity:1;fill-rule:evenodd;stroke:#000000;stroke-width:1px;stroke-linecap:butt;stroke-linejoin:miter;stroke-opacity:1" />
        <path
           sodipodi:nodetypes="cccc"
           id="path3296"
           d="M 526.12526,655.5323 C 518.07063,657.5568 515.90088,661.74942 514.77672,666.32725 C 518.2716,662.56594 522.72271,660.90836 528.06282,661.20657 L 526.12526,655.5323 z "
           style="fill:#000000;fill-opacity:1;fill-rule:evenodd;stroke:#000000;stroke-width:1px;stroke-linecap:butt;stroke-linejoin:miter;stroke-opacity:1" />
        <path
           sodipodi:nodetypes="cccc"
           id="path3298"
           d="M 614.00882,638.43689 C 622.29854,638.94328 625.20335,642.66456 627.15141,646.95705 C 623.02356,643.90375 618.34331,643.09431 613.14948,644.37095 L 614.00882,638.43689 z "
           style="fill:#000000;fill-opacity:1;fill-rule:evenodd;stroke:#000000;stroke-width:1px;stroke-linecap:butt;stroke-linejoin:miter;stroke-opacity:1" />
      </g>
    </g>
  </g>
</svg>
