<?xml version="1.0" encoding="utf-8"?>
<!-- Generator: Adobe Illustrator 27.0.0, SVG Export Plug-In . SVG Version: 6.00 Build 0)  -->
<svg version="1.1" id="Warstwa_1" xmlns="http://www.w3.org/2000/svg" xmlns:xlink="http://www.w3.org/1999/xlink" x="0px" y="0px"
	 viewBox="0 0 1491.5 515" style="enable-background:new 0 0 1491.5 515;" xml:space="preserve">
<style type="text/css">
	.st0{fill-rule:evenodd;clip-rule:evenodd;fill:#FFC800;stroke:#000000;stroke-width:2;}
	.st1{fill-rule:evenodd;clip-rule:evenodd;fill:#00AB4E;stroke:#000000;stroke-width:2;}
	.st2{fill-rule:evenodd;clip-rule:evenodd;fill:#00AC4E;stroke:#000000;stroke-width:2;}
	.st3{fill-rule:evenodd;clip-rule:evenodd;fill:#0E8D49;stroke:#000000;stroke-width:2;}
	.st4{stroke:#000000;stroke-width:2;stroke-linecap:round;}
	.st5{fill:none;stroke:#000000;stroke-width:2;}
	.st6{fill-rule:evenodd;clip-rule:evenodd;fill:#FFFFFF;stroke:#000000;stroke-width:2;}
	.st7{fill-rule:evenodd;clip-rule:evenodd;fill:#252122;stroke:#000000;stroke-width:2;}
	.st8{fill:none;stroke:#000000;stroke-width:2;stroke-linecap:round;}
	.st9{fill-rule:evenodd;clip-rule:evenodd;fill:#D6AC00;stroke:#000000;stroke-width:2;}
	.st10{fill:none;stroke:#504E4B;stroke-width:2;stroke-linecap:round;}
	.st11{fill:#FEFFFF;stroke:#000000;stroke-width:2;stroke-linecap:round;}
	.st12{fill-rule:evenodd;clip-rule:evenodd;fill:#FDAF17;stroke:#010000;stroke-width:2;}
	.st13{fill-rule:evenodd;clip-rule:evenodd;stroke:#000000;stroke-width:2;}
	.st14{fill-rule:evenodd;clip-rule:evenodd;fill:#FDAF17;stroke:#010000;stroke-width:2;stroke-miterlimit:4;}
	.st15{fill-rule:evenodd;clip-rule:evenodd;stroke:#000000;stroke-width:2;stroke-miterlimit:4;}
</style>
<g id="g3342" transform="translate(-752.3692,0.000000)">
	<g id="g3141">
		<path id="path1334" class="st0" d="M965.8,4L758.22,5.04v311.9c8.59,101.09,96.79,196.18,207.58,192.98V4z"/>
		<path id="path2482" class="st1" d="M847.12,122.29l0.3-16.14c0.31-6.51-3.57-7.28-6.57-5.08c-3.34,2.45-6.02,0.25-4.78-8.67
			c1.75-11.37-5.94-13.32-8.37-8.37c-3.75,6.22-6.34,0.92-5.08-5.98c1.3-11.67-6.16-14.72-10.16-7.77
			c-4.09,5.36-6.45,4.28-7.47-1.79c-0.27-5.43-5.23-5.39-10.16-5.38c-5.41,0.87-8.43,4.12-9.86,8.97c-1.18,6.5,1.62,9.22,6.28,10.16
			c5.54-0.21,9.2,3.99,1.79,8.07c-6.48,4.08-6.89,10.38,6.57,9.86c13.07-2.23,10.49,3.77,7.17,4.78
			c-7.27,3.88-0.45,10.04,10.16,8.37c10.52-1.28,13.09,3.21,9.26,4.78c-4.77,4.36-0.12,8.31,8.07,6.28
			C838.65,123.49,843.01,122.64,847.12,122.29z"/>
		<path id="path2486" class="st1" d="M847.01,232.47l0.33-17.63c0.34-7.12-3.94-7.96-7.26-5.55c-3.69,2.68-6.64,0.28-5.28-9.47
			c1.93-12.43-6.56-14.56-9.24-9.14c-4.14,6.8-7,1.01-5.61-6.53c1.43-12.76-6.8-16.08-11.22-8.49c-4.52,5.86-7.12,4.68-8.25-1.96
			c-0.29-5.94-5.78-5.89-11.22-5.88c-5.97,0.95-9.31,4.5-10.89,9.8c-1.31,7.11,1.79,10.07,6.93,11.1c6.12-0.23,10.16,4.36,1.98,8.82
			c-7.16,4.46-7.61,11.34,7.26,10.78c14.43-2.44,11.58,4.12,7.92,5.22c-8.03,4.24-0.5,10.97,11.22,9.14
			c11.61-1.4,14.46,3.51,10.23,5.22c-5.27,4.77-0.13,9.08,8.91,6.86C837.66,233.77,842.47,232.85,847.01,232.47z"/>
		<path id="path2488" class="st1" d="M848.06,315.98l-4.82-16.18c-1.76-6.59-5.96-6.16-8.34-3.03c-2.64,3.47-6.07,2.11-7.65-7.16
			c-1.83-11.88-10.31-11.45-11.22-5.76c-1.86,7.36-6.19,2.88-7.1-4.39c-2.38-12.04-10.98-12.77-12.87-4.61
			c-2.48,6.61-5.24,6.26-8.21,0.52c-2-5.34-7.06-3.76-12.11-2.22c-5.26,2.54-7.32,6.71-7.24,11.99c0.86,6.85,4.58,8.69,9.65,8.19
			c5.6-1.92,10.68,1.13,4.4,7.49c-5.33,6.07-3.75,12.48,9.86,7.8c12.66-6.26,11.93,0.51,8.86,2.55c-6.21,6.11,2.73,10.15,13.06,5.2
			c10.35-4.53,14.42-0.84,11,1.91c-3.5,5.83,2.52,8.32,10.25,3.76C839.78,319.79,843.97,317.6,848.06,315.98z"/>
		<path id="path2490" class="st1" d="M873.67,126.26l2.62-15.93c0.87-6.46,4.82-6.52,7.38-3.81c2.85,3.01,5.87,1.34,6.27-7.66
			c0.34-11.5,8.25-12.03,9.74-6.72c2.56,6.79,6.07,2.05,6.08-4.96c0.83-11.72,8.72-13.36,11.4-5.81c3.05,6.01,5.57,5.38,7.67-0.41
			c1.24-5.3,6.12-4.35,10.97-3.45c5.16,1.83,7.55,5.57,8.08,10.6c-0.01,6.61-3.26,8.78-8.01,8.86c-5.41-1.21-9.77,2.26-3.22,7.61
			c5.64,5.19,4.9,11.46-8.25,8.51c-12.45-4.55-11,1.81-7.92,3.41c6.45,5.13-1.37,9.96-11.51,6.39c-10.11-3.16-13.46,0.79-9.98,3.03
			c3.91,5.15-1.38,8.19-9.07,4.71C881.78,128.96,877.64,127.35,873.67,126.26z"/>
		<path id="path2492" class="st1" d="M880.88,223.56l1.18-17.6c0.27-7.12,4.6-7.59,7.71-4.91c3.45,2.98,6.6,0.84,6.07-8.98
			c-0.86-12.55,7.78-13.95,9.99-8.32c3.54,7.13,6.89,1.6,6.15-6.03c-0.34-12.83,8.15-15.44,11.91-7.5c4,6.22,6.7,5.27,8.39-1.25
			c0.8-5.89,6.26-5.37,11.68-4.9c5.87,1.45,8.89,5.28,10.01,10.69c0.69,7.19-2.64,9.88-7.85,10.47c-6.08-0.75-10.5,3.47-2.73,8.62
			c6.75,5.06,6.61,11.95-8.16,10.12c-14.17-3.66-11.89,3.11-8.34,4.53c7.64,4.91-0.44,10.97-11.96,8.15
			c-11.45-2.39-14.71,2.26-10.64,4.33c4.84,5.2-0.64,9.05-9.46,6.07C890.08,225.66,885.37,224.33,880.88,223.56z"/>
		<path id="path2221" class="st2" d="M858.65,106.83l-0.04,24.97c-19.81-21.84-39.69-44.44-64.56-59.37
			c22.49,20,42.27,41.36,61.87,62.8l-9.96-5.49l-2.35,2.54c5.07,3.79,12.79,6.69,11.73,12.52l-6.06-2.35l-0.78,3.13
			c3.65,2.12,7.79,3.9,6.45,9.58l-0.2,14.08l-2.54,2.35l-10.56-10.37l-2.35,3.32l13.1,13.89l-8.61-4.11l-0.98,2.93
			c5.4,3.05,11.02,5.83,12.13,13.89l-1.76,46.35c-18.66-19.16-39.07-41.91-61.21-56.91l62,64.15l-7.43-5.08l-2.93,2.93
			c5.96,1.95,10.04,6.2,9.39,16.23l0.2,9l-11.54-8.02l-0.98,4.89l13.49,9.97l-8.8-1.76l-1.56,3.13c5.37,0.59,9.48,2.9,9,11.54
			l-0.39,27.18c-23.4-12.33-46.81-20.79-70.21-28.75l64.34,32.27l4.89,9.39v32.07c-0.58,13.69-4.69,40.07-11.15,40.48l-6.84,0.59
			c-2.52,2.25-5.37,1.92-8.41,0c-6.23-5.22-9.51-1.98-12.13,3.13c2.84-1.5,5.65-3.32,9-0.78l6.06-0.59
			c-10.07,1.49-7.59,7.62-8.41,12.52c3.71-8.52,9.97-8.13,15.65-9.78c10.67,2.36,12.67-4.53,15.84-10.17
			c-2.47,5.51-2.73,12.56-11.54,13.69c-9.17-0.99-9.61,4.32-9.58,9.97c1.03-6.09,8.78-8.16,14.67-11.34
			c-6.2,5.04-9.18,9.69-7.04,13.69c2.71-4.42,5.08-9.34,9.78-10.76c4.38-2.14,6.42-6.62,8.8-10.76c0.88,4,2.34,8.15-0.78,11.15
			c-2.12,4.68-0.2,8.02,0.59,11.73c0.99-7.63,4.94-11.32,9-14.86c-4.33,6.13-1.77,9.68,2.15,12.71c-0.74-4.33-0.73-8.44,2.15-11.73
			c-0.6-4.53,0.8-7.72,3.32-10.17c3.84,7.85,4.48,16.76,5.28,25.62c1.08-3.39,3.1-6.4,1.76-10.76c4.35,1.72,6.9,5.68,9.19,9.97
			c0.76-8.75-9.92-13.04-10.56-24.84c2.24,4.3,1.73,11.85,9.19,9.97c6.01-0.03,7.08,3.08,7.43,6.65c-1.37,3.68,0.86,5.57,4.69,6.65
			c-1.5-2.9-2.73-5.97-2.15-9.39c3.82,0.27,5.34,7.99,9,9.39c1.72,0.23,3.08,0.08,2.74-1.76c-4.7-2.2-6.44-11.47-10.76-11.15
			c-4.39-1.47-7.06-4.22-9.39-7.24c7.44-4.47,12.06-1.39,16.43,2.35c4.32,4.48,12.24,7.46,10.95,14.28l1.76,0.2l1.56-4.89
			c2.12,3.62,4.15,7.25,8.8,10.37l3.52-0.98c-3.33-2.79-5.73-5.95-6.45-9.78c-1.17-2.16-1.72-4.83-5.87-4.5
			c-5.51-1.61-8.11-4.68-10.56-7.82c-4.17-5-9.59-6.59-15.84-5.87c-14.34-0.59-10.18-10.43-13.3-16.62l0.05-38.03
			c2.62-8.78,8.05-11.93,13.55-14.94c-5.91-1.07-11.69-0.61-16.87,6.36l-0.55-55.87c3.58-8.34,8.53-13.25,13.55-17.98l-2.49-5.53
			l-10.51,11.89l-3.04-1.38c-3.11-18.87,5.1-21.89,12.72-25.72l-1.38-4.43l-10.79,7.47c18.95-23.63,40.35-45.78,66.66-65
			c-23.61,13.82-50.4,32.32-70.53,58.63v-48.95c2-6.37,6.37-8.8,10.51-11.62l-2.21-3.6l-7.19,3.32l16.32-14.66l-2.49-4.7
			l-17.98,15.21l0.83-19.36c1.04-5.47,4.27-6.58,6.64-9.4l-1.94-3.87l-5.26,3.87c19.86-22.06,45.77-37.2,70.53-53.66
			c-28.36,13.13-55.7,27.57-76.06,50.89l1.38-30.42L858.65,106.83z"/>
		<path id="path2494" class="st1" d="M877.26,313.17l3.55-16.51c1.24-6.71,5.46-6.61,8.08-3.68c2.91,3.26,6.22,1.63,7.06-7.74
			c0.89-11.99,9.38-12.22,10.74-6.62c2.43,7.19,6.4,2.39,6.73-4.93c1.44-12.19,9.95-13.59,12.47-5.6c2.99,6.39,5.71,5.83,8.23-0.12
			c1.58-5.48,6.75-4.3,11.89-3.16c5.44,2.12,7.82,6.12,8.15,11.38c-0.32,6.9-3.89,9.02-8.98,8.92c-5.74-1.48-10.56,1.96-3.8,7.81
			c5.79,5.64,4.71,12.15-9.22,8.55c-13.11-5.25-11.85,1.45-8.63,3.24c6.67,5.61-1.93,10.33-12.61,6.21
			c-10.67-3.7-14.44,0.29-10.82,2.76c3.94,5.53-1.86,8.49-9.92,4.55C885.81,316.32,881.46,314.47,877.26,313.17z"/>
		<path id="path2225" class="st2" d="M869.25,318.7c20.78-17.55,46.32-28.46,70.53-41.21c-24.25,14.29-47.98,28.99-68.59,46.19"/>
		<path id="path2293" class="st1" d="M849.56,90.49l25.31,0.8c-0.16-11.72,4.34-32.9-11.45-34.63
			C847.8,58.2,850.31,75.42,849.56,90.49z"/>
		<path id="path2227" class="st3" d="M845.73,90.52h33.13c-0.67,9.25-4.07,17.24-17.83,17.62
			C845.3,106.88,845.97,96.61,845.73,90.52z"/>
		<path id="path2229" class="st3" d="M870.7,90.75l6.43,6.97"/>
		<path id="path2231" class="st3" d="M862.86,90.8l11.87,11.51"/>
		<path id="path2233" class="st3" d="M854.96,90.31l15.5,15.5"/>
		<path id="path2235" class="st3" d="M847.86,90.59l16.74,16.91"/>
		<path id="path2237" class="st3" d="M845.52,94.92C845.66,94.92,845.8,94.92,845.52,94.92z"/>
		<path id="path2239" class="st3" d="M845.94,94.92l11.53,12.37"/>
		<path id="path2241" class="st3" d="M876.42,90.32l-17.73,17.09"/>
		<path id="path2243" class="st3" d="M869.42,90.57l-15.84,15.41"/>
		<path id="path2245" class="st3" d="M862.78,90.57l-13.07,12.53"/>
		<path id="path2247" class="st3" d="M855.17,90.31l-8.39,8.6"/>
		<path id="path2249" class="st3" d="M848.19,90.69l-2.46,2.98"/>
		<path id="path2291" class="st3" d="M877.81,95.9l-12.17,11.61"/>
		<path id="path2295" class="st4" d="M865.02,55.19c0,0.66-0.6,1.2-1.33,1.2s-1.33-0.54-1.33-1.2s0.6-1.2,1.33-1.2
			S865.02,54.53,865.02,55.19z"/>
		<path id="path2316" class="st1" d="M817.44,165.31l17.05-22.35c-9.63-6.68-23.93-23.08-35.57-9.85
			C790.05,148.09,805.68,155.86,817.44,165.31z"/>
		<g id="g3070">
			<path id="path2320" class="st3" d="M816.06,167.3l19.32-26.92c7.12,5.93,11.63,13.36,3.92,24.75
				C829.1,177.19,821.15,170.66,816.06,167.3z"/>
			<path id="path2322" class="st3" d="M830.81,147.15l9.42-1.16"/>
			<path id="path2324" class="st3" d="M826.28,153.55l16.27-2.93"/>
			<path id="path2326" class="st3" d="M821.27,159.68l21.63-3.55"/>
			<path id="path2328" class="st3" d="M817.36,165.61l23.5-3.74"/>
			<path id="path2330" class="st3" d="M819.51,170.04C819.59,169.93,819.68,169.81,819.51,170.04z"/>
			<path id="path2332" class="st3" d="M819.76,169.7l16.78-2.15"/>
			<path id="path2334" class="st3" d="M833.8,142.25l3.54,24.37"/>
			<path id="path2336" class="st3" d="M829.92,148.09l3.28,21.85"/>
			<path id="path2338" class="st3" d="M826.04,153.48l2.56,17.92"/>
			<path id="path2340" class="st3" d="M821.39,159.51l2.09,11.83"/>
			<path id="path2342" class="st3" d="M817.63,165.4l0.98,3.74"/>
			<path id="path2344" class="st3" d="M839.14,144.38l2.34,16.66"/>
		</g>
		<path id="path2348" class="st1" d="M908.29,163.09l-13.18-26.03c10.79-4.62,27.93-17.95,37.29-2.21
			C938.67,151.75,921.69,156.16,908.29,163.09z"/>
		<path id="path2352" class="st3" d="M908.96,164.94l-13.86-30.1c-8.12,4.47-13.96,10.91-8.55,23.56
			C894.28,172.17,903.32,167.27,908.96,164.94z"/>
		<path id="path2354" class="st3" d="M898.3,142.36l-9.02-2.93"/>
		<path id="path2356" class="st3" d="M901.53,149.5l-15.42-5.96"/>
		<path id="path2358" class="st3" d="M905.29,156.47l-20.56-7.6"/>
		<path id="path2360" class="st3" d="M908,163.03l-22.36-8.13"/>
		<path id="path2362" class="st3" d="M905.05,166.97C904.99,166.85,904.93,166.72,905.05,166.97z"/>
		<path id="path2364" class="st3" d="M904.87,166.59l-16.06-5.3"/>
		<path id="path2366" class="st3" d="M896.3,136.97l-8.11,23.25"/>
		<path id="path2368" class="st3" d="M899,143.44l-7.38,20.83"/>
		<path id="path2370" class="st3" d="M901.78,149.47l-5.92,17.11"/>
		<path id="path2372" class="st3" d="M905.2,156.28l-4.3,11.22"/>
		<path id="path2374" class="st3" d="M907.77,162.77l-1.67,3.48"/>
		<path id="path2376" class="st3" d="M890.66,138.05l-5.46,15.91"/>
		<path id="path2380" class="st1" d="M909.82,261.57l-12.36-25.25c10.79-4.57,28.11-17.68,36.95-2.42
			C940.17,250.3,923.26,254.73,909.82,261.57z"/>
		<g id="g3126">
			<path id="path2384" class="st3" d="M910.73,263.86l-13.56-30.23c-8.17,4.39-14.07,10.77-8.78,23.47
				C895.98,270.94,905.07,266.13,910.73,263.86z"/>
			<path id="path2386" class="st3" d="M900.3,241.17l-8.99-3.02"/>
			<path id="path2388" class="st3" d="M903.46,248.34l-15.36-6.12"/>
			<path id="path2390" class="st3" d="M907.15,255.35l-20.48-7.8"/>
			<path id="path2392" class="st3" d="M909.79,261.94l-22.28-8.35"/>
			<path id="path2394" class="st3" d="M906.8,265.85C906.74,265.72,906.69,265.59,906.8,265.85z"/>
			<path id="path2396" class="st3" d="M906.63,265.47l-16.01-5.46"/>
			<path id="path2398" class="st3" d="M898.35,235.77l-8.34,23.17"/>
			<path id="path2400" class="st3" d="M900.99,242.26l-7.58,20.76"/>
			<path id="path2402" class="st3" d="M903.71,248.32l-6.09,17.05"/>
			<path id="path2404" class="st3" d="M907.06,255.16l-4.41,11.17"/>
			<path id="path2406" class="st3" d="M909.57,261.68l-1.71,3.47"/>
			<path id="path2408" class="st3" d="M892.69,236.78l-5.62,15.86"/>
		</g>
		<path id="path2444" class="st1" d="M818.43,269.94l12.36-25.25c-10.79-4.57-28.11-17.68-36.95-2.42
			C788.08,258.67,804.99,263.1,818.43,269.94z"/>
		<g id="g3098">
			<path id="path2448" class="st3" d="M817.52,272.22l13.56-30.23c8.17,4.39,14.07,10.77,8.78,23.47
				C832.27,279.31,823.18,274.5,817.52,272.22z"/>
			<path id="path2450" class="st3" d="M827.95,249.54l8.99-3.02"/>
			<path id="path2452" class="st3" d="M824.79,256.71l15.36-6.12"/>
			<path id="path2454" class="st3" d="M821.1,263.72l20.48-7.8"/>
			<path id="path2456" class="st3" d="M818.46,270.31l22.28-8.35"/>
			<path id="path2458" class="st3" d="M821.45,274.22C821.51,274.09,821.56,273.96,821.45,274.22z"/>
			<path id="path2460" class="st3" d="M821.62,273.83l16.01-5.46"/>
			<path id="path2462" class="st3" d="M829.9,244.13l8.34,23.17"/>
			<path id="path2464" class="st3" d="M827.26,250.63l7.58,20.76"/>
			<path id="path2466" class="st3" d="M824.54,256.68l6.09,17.05"/>
			<path id="path2468" class="st3" d="M821.19,263.53l4.41,11.17"/>
			<path id="path2470" class="st3" d="M818.68,270.04l1.71,3.47"/>
			<path id="path2472" class="st3" d="M835.56,245.15l5.62,15.86"/>
		</g>
		<path id="path2474" class="st4" d="M935.25,134.69c0,0.66-0.6,1.2-1.33,1.2c-0.74,0-1.33-0.54-1.33-1.2s0.6-1.2,1.33-1.2
			S935.25,134.02,935.25,134.69z"/>
		<path id="path2476" class="st4" d="M799.57,131.7c0,0.66-0.6,1.2-1.33,1.2c-0.74,0-1.33-0.54-1.33-1.2s0.6-1.2,1.33-1.2
			C798.97,130.5,799.57,131.03,799.57,131.7z"/>
		<path id="path2478" class="st4" d="M795.38,241.08c0,0.66-0.6,1.2-1.33,1.2c-0.74,0-1.33-0.54-1.33-1.2s0.6-1.2,1.33-1.2
			C794.79,239.88,795.38,240.41,795.38,241.08z"/>
		<path id="path2480" class="st4" d="M936.14,235.4c0,0.66-0.6,1.2-1.33,1.2c-0.74,0-1.33-0.54-1.33-1.2s0.6-1.2,1.33-1.2
			C935.55,234.2,936.14,234.74,936.14,235.4z"/>
		<path id="path2484" class="st5" d="M822.32,76.87h-0.3"/>
	</g>
	<g id="g3300">
		<path id="path2209" class="st2" d="M967.56,4l207.58,1.04v311.9c-8.59,101.09-96.79,196.18-207.58,192.98V4z"/>
		<g id="g3233">
			<g id="g2640" transform="translate(750.1832,0.000000)">
				<path id="path2594" class="st6" d="M303.45,254.62c1.54-21.87-10.61-35.92-19.27-51.96c-16.32-30.21-2.86-53.06,11.48-61.89
					c8.65-7.36,9.79-18.79-3.31-22.77l-66.17-17.71h52.35c2.77-3.06,6.7-5.39,12.07-5.33c1.06,5.54,4.72,11,13.04,14.48
					c13.15,2.93,21.06,20.26,7.01,36.98c-12.59,11.47-20.82,24.26-11.29,42.43c4.61,5.46,9.21,3.97,13.82-0.39
					c16.34-15.41,23.04-12.83,38.14-2.72c10.76,5.95,20.21,14.81,28.32,25.38c25.62,23.85,42.16,103.45,34.15,127.2
					c-0.71-0.99-1.59-1.76-1.51-3.74c3.49-25.96-7.4-46.89-14.9-69.01c7.92,22.7,16.75,45.27,13.36,69.67
					c-1.78,3.99-2.95,4.97-4.16,6.13c-7.58-20.47-16.77-39.18-37.68-48.64c-14.09-8.33-27.79-16.99-39-29.36l-3.51,7.89l-2.63-15.99
					c0.3,7.21-0.74,13.52-3.94,18.4c1.63-6.65,0.3-13.29-1.53-19.94c-0.78,6.29-3.44,9.45-5.92,12.93
					c1.83-5.42,1.81-11.31,1.31-17.31c-1.15,3.67-2.59,6.97-5.48,8.33c2.43-6.28,0.63-12.56-1.53-18.84L303.45,254.62z"/>
				<path id="path2596" class="st7" d="M290.26,94.66c14.86-1.89,20.9,6.66,26.95,15.12c3.99,7.08,8.57,16.46,17.75,18.4
					c-4.09,2.61-7.41-0.13-10.95-1.31l8.98,7.23c-5.14-0.7-10.32-1.08-14.9-7.45c-0.55-8.83-6.05-13.93-13.58-17.53
					C295.82,106.92,291.95,101.52,290.26,94.66z"/>
				<path id="path2604" class="st7" d="M400.18,273.73l-3.38-8.14c-0.53,1.85-0.39,2.52,0.92,8.05c-7.93-2.46-9.42-9.51-13.22-14.91
					c1.07,4.05,2.2,8.12,5.5,12.49c-8.66-1.66-9.71-7.87-13.77-14.13c0.98,3.1,0.74,5.58,2.93,8.68
					c-9.01-3.19-10.82-9.46-13.22-15.48c-0.75,4.33,1.44,6.98,2.8,10.11c-7.47,1.37-8.01-7.67-10.68-13.49
					c-0.65,2.32,0.3,5.92,1.24,9.51c-6.67-3.38-7.33-8.47-9.12-14.29c-0.48,2.72-0.61,5.6,0.84,9.29
					c-7.09-2.47-9.08-10.05-11.82-16.88c-0.2,3.18,0.27,5.44,1.44,10.71c-11.99-10.43-16.03-22.49-14.38-38.57
					c2.2-10.5,8.96-13.3,20.54-9.29c-4.91-3.88-14.93-11.61-24.27-3.45c-6.75,9.5-4.13,17.45-2.18,25.4l-7.77-4.31l11.63,8.02
					c1.4,2.2,0.96,3.17,0.56,4.17l-5.12-3.9l9.02,7.8c0.05,1.81-0.06,3.3-1.22,2.68l-7.07-5.61l10,9.75
					c0.99,2.15-0.25,2.28-1.46,2.44l-4.39-3.41c2.33,5.08,8.42,8.97,11.22,13.66c0.64,1.45,0.01,1.96-0.98,2.19
					c-1.71-2.51-3.41-3.49-5.12-4.39l6.58,10c0.47,3.06-0.74,3.8-2.93,3.17c-2.73-5.67-10.86-16.94-11.46-15.61
					c3.24,4.44,6.35,9,6.58,15.85c-0.89,1.18-2.25,0.63-3.14,0l1.25,8.32l3.31-7.07c4.67,4.64,9.55,9.14,14.84,13.38
					c3.16,2.4,4.43,2.74,7.61,5.15l18.04,11.24c18.23,8.14,29.71,27.26,36.47,47.31c1.2-1.19,2.26-2.6,3.05-4.42
					c-0.77,0.3,3.01,0.36,2.53-0.79c2.46-19.71-1.03-30.1-5.77-43.42C406.61,291.52,400.71,276.4,400.18,273.73z"/>
				<path id="path2606" class="st8" d="M301.38,139.95c-2.52,3.88-7.15,5.49-10.82,10.01"/>
				<path id="path2608" class="st8" d="M285.85,149.83c-0.02,3.61,0.62,6.57,1.8,8.98"/>
				<path id="path2610" class="st8" d="M281.8,155.9c0.91,3.51,1.95,6.96,4.04,9.88"/>
				<path id="path2612" class="st8" d="M279.33,162.19c0.43,3.97,2.82,7.94,5.62,11.9"/>
				<path id="path2614" class="st5" d="M276.86,169.82C276.94,169.82,277.01,169.82,276.86,169.82z"/>
				<path id="path2616" class="st8" d="M277.54,172.29c2.01,5.93,4.38,11.49,8.76,15.05"/>
				<path id="path2618" class="st8" d="M282.48,189.37c2.34,4.67,5.25,9.1,10.56,12.58"/>
				<path id="path2620" class="st8" d="M291.24,205.99c2.6,4.09,5.64,7.29,9.43,8.98"/>
				<path id="path2622" class="st8" d="M298.2,219.01c2.92,4.13,5.21,9.5,9.21,11.46"/>
				<path id="path2624" class="st6" d="M335.94,244.39c0.21,5.28,2.65,9.77,7.45,12.6c1.83-1.02-1.14-7.52-0.2-9.75
					C340.5,247.99,338.36,245.43,335.94,244.39z"/>
				<path id="path2626" class="st6" d="M345.07,249.34c-0.31,8.51,2.36,14.51,7.86,18.13c2.24-1.93-3.33-11.7-0.69-14.92
					C349.18,252.37,347.26,250.67,345.07,249.34z"/>
				<path id="path2628" class="st6" d="M352.64,253.16c0.77,7.02,2.31,16.28,6.55,17.04c1.16-3.17-1.95-11.93,0.29-12.67
					C356.07,257.21,354.62,254.92,352.64,253.16z"/>
				<path id="path2630" class="st6" d="M360.22,258.25l5.97,4.22c-3.49,0.15,2.08,9.17,1.02,13.69
					C360.28,274.5,360.98,265.19,360.22,258.25z"/>
				<path id="path2632" class="st6" d="M366.77,262.19c2.46-1.6,4.63-0.02,6.7,2.62c-3.91,4.1,4.86,15.54,4.22,18.35
					C370.74,283.2,364.74,265.66,366.77,262.19z"/>
				<path id="path2634" class="st6" d="M374.2,265.39c-0.95,9.1,5.98,20.64,15,24.76c1.99-1.78-10.27-12.72-8.16-23.3
					C379.38,266.98,378.76,268.16,374.2,265.39z"/>
				<path id="path2636" class="st6" d="M382.21,268.74c3.16,3.07,6.31,3.35,9.47,3.79c-1.84,3.47,7.41,17.34,6.55,20.54
					C387.11,286.41,383.25,278.49,382.21,268.74z"/>
				<path id="path2638" class="st6" d="M392.69,272.67c2.2,0.87,4.56,2.73,6.41,1.46l7.28,21.12c-6.21,2.46-11.24-14.31-14.42-22.28
					"/>
				<path id="path2592" class="st9" d="M226.79,100.62h52.13c5.08,1.92,3.84,9.47,8.31,12.84
					C264.69,109.62,243.65,105.5,226.79,100.62z"/>
				<path id="path2598" class="st10" d="M258.27,104.08l15.55-0.22"/>
				<path id="path2600" class="st11" d="M290.6,105.95c0,1.31-1.17,2.37-2.61,2.37c-1.44,0-2.61-1.06-2.61-2.37s1.17-2.37,2.61-2.37
					C289.44,103.58,290.6,104.64,290.6,105.95z"/>
				<path id="path2602" class="st4" d="M288.51,105.84c0,0.48-0.39,0.88-0.88,0.88s-0.88-0.39-0.88-0.88s0.39-0.88,0.88-0.88
					S288.51,105.35,288.51,105.84L288.51,105.84z"/>
			</g>
			<path id="path3231" class="st6" d="M1146.05,294.31c2.46-1.51,7.38,5.06,11.13,2.27c1.37,3.16,2.18,7.35,3.11,10.81
				c1.59,8.38,2.67,14.75,1.01,26.48l-2.85,6.03C1160.01,318.45,1153.76,305.58,1146.05,294.31z"/>
		</g>
		<g id="g3281" transform="translate(755.0933,0.000000)">
			<path id="path3261" class="st12" d="M336.72,271.87l9.91,7c-10.08,4.12,1.51,18.88-7.87,22.16c1.61-0.27,3.17-0.9,4.37-4.37
				c0.03,4.81-2.2,10.42-4.96,11.08c3.7-1.24,3.23-2.91,4.37-4.66c-5.02,15.35-6.71,30.22-9.04,45.19c0.44,4.31-3,9.39,3.74,11.11
				c6.35,0.99,12.25-3.55,14.34-0.32l-0.58,4.37c-1.69,1.35-3.28,0.11-7.62-0.18c-4.64-0.31-10.37-0.45-12.5-1.86
				c-5.76,0.5-13.74,8.64-22.45,8.16c-2.16,0.8-3.28,1.54-5.85,1.12l-1.24-3.87c3.23-1.23,5.64,0.59,8.41,0.1
				c3.21-0.57,6.5-2.06,10.05-3.48c-23.54,1.86-21.89-0.09-27.78,1.3c-2.72,1.26-5.27,1.46-7.58,0.29l-0.93-3.82
				c3.68-1.68,7.77-2.08,12.67-0.1c3.39,1.58,11.22,0.06,16.95-0.31c-2.08-2.23-6.87-3.15-12.58-3.77l-3.21,0.29l0.29-4.08
				c3.57-0.22,7.32,0.33,11.66,3.21c5.45,1.08,14.94,4.42,17.78-2.62c2.89-13.82,6.48-26.95,6.41-43.73
				c-0.74-5.35-1.2-8.56,1.46-14.21C339.07,289.87,336.19,279.27,336.72,271.87z"/>
			<path id="path3263" class="st13" d="M297.62,353.57c-1.07-1.54-8.8,0.69-8.71,2.93c2.77-1.36,5.74-0.52,8.71,0.4V353.57z"/>
			<path id="path3265" class="st13" d="M283.68,361.49l0.63,3.56c-4.31-0.68-6.68,0.43-8.47,2.06
				C277.48,364.59,278.41,361.6,283.68,361.49z"/>
			<path id="path3267" class="st13" d="M301.42,367.04c-4.61,1.16-5.85,3.56-6.49,6.18c2-2.15,4.55-3.1,7.6-2.93L301.42,367.04z"/>
			<path id="path3269" class="st13" d="M352.15,359.51c4.74,0.29,6.41,2.42,7.52,4.88c-2.36-1.75-5.04-2.21-8.01-1.48L352.15,359.51
				z"/>
		</g>
		<g id="g3288" transform="matrix(0.990952,-0.134212,0.134212,0.990952,705.1874,101.0856)">
			<path id="path3290" class="st14" d="M364.47,214.38l11.59,8.76c-7.98,5.55-0.63,34.69-10.01,37.97c1.61-0.27,3.17-0.9,4.37-4.37
				c0.03,4.81-2.2,10.42-4.96,11.08c3.7-1.24,3.23-2.91,4.37-4.66c-5.02,15.35-7.17,33.63-9.5,48.59c0.44,4.31-3,9.39,3.74,11.11
				c6.35,0.99,12.25-3.55,14.34-0.32l-0.58,4.37c-1.69,1.35-3.28,0.11-7.62-0.18c-4.64-0.31-10.37-0.45-12.5-1.86
				c-5.76,0.5-12.93,7.16-22.08,9.07c-2.16,0.8-2.84,2.82-5.41,2.4l-1.24-3.87c3.23-1.23,5.54,0.23,7.97-1.18
				c2.61-1.5,6.14-2.97,9.69-4.39c-23.54,1.86-21.89-0.09-27.78,1.3c-2.72,1.26-5.27,1.46-7.58,0.29l-0.93-3.82
				c3.68-1.68,7.77-2.08,12.67-0.1c3.39,1.58,11.22,0.06,16.95-0.31c-2.08-2.23-6.87-3.15-12.58-3.77l-3.21,0.29l0.29-4.08
				c3.57-0.22,7.32,0.33,11.66,3.21c5.45,1.08,14.94,4.42,17.78-2.62c2.89-13.82,6.94-30.36,6.87-47.13
				c-0.74-5.34-1.2-8.56,1.46-14.21C366.55,248.45,366.15,222.47,364.47,214.38z"/>
			<path id="path3292" class="st15" d="M324.44,317.06c-1.07-1.54-8.8,0.69-8.71,2.93c2.77-1.36,5.74-0.52,8.71,0.4V317.06z"/>
			<path id="path3294" class="st15" d="M310.5,324.98l0.63,3.56c-4.31-0.68-6.68,0.43-8.47,2.06
				C304.3,328.08,305.24,325.08,310.5,324.98z"/>
			<path id="path3296" class="st15" d="M328.67,332.78c-4.61,1.16-5.85,3.56-6.49,6.18c2-2.15,4.55-3.1,7.6-2.93L328.67,332.78z"/>
			<path id="path3298" class="st15" d="M378.97,322.99c4.74,0.29,6.41,2.42,7.52,4.88c-2.36-1.75-5.04-2.21-8.01-1.48L378.97,322.99
				z"/>
		</g>
	</g>
</g>
<g>
	<path d="M532.26,190.81V50.63h26.03v140.18H532.26z M555.29,157.77l-1.2-30.84l73.3-76.3h29.44l-61.08,64.88l-14.42,15.82
		L555.29,157.77z M629.99,190.81l-53.87-63.88l17.42-19.02l67.09,82.91L629.99,190.81L629.99,190.81z"/>
	<path d="M674.05,190.81V83.87h23.83v29.44l-2.8-8.61c3.07-7.21,8.08-12.72,15.02-16.52s15.42-5.71,25.43-5.71v23.83
		c-0.94-0.13-1.87-0.23-2.8-0.3c-0.94-0.07-1.8-0.1-2.6-0.1c-9.61,0-17.22,2.74-22.83,8.21c-5.61,5.48-8.41,13.82-8.41,25.03v51.67
		L674.05,190.81L674.05,190.81z"/>
	<path d="M803.22,192.22c-9.08,0-17.09-1.7-24.03-5.11c-6.94-3.4-12.38-8.61-16.32-15.62s-5.91-15.85-5.91-26.54V83.87h25.23v57.88
		c0,9.48,2.2,16.59,6.61,21.33s10.54,7.11,18.42,7.11c5.87,0,11.01-1.2,15.42-3.61c4.41-2.4,7.81-6.01,10.21-10.81
		c2.4-4.81,3.6-10.75,3.6-17.82V83.88h25.03v106.94h-23.83v-29.04l4.21,9.01c-3.6,6.81-8.88,12.08-15.82,15.82
		C819.1,190.35,811.49,192.22,803.22,192.22z"/>
	<path d="M927.58,192.22c-9.08,0-17.69-1.17-25.83-3.5s-14.69-5.17-19.63-8.51l9.61-19.02c4.81,3.07,10.54,5.58,17.22,7.51
		c6.67,1.94,13.42,2.9,20.23,2.9c7.74,0,13.38-1.03,16.92-3.1s5.31-4.91,5.31-8.51c0-2.93-1.2-5.17-3.6-6.71
		c-2.4-1.53-5.54-2.7-9.41-3.5s-8.18-1.53-12.92-2.2s-9.48-1.57-14.22-2.7c-4.74-1.13-9.05-2.8-12.92-5.01
		c-3.87-2.2-7.01-5.17-9.41-8.91c-2.4-3.74-3.6-8.74-3.6-15.02c0-6.67,1.93-12.52,5.81-17.52c3.87-5.01,9.31-8.91,16.32-11.72
		c7.01-2.8,15.32-4.21,24.93-4.21c7.08,0,14.32,0.83,21.73,2.5s13.58,3.97,18.52,6.91l-9.81,19.03c-4.94-2.94-10.01-4.97-15.22-6.11
		c-5.21-1.13-10.35-1.7-15.42-1.7c-7.48,0-13.09,1.1-16.82,3.3c-3.74,2.2-5.61,5.04-5.61,8.51c0,3.2,1.2,5.61,3.6,7.21
		c2.4,1.6,5.54,2.84,9.41,3.71c3.87,0.87,8.18,1.67,12.92,2.4c4.74,0.74,9.44,1.67,14.12,2.8c4.67,1.14,8.98,2.74,12.92,4.81
		c3.94,2.07,7.11,4.98,9.51,8.71c2.4,3.74,3.61,8.61,3.61,14.62c0,6.81-1.97,12.65-5.91,17.52c-3.94,4.88-9.48,8.68-16.62,11.42
		C946.17,190.85,937.59,192.22,927.58,192.22z"/>
	<path d="M988.66,190.81v-15.82l65.89-79.71l4.81,8.61h-69.49V83.86h89.32v15.82l-65.89,79.71l-5.01-8.61h72.7v20.03L988.66,190.81
		L988.66,190.81z"/>
	<path d="M1111.02,231.07c-5.34,0-10.61-0.87-15.82-2.6c-5.21-1.74-9.48-4.14-12.82-7.21l9.81-18.22c2.54,2.13,5.37,3.87,8.51,5.21
		c3.13,1.33,6.44,2,9.91,2c4.54,0,8.21-1.14,11.01-3.4c2.8-2.27,5.41-6.14,7.81-11.62l6.01-13.62l2.4-3.2l40.25-94.53h24.03
		l-50.07,115.75c-3.34,7.88-7.04,14.12-11.11,18.72c-4.07,4.61-8.61,7.88-13.62,9.81C1122.34,230.1,1116.9,231.07,1111.02,231.07z
		 M1132.85,194.62l-48.26-110.75h25.83l39.45,92.32L1132.85,194.62z"/>
	<path d="M1278.44,82.47c8.68,0,16.32,1.67,22.93,5.01c6.61,3.34,11.88,8.48,15.82,15.42s5.91,15.82,5.91,26.63v61.28h-25.03v-58.08
		c0-9.48-2.2-16.55-6.61-21.23c-4.41-4.67-10.68-7.01-18.83-7.01c-5.88,0-11.08,1.2-15.62,3.6c-4.54,2.4-8.04,5.98-10.51,10.71
		c-2.47,4.74-3.7,10.71-3.7,17.92v54.07h-24.83V83.87h23.83v29.04l-4.21-9.01c3.6-6.81,8.98-12.08,16.12-15.82
		C1260.85,84.34,1269.1,82.47,1278.44,82.47z"/>
	<path d="M532.26,431.13V290.95h26.03v140.18H532.26z M555.29,398.09l-1.2-30.84l73.3-76.3h29.44l-61.08,64.88l-14.42,15.82
		L555.29,398.09z M629.99,431.13l-53.87-63.88l17.42-19.02l67.09,82.91h-30.64V431.13z"/>
	<path d="M674.05,431.13V324.19h23.83v29.44l-2.8-8.61c3.07-7.21,8.08-12.72,15.02-16.52s15.42-5.71,25.43-5.71v23.83
		c-0.94-0.13-1.87-0.23-2.8-0.3c-0.94-0.07-1.8-0.1-2.6-0.1c-9.61,0-17.22,2.74-22.83,8.21c-5.61,5.48-8.41,13.82-8.41,25.03v51.67
		H674.05z"/>
	<path d="M781.59,432.53c-8.01,0-15.02-1.37-21.03-4.1c-6.01-2.74-10.65-6.54-13.92-11.42c-3.27-4.87-4.91-10.38-4.91-16.52
		c0-6.01,1.43-11.42,4.31-16.22c2.87-4.81,7.58-8.61,14.12-11.42c6.54-2.8,15.22-4.21,26.03-4.21h31.04v16.62H788
		c-8.41,0-14.12,1.37-17.12,4.11s-4.51,6.18-4.51,10.31c0,4.41,1.8,7.94,5.41,10.61c3.6,2.67,8.61,4,15.02,4
		c6.14,0,11.65-1.4,16.52-4.21c4.87-2.8,8.44-6.94,10.71-12.42l4,15.02c-2.4,6.28-6.68,11.15-12.82,14.62
		C799.08,430.8,791.2,432.53,781.59,432.53z M815.23,431.13V409.3l-1.2-4.41v-37.85c0-7.34-2.24-13.05-6.71-17.12
		c-4.47-4.07-11.25-6.11-20.33-6.11c-5.88,0-11.68,0.94-17.42,2.8c-5.74,1.87-10.68,4.47-14.82,7.81l-9.81-18.22
		c5.87-4.41,12.75-7.74,20.63-10.01c7.88-2.27,16.09-3.4,24.63-3.4c15.62,0,27.64,3.74,36.05,11.21
		c8.41,7.48,12.62,18.96,12.62,34.45v62.68L815.23,431.13L815.23,431.13z"/>
	<path d="M859.69,471.38c-4.54,0-8.91-0.54-13.12-1.6c-4.21-1.07-7.78-2.6-10.71-4.61l7.21-18.62c3.87,2.8,8.75,4.21,14.62,4.21
		c4.54,0,8.08-1.44,10.61-4.31c2.53-2.87,3.8-7.11,3.8-12.72V324.19h25.03v108.94c0,11.75-3.24,21.06-9.71,27.94
		C880.95,467.95,871.71,471.38,859.69,471.38z M884.52,306.57c-4.68,0-8.51-1.47-11.52-4.41c-3-2.94-4.51-6.54-4.51-10.81
		c0-4.01,1.5-7.48,4.51-10.41c3-2.94,6.84-4.41,11.52-4.41c4.67,0,8.51,1.37,11.51,4.1c3,2.74,4.51,6.24,4.51,10.51
		c0,4.27-1.47,7.91-4.41,10.91C893.2,305.07,889.33,306.57,884.52,306.57z"/>
	<path d="M980.25,432.53c-11.88,0-22.26-2.37-31.14-7.11s-15.75-11.21-20.63-19.42c-4.88-8.21-7.31-17.66-7.31-28.34
		s2.37-20.13,7.11-28.34s11.28-14.69,19.63-19.43c8.34-4.74,17.85-7.11,28.54-7.11c10.41,0,19.69,2.3,27.84,6.91
		c8.14,4.61,14.55,11.05,19.23,19.33c4.67,8.28,7.01,18.09,7.01,29.44c0,0.94-0.03,2.1-0.1,3.5s-0.17,2.64-0.3,3.71H941v-16.62h75.9
		l-10.01,5.21c0.13-6.01-1.1-11.38-3.71-16.12c-2.6-4.74-6.18-8.41-10.71-11.01c-4.54-2.6-9.88-3.91-16.02-3.91
		c-6.01,0-11.38,1.3-16.12,3.91c-4.74,2.6-8.38,6.31-10.91,11.11c-2.54,4.81-3.81,10.35-3.81,16.62v4.01
		c0,6.41,1.43,12.08,4.31,17.02c2.87,4.94,6.98,8.78,12.32,11.51c5.34,2.74,11.55,4.11,18.62,4.11c6.01,0,11.42-1,16.22-3
		c4.81-2,9.08-4.94,12.82-8.81l13.62,15.62c-4.94,5.61-11.05,9.88-18.32,12.82C997.9,431.07,989.59,432.53,980.25,432.53z"/>
	<path d="M1115.23,322.79c8.68,0,16.32,1.67,22.93,5.01c6.61,3.34,11.88,8.48,15.82,15.42s5.91,15.82,5.91,26.63v61.28h-25.03
		v-58.08c0-9.48-2.2-16.55-6.61-21.23c-4.41-4.67-10.68-7.01-18.83-7.01c-5.88,0-11.08,1.2-15.62,3.6s-8.04,5.98-10.51,10.71
		c-2.47,4.74-3.7,10.71-3.7,17.92v54.07h-24.83V324.19h23.83v29.04l-4.21-9.01c3.6-6.81,8.98-12.08,16.12-15.82
		C1097.63,324.66,1105.88,322.79,1115.23,322.79z M1090.59,309.57l27.04-27.44h29.64l-35.05,27.44H1090.59z"/>
	<path d="M1224.97,432.53c-9.08,0-17.69-1.17-25.83-3.5s-14.69-5.17-19.63-8.51l9.61-19.02c4.81,3.07,10.54,5.58,17.22,7.51
		c6.67,1.94,13.42,2.9,20.23,2.9c7.74,0,13.38-1.03,16.92-3.1s5.31-4.91,5.31-8.51c0-2.93-1.2-5.17-3.6-6.71
		c-2.4-1.53-5.54-2.7-9.41-3.5s-8.18-1.53-12.92-2.2s-9.48-1.57-14.22-2.7s-9.05-2.8-12.92-5.01c-3.87-2.2-7.01-5.17-9.41-8.91
		s-3.6-8.74-3.6-15.02c0-6.67,1.93-12.52,5.81-17.52c3.87-5.01,9.31-8.91,16.32-11.72c7.01-2.8,15.32-4.21,24.93-4.21
		c7.08,0,14.32,0.83,21.73,2.5s13.58,3.97,18.52,6.91l-9.81,19.03c-4.94-2.94-10.01-4.97-15.22-6.11c-5.21-1.13-10.35-1.7-15.42-1.7
		c-7.48,0-13.09,1.1-16.82,3.3c-3.74,2.2-5.61,5.04-5.61,8.51c0,3.2,1.2,5.61,3.6,7.21s5.54,2.84,9.41,3.71s8.18,1.67,12.92,2.4
		c4.74,0.74,9.44,1.67,14.12,2.8c4.67,1.14,8.98,2.74,12.92,4.81c3.94,2.07,7.11,4.98,9.51,8.71c2.4,3.74,3.61,8.61,3.61,14.62
		c0,6.81-1.97,12.65-5.91,17.52c-3.94,4.88-9.48,8.68-16.62,11.42C1243.56,431.16,1234.98,432.53,1224.97,432.53z"/>
	<path d="M1295.06,431.13v-148.6h24.83v148.6H1295.06z M1315.29,407.3l0.6-31.44l55.87-51.67h30.04l-47.46,47.46l-13.42,11.21
		L1315.29,407.3z M1375.77,431.13l-39.45-48.26l15.82-20.03l53.87,68.29H1375.77z"/>
	<path d="M1434.84,306.57c-4.67,0-8.51-1.47-11.51-4.41s-4.51-6.54-4.51-10.81c0-4.01,1.5-7.48,4.51-10.41
		c3-2.94,6.84-4.41,11.51-4.41s8.51,1.37,11.52,4.1c3,2.74,4.51,6.24,4.51,10.51c0,4.27-1.47,7.91-4.41,10.91
		C1443.52,305.07,1439.65,306.57,1434.84,306.57z M1422.43,431.13V324.19h24.83v106.94H1422.43z"/>
</g>
</svg>
